<svg width="111" height="72" fill="none" xmlns="http://www.w3.org/2000/svg"><path d="M111 29.608C111 11.103 96.102 0 71.217 0 56.319 0 50.425 5.047 45.186 9.42c-2.947 2.524-5.566 4.71-9.823 6.057-4.584 1.514-9.332 1.85-13.916 2.355-9.004.84-17.682 1.682-20.628 10.766-.655 2.019-.819 3.87-.655 5.888L0 46.598c0 3.701 1.637 7.234 4.748 10.43C13.425 65.944 33.889 72 55.828 72 88.407 72 111 60.056 111 43.065l-.164-11.775c.164-.337.164-1.01.164-1.682zM55.827 53.495c-21.938 0-43.057-6.56-49.115-15.308-1.8-2.523-2.128-5.047-1.31-7.738 1.965-5.72 7.204-6.561 16.536-7.402 4.584-.505 9.823-1.01 14.898-2.524 5.24-1.682 8.35-4.373 11.46-7.065 4.912-4.206 9.66-8.243 22.757-8.243 22.266 0 34.872 8.916 34.872 24.56.163 13.627-20.956 23.72-50.098 23.72zm15.39-42.392c-11.133 0-14.407 2.86-19.155 6.897-3.274 2.692-7.204 6.224-13.589 8.243-5.73 1.85-11.296 2.355-16.044 2.86-8.677.84-10.969 1.514-11.46 3.364-.164.505-.327 1.01.491 2.355 4.257 6.225 22.43 12.785 44.367 12.785 27.505 0 44.531-9.252 44.531-17.831 0-16.318-18.336-18.673-29.141-18.673zm8.677 20.187c-3.93 0-7.204-2.692-7.204-5.888 0-3.196 3.275-5.888 7.204-5.888s7.203 2.692 7.203 5.888c0 3.196-3.274 5.888-7.203 5.888z" fill="#C94044"/></svg>