<svg width="66" height="90" fill="none" xmlns="http://www.w3.org/2000/svg"><path d="M65.03 59.735c-.2-7.77-6.7-14.066-14.703-14.066h-8.602c-7.901 0-14.403 6.197-14.703 14.066l-.8 25.574c0 2.262 1.9 4.23 4.3 4.23H61.53c2.3 0 4.3-1.87 4.3-4.23l-.8-25.574zM51.628 40.063H40.525v4.13h11.103v-4.13zm-.1-2.951c0-.787-.6-1.377-1.4-1.377h-8.203c-.8 0-1.4.59-1.4 1.377v1.77h11.103v-1.77h-.1zM61.43 6.521c.7-3.54-3.901-5.41-7.602-1.672 0 0 2.2 2.164 2.6 5.213.1.099 4.602-1.278 5.002-3.54zM6.918 39.079s1.2-6 4-8.656c1.701-1.574 10.103-5.115 17.804-8.164 1-.393 2.001-.787 2.901-1.18 3.1-1.279 5.802-2.36 7.802-3.148 1.7-.688 2.4-2.656 1.4-4.131v-.098c-.6-.886-1.5-1.377-2.5-1.377-.4 0-.9.098-1.3.295-1.901.885-5.102 2.36-8.502 3.934h-.1c-7.002 3.246-15.504 7.18-18.605 8.853-6.901 3.442-5.9 13.672-5.9 13.672h3zm.1 5.705c-.3-.295-.9-1.279-1.1-1.574l-.2-.295c-.1-.197-.4-.197-.5 0l-.1.295c-.2.394-.8 1.279-1.1 1.574C1.716 46.85.115 48.325.115 51.374c0 4.23 3.3 7.082 7.002 6 2.3-.688 3.9-3.147 3.9-6.098-.1-2.853-1.5-4.131-4-6.492z" fill="#FF842A"/><path d="M29.623 14.095c-.1-3.246 1.1-5.803 3.4-6.689 3.401-1.377 8.002 1.87 10.203 7.18 2.2 5.312 1.2 10.722-2.2 12.1-2.701 1.081-6.002-.69-8.403-4.033-.9.393-1.9.787-3 1.18 3.3 5.115 8.602 7.869 12.803 6.197a7.87 7.87 0 001.8-1.082l9.402-7.377c1.9-1.476 3-3.738 3-6.197-.1-6.886-3.9-10.918-6.9-13.082-1.901-1.279-4.202-1.77-6.502-1.18l-9.602 2.36c-.6.098-1.3.197-1.9.492-3.802 1.574-5.702 6.197-5.102 11.508.9-.492 2-.983 3-1.377z" fill="#FF842A"/></svg>