<svg width="36" height="91" fill="none" xmlns="http://www.w3.org/2000/svg"><path d="M28.809 41.961c-4.068-1.916-4.882-10.495-4.792-14.784 2.35-.274 4.25-2.282 4.25-4.746v-1.825c0-.639-.543-1.095-1.085-1.095h-6.148V1.258c0-.456-.27-.912-.723-1.095-.452-.182-.904-.091-1.265.274L15.43 4.179l-.09.09c-.091.092-.091.183-.182.275 0 .09-.09.182-.09.273V19.42H9.011c-.632 0-1.084.548-1.084 1.096v1.825a4.738 4.738 0 004.248 4.745c.09 4.198-.723 12.868-4.79 14.785C.332 45.155.694 55.103.784 55.468v30.117c0 2.646 2.17 4.745 4.791 4.745h25.312c2.621 0 4.7-2.19 4.7-4.745V55.468c-.09-.639.181-10.221-6.78-13.507zM18.05 79.835c-3.073 0-5.604-2.555-5.604-5.658 0-.639.09-1.278.361-1.917l4.249-11.499c.18-.456.542-.73 1.085-.73.542 0 .904.274 1.084.73l4.25 11.5c.27.638.36 1.277.36 1.916-.09 3.103-2.711 5.658-5.785 5.658zM3.407 50.905c.632-2.555 1.898-5.476 4.881-6.845 5.695-2.646 6.147-13.142 6.147-16.792h7.413c0 3.56.452 14.054 6.147 16.792 2.893 1.37 4.249 4.29 4.791 6.845H3.406z" fill="#6E9E48"/></svg>