<svg width="102" height="93" fill="none" xmlns="http://www.w3.org/2000/svg"><path d="M74.7 50.64l-.027-.05c-3.587 2.293-11.667 7.168-17.237 8.353a22.977 22.977 0 01-4.807.504c-6.142 0-11.805-2.328-16.637-4.506-.307-.14-.906-.394-1.734-.748-12.838-5.477-21.286-9.685-26.844-13.01.204 8.72.473 30.011 5.66 34.675 4.714 4.237 33.13 18.446 42.123 17.045 8.955-1.395 39.065-18.242 40.629-29.151.518-5.151.398-18.558.163-26.655-5.077 3.76-12.197 8.182-21.288 13.543zM14.573 73.907a1.049 1.049 0 01-1.222-.83c-1.704-9.082-2.433-16.563-2.433-25a1.047 1.047 0 012.095 0c0 8.302.717 15.666 2.398 24.618a1.044 1.044 0 01-.838 1.212zm5.699 3.38a1.1 1.1 0 01-.42.086c-.385 0-.75-.212-.923-.587-.794-1.72-2.422-20.933-2.591-25.854a1.04 1.04 0 011.006-1.078c.558-.034 1.06.428 1.081 1.003.226 6.544 1.872 23.654 2.41 25.076.202.525-.045 1.139-.563 1.354zm4.699 2.136a1.05 1.05 0 01-1.178-.892c-.382-2.836-2.412-19.539-2.192-25.205.023-.574.553-1.028 1.085-1a1.043 1.043 0 011.004 1.08c-.197 5.15 1.64 20.862 2.177 24.848a1.04 1.04 0 01-.896 1.169zm4.533 2.756l-.07.001a1.044 1.044 0 01-1.04-.979c-.241-3.824-1.219-20.372-1.219-25.422 0-.571.466-1.04 1.046-1.04.579 0 1.045.467 1.045 1.04 0 5.022 1.017 22.133 1.218 25.294a1.048 1.048 0 01-.98 1.106zm5.37 1.654a1.042 1.042 0 01-1.045-1.04c0-2.578-1.408-21.78-1.88-24.677a1.048 1.048 0 012.068-.33c.475 2.94 1.903 22.398 1.903 25.008 0 .575-.468 1.04-1.046 1.04zm4.937 2.607a1.042 1.042 0 01-1.046-1.039c0-2.988-.952-21.593-1.545-24.617a1.038 1.038 0 01.827-1.22 1.047 1.047 0 011.228.822c.663 3.389 1.581 22.466 1.581 25.016 0 .573-.468 1.038-1.045 1.038zm4.933 2.403a.912.912 0 01-.133.012c-.52 0-.972-.388-1.036-.913-.316-2.49-1.116-22.147-.952-25.316a1.033 1.033 0 011.096-.986 1.04 1.04 0 01.994 1.092c-.152 2.99.639 22.593.939 24.953a1.045 1.045 0 01-.908 1.158zm5.016.698a1.043 1.043 0 01-1.047-1.04c0-2.074-.326-8.755-.613-14.652-.24-4.927-.448-9.188-.448-10.324 0-.572.467-1.04 1.05-1.04.576 0 1.043.467 1.043 1.04 0 1.087.215 5.522.443 10.222.29 5.924.62 12.63.62 14.754 0 .576-.473 1.04-1.048 1.04z" fill="#A96C4D"/><path d="M101.613 25.269c-.617-.612-1.673-1.376-3.098-2.256-1.369 2.862-3.45 6.177-6.242 9.935-.044.06-.085.115-.127.176a106.492 106.492 0 01-5.16 6.367c3.22-2.078 6.325-4.21 8.865-6.207 3.485-2.735 5.915-5.217 6.136-6.972.053-.422-.053-.72-.374-1.043zM37.29 52.098c4.884 2.203 10.002 4.226 15.339 4.226 1.374 0 2.756-.133 4.155-.431 5.908-1.26 15.43-7.406 17.518-8.786l.422-.283c3.725-2.566 8.924-7.92 13.405-13.615 3.186-4.054 6.003-8.273 7.66-11.784.236-.494.44-.974.625-1.438a16.8 16.8 0 00.528-1.495c.832-2.791.465-4.748-1.746-5.147-2.44-.439-7.954-.704-11.971-1.49a20.641 20.641 0 01-2.087-.513c-.39-.121-.755-.248-1.073-.387C67.4 5.44 56.265 0 50.605 0c-.471 0-.912.037-1.306.116C41.275 1.74 11.322 18.93.705 28.646c-2.419 2.212 1.674 5.86 7.905 9.631 10.323 6.249 26.5 12.836 28.68 13.82z" fill="#A96C4D"/></svg>