<svg width="81" height="75" fill="none" xmlns="http://www.w3.org/2000/svg"><path d="M59.144 41.083l-.022-.04c-2.84 1.816-9.237 5.676-13.648 6.614-1.232.264-2.512.4-3.805.4-4.863 0-9.347-1.844-13.173-3.568-.243-.112-.717-.313-1.373-.593C16.96 39.56 10.27 36.228 5.87 33.596c.162 6.903.374 23.76 4.48 27.453 3.733 3.355 26.232 14.605 33.352 13.496C50.791 73.44 74.63 60.1 75.868 51.464c.41-4.078.316-14.693.13-21.103-4.02 2.977-9.657 6.478-16.855 10.722zM11.537 59.505a.83.83 0 01-.968-.657C9.22 51.656 8.644 45.734 8.644 39.053a.829.829 0 011.658 0c0 6.574.568 12.404 1.898 19.492a.826.826 0 01-.663.96zm4.512 2.676a.873.873 0 01-.332.068.798.798 0 01-.73-.465c-.63-1.362-1.919-16.574-2.052-20.47a.823.823 0 01.797-.853c.44-.027.839.338.855.794.179 5.181 1.482 18.728 1.909 19.853a.842.842 0 01-.447 1.073zm3.72 1.69a.832.832 0 01-.933-.706c-.301-2.245-1.909-15.47-1.735-19.956a.846.846 0 01.86-.79.826.826 0 01.795.854c-.156 4.078 1.298 16.517 1.723 19.673a.823.823 0 01-.71.926zm3.59 2.182l-.055.002a.827.827 0 01-.824-.775c-.19-3.028-.965-16.13-.965-20.128 0-.453.369-.824.828-.824.458 0 .827.37.827.824 0 3.976.805 17.523.965 20.026a.83.83 0 01-.776.876zm4.252 1.31a.825.825 0 01-.828-.822c0-2.042-1.115-17.244-1.488-19.539a.83.83 0 011.637-.262c.376 2.328 1.506 17.734 1.506 19.8 0 .456-.37.823-.827.823zm3.908 2.065a.825.825 0 01-.828-.823c0-2.366-.753-17.096-1.223-19.49a.822.822 0 01.655-.966.828.828 0 01.971.65c.526 2.684 1.253 17.788 1.253 19.807a.826.826 0 01-.828.822zm3.906 1.902a.827.827 0 01-.925-.713c-.25-1.971-.884-17.535-.755-20.044a.818.818 0 01.868-.781c.459.022.812.41.787.865-.12 2.368.506 17.888.744 19.756a.827.827 0 01-.72.917zm3.971.553a.826.826 0 01-.829-.824c0-1.642-.258-6.931-.485-11.6-.19-3.901-.355-7.275-.355-8.174 0-.453.37-.824.831-.824.456 0 .827.37.827.824 0 .86.17 4.372.35 8.093.23 4.69.49 10 .49 11.68a.828.828 0 01-.829.825z" fill="#A96C4D"/><path d="M80.451 20.996c-.488-.484-1.324-1.09-2.452-1.786-1.084 2.266-2.731 4.89-4.942 7.866-.035.047-.068.09-.101.139a84.361 84.361 0 01-4.086 5.041c2.55-1.646 5.008-3.333 7.02-4.914 2.758-2.166 4.683-4.13 4.857-5.52.043-.334-.042-.57-.296-.826zM29.524 42.237c3.867 1.745 7.92 3.347 12.145 3.347 1.088 0 2.182-.106 3.29-.342 4.677-.998 12.216-5.863 13.869-6.956l.334-.224c2.95-2.032 7.066-6.27 10.613-10.78 2.523-3.21 4.753-6.55 6.065-9.33.187-.39.349-.77.495-1.138.165-.411.307-.808.418-1.184.659-2.21.368-3.759-1.383-4.075-1.932-.347-6.297-.557-9.478-1.18a16.342 16.342 0 01-1.652-.405 8.315 8.315 0 01-.85-.307C53.365 5.297 44.547.989 40.067.989c-.373 0-.722.03-1.034.092C32.679 2.367 8.964 15.977.558 23.67c-1.915 1.75 1.325 4.639 6.26 7.625 8.172 4.947 20.98 10.162 22.706 10.942z" fill="#A96C4D"/></svg>