<svg width="99" height="55" fill="none" xmlns="http://www.w3.org/2000/svg"><path d="M67.055 11.075c-14.59-1.22-36.474 1.831-47.72 12.208-.608.61-1.52.61-2.128 0C13.56 18.705 5.961 15.348.49 13.21c1.52 3.663 4.56 9.461 9.119 13.124.912.61.912 1.831 0 2.441C5.049 32.134 2.01 38.237.49 41.9c4.863-2.136 13.678-5.799 16.718-10.072.607-.61 1.52-.915 2.127-.305 11.55 10.377 32.523 13.734 47.72 12.208-6.687-9.766-6.687-22.89 0-32.656zM46.691 8.939c3.04-.61 6.383-.916 9.422-1.221-3.647-2.747-8.206-5.799-12.766-7.63.608 2.136 1.52 5.799 3.344 8.85zm9.422 38.15c-3.04-.306-6.383-.611-9.422-.916-1.824 2.746-2.736 6.409-3.344 8.545 4.56-1.831 9.119-4.883 12.766-7.63zM75.566 12.6c-6.079 8.85-6.079 20.753 0 29.91 8.207-2.137 17.325-6.41 20.06-14.955-2.735-8.851-11.853-13.124-20.06-14.955zm-2.128-2.747c.304-.305.912-.61 1.824-.61 9.726 2.136 20.365 7.325 23.404 17.701v.916c-3.04 10.376-13.678 15.565-23.404 17.701-.608.305-1.216 0-1.824-.61-7.294-10.377-7.598-24.721 0-35.098zm6.687 10.072c2.736 0 5.167 2.441 5.167 5.188s-2.431 4.883-5.167 4.883c-2.735 0-4.863-2.136-4.863-4.883s2.128-5.188 4.863-5.188zm0 3.052c-.912 0-1.823.915-1.823 2.136 0 .916.911 1.831 1.823 1.831 1.216 0 2.128-.915 2.128-1.83 0-1.222-.912-2.137-2.128-2.137z" fill="#CE7A39"/></svg>