<svg width="77" height="66" fill="none" xmlns="http://www.w3.org/2000/svg"><path d="M56.487 40.747a1.264 1.264 0 00-1.002-.427c-2.825.132-5.816 1.878-8.02 3.507-3.496-1.936-8.259-4.048-12.395-4.048-5.106 0-10.87 3.16-13.332 5.403-.69.628-1.084 1.55-1.084 2.526 0 .978.396 1.898 1.084 2.526 2.461 2.244 8.225 5.404 13.332 5.404 4.136 0 8.9-2.113 12.395-4.049 2.204 1.628 5.196 3.374 8.02 3.507a1.23 1.23 0 001.002-.427 1.19 1.19 0 00.263-1.039c-.279-1.24-1.002-4.724-1.01-5.915.008-1.205.731-4.688 1.01-5.93a1.189 1.189 0 00-.263-1.038zm-26.35 11.501c.628-1.201.884-2.946.884-4.54 0-1.594-.256-3.339-.884-4.54 1.65-.586 3.366-.972 4.933-.972 3.876 0 8.595 2.244 11.872 4.126.442.253.996.215 1.396-.098 2.038-1.594 3.977-2.686 5.624-3.185-.306 1.521-.685 3.611-.691 4.676.006 1.056.385 3.142.691 4.662-1.647-.5-3.586-1.592-5.625-3.184a1.256 1.256 0 00-1.395-.099c-3.277 1.882-7.996 4.126-11.872 4.126-1.567 0-3.284-.385-4.933-.972zm-6.716-3.783c-.186-.17-.297-.453-.297-.757s.111-.587.297-.757c.981-.894 2.583-1.941 4.428-2.826.28.416.702 1.698.702 3.583 0 2.027-.45 3.204-.703 3.582-1.845-.884-3.446-1.931-4.427-2.825zm47.402-33.94c3.053-2.52 4.397-5.02 3.906-7.376C73.103-.655 53.002-1.03 34.911 2.58c-9.76 1.948-18.715 4.927-25.213 8.39C2.688 14.703-.632 18.531.1 22.038c.111.533.32 1.026.597 1.49v29.53c0 7.952 19.59 12.243 38.02 12.243 18.432 0 38.021-4.291 38.021-12.244V22.1c.04-.248.062-.5.062-.757 0-2.704-2.266-4.984-5.976-6.818zM3.166 53.058V25.976c5.879 4.984 21.07 7.629 35.55 7.629 14.482 0 29.672-2.645 35.551-7.63v27.083c0 4.648-14.6 9.826-35.55 9.826-20.95 0-35.551-5.178-35.551-9.826zm7.713-39.967c.466-.248.95-.493 1.442-.736 6.146-3.037 14.262-5.647 23.084-7.407 7.538-1.504 14.38-2.158 20.072-2.158 9.834 0 16.23 1.952 16.832 4.842.333 1.598-1.137 3.648-4.038 5.785-.385.284-.794.57-1.23.857a34.95 34.95 0 01-1.317.822c-.562.335-1.15.67-1.775 1.002a55.1 55.1 0 01-2.54 1.267c-3.654 1.711-7.936 3.273-12.6 4.607a118.32 118.32 0 01-9.385 2.27c-13.688 2.73-25.078 2.656-31.448.956-1.501-.4-2.722-.89-3.629-1.457a5.752 5.752 0 01-.92-.698c-.485-.46-.797-.957-.908-1.486-.298-1.43.848-3.224 3.173-5.118 1.349-1.099 3.092-2.232 5.187-3.348zm63.447 8.28a2.333 2.333 0 01-.059.477c-.384 1.728-2.713 3.5-6.579 5.03 1.51-1.043 2.348-2.184 2.348-3.382 0-.69-.285-1.36-.808-2.005-.884-1.091-2.466-2.106-4.616-3.002.172-.09.35-.178.519-.268a41.65 41.65 0 003.452-2.044c3.685 1.595 5.746 3.418 5.746 5.166l-.003.027z" fill="#D87645"/><path d="M30.137 52.248c.628-1.201.884-2.946.884-4.54 0-1.594-.256-3.339-.884-4.54 1.65-.586 3.366-.972 4.933-.972 3.876 0 8.595 2.244 11.872 4.126.442.253.996.215 1.396-.098 2.038-1.594 3.977-2.686 5.624-3.185-.306 1.521-.685 3.611-.691 4.676.006 1.056.385 3.142.691 4.662-1.647-.5-3.586-1.592-5.625-3.184a1.256 1.256 0 00-1.395-.099c-3.277 1.882-7.996 4.126-11.872 4.126-1.567 0-3.284-.385-4.933-.972zm-6.716-3.783c-.186-.17-.297-.453-.297-.757s.111-.587.297-.757c.981-.894 2.583-1.941 4.428-2.826.28.416.702 1.698.702 3.583 0 2.027-.45 3.204-.703 3.582-1.845-.884-3.446-1.931-4.427-2.825z" fill="#D87645"/></svg>