<svg width="97" height="82" fill="none" xmlns="http://www.w3.org/2000/svg"><path d="M71.346 50.987a1.596 1.596 0 00-1.266-.54c-3.568.167-7.346 2.372-10.13 4.43-4.415-2.445-10.431-5.114-15.655-5.114-6.45 0-13.73 3.992-16.84 6.825-.87.793-1.368 1.957-1.368 3.191 0 1.234.5 2.397 1.369 3.19 3.109 2.834 10.389 6.825 16.839 6.825 5.224 0 11.24-2.668 15.655-5.113 2.784 2.056 6.563 4.261 10.129 4.43.5.022.954-.178 1.266-.54.314-.363.437-.848.332-1.312-.351-1.568-1.265-5.967-1.275-7.472.01-1.521.924-5.921 1.275-7.488a1.501 1.501 0 00-.331-1.312zM38.064 65.513c.793-1.517 1.117-3.721 1.117-5.735 0-2.013-.324-4.217-1.117-5.733 2.084-.741 4.252-1.229 6.231-1.229 4.895 0 10.856 2.835 14.994 5.212a1.59 1.59 0 001.764-.124c2.574-2.013 5.023-3.392 7.103-4.023-.387 1.922-.865 4.562-.873 5.906.008 1.334.486 3.968.873 5.889-2.08-.632-4.529-2.011-7.104-4.023a1.587 1.587 0 00-1.763-.124c-4.138 2.377-10.099 5.212-14.994 5.212-1.98 0-4.148-.487-6.231-1.228zm-8.482-4.779c-.235-.214-.376-.571-.376-.955s.14-.742.376-.957c1.239-1.129 3.262-2.451 5.593-3.568.354.524.886 2.144.886 4.524 0 2.56-.57 4.048-.888 4.525-2.33-1.117-4.353-2.44-5.591-3.569zm59.87-42.867c3.857-3.182 5.554-6.34 4.934-9.316-2.054-9.857-27.442-10.33-50.292-5.772-12.329 2.46-23.638 6.223-31.845 10.596C3.395 18.093-.798 22.928.125 27.359c.14.672.405 1.294.754 1.88v37.297C.88 76.581 25.621 82 48.9 82c23.28 0 48.022-5.42 48.022-15.464V27.435c.05-.314.078-.633.078-.957 0-3.415-2.862-6.295-7.547-8.611zM4 66.537V32.33c7.425 6.295 26.611 9.636 44.901 9.636 18.291 0 37.477-3.341 44.902-9.636v34.206c0 5.87-18.44 12.411-44.902 12.411C22.44 78.947 4 72.407 4 66.537zm9.742-50.48a67.27 67.27 0 011.82-.93c7.764-3.836 18.015-7.133 29.157-9.356 9.52-1.9 18.163-2.725 25.352-2.725 12.42 0 20.499 2.465 21.26 6.115.42 2.019-1.437 4.607-5.1 7.307-.488.36-1.004.72-1.555 1.082-.526.345-1.081.692-1.663 1.038a54.38 54.38 0 01-2.241 1.266 69.695 69.695 0 01-3.208 1.6c-4.616 2.162-10.024 4.133-15.915 5.82a149.418 149.418 0 01-11.854 2.866c-17.289 3.449-31.674 3.354-39.72 1.207-1.896-.505-3.438-1.125-4.584-1.839a7.272 7.272 0 01-1.161-.882c-.613-.582-1.008-1.209-1.147-1.877-.377-1.807 1.07-4.072 4.007-6.464 1.704-1.388 3.905-2.819 6.552-4.229zm80.136 10.456c-.002.2-.03.401-.075.603-.485 2.183-3.426 4.422-8.31 6.354 1.908-1.317 2.966-2.76 2.966-4.273 0-.87-.36-1.718-1.02-2.532-1.117-1.377-3.115-2.659-5.831-3.791.218-.113.442-.225.655-.339a52.601 52.601 0 004.361-2.582c4.654 2.015 7.257 4.317 7.257 6.525 0 .012-.003.024-.003.035z" fill="#D87645"/><path d="M38.064 65.513c.793-1.517 1.117-3.721 1.117-5.735 0-2.013-.324-4.217-1.117-5.733 2.084-.741 4.252-1.229 6.231-1.229 4.895 0 10.856 2.835 14.994 5.212a1.59 1.59 0 001.764-.124c2.574-2.013 5.023-3.392 7.103-4.023-.387 1.922-.865 4.562-.873 5.906.008 1.334.486 3.968.873 5.889-2.08-.632-4.529-2.011-7.104-4.023a1.587 1.587 0 00-1.763-.124c-4.138 2.377-10.099 5.212-14.994 5.212-1.98 0-4.148-.487-6.231-1.228zm-8.482-4.779c-.235-.214-.376-.571-.376-.955s.14-.742.376-.957c1.239-1.129 3.262-2.451 5.593-3.568.354.524.886 2.144.886 4.524 0 2.56-.57 4.048-.888 4.525-2.33-1.117-4.353-2.44-5.591-3.569z" fill="#D87645"/></svg>