<svg width="80" height="94" fill="none" xmlns="http://www.w3.org/2000/svg"><path d="M58.566 88.505l4.042-16.796H17.436l4.04 16.796h37.09zM25.644 10.812C24.486 7.9 22.391 5.774 19.16 5.466c-3.56-.337-3.052-5.788.512-5.451 5.99.57 9.957 4.82 11.595 10.425 3.643.876 6.453 3.852 7.137 7.56 6.038-.274 12.58-.029 18.674-.029 6.17 0 8.34 4.646 5.698 9.913-1.012 2.017-2.738 4.184-4.87 6.08h5.47c8.84 0 13.169 9.398 9.105 16.453 11.604 3.536 9.156 21.027-3.085 21.027H68.27L63.402 91.68A2.737 2.737 0 0160.705 94h-41c-1.405 0-2.644-.568-3.012-2.103l-4.92-20.453c-14.097 0-15.577-17.556-4.21-21.027-3.956-6.866.058-16.125 8.607-16.444-.285-3.536 2.335-6.907 4.811-9.13a9.59 9.59 0 01-1.45-5.087 9.603 9.603 0 016.113-8.944zm12.145 12.724c-1.42 3.305-4.58 5.567-8.194 5.781a9.461 9.461 0 01-4.468-.831c-1.07.88-3.648 3.456-3.523 5.017.04.522 2.53-.047 3.72 2.035 5.212 8.974 4.957.65 10.555.65 4.565.088 7.362 14.594 11.68 7.009 1.553-2.665 1.822-6.084 2.32-9.141.39-2.426 6.85-6.282 8.033-8.64.857-1.705.515-1.933-.834-1.95-6.339 0-12.995-.457-19.29.07zm-8.742-7.863a4.056 4.056 0 00-4.057 4.083c0 2.415 1.972 4.16 4.333 4.073 2.138-.142 3.78-1.911 3.78-4.073 0-2.252-1.817-4.083-4.056-4.083zM10.648 65.95h58.748c6.961 0 6.722-10.497 0-10.497H10.648c-6.948 0-6.726 10.497 0 10.497z" fill="#FFCB09"/></svg>