<svg width="75" height="73" fill="none" xmlns="http://www.w3.org/2000/svg"><g clip-path="url(#clip0)" fill="#6E9E48"><path d="M37.255 64.485s-.266 5.019-7.149 5.019c-9.53 0-18.798-16.424-18.798-25.776 0-9.353 5.825-18.478 13.767-18.478 7.943 0 12.18 8.212 12.18 8.212v31.023zm30.71-33.988c-10.59-19.161-30.447-5.703-30.447-5.703s-8.47-3.421-13.236-3.421c-4.765 0-18.797 4.563-18.797 23.039 0 18.478 17.474 28.286 24.886 28.286 7.41 0 7.413-4.333 7.413-4.333s-.266 4.334 9.796 4.334c10.06-.001 30.975-23.042 20.385-42.202z"/><path d="M26.465 45.695c0 .708-1.823 1.283-4.07 1.283-2.249 0-4.07-.575-4.07-1.283 0-.709 1.822-1.284 4.07-1.284 2.246 0 4.07.575 4.07 1.284zM38.379 18.92S37.783 2.838 54.859.101c2.186 16.424-16.48 18.82-16.48 18.82zm-1.19 4.79S26.664 7.116 19.317 5.577c-1.787 2.052-2.183 3.422-2.183 3.422s10.721 3.25 20.055 14.713zm-9.05 12.555c-.316.653-2.255.58-4.33-.164-2.076-.743-3.502-1.877-3.186-2.532.316-.654 2.255-.582 4.33.163 2.075.744 3.502 1.878 3.186 2.533zm1.967 18.654c.324.65-1.088 1.798-3.153 2.562-2.066.764-4.004.856-4.328.206-.324-.651 1.088-1.8 3.153-2.564 2.066-.763 4.003-.855 4.328-.204z"/></g><defs><clipPath id="clip0"><path fill="#6E9E48" transform="translate(.95 .1)" d="M0 0h73.632v72.84H0z"/></clipPath></defs></svg>