<svg width="93" height="92" fill="none" xmlns="http://www.w3.org/2000/svg"><path d="M45.855 81.32s-.336 6.339-9.03 6.339c-12.037 0-23.743-20.744-23.743-32.556 0-11.813 7.358-23.338 17.39-23.338s15.382 10.372 15.382 10.372V81.32zm38.787-42.928C71.266 14.19 46.187 31.19 46.187 31.19S35.49 26.868 29.47 26.868c-6.019 0-23.74 5.763-23.74 29.099 0 23.338 22.07 35.727 31.43 35.727 9.361 0 9.364-5.474 9.364-5.474s-.336 5.474 12.373 5.474c12.707 0 39.122-29.102 25.746-53.302z" fill="#6E9E48"/><path d="M32.227 57.587c0 .895-2.302 1.621-5.141 1.621-2.84 0-5.14-.726-5.14-1.62 0-.896 2.302-1.622 5.14-1.622 2.838 0 5.141.726 5.141 1.621zM47.275 23.77S46.522 3.457 68.09 0c2.76 20.745-20.815 23.77-20.815 23.77zm-1.503 6.05S32.478 8.86 23.199 6.917c-2.257 2.592-2.758 4.322-2.758 4.322s13.542 4.105 25.33 18.583zM34.34 45.676c-.398.826-2.848.734-5.468-.206-2.623-.94-4.423-2.37-4.025-3.197.4-.827 2.848-.736 5.469.205 2.621.94 4.424 2.371 4.024 3.198zm2.486 23.561c.409.822-1.374 2.272-3.982 3.237-2.61.964-5.057 1.08-5.466.26-.41-.823 1.373-2.274 3.981-3.238 2.61-.964 5.056-1.081 5.467-.259z" fill="#6E9E48"/></svg>