<svg width="39" height="79" fill="none" xmlns="http://www.w3.org/2000/svg"><path d="M32.287 2.577v3.254a2.03 2.03 0 01-2.044 2.02H9.588c-1.118 0-2.044-.903-2.044-2.02V2.577c0-1.116.926-2.019 2.044-2.019h20.655a2.03 2.03 0 012.044 2.02z" fill="#DFB107"/><path d="M36.483 20.546L30.075 9.929V6.663a1.19 1.19 0 00-1.202-1.188H10.959a1.19 1.19 0 00-1.202 1.188v3.266L3.36 20.558A16.94 16.94 0 00.92 29.31v45.343c0 2.364 1.948 4.288 4.34 4.288h29.323c2.393 0 4.34-1.924 4.34-4.288V29.31c0-3.075-.853-6.116-2.44-8.764zm.036 12.98a1.2 1.2 0 01-.349.036c-1.539-.06-2.789-.38-3.835-.974a16.856 16.856 0 01-.854-.534c-.913-.606-1.96-1.295-3.294-1.366-1.527-.071-2.717.689-3.787 1.366-.469.297-.914.57-1.346.772-1.118.51-2.465.51-3.62 0a8.66 8.66 0 01-1.07-.57c-.889-.51-1.887-1.093-3.125-1.117-1.202.012-2.2.487-3.078.939-.469.237-.902.463-1.334.593-1.034.297-2.285.048-3.475-.225l-.373-.083c-1.118-.25-2.368-.511-3.655-.416V29.31c0-2.66.734-5.26 2.104-7.54l6.565-10.903a1.21 1.21 0 00.168-.606v-2.41h15.51v2.41c0 .214.06.428.168.606l6.576 10.902a14.664 14.664 0 012.104 7.541v4.216z" fill="#DFB107"/></svg>