<svg width="48" height="99" fill="none" xmlns="http://www.w3.org/2000/svg"><path d="M39.618 2.55v4.11c0 1.41-1.154 2.55-2.582 2.55H10.948c-1.412 0-2.581-1.14-2.581-2.55V2.55c0-1.41 1.17-2.55 2.581-2.55h26.088c1.428 0 2.582 1.14 2.582 2.55z" fill="#DFB107"/><path d="M44.917 25.245l-8.093-13.41V7.71c0-.84-.683-1.5-1.519-1.5H12.68c-.836 0-1.519.66-1.519 1.5v4.125L3.083 25.26A21.395 21.395 0 000 36.315v57.27C0 96.57 2.46 99 5.482 99h37.036C45.54 99 48 96.57 48 93.585v-57.27c0-3.885-1.078-7.725-3.083-11.07zm.046 16.395c-.152.03-.304.06-.44.045-1.944-.075-3.523-.48-4.845-1.23a21.4 21.4 0 01-1.078-.675c-1.154-.765-2.475-1.635-4.16-1.725-1.929-.09-3.432.87-4.784 1.725-.592.375-1.154.72-1.7.975-1.412.645-3.113.645-4.571 0-.425-.18-.88-.435-1.352-.72-1.123-.645-2.384-1.38-3.948-1.41-1.518.015-2.779.615-3.887 1.185-.592.3-1.139.585-1.686.75-1.306.375-2.885.06-4.388-.285l-.47-.105c-1.413-.315-2.992-.645-4.617-.525v-3.33c0-3.36.926-6.645 2.657-9.525l8.291-13.77a1.53 1.53 0 00.213-.765V9.21h19.589v3.045c0 .27.076.54.212.765l8.307 13.77a18.522 18.522 0 012.657 9.525v5.325z" fill="#DFB107"/></svg>