<svg width="63" height="98" fill="none" xmlns="http://www.w3.org/2000/svg"><path d="M51.39 19.322h-8.203l1.083-6.338c.31-2.01 2.013-3.71 4.18-4.019L63 6.955 62.071 0l-14.55 2.01c-5.108.772-9.133 4.637-10.062 9.583l-1.238 7.729h-33.9c-.618 0-1.237.309-1.702.773-.464.463-.619 1.082-.619 1.7l4.334 70.331C4.49 95.372 7.275 98 10.526 98h32.351c3.25 0 6.037-2.628 6.192-5.874l4.334-70.331c0-.618-.155-1.237-.62-1.7-.154-.464-.773-.773-1.392-.773zM16.409 78.369c-1.703 0-3.25-1.391-3.25-3.246 0-1.7 1.392-3.246 3.25-3.246 1.857 0 3.25 1.391 3.25 3.246-.154 1.855-1.547 3.246-3.25 3.246zm0-23.34c-1.703 0-3.25-1.392-3.25-3.247 0-1.7 1.392-3.246 3.25-3.246 1.857 0 3.25 1.391 3.25 3.246-.154 1.855-1.547 3.246-3.25 3.246zm7.585 7.264a1.717 1.717 0 01-1.703-1.7c0-.927.774-1.7 1.703-1.7.928 0 1.702.773 1.702 1.7 0 .927-.774 1.7-1.702 1.7zm8.204-21.022H5.882L4.8 23.804h30.493l-3.095 17.467zm15.633 0h-8.668l3.25-17.312h6.502L47.83 41.271z" fill="#1C96D9"/></svg>