<svg width="51" height="79" fill="none" xmlns="http://www.w3.org/2000/svg"><path d="M41.523 15.856h-6.495l.858-5.018c.245-1.59 1.593-2.937 3.308-3.181l11.52-1.591L49.98.558 38.46 2.15c-4.044.612-7.23 3.672-7.966 7.588l-.98 6.12H2.673c-.49 0-.98.244-1.348.611-.367.367-.49.857-.49 1.346l3.431 55.684c.123 2.57 2.329 4.651 4.903 4.651h25.614c2.573 0 4.78-2.08 4.902-4.65l3.431-55.685c0-.49-.122-.979-.49-1.346-.122-.367-.613-.612-1.103-.612zm-27.697 46.75c-1.348 0-2.574-1.101-2.574-2.57 0-1.346 1.103-2.57 2.574-2.57 1.47 0 2.573 1.102 2.573 2.57-.122 1.469-1.225 2.57-2.573 2.57zm0-18.48c-1.348 0-2.574-1.1-2.574-2.57 0-1.346 1.103-2.57 2.574-2.57 1.47 0 2.573 1.102 2.573 2.57-.122 1.47-1.225 2.57-2.573 2.57zm6.005 5.753a1.36 1.36 0 01-1.348-1.347 1.36 1.36 0 011.348-1.346 1.36 1.36 0 011.348 1.346 1.36 1.36 0 01-1.348 1.347zm6.495-16.645H5.492l-.858-13.829h24.143l-2.45 13.83zm12.378 0h-6.863l2.574-13.706h5.147l-.858 13.706z" fill="#1C96D9"/></svg>