<svg width="49" height="91" fill="none" xmlns="http://www.w3.org/2000/svg"><path d="M48.365 54.656c-.929-4.296-5.203-6.724-9.105-8.779-2.602-1.307-5.575-2.988-5.575-4.296 0-1.12.371-2.241.929-3.549.557-1.494 1.3-3.362 1.672-5.603.372-3.175-.929-6.724-2.416-9.339.558-.373 1.115-.934 1.115-1.68V2.73c0-1.12-.743-1.867-1.858-1.867H15.845c-1.115 0-1.859.747-1.859 1.867v18.865c0 .747.372 1.307 1.115 1.68-1.672 2.803-2.787 6.538-2.416 9.34.372 2.241 1.115 3.922 1.673 5.416.557 1.495.93 2.615 1.115 3.736 0 .934-1.858 1.868-3.903 2.802-3.716 1.68-8.734 4.109-10.592 9.899-2.788 8.405 3.345 31.939 3.902 34.554.186.747.93 1.307 1.859 1.307h34.75c.93 0 1.673-.56 1.859-1.494.372-2.615 6.318-27.27 5.017-34.18zM17.703 19.728v-1.68h13.566v1.68H17.703zM31.269 4.6v9.713H17.703V4.599h13.566zm8.362 82.183H7.854C5.81 78.936 2.279 61.566 4.137 55.59c1.487-4.296 5.203-6.164 8.734-7.658 3.16-1.495 6.319-2.989 6.133-6.35 0-1.869-.744-3.363-1.301-5.044-.558-1.307-1.115-2.801-1.487-4.67-.371-2.427 1.115-6.163 2.974-8.591h10.22c1.673 2.054 3.345 5.79 2.974 8.592-.186 1.867-.744 3.362-1.301 4.67-.558 1.493-1.3 3.174-1.3 4.855 0 3.736 3.716 5.79 7.432 7.658 3.345 1.681 6.69 3.55 7.248 6.164 1.115 5.043-2.788 23.347-4.832 31.565z" fill="#6E9E48"/><path d="M23.835 54.656c-10.035 0-17.84 5.603-17.84 12.7 0 7.098 7.805 12.702 17.84 12.702s17.84-5.604 17.84-12.701c0-7.098-7.805-12.701-17.84-12.701zm0 21.292c-7.619 0-14.123-4.109-14.123-8.965s6.504-8.965 14.123-8.965c7.62 0 14.124 4.109 14.124 8.965s-6.504 8.965-14.124 8.965z" fill="#6E9E48"/><path fill-rule="evenodd" clip-rule="evenodd" d="M39.631 86.781H7.854C5.81 78.938 2.279 61.566 4.137 55.59c1.487-4.296 5.203-6.164 8.734-7.658 3.16-1.495 6.319-2.989 6.133-6.35 0-1.869-.744-3.363-1.301-5.044-.558-1.307-1.115-2.801-1.487-4.67-.371-2.427 1.115-6.163 2.974-8.591h10.22c1.673 2.054 3.345 5.79 2.974 8.592-.186 1.867-.744 3.362-1.301 4.67-.558 1.493-1.3 3.174-1.3 4.855 0 3.736 3.716 5.79 7.432 7.658 3.345 1.681 6.69 3.55 7.248 6.164 1.115 5.043-2.788 23.347-4.832 31.565zM5.995 67.357c0-7.098 7.805-12.701 17.84-12.701s17.84 5.603 17.84 12.7c0 7.098-7.805 12.702-17.84 12.702s-17.84-5.604-17.84-12.701z" fill="#6E9E48"/></svg>