<svg width="54" height="29" fill="none" xmlns="http://www.w3.org/2000/svg"><path d="M53.897 8.881l-3.395-3.89h-9.493V0H15.232v4.258H3.148v1.174h12.084v8.661H8.933v1.175h6.299v9.101h2.695c.292 2.27 2.212 4.037 4.554 4.037 2.344 0 4.264-1.766 4.554-4.037h15.827c.292 2.27 2.211 4.037 4.554 4.037 2.343 0 4.263-1.766 4.554-4.037h1.927V8.881zm-1.171.441v3.45H46.72V6.165h3.25l2.756 3.157zM22.48 27.232a3.45 3.45 0 010-6.9 3.45 3.45 0 010 6.9zm17.356-4.038H27.06c-.009-.063-.03-.12-.042-.182a4.4 4.4 0 00-.083-.38 4.585 4.585 0 00-.294-.82 4.497 4.497 0 00-.232-.426 4.344 4.344 0 00-.204-.311 4.459 4.459 0 00-.31-.376c-.081-.091-.162-.183-.25-.267a4.516 4.516 0 00-.383-.316c-.095-.073-.185-.148-.286-.213a4.792 4.792 0 00-.457-.249c-.102-.05-.199-.107-.304-.15-.18-.073-.368-.123-.557-.174-.095-.025-.183-.06-.279-.08a4.625 4.625 0 00-.895-.091c-.306 0-.604.034-.895.09-.096.02-.186.056-.28.081a4.74 4.74 0 00-.556.173c-.106.045-.202.101-.303.151-.157.079-.312.155-.458.25-.1.065-.191.14-.287.212a4.8 4.8 0 00-.382.316 3.93 3.93 0 00-.25.267c-.11.12-.214.244-.31.376-.074.1-.139.206-.204.311a4.557 4.557 0 00-.38.776c-.058.154-.105.31-.146.47-.032.126-.063.25-.084.38-.01.062-.032.12-.041.182h-1.504v-7.927h7.836v-1.174h-7.836V5.432h2.05V4.258h-2.05V1.174h23.434v22.02zm7.58 4.038a3.45 3.45 0 010-6.9 3.45 3.45 0 010 6.9zm4.576-4.038c-.009-.063-.03-.12-.04-.182a4.635 4.635 0 00-.084-.38 4.765 4.765 0 00-.146-.47 4.497 4.497 0 00-.38-.776 4.127 4.127 0 00-.515-.687 4.2 4.2 0 00-.25-.267 4.628 4.628 0 00-.383-.316c-.095-.073-.186-.148-.286-.213a4.709 4.709 0 00-.458-.249c-.101-.05-.198-.107-.304-.15-.179-.073-.367-.123-.556-.174-.094-.025-.183-.06-.28-.08a4.619 4.619 0 00-.895-.091c-.307 0-.604.034-.895.09-.097.02-.186.056-.28.081-.188.05-.377.101-.556.173-.106.045-.202.101-.303.151-.157.079-.312.155-.458.25-.1.065-.192.14-.286.212a4.674 4.674 0 00-.383.316 3.93 3.93 0 00-.25.267 4.125 4.125 0 00-.515.687 4.373 4.373 0 00-.38.776 5.126 5.126 0 00-.229.85c-.01.062-.033.12-.041.182h-1.831V6.165h4.54v7.781h7.177v9.249h-.733v-.001z" fill="#3384B1"/><path d="M9.886 9.101H0v1.175h9.886V9.1z" fill="#3384B1"/></svg>