<svg width="27" height="38" fill="none" xmlns="http://www.w3.org/2000/svg"><path d="M18.92 8.056l-2.196-1.063-2.196 1.063V0h4.392v8.056zM16.724 5.63l.97.47V1.225h-1.94V6.1l.97-.47zm3.809 7.976l-.54-1.101c2.995-1.469 4.93-4.57 4.93-7.901a.834.834 0 00-.834-.835h-1.93V2.543h1.93c.55 0 1.066.214 1.455.603.39.392.605.909.605 1.457 0 3.796-2.204 7.33-5.616 9.003zm-14.917-.001C2.204 11.931 0 8.398 0 4.603c0-.548.214-1.066.603-1.456.39-.39.908-.604 1.457-.604h1.93V3.77H2.06a.831.831 0 00-.834.834c0 3.33 1.935 6.433 4.93 7.902l-.54 1.1zM24.241 38H1.908v-3.864h22.333V38zM3.134 36.774h19.881v-1.412H3.134v1.412z" fill="#FF842A"/><path d="M22.27 35.36H3.88V24.716h18.39V35.36zM5.107 34.136h15.938V25.94H5.107v8.194z" fill="#FF842A"/><path d="M18.478 25.941H7.674v-1.159c0-.504.197-.977.553-1.334.357-.356.83-.552 1.333-.552a1.814 1.814 0 00.925-3.373 5.559 5.559 0 01-.249-.126c-4.1-2.152-6.858-8.68-6.858-16.24V0h19.396v3.156c0 7.561-2.758 14.089-6.864 16.243-.077.042-.16.085-.243.124a1.814 1.814 0 00.925 3.373c.503 0 .977.196 1.333.552.357.357.553.83.553 1.334v1.16zm-9.574-1.226h8.345a.658.658 0 00-.657-.594 3.041 3.041 0 01-3.039-3.037c0-1.087.585-2.097 1.526-2.637l.051-.026c.07-.031.137-.067.205-.104 3.66-1.92 6.213-8.154 6.213-15.16V1.226H4.604v1.93c0 7.007 2.552 13.24 6.207 15.158.074.04.142.076.212.108l.05.025a3.047 3.047 0 011.526 2.637 3.041 3.041 0 01-3.039 3.038.657.657 0 00-.656.593z" fill="#FF842A"/></svg>