<svg width="44" height="38" fill="none" xmlns="http://www.w3.org/2000/svg"><path d="M5.258 14.807H3.894v1.365h1.364v-1.365z" fill="#C94044"/><path d="M42.295 15.69l-3.61 3.61L28.051 8.669 35.756.965 34.79 0l-7.703 7.703c-.259.257-.4.6-.4.965s.141.709.4.965l.399.4-1.364 1.364h-4.094l-1.081 1.082-1.082-1.082h-2.729l-1.364-1.364.4-.4a1.359 1.359 0 000-1.929L8.468 0l-.965.965 7.704 7.703L4.575 19.301l-3.61-3.61-.965.964 3.61 3.61c.257.258.6.4.965.4s.708-.142.965-.4l.4-.4 1.364 1.365v1.364l2.446 2.447-.317.316a2.614 2.614 0 000 3.694c.493.493 1.15.764 1.848.764.044 0 .086-.01.13-.013a2.593 2.593 0 002.598 2.741c.044 0 .087-.01.13-.013a2.593 2.593 0 002.599 2.741c.044 0 .087-.01.13-.013A2.593 2.593 0 0019.467 38c.698 0 1.353-.271 1.846-.764l.317-.315.316.317a2.604 2.604 0 001.847.763c.669 0 1.338-.255 1.847-.763a2.597 2.597 0 00.751-1.978c.044.003.087.013.13.013.67 0 1.338-.255 1.847-.763a2.597 2.597 0 00.752-1.978c.044.003.087.013.13.013.669 0 1.338-.255 1.847-.763a2.596 2.596 0 00.752-1.978c.043.003.086.013.13.013.669 0 1.338-.255 1.847-.763a2.614 2.614 0 000-3.694l-.317-.318 2.447-2.447V21.23l1.364-1.364.4.4a1.36 1.36 0 001.929 0l3.61-3.611-.964-.965zM10.398 28.086a1.249 1.249 0 010-1.764l.317-.317 1.763 1.764-.316.317c-.47.471-1.292.47-1.764 0zm2.729 2.729a1.249 1.249 0 010-1.765l.317-.316 1.763 1.764-.316.317c-.471.472-1.293.47-1.764 0zm2.728 2.728a1.249 1.249 0 010-1.764l.317-.316 1.764 1.764-.317.316c-.47.472-1.292.47-1.764 0zm4.493 2.729c-.47.472-1.293.47-1.764 0a1.249 1.249 0 010-1.764l.317-.317 1.764 1.764-.317.317zm14.243-15.607v1.364l-2.046 2.047-2.247-2.246-.964.964 3.527 3.528a1.249 1.249 0 010 1.764 1.249 1.249 0 01-1.764 0l-3.527-3.528-.965.965 3.527 3.527a1.249 1.249 0 010 1.765 1.249 1.249 0 01-1.764 0l-3.527-3.528-.965.965 3.528 3.527a1.249 1.249 0 010 1.764 1.249 1.249 0 01-1.764 0l-3.528-3.527-.964.964 3.527 3.528a1.249 1.249 0 010 1.764 1.249 1.249 0 01-1.764 0L8.668 22.03v-1.365l-1.764-1.764 7.904-7.904 1.764 1.764h2.729l.682.683-3.728 3.727a2.615 2.615 0 000 3.693c.493.494 1.15.765 1.847.765.698 0 1.354-.271 1.847-.765l4.01-4.01h.447a4.736 4.736 0 001.351 2.695 4.747 4.747 0 003.377 1.399h1.364a2.731 2.731 0 002.729-2.73h-1.365c0 .753-.611 1.365-1.364 1.365h-1.364a3.382 3.382 0 01-2.412-1 3.39 3.39 0 01-1-2.41v-.683h-2.328l-4.41 4.41c-.471.472-1.293.47-1.765 0a1.249 1.249 0 010-1.764l5.375-5.374h4.093l1.765-1.765 7.903 7.904-1.764 1.764z" fill="#C94044"/><path d="M39.366 14.807h-1.364v1.365h1.364v-1.365z" fill="#C94044"/></svg>