<svg width="20" height="20" fill="none" xmlns="http://www.w3.org/2000/svg"><path fill-rule="evenodd" clip-rule="evenodd" d="M2.549 4.396s-.036-.941.561-2.158C3.531 1.377 5.17.9 5.17.9s.702-.178 2.111 1.183c.56.518.917 1.22 1.005 1.978.05.692-1.425 2.167-1.425 2.167a4.488 4.488 0 001.02 2.297c.58.675 1.578 1.727 2.102 2.218.449.422.95.971 1.617 1.413 1.31.87 1.625.79 1.625.79s1.868-1.564 2.427-1.51c.424.043 1.026.323 1.795.98.572.485.938.853 1.225 1.344.102.17.182.35.239.54 0 0 .075.777-1.13 2.012-1.2 1.228-2.855.906-2.855.906s-.951-.14-2.507-.873a17.144 17.144 0 01-4.645-3.323C6.513 11.72 4.86 9.726 4.055 8.339 3.043 6.595 2.55 4.396 2.55 4.396z" fill="#6E9E48"/></svg>