<svg width="26" height="26" fill="none" xmlns="http://www.w3.org/2000/svg"><path fill-rule="evenodd" clip-rule="evenodd" d="M23.044 15.053s-.017 0 0 0c-.035-.053-.053-.07-.088-.106 0 0 0-.018-.018-.018l-3.586-2.018 3.586-2.035s0-.018.018-.018a.213.213 0 00.088-.089l2.703-5.416a.284.284 0 00-.017-.266.302.302 0 00-.23-.124l-4.894.213.212-4.904a.258.258 0 00-.123-.23c-.07-.053-.177-.053-.265-.017l-5.406 2.708a.213.213 0 00-.089.088s-.017 0-.017.018l-2.032 3.594-2.032-3.594s-.017 0-.017-.018a.213.213 0 00-.089-.088L5.342.025a.283.283 0 00-.265.017.303.303 0 00-.123.23l.212 4.904-4.894-.213a.257.257 0 00-.23.124c-.053.071-.053.177-.017.266l2.703 5.416a.21.21 0 00.088.089l.018.018 3.604 2.035-3.587 2.036-.017.018a.213.213 0 00-.089.088L.042 20.47a.284.284 0 00.018.265.37.37 0 00.23.124l4.893-.212-.212 4.832a.16.16 0 00-.017.089c0 .141.123.265.265.265h.017a.327.327 0 00.124-.035l5.406-2.709a.213.213 0 00.088-.088s.018 0 .018-.018l2.032-3.593 2.031 3.593s.018 0 .018.018a.22.22 0 00.088.088l5.406 2.709a.283.283 0 00.265-.018.303.303 0 00.124-.23l-.212-4.903 4.894.212a.257.257 0 00.23-.124c.052-.07.052-.177.017-.265l-2.72-5.417zm-2.049-.602l-5.088-1.274h2.844l2.244 1.274zm-2.244-1.805h-3.533l5.9-1.346-2.367 1.346zm6.325-7.134l-2.261 4.55-2.085-4.355 4.346-.195zm-2.65 4.956l-8.71 1.983 6.537-6.55 2.173 4.567zM20.271.698l-.195 4.354-4.346-2.089L20.27.697zm-4.947 2.655l4.558 2.177-6.572 6.585 2.014-8.762zm-2.067 3.504l1.219-2.177-1.219 5.328v-3.15zm-.018 12.073c.018-.036.018-.053.018-.089v-3.363l1.254 5.717-1.272-2.265zm.195-5.116l6.448 6.46-4.558 2.196-1.89-8.656zm2.314 9.028l4.346-2.09.177 4.373-4.523-2.283zm4.505-2.921l-6.731-6.744h.265l8.64 2.177-2.174 4.567zm.477.195l2.085-4.355 2.261 4.532-4.346-.177z" fill="#FF842A"/></svg>