<svg width="30" height="42" fill="none" xmlns="http://www.w3.org/2000/svg"><path d="M29.21 10.08c-4.788 0-8.684-4.145-8.684-9.24 0-.464-.353-.84-.79-.84h-9.473c-.436 0-.79.376-.79.84 0 5.095-3.895 9.24-8.684 9.24-.435 0-.789.376-.789.84V21c0 9.598 13.945 20.388 14.539 20.842a.753.753 0 00.922 0C16.055 41.388 30 30.598 30 21V10.92c0-.464-.353-.84-.79-.84zM28.421 21c0 7.823-11.011 17.163-13.421 19.112C12.59 38.162 1.579 28.828 1.579 21v-9.272c5.031-.409 9.06-4.695 9.444-10.048h7.954c.385 5.353 4.413 9.639 9.444 10.048V21z" fill="#FFB93E"/><path d="M20.758 17.046l-7.337 7.806-2.6-2.766a.756.756 0 00-1.116 0 .878.878 0 000 1.188l3.158 3.36a.764.764 0 00.558.246.764.764 0 00.558-.246l7.895-8.4a.877.877 0 000-1.188.756.756 0 00-1.116 0z" fill="#FFB93E"/></svg>