<svg width="15" height="18" fill="none" xmlns="http://www.w3.org/2000/svg"><path fill-rule="evenodd" clip-rule="evenodd" d="M13.557 18H1.443a1.47 1.47 0 01-1.022-.415A1.386 1.386 0 010 16.589v-1.693c0-1.92 1.678-3.519 3.598-3.876a.043.043 0 000 .024l1.378 4.275s.181.847.937.847c.726 0 .65-.847.65-.847v-3.528h.011a.903.903 0 01.315-.554.952.952 0 011.222 0c.17.142.282.339.315.554h.011v3.528s-.06.847.722.847c.698 0 .793-.776.793-.776s1.44-4.351 1.444-4.352c.013-.003.002-.018 0-.019 1.922.355 3.604 1.956 3.604 3.877v1.693a1.39 1.39 0 01-.42.996 1.47 1.47 0 01-1.023.415zM7.535 9.393c-2.41 0-4.363-2.758-4.363-5.115a4.133 4.133 0 01.32-1.634 4.23 4.23 0 01.944-1.389 4.373 4.373 0 011.42-.929 4.474 4.474 0 013.358 0 4.373 4.373 0 011.42.93 4.154 4.154 0 011.264 3.022c0 2.357-1.952 5.115-4.363 5.115z" fill="#6E9E48"/></svg>