<svg width="89" height="58" fill="none" xmlns="http://www.w3.org/2000/svg"><path d="M88.345 23.905C88.345 9.254 76.55.463 56.847.463c-11.795 0-16.462 3.996-20.61 7.459-2.333 1.998-4.407 3.73-7.777 4.795-3.63 1.198-7.388 1.465-11.018 1.864-7.129.666-13.999 1.332-16.332 8.524-.518 1.599-.648 3.064-.518 4.662l-.13 9.59c0 2.93 1.296 5.727 3.759 8.258 6.87 7.059 23.073 11.854 40.442 11.854 25.794 0 43.682-9.457 43.682-22.91l-.13-9.322c.13-.267.13-.8.13-1.332zM44.663 42.818c-17.37 0-34.09-5.195-38.887-12.12C4.351 28.7 4.091 26.701 4.74 24.57c1.556-4.529 5.704-5.195 13.092-5.86 3.63-.4 7.777-.8 11.796-1.999 4.148-1.332 6.61-3.463 9.073-5.594 3.889-3.33 7.648-6.526 18.018-6.526 17.628 0 27.609 7.06 27.609 19.446.13 10.788-16.592 18.78-39.664 18.78zM56.847 9.254c-8.814 0-11.407 2.264-15.166 5.46-2.592 2.132-5.703 4.929-10.758 6.527-4.537 1.465-8.944 1.864-12.703 2.264-6.87.666-8.685 1.199-9.073 2.664-.13.4-.26.799.388 1.865 3.37 4.928 17.759 10.122 35.128 10.122 21.776 0 35.257-7.325 35.257-14.118 0-12.92-14.518-14.784-23.073-14.784zm6.87 15.983c-3.11 0-5.703-2.131-5.703-4.662 0-2.53 2.592-4.662 5.703-4.662s5.704 2.131 5.704 4.662c0 2.53-2.593 4.662-5.704 4.662z" fill="#C94044"/></svg>