<svg width="41" height="27" fill="none" xmlns="http://www.w3.org/2000/svg"><path d="M40.64 10.895c0-6.775-5.454-10.84-14.565-10.84-5.455 0-7.613 1.847-9.531 3.449-1.079.924-2.038 1.724-3.597 2.217-1.678.555-3.416.678-5.095.862C4.556 6.891 1.38 7.2.3 10.525a5.32 5.32 0 00-.24 2.156L0 17.116c0 1.355.6 2.648 1.738 3.819 3.177 3.264 10.67 5.481 18.702 5.481 11.929 0 20.2-4.373 20.2-10.594l-.06-4.311c.06-.123.06-.37.06-.616zm-20.2 8.746c-8.032 0-15.765-2.402-17.982-5.605-.66-.924-.78-1.848-.48-2.833.72-2.094 2.638-2.402 6.054-2.71 1.679-.185 3.597-.37 5.455-.924 1.918-.616 3.057-1.601 4.196-2.587 1.798-1.54 3.537-3.018 8.332-3.018 8.152 0 12.767 3.264 12.767 8.992.06 4.99-7.672 8.685-18.342 8.685zM26.075 4.12c-4.076 0-5.275 1.047-7.013 2.525-1.2.986-2.638 2.279-4.976 3.018-2.098.678-4.136.862-5.874 1.047-3.177.308-4.016.554-4.196 1.232-.06.185-.12.37.18.862 1.558 2.28 8.212 4.681 16.244 4.681 10.07 0 16.304-3.387 16.304-6.528 0-5.975-6.713-6.837-10.67-6.837zm3.177 7.39c-1.439 0-2.638-.985-2.638-2.155s1.2-2.156 2.638-2.156 2.637.986 2.637 2.156c0 1.17-1.199 2.156-2.637 2.156z" fill="#C94044"/></svg>