<svg viewBox="0 0 100 100" fill="none" xmlns="http://www.w3.org/2000/svg"><path d="M67.802 34.062c-14.86-1.23-37.152 1.843-48.607 12.29-.62.615-1.548.615-2.167 0C13.313 41.743 5.573 38.363 0 36.212c1.548 3.687 4.644 9.525 9.288 13.213.929.614.929 1.843 0 2.458-4.644 3.38-7.74 9.525-9.288 13.212 4.954-2.15 13.932-5.838 17.028-10.14.62-.614 1.548-.922 2.167-.307 11.765 10.447 33.127 13.827 48.607 12.29-6.811-9.832-6.811-23.044 0-32.877zM47.059 31.91c3.096-.615 6.501-.922 9.597-1.23-3.715-2.765-8.359-5.837-13.003-7.681.62 2.15 1.548 5.838 3.406 8.91zm9.597 38.407c-3.096-.307-6.501-.614-9.597-.921-1.858 2.765-2.787 6.452-3.406 8.603 4.644-1.844 9.288-4.916 13.003-7.682zm19.815-34.72c-6.192 8.91-6.192 20.894 0 30.112 8.359-2.151 17.647-6.453 20.433-15.056-2.786-8.911-12.074-13.213-20.433-15.056zm-2.168-2.766c.31-.307.93-.614 1.858-.614 9.907 2.15 20.743 7.374 23.839 17.821v.922c-3.096 10.447-13.932 15.67-23.839 17.821-.62.307-1.238 0-1.858-.614-7.43-10.447-7.74-24.889 0-35.336zm6.812 10.14c2.786 0 5.263 2.458 5.263 5.224 0 2.765-2.477 4.916-5.263 4.916-2.787 0-4.954-2.151-4.954-4.916 0-2.766 2.167-5.224 4.954-5.224zm0 3.073c-.93 0-1.858.922-1.858 2.15 0 .922.929 1.844 1.858 1.844 1.238 0 2.167-.922 2.167-1.843 0-1.23-.93-2.151-2.167-2.151z" fill="#CE7A39"/></svg>