<svg width="22" height="36" fill="none" xmlns="http://www.w3.org/2000/svg"><path d="M17.946 7.098H15.08l.379-2.328a1.764 1.764 0 011.459-1.477L22 2.555 21.676 0l-5.081.738c-1.784.284-3.19 1.704-3.514 3.52l-.432 2.84H.81c-.216 0-.433.113-.595.284-.162.17-.216.397-.216.624l1.514 25.836C1.568 35.035 2.54 36 3.676 36h11.297c1.135 0 2.108-.965 2.162-2.158L18.65 8.006c0-.227-.054-.454-.217-.624-.054-.17-.27-.284-.486-.284zM5.73 28.788c-.595 0-1.135-.51-1.135-1.192 0-.624.486-1.192 1.135-1.192.648 0 1.135.51 1.135 1.192-.054.682-.54 1.193-1.135 1.193zm0-8.573c-.595 0-1.135-.512-1.135-1.193 0-.624.486-1.192 1.135-1.192.648 0 1.135.51 1.135 1.192-.054.681-.54 1.193-1.135 1.193zm2.648 2.668c-.324 0-.594-.284-.594-.624 0-.341.27-.625.594-.625.325 0 .595.284.595.625 0 .34-.27.624-.595.624zm2.865-7.722H2.054l-.378-6.417h10.648l-1.08 6.417zm5.46 0h-3.027L14.81 8.8h2.27l-.378 6.36z" fill="#FF842A"/></svg>