<svg viewBox="0 0 100 100" fill="none" xmlns="http://www.w3.org/2000/svg"><path d="M65.783 2.576v4.151c0 1.425-1.188 2.576-2.657 2.576H36.27c-1.453 0-2.657-1.151-2.657-2.576V2.576C33.613 1.152 34.817 0 36.27 0h26.856c1.469 0 2.657 1.152 2.657 2.576z" fill="#DFB107"/><path d="M71.239 25.5l-8.332-13.545V7.788c0-.849-.704-1.515-1.563-1.515H38.052c-.86 0-1.563.666-1.563 1.515v4.167l-8.316 13.56A21.306 21.306 0 0025 36.682V94.53c0 3.016 2.532 5.47 5.643 5.47h38.126c3.11 0 5.643-2.454 5.643-5.47V36.682c0-3.924-1.11-7.803-3.174-11.182zm.046 16.56a1.568 1.568 0 01-.453.046c-2-.076-3.626-.485-4.986-1.242-.376-.213-.735-.44-1.11-.682-1.188-.773-2.548-1.652-4.283-1.743-1.986-.09-3.533.88-4.924 1.743-.61.379-1.188.727-1.751.984-1.454.652-3.205.652-4.705 0-.438-.181-.907-.439-1.392-.727-1.156-.651-2.454-1.394-4.064-1.424-1.563.015-2.86.621-4.001 1.197-.61.303-1.173.59-1.736.758-1.344.379-2.97.06-4.517-.288l-.485-.106c-1.453-.318-3.08-.652-4.752-.53v-3.364c0-3.394.954-6.712 2.736-9.621l8.535-13.91c.14-.242.219-.5.219-.772V9.303H59.78v3.076c0 .273.078.545.218.772l8.55 13.91a18.446 18.446 0 012.736 9.62v5.38z" fill="#DFB107"/></svg>