<svg width="83" height="112" fill="none" xmlns="http://www.w3.org/2000/svg"><path d="M81.99 74.357c-.253-9.815-8.465-17.766-18.571-17.766H52.554c-9.98 0-18.192 7.827-18.57 17.766l-1.011 32.301c0 2.857 2.4 5.342 5.432 5.342h39.163c2.905 0 5.432-2.36 5.432-5.342l-1.01-32.301zM65.06 49.51H51.039v5.218h14.023V49.51zm-.125-3.727c0-.994-.758-1.74-1.77-1.74H52.808c-1.011 0-1.769.746-1.769 1.74v2.236h14.023v-2.236h-.126zM77.441 7.146c.885-4.473-4.927-6.833-9.6-2.112 0 0 2.779 2.733 3.284 6.584.126.125 5.811-1.615 6.316-4.472zM8.59 48.268s1.517-7.579 5.054-10.933c2.147-1.988 12.76-6.46 22.487-10.312 1.263-.497 2.526-.993 3.663-1.49a663.787 663.787 0 019.854-3.976c2.148-.87 3.032-3.354 1.769-5.218v-.124c-.758-1.118-1.895-1.74-3.158-1.74-.506 0-1.137.125-1.643.373-2.4 1.118-6.443 2.982-10.738 4.97h-.126c-8.843 4.1-19.582 9.069-23.498 11.18-8.717 4.35-7.453 17.27-7.453 17.27h3.79zm.127 7.205c-.38-.373-1.137-1.615-1.39-1.988l-.252-.372c-.127-.249-.506-.249-.632 0l-.126.372c-.253.497-1.011 1.615-1.39 1.988C2.02 58.083 0 59.946 0 63.797c0 5.342 4.169 8.945 8.843 7.578 2.906-.87 4.927-3.975 4.927-7.702-.126-3.603-1.895-5.218-5.053-8.2z" fill="#FF842A"/><path d="M37.268 16.712c-.126-4.1 1.39-7.33 4.295-8.448 4.295-1.74 10.107 2.36 12.886 9.07 2.78 6.708 1.516 13.54-2.78 15.28-3.41 1.367-7.58-.87-10.611-5.094a59.6 59.6 0 01-3.79 1.491c4.169 6.46 10.864 9.939 16.17 7.827a9.94 9.94 0 002.274-1.367l11.876-9.317c2.4-1.864 3.79-4.721 3.79-7.827-.127-8.696-4.927-13.79-8.717-16.523C60.26.189 57.355-.432 54.449.313L42.321 3.295c-.758.124-1.642.248-2.4.62-4.8 1.989-7.201 7.828-6.443 14.536 1.137-.62 2.527-1.242 3.79-1.74z" fill="#FF842A"/></svg>