<svg width="27" height="36" fill="none" xmlns="http://www.w3.org/2000/svg"><path d="M26.671 23.9c-.082-3.154-2.753-5.71-6.04-5.71h-3.535c-3.247 0-5.918 2.516-6.041 5.71l-.329 10.383c0 .918.78 1.717 1.767 1.717h12.74c.945 0 1.767-.759 1.767-1.717L26.671 23.9zm-5.507-7.986h-4.561v1.677h4.561v-1.677zm-.041-1.198a.554.554 0 00-.575-.56h-3.37a.554.554 0 00-.575.56v.719h4.561v-.72h-.04zm4.069-12.419C25.48.859 23.589.1 22.069 1.618c0 0 .904.879 1.068 2.116.041.04 1.89-.519 2.055-1.437zM2.795 15.515S3.288 13.079 4.438 12c.699-.64 4.151-2.077 7.315-3.315.411-.16.822-.32 1.192-.48 1.274-.518 2.384-.957 3.206-1.277.698-.28.986-1.078.575-1.677v-.04a1.23 1.23 0 00-1.562-.44c-.78.36-2.095.96-3.493 1.598h-.04C8.752 7.688 5.26 9.285 3.985 9.964c-2.835 1.398-2.424 5.55-2.424 5.55h1.233zm.041 2.315c-.124-.12-.37-.518-.452-.638l-.083-.12c-.04-.08-.164-.08-.205 0l-.041.12a3.62 3.62 0 01-.452.639C.658 18.669 0 19.268 0 20.506c0 1.717 1.356 2.875 2.877 2.436.945-.28 1.602-1.278 1.602-2.476-.04-1.158-.616-1.677-1.643-2.635z" fill="#6E9E48"/><path d="M12.123 5.372c-.04-1.318.452-2.356 1.398-2.716 1.397-.559 3.287.759 4.191 2.915.904 2.157.494 4.353-.904 4.912-1.11.44-2.466-.28-3.452-1.637-.37.16-.78.32-1.233.479 1.357 2.077 3.535 3.195 5.26 2.516.288-.12.535-.28.74-.44l3.863-2.994A3.148 3.148 0 0023.22 5.89c-.04-2.795-1.603-4.433-2.835-5.311-.781-.52-1.727-.719-2.672-.48l-3.945.959c-.246.04-.534.08-.78.2-1.562.639-2.343 2.515-2.097 4.672.37-.2.822-.4 1.233-.56z" fill="#6E9E48"/></svg>