<svg viewBox="0 0 100 100" fill="none" xmlns="http://www.w3.org/2000/svg"><path d="M69.958 94.154l4.346-17.868h-48.56l4.344 17.868h39.87zm-35.39-82.652c-1.245-3.097-3.498-5.36-6.97-5.687-3.828-.359-3.282-6.158.549-5.799 6.44.606 10.704 5.127 12.465 11.09a10.222 10.222 0 017.673 8.043c6.49-.291 13.523-.03 20.074-.03 6.633 0 8.965 4.942 6.125 10.545-1.087 2.146-2.943 4.45-5.235 6.467h5.88c9.503 0 14.157 9.999 9.788 17.504 12.475 3.762 9.843 22.37-3.316 22.37h-1.21l-5.234 21.528A2.932 2.932 0 0172.258 100H28.183c-1.51 0-2.842-.605-3.238-2.237l-5.288-21.759c-15.155 0-16.746-18.677-4.527-22.369-4.253-7.304.062-17.154 9.253-17.493-.307-3.762 2.51-7.348 5.172-9.713a10.123 10.123 0 01-1.56-5.412c0-4.235 2.647-8.01 6.572-9.515zm13.055 13.536a10.266 10.266 0 01-8.809 6.15 10.258 10.258 0 01-4.803-.884c-1.15.937-3.92 3.677-3.787 5.337.043.555 2.72-.05 4 2.165 5.602 9.547 5.328.691 11.346.691 4.907.094 7.914 15.527 12.557 7.457 1.668-2.835 1.957-6.472 2.492-9.725.42-2.58 7.365-6.682 8.636-9.19.922-1.815.554-2.057-.896-2.074-6.814 0-13.97-.488-20.736.073zm-9.398-8.364a4.337 4.337 0 00-4.36 4.343c0 2.57 2.12 4.426 4.657 4.333a4.33 4.33 0 004.064-4.333c0-2.396-1.953-4.343-4.36-4.343zM18.447 70.158H81.6c7.483 0 7.226-11.166 0-11.166H18.447c-7.47 0-7.23 11.166 0 11.166z" fill="#FFCB09"/></svg>