<svg width="44" height="114" fill="none" xmlns="http://www.w3.org/2000/svg"><path d="M35.437 52.908c-5.138-2.42-6.166-13.256-6.052-18.673 2.969-.346 5.367-2.882 5.367-5.994v-2.306c0-.807-.685-1.383-1.37-1.383h-7.764V1.498c0-.576-.343-1.152-.914-1.383-.57-.23-1.142-.115-1.598.346l-4.568 4.726-.114.115c-.114.116-.114.23-.228.346 0 .115-.114.23-.114.346v18.443h-7.65c-.8 0-1.37.691-1.37 1.383v2.305c0 3.113 2.283 5.648 5.366 5.994.114 5.303-.913 16.253-6.051 18.674C-.53 56.943-.073 69.507.042 69.968v38.038c0 3.343 2.74 5.994 6.051 5.994h31.97c3.31 0 5.937-2.766 5.937-5.994V69.968c-.114-.807.228-12.91-8.563-17.06zM21.85 100.744c-3.882 0-7.08-3.227-7.08-7.146 0-.807.115-1.614.457-2.421l5.367-14.524c.228-.576.685-.922 1.37-.922s1.142.346 1.37.922L28.7 91.177c.343.807.457 1.614.457 2.42-.114 3.92-3.425 7.147-7.307 7.147zM3.353 64.204c.8-3.227 2.398-6.916 6.165-8.645 7.194-3.343 7.764-16.598 7.764-21.21h9.363c0 4.496.57 17.752 7.764 21.21 3.654 1.73 5.366 5.418 6.052 8.645H3.353z" fill="#6E9E48"/></svg>