<svg viewBox="0 0 100 100" fill="none" xmlns="http://www.w3.org/2000/svg"><path d="M73.236 53.917l-.027-.047c-3.517 2.17-11.438 6.783-16.9 7.904-1.525.316-3.11.477-4.712.477-6.022 0-11.573-2.203-16.311-4.264-.3-.133-.888-.373-1.7-.708C21 52.097 12.717 48.115 7.269 44.97c.2 8.25.463 28.398 5.548 32.81 4.622 4.01 32.481 17.455 41.297 16.13 8.78-1.32 38.3-17.262 39.833-27.585.508-4.874.39-17.56.16-25.221-4.977 3.558-11.958 7.742-20.871 12.814zm-58.95 22.017a.921.921 0 01-.188.017c-.485 0-.917-.331-1.01-.802-1.67-8.595-2.385-15.673-2.385-23.657 0-.545.46-.989 1.028-.989.568 0 1.026.443 1.026.989 0 7.855.703 14.824 2.35 23.295.104.532-.266 1.047-.82 1.147zm5.588 3.198a1.115 1.115 0 01-.412.081.99.99 0 01-.905-.555c-.778-1.628-2.375-19.808-2.54-24.465-.022-.545.421-1.001.986-1.02.547-.031 1.04.405 1.06.95.221 6.192 1.835 22.382 2.363 23.727a.994.994 0 01-.552 1.282zm4.606 2.02a1.098 1.098 0 01-.136.012c-.507 0-.947-.361-1.018-.855-.375-2.684-2.365-18.488-2.15-23.85.023-.543.543-.973 1.065-.946.564.021 1.007.48.984 1.021-.194 4.874 1.607 19.741 2.134 23.513.076.54-.32 1.034-.879 1.106zm4.444 2.608l-.067.002c-.536 0-.985-.403-1.02-.926-.237-3.62-1.196-19.277-1.196-24.056 0-.54.457-.985 1.025-.985.568 0 1.025.443 1.025.985 0 4.752.997 20.943 1.195 23.935.035.541-.396 1.009-.962 1.045zm5.266 1.566c-.566 0-1.026-.44-1.026-.983 0-2.44-1.38-20.61-1.842-23.352-.09-.535.293-1.042.85-1.129.56-.085 1.088.28 1.177.816.466 2.783 1.866 21.195 1.866 23.665 0 .544-.459.983-1.026.983zm4.84 2.467c-.566 0-1.026-.44-1.026-.983 0-2.828-.933-20.432-1.515-23.294-.108-.533.252-1.048.811-1.154.557-.106 1.093.246 1.204.777.65 3.207 1.55 21.259 1.55 23.672 0 .542-.46.982-1.025.982zm4.835 2.274a.934.934 0 01-.13.01c-.509 0-.953-.366-1.016-.863-.309-2.355-1.093-20.956-.933-23.955a1 1 0 011.075-.933c.568.026 1.005.489.974 1.033-.15 2.83.626 21.378.92 23.612.07.534-.33 1.027-.89 1.096zm4.918.66c-.567 0-1.026-.439-1.026-.984 0-1.962-.32-8.284-.601-13.864-.235-4.663-.44-8.694-.44-9.769 0-.542.459-.985 1.03-.985.565 0 1.023.442 1.023.985 0 1.029.21 5.225.434 9.672.284 5.606.608 11.951.608 13.96 0 .546-.464.985-1.028.985z" fill="#A96C4D"/><path d="M99.62 29.91c-.604-.578-1.64-1.301-3.036-2.134-1.343 2.708-3.382 5.845-6.12 9.4-.043.057-.084.11-.125.167a101.576 101.576 0 01-5.059 6.025c3.157-1.967 6.201-3.984 8.692-5.873 3.416-2.588 5.799-4.937 6.015-6.598.052-.398-.052-.681-.366-.987zM36.56 55.297c4.787 2.085 9.805 4 15.037 4 1.347 0 2.702-.127 4.073-.41 5.793-1.192 15.129-7.006 17.175-8.313l.414-.267c3.652-2.428 8.749-7.494 13.142-12.883 3.123-3.836 5.885-7.828 7.51-11.151.232-.468.431-.921.612-1.36.205-.492.381-.967.519-1.416.814-2.64.456-4.492-1.713-4.87-2.393-.414-7.798-.665-11.736-1.41a20.847 20.847 0 01-2.047-.484 10.46 10.46 0 01-1.051-.367C66.079 11.148 55.16 6 49.613 6a6.77 6.77 0 00-1.28.11C40.465 7.646 11.1 23.912.69 33.106-1.68 35.2 2.332 38.65 8.44 42.22c10.121 5.913 25.981 12.146 28.118 13.078z" fill="#A96C4D"/></svg>