<svg width="46" height="27" fill="none" xmlns="http://www.w3.org/2000/svg"><path d="M30.782 6.037c-6.747-.564-16.867.847-22.067 5.646a.677.677 0 01-.984 0C6.044 9.566 2.53 8.013 0 7.025c.703 1.694 2.108 4.375 4.217 6.07a.662.662 0 010 1.128C2.108 15.776.703 18.598 0 20.292c2.249-.988 6.325-2.682 7.73-4.657.282-.283.704-.424.985-.142 5.34 4.799 15.04 6.351 22.067 5.646-3.092-4.517-3.092-10.585 0-15.102zm-9.417-.988c1.405-.282 2.952-.423 4.357-.564-1.687-1.27-3.795-2.682-5.903-3.528.28.987.703 2.681 1.546 4.092zm4.357 17.642c-1.405-.14-2.952-.282-4.357-.423-.843 1.27-1.265 2.964-1.546 3.952 2.108-.847 4.216-2.258 5.903-3.529zm8.996-15.948c-2.811 4.093-2.811 9.597 0 13.831 3.795-.988 8.012-2.964 9.277-6.915-1.265-4.093-5.482-6.07-9.277-6.916zm-.984-1.27c.14-.141.422-.282.843-.282 4.498.988 9.418 3.387 10.823 8.185v.424c-1.405 4.798-6.325 7.198-10.823 8.186-.28.14-.562 0-.843-.283-3.373-4.798-3.514-11.432 0-16.23zm3.092 4.657c1.265 0 2.39 1.13 2.39 2.4s-1.125 2.258-2.39 2.258c-1.265 0-2.249-.988-2.249-2.258s.984-2.4 2.25-2.4zm0 1.412c-.421 0-.843.423-.843.988 0 .423.422.846.843.846.563 0 .984-.423.984-.846a.963.963 0 00-.984-.988z" fill="#CE7A39"/></svg>