<svg width="124" height="69" fill="none" xmlns="http://www.w3.org/2000/svg"><path d="M84.074 13.877c-18.427-1.542-46.068 2.313-60.272 15.42-.768.77-1.92.77-2.687 0C16.508 23.513 6.91 19.273 0 16.574 1.92 21.2 5.759 28.524 11.517 33.15c1.152.77 1.152 2.313 0 3.084C5.759 40.475 1.919 48.185 0 52.81c6.142-2.698 17.276-7.324 21.115-12.72.767-.772 1.92-1.157 2.687-.386C38.39 52.81 64.879 57.05 84.074 55.123c-8.445-12.335-8.445-28.91 0-41.246zM58.353 11.18c3.839-.771 8.062-1.157 11.9-1.542C65.648 6.167 59.89 2.313 54.13 0c.768 2.698 1.92 7.324 4.223 11.179zm11.9 48.184c-3.838-.385-8.061-.77-11.9-1.156C56.05 61.676 54.898 66.302 54.13 69c5.758-2.313 11.517-6.168 16.124-9.637zm24.57-43.558c-7.677 11.178-7.677 26.212 0 37.776 10.366-2.698 21.883-8.095 25.338-18.888-3.455-11.179-14.972-16.576-25.338-18.888zm-2.687-3.47c.384-.385 1.152-.77 2.304-.77 12.284 2.698 25.721 9.25 29.56 22.357v1.156c-3.839 13.106-17.276 19.66-29.56 22.358-.768.385-1.536 0-2.304-.771-9.213-13.106-9.597-31.224 0-44.33zm8.446 12.72c3.455 0 6.526 3.085 6.526 6.554 0 3.47-3.071 6.167-6.526 6.167-3.455 0-6.142-2.698-6.142-6.167 0-3.47 2.687-6.553 6.142-6.553zm0 3.856c-1.152 0-2.303 1.156-2.303 2.698 0 1.156 1.151 2.313 2.303 2.313 1.536 0 2.687-1.157 2.687-2.313 0-1.542-1.151-2.698-2.687-2.698z" fill="#CE7A39"/></svg>