<svg viewBox="0 0 100 100" fill="none" xmlns="http://www.w3.org/2000/svg"><path d="M49.306 88.392s-.36 6.89-9.708 6.89c-12.944 0-25.53-22.548-25.53-35.387 0-12.84 7.911-25.368 18.697-25.368 10.788 0 16.54 11.274 16.54 11.274v42.59h.002zM91.014 41.73c-14.383-26.307-41.35-7.83-41.35-7.83s-11.504-4.697-17.977-4.697c-6.471 0-25.527 6.264-25.527 31.63 0 25.367 23.732 38.833 33.797 38.833 10.065 0 10.068-5.95 10.068-5.95s-.36 5.95 13.305 5.95c13.663 0 42.066-31.632 27.684-57.937z" fill="#6E9E48"/><path d="M34.654 62.595c0 .972-2.476 1.762-5.529 1.762-3.052 0-5.527-.79-5.527-1.762 0-.973 2.476-1.762 5.527-1.762 3.052 0 5.529.79 5.529 1.762zm16.18-36.758S50.024 3.757 73.216 0c2.969 22.547-22.382 25.836-22.382 25.836zm-1.617 6.577S34.923 9.63 24.945 7.517c-2.427 2.818-2.965 4.698-2.965 4.698s14.561 4.462 27.237 20.199zM36.925 49.648c-.428.897-3.062.797-5.88-.224-2.82-1.02-4.755-2.577-4.327-3.476.43-.898 3.062-.799 5.88.224 2.819 1.02 4.757 2.577 4.327 3.476zm2.673 25.61c.44.894-1.477 2.47-4.281 3.518-2.807 1.048-5.438 1.175-5.878.282-.44-.894 1.477-2.47 4.28-3.52 2.807-1.046 5.438-1.174 5.879-.28z" fill="#6E9E48"/></svg>