<svg width="36" height="31" fill="none" xmlns="http://www.w3.org/2000/svg"><path d="M26.122 19.597a.584.584 0 00-.464-.197c-1.306.06-2.69.868-3.708 1.621-1.617-.895-3.82-1.872-5.732-1.872-2.361 0-5.027 1.461-6.165 2.499-.32.29-.502.716-.502 1.168 0 .452.183.878.502 1.168 1.138 1.038 3.803 2.499 6.165 2.499 1.912 0 4.115-.977 5.732-1.872 1.019.753 2.403 1.56 3.708 1.622a.57.57 0 00.464-.198.549.549 0 00.121-.48c-.128-.574-.463-2.185-.466-2.736.003-.557.338-2.168.466-2.742a.55.55 0 00-.121-.48zm-12.186 5.319c.29-.556.41-1.363.41-2.1 0-.737-.12-1.544-.41-2.1.763-.27 1.557-.449 2.282-.449 1.792 0 3.975 1.038 5.49 1.908.204.117.46.1.646-.045.942-.737 1.838-1.242 2.6-1.473-.141.703-.317 1.67-.32 2.162.003.489.179 1.453.32 2.156-.762-.23-1.658-.736-2.6-1.473a.581.581 0 00-.646-.045c-1.515.87-3.698 1.908-5.49 1.908-.725 0-1.519-.178-2.282-.45zm-3.105-1.75a.477.477 0 01-.138-.35c0-.14.052-.271.138-.35.454-.414 1.194-.898 2.048-1.307.13.192.324.785.324 1.657 0 .937-.208 1.482-.325 1.657-.853-.41-1.594-.894-2.047-1.307zM32.75 7.471c1.412-1.165 2.034-2.322 1.807-3.41C33.806.45 24.51.277 16.144 1.946c-4.514.9-8.654 2.278-11.66 3.88-3.24 1.727-4.775 3.497-4.437 5.12.051.245.148.473.276.688V25.29c0 3.678 9.059 5.662 17.582 5.662 8.523 0 17.582-1.984 17.582-5.662V10.974c.019-.115.029-.232.029-.35 0-1.25-1.048-2.305-2.764-3.153zM1.464 25.29V12.765c2.719 2.305 9.743 3.528 16.44 3.528 6.697 0 13.721-1.223 16.44-3.528V25.29c0 2.15-6.752 4.544-16.44 4.544-9.688 0-16.44-2.394-16.44-4.544zM5.031 6.807c.215-.115.439-.228.667-.34 2.842-1.405 6.595-2.612 10.674-3.426 3.486-.696 6.65-.998 9.283-.998 4.547 0 7.505.903 7.784 2.24.154.738-.526 1.686-1.868 2.675a13.27 13.27 0 01-.569.396 19.619 19.619 0 01-1.43.844 25.69 25.69 0 01-1.174.585c-1.69.792-3.67 1.514-5.827 2.13-1.384.397-2.839.75-4.34 1.05-6.33 1.263-11.597 1.229-14.543.442-.694-.185-1.258-.411-1.678-.673a2.661 2.661 0 01-.425-.323c-.224-.213-.369-.442-.42-.687-.138-.662.392-1.49 1.467-2.367.624-.508 1.43-1.032 2.399-1.548zm29.34 3.829a.98.98 0 01-.027.22c-.178.8-1.255 1.62-3.042 2.327.698-.483 1.085-1.01 1.085-1.565 0-.319-.132-.629-.373-.927-.409-.504-1.14-.973-2.135-1.388.08-.041.162-.082.24-.124.59-.314 1.12-.63 1.596-.945 1.704.737 2.658 1.58 2.658 2.389l-.002.012z" fill="#D87645"/><path d="M13.936 24.916c.29-.556.41-1.363.41-2.1 0-.737-.12-1.544-.41-2.1.763-.27 1.557-.449 2.282-.449 1.792 0 3.975 1.038 5.49 1.908.204.117.46.1.646-.045.942-.737 1.838-1.242 2.6-1.473-.141.703-.317 1.67-.32 2.162.003.489.179 1.453.32 2.156-.762-.23-1.658-.736-2.6-1.473a.581.581 0 00-.646-.045c-1.515.87-3.698 1.908-5.49 1.908-.725 0-1.519-.178-2.282-.45zm-3.106-1.75a.477.477 0 01-.137-.35c0-.14.052-.271.138-.35.454-.414 1.194-.898 2.048-1.307.13.192.324.785.324 1.657 0 .937-.208 1.482-.325 1.657-.853-.41-1.594-.894-2.047-1.307z" fill="#D87645"/></svg>