<svg viewBox="0 0 100 100" fill="none" xmlns="http://www.w3.org/2000/svg"><path d="M73.552 59.987a1.67 1.67 0 00-1.305-.54c-3.678.167-7.573 2.372-10.443 4.43-4.552-2.445-10.754-5.114-16.139-5.114-6.649 0-14.154 3.992-17.36 6.825a4.248 4.248 0 00-1.411 3.191c0 1.234.515 2.397 1.411 3.19 3.205 2.834 10.71 6.825 17.36 6.825 5.385 0 11.587-2.668 16.14-5.113 2.869 2.056 6.765 4.261 10.441 4.43.516.022.984-.178 1.305-.54.324-.363.45-.848.343-1.312-.362-1.568-1.305-5.967-1.314-7.472.01-1.521.952-5.921 1.314-7.488a1.469 1.469 0 00-.342-1.312zm-34.31 14.526c.817-1.517 1.15-3.721 1.15-5.735 0-2.013-.333-4.217-1.15-5.733 2.147-.741 4.382-1.229 6.423-1.229 5.047 0 11.192 2.835 15.458 5.212a1.68 1.68 0 001.818-.124c2.654-2.013 5.178-3.392 7.323-4.023-.399 1.922-.892 4.561-.9 5.906.008 1.334.501 3.968.9 5.888-2.145-.63-4.669-2.01-7.324-4.022a1.678 1.678 0 00-1.817-.124c-4.266 2.377-10.411 5.212-15.458 5.212-2.041 0-4.276-.487-6.424-1.228zm-8.745-4.779c-.243-.214-.387-.571-.387-.955s.144-.742.387-.957c1.277-1.129 3.363-2.451 5.765-3.568.366.524.914 2.144.914 4.524 0 2.56-.586 4.048-.915 4.525-2.402-1.117-4.487-2.44-5.764-3.569zm61.722-42.867c3.976-3.182 5.725-6.34 5.086-9.316-2.118-9.857-28.29-10.33-51.847-5.772-12.71 2.46-24.37 6.223-32.83 10.596C3.5 27.093-.822 31.928.129 36.359c.145.672.418 1.294.777 1.88v37.297C.906 85.581 26.413 91 50.413 91c23.999 0 49.506-5.42 49.506-15.464V36.435a5.74 5.74 0 00.081-.957c0-3.415-2.95-6.295-7.78-8.611zM4.122 75.537V41.33c7.655 6.295 27.435 9.636 46.29 9.636 18.857 0 38.637-3.341 46.291-9.636v34.206c0 5.87-19.01 12.411-46.29 12.411-27.28 0-46.29-6.54-46.29-12.41zm10.044-50.48a70.216 70.216 0 011.877-.93c8.003-3.836 18.571-7.133 30.057-9.356 9.816-1.9 18.726-2.726 26.137-2.726 12.805 0 21.133 2.466 21.917 6.117.434 2.018-1.48 4.606-5.258 7.306-.502.36-1.034.72-1.602 1.082a45.81 45.81 0 01-1.715 1.038c-.731.423-1.497.845-2.31 1.266a72.816 72.816 0 01-3.308 1.6c-4.758 2.162-10.334 4.133-16.406 5.82a158.008 158.008 0 01-12.221 2.865c-17.824 3.45-32.654 3.355-40.949 1.208-1.954-.505-3.543-1.125-4.725-1.839a7.477 7.477 0 01-1.197-.882c-.632-.582-1.039-1.209-1.183-1.877-.388-1.807 1.104-4.072 4.131-6.464 1.757-1.388 4.027-2.819 6.755-4.229zM96.78 35.512c-.003.2-.032.401-.078.603-.5 2.183-3.532 4.422-8.566 6.354 1.966-1.317 3.057-2.76 3.057-4.273 0-.87-.371-1.718-1.052-2.532-1.15-1.377-3.211-2.659-6.011-3.791.224-.113.455-.225.675-.339a54.625 54.625 0 004.496-2.582c4.798 2.015 7.482 4.317 7.482 6.525 0 .012-.003.024-.004.035z" fill="#D87645"/><path d="M39.241 74.513c.818-1.517 1.151-3.721 1.151-5.735 0-2.013-.333-4.217-1.15-5.733 2.147-.741 4.382-1.229 6.423-1.229 5.047 0 11.192 2.835 15.458 5.212a1.68 1.68 0 001.818-.124c2.654-2.013 5.178-3.392 7.323-4.023-.399 1.922-.892 4.561-.9 5.906.008 1.334.501 3.968.9 5.888-2.145-.63-4.669-2.01-7.324-4.022a1.678 1.678 0 00-1.817-.124c-4.266 2.377-10.411 5.212-15.458 5.212-2.041 0-4.276-.487-6.424-1.228zm-8.744-4.779c-.243-.214-.387-.571-.387-.955s.144-.742.387-.957c1.277-1.129 3.363-2.451 5.765-3.568.366.524.914 2.144.914 4.524 0 2.56-.586 4.048-.915 4.525-2.402-1.117-4.487-2.44-5.764-3.569z" fill="#D87645"/></svg>