<svg width="65" height="75" fill="none" xmlns="http://www.w3.org/2000/svg"><path d="M47.079 70.118l3.2-13.298H14.515l3.2 13.298h29.364zM21.013 8.605c-.916-2.305-2.575-3.989-5.133-4.232-2.82-.267-2.417-4.583.405-4.316 4.742.45 7.884 3.816 9.18 8.254 2.885.693 5.11 3.05 5.651 5.985 4.78-.217 9.96-.022 14.785-.022 4.886 0 6.603 3.678 4.511 7.848-.8 1.597-2.167 3.312-3.855 4.813h4.33c7 0 10.427 7.441 7.21 13.027 9.187 2.8 7.248 16.648-2.443 16.648h-.892l-3.854 16.022a2.167 2.167 0 01-2.135 1.837H16.31c-1.112 0-2.093-.45-2.384-1.665L10.032 56.61c-11.162 0-12.334-13.9-3.334-16.648-3.132-5.436.046-12.766 6.814-13.02-.225-2.799 1.85-5.468 3.81-7.227a7.593 7.593 0 01-1.15-4.028 7.603 7.603 0 014.841-7.082zM30.63 18.68c-1.125 2.617-3.626 4.408-6.488 4.578a7.491 7.491 0 01-3.537-.659c-.847.698-2.888 2.737-2.79 3.973.032.412 2.004-.037 2.946 1.61 4.127 7.106 3.924.515 8.357.515 3.614.07 5.828 11.555 9.248 5.55 1.229-2.11 1.442-4.817 1.836-7.238.309-1.92 5.424-4.973 6.36-6.84.679-1.35.408-1.53-.66-1.544-5.019 0-10.289-.362-15.272.055zm-6.922-6.225a3.211 3.211 0 00-3.211 3.233c0 1.912 1.561 3.294 3.43 3.224a3.208 3.208 0 002.993-3.224c0-1.784-1.439-3.233-3.212-3.233zM9.14 52.26h46.514c5.511 0 5.322-8.31 0-8.31H9.14c-5.5 0-5.325 8.31 0 8.31z" fill="#FFCB09"/></svg>