<svg viewBox="0 0 100 100" fill="none" xmlns="http://www.w3.org/2000/svg"><path d="M71.022 19.716h-8.464l1.118-6.467c.32-2.05 2.076-3.785 4.312-4.1L83 7.097 82.042 0 67.029 2.05c-5.27.79-9.422 4.732-10.38 9.78l-1.278 7.886H20.396c-.64 0-1.278.316-1.757.789-.48.473-.639 1.104-.639 1.735l4.472 71.766c.16 3.313 3.034 5.994 6.388 5.994h33.378c3.354 0 6.229-2.681 6.388-5.994l4.472-71.766c0-.631-.16-1.262-.639-1.735-.16-.473-.798-.789-1.437-.789zM34.93 79.97c-1.757 0-3.354-1.42-3.354-3.313 0-1.735 1.437-3.312 3.354-3.312 1.916 0 3.354 1.42 3.354 3.312-.16 1.893-1.598 3.313-3.354 3.313zm0-23.818c-1.757 0-3.354-1.42-3.354-3.312 0-1.735 1.437-3.312 3.354-3.312 1.916 0 3.354 1.42 3.354 3.312-.16 1.893-1.598 3.312-3.354 3.312zm7.825 7.414c-.958 0-1.756-.789-1.756-1.735 0-.947.798-1.735 1.756-1.735.959 0 1.757.788 1.757 1.735 0 .946-.799 1.735-1.757 1.735zm8.465-21.451H24.07L22.95 24.29h31.462l-3.194 17.824zm16.13 0h-8.944l3.354-17.666h6.708L67.35 42.115z" fill="#1C96D9"/></svg>