<svg width="91" height="84" fill="none" xmlns="http://www.w3.org/2000/svg"><path d="M61.037 80.932H20.41c-.539 0-.898-.356-.898-.89V63.754c0-.535.36-.89.898-.89.54 0 .9.355.9.89v15.398h38.918v-25.19c0-.177.09-.355.18-.533.63-.801 1.438-1.691 2.247-2.582 1.258-1.424 2.607-2.848 3.056-3.916.27-.8.09-1.602-.54-2.581-3.145-4.361-15.19-8.456-24.807-8.278-1.617 0-3.325.178-5.033.445-.45.09-.989-.267-.989-.712-.09-.445.27-.979.72-.979 1.797-.267 3.595-.445 5.302-.445 10.247-.178 22.74 4.184 26.336 9.079 1.258 1.78 1.168 3.293.809 4.183-.54 1.424-1.888 2.938-3.416 4.54-.719.712-1.348 1.513-1.977 2.136v25.723c-.18.445-.54.89-1.079.89z" fill="#CE7A39"/><path d="M65.082 50.403a.976.976 0 01-.63-.268c-.359-.356-.449-.89-.09-1.246l21.573-24.032c2.337-2.67 2.876-6.23 1.618-9.612-1.259-3.294-4.135-5.519-7.73-6.053L67.059 7.501c-7.46-.98-14.92 1.335-20.493 6.408l-4.943 5.163a.875.875 0 01-1.259 0 .855.855 0 010-1.246l5.034-5.074c5.932-5.518 13.931-8.01 22.02-6.942L80.183 7.5c4.225.535 7.64 3.205 9.168 7.121 1.528 3.917.81 8.19-1.977 11.394L65.8 50.046c-.18.178-.45.357-.719.357z" fill="#CE7A39"/><path d="M86.654 25.48v25.902l-25.617 28.66v-26.08L86.654 25.48z" fill="#CE7A39"/><path d="M61.037 80.932c-.09 0-.18 0-.36-.089-.359-.089-.538-.445-.538-.801v-26.08c0-.177.09-.444.27-.622l25.616-28.572a1.02 1.02 0 01.988-.267c.36.09.54.445.54.801v25.99c0 .179-.09.446-.27.624l-25.617 28.57c-.09.357-.36.446-.629.446zm.9-26.613v23.32l23.818-26.613V27.794L61.936 54.319zM32.275 75.147c-.54 0-.899-.357-.899-.89v-4.273c0-.534.36-.89.899-.89.54 0 .899.356.899.89v4.272c0 .445-.36.89-.9.89zm14.83 0c-.539 0-.898-.357-.898-.89v-4.273c0-.534.36-.89.898-.89.54 0 .9.356.9.89v4.272c0 .445-.36.89-.9.89zM11.512 50.492c-.809-4.718-4.764-7.388-5.842-8.011-.36.356-3.955 4.094-3.146 9.435.719 4.717 4.404 7.031 4.943 7.387.72-.356 2.607-1.602 3.596-4.005.898-2.047.629-3.827.45-4.806z" fill="#CE7A39"/><path d="M7.557 60.282l-.45-.267c-1.078-.712-4.583-3.204-5.392-8.01-.899-5.697 2.876-9.702 3.326-10.147l.539-.534.63.356c1.617.979 5.392 3.916 6.2 8.633.18.98.54 2.938-.449 5.252-.988 2.492-2.966 3.827-3.954 4.45l-.45.267zM5.85 43.638c-.99 1.246-2.967 4.183-2.337 8.1.539 3.56 2.876 5.607 4.134 6.497a6.624 6.624 0 002.697-3.204c.719-1.87.45-3.471.36-4.273-.72-3.649-3.326-6.052-4.854-7.12zm11.235 8.99c3.865-2.938 8.539-2.225 9.797-2.047 0 .533.18 5.696-4.135 8.99-3.775 2.937-8.089 2.224-8.718 2.135-.27-.8-.81-2.937.09-5.34.719-1.958 2.157-3.115 2.966-3.738z" fill="#CE7A39"/><path d="M15.916 62.775c-.899 0-1.617-.09-1.977-.178l-.54-.09-.18-.534c-.359-1.157-.808-3.382.09-5.874.9-2.314 2.518-3.56 3.326-4.183 3.865-2.938 8.63-2.493 10.517-2.226l.719.09v.712c0 .623.09 6.141-4.494 9.701-2.697 2.137-5.573 2.582-7.46 2.582zm-1.168-1.78c1.438.177 4.674.177 7.46-2.048 3.146-2.492 3.685-5.963 3.775-7.566-1.977-.178-5.483-.178-8.359 1.959-.719.534-1.977 1.513-2.696 3.382-.63 1.691-.45 3.204-.18 4.272zm2.696-25.545c-.809-4.718-4.763-7.388-5.842-8.011-.36.267-3.955 4.005-3.056 9.345.72 4.718 4.404 7.032 4.944 7.388.719-.356 2.606-1.602 3.595-4.005.809-1.959.54-3.828.36-4.718z" fill="#CE7A39"/><path d="M13.49 45.24l-.45-.267c-1.079-.712-4.584-3.204-5.393-8.01-.899-5.697 2.876-9.702 3.326-10.148l.54-.534.628.357c1.618.979 5.393 3.916 6.202 8.633.18.98.54 2.938-.45 5.252-.988 2.492-2.965 3.827-3.954 4.45l-.45.267zm-1.708-16.733c-.989 1.246-2.966 4.183-2.337 8.1.54 3.56 2.876 5.607 4.134 6.497a6.625 6.625 0 002.697-3.204c.719-1.87.45-3.472.36-4.273-.72-3.56-3.326-5.963-4.854-7.12zm11.235 9.078c3.865-2.937 8.539-2.225 9.797-2.047 0 .534.18 5.697-4.134 8.99-3.775 2.937-8.09 2.225-8.719 2.136-.27-.8-.809-2.937.09-5.34.719-2.047 2.157-3.115 2.966-3.739z" fill="#CE7A39"/><path d="M21.849 47.732c-.9 0-1.618-.089-1.978-.178l-.629-.089-.18-.534c-.36-1.157-.809-3.382.09-5.874.899-2.315 2.517-3.56 3.326-4.184 3.865-2.937 8.628-2.492 10.516-2.225l.719.09v.711c0 .623.09 6.142-4.494 9.702-2.607 2.136-5.483 2.581-7.37 2.581zm-1.169-1.869c1.438.178 4.674.178 7.46-2.047 3.146-2.492 3.686-5.964 3.775-7.566-1.977-.178-5.482-.178-8.359 1.959-.719.533-1.977 1.513-2.696 3.382-.63 1.69-.45 3.293-.18 4.272zm2.697-25.545c-.81-4.717-4.764-7.388-5.843-8.01-.36.355-3.955 4.094-3.146 9.434.72 4.717 4.405 7.032 4.944 7.388.719-.356 2.607-1.602 3.595-4.006.899-2.047.63-3.827.45-4.806z" fill="#CE7A39"/><path d="M19.422 30.198l-.45-.267c-1.078-.712-4.584-3.204-5.393-8.01-.898-5.697 2.877-9.703 3.326-10.148l.54-.534.628.356c1.618.98 5.393 3.917 6.202 8.634.18.98.54 3.026-.449 5.251-.989 2.493-2.966 3.828-3.955 4.45l-.45.268zm-1.708-16.734c-.989 1.246-2.966 4.184-2.337 8.1.54 3.56 2.876 5.608 4.135 6.498a6.624 6.624 0 002.696-3.205c.72-1.869.45-3.47.36-4.272-.72-3.65-3.326-5.964-4.854-7.12zm11.236 9.079c3.864-2.937 8.538-2.225 9.796-2.047 0 .534.18 5.697-4.134 8.99-3.775 2.937-8.09 2.225-8.719 2.136-.27-.801-.809-2.937.09-5.34.72-2.048 2.157-3.205 2.966-3.739z" fill="#CE7A39"/><path d="M27.78 32.69a11.02 11.02 0 01-2.067-.178l-.539-.089-.18-.534c-.36-1.157-.808-3.382.09-5.874.9-2.315 2.517-3.56 3.326-4.184 3.865-2.937 8.629-2.492 10.516-2.225l.72.089v.712c0 .623.09 6.142-4.495 9.702-2.606 2.136-5.483 2.581-7.37 2.581zm-1.168-1.87c1.439.179 4.584.179 7.46-2.046 3.146-2.492 3.686-5.964 3.776-7.566-1.978-.178-5.483-.178-8.36 1.958-.718.534-1.977 1.513-2.696 3.383-.63 1.69-.45 3.293-.18 4.272zm8.629-19.403c-2.067 5.163-7.28 6.409-7.64 6.498-.27-.356-3.236-4.718-1.168-9.969 2.067-5.162 7.28-6.409 7.64-6.498.18.356 3.145 4.807 1.168 9.97z" fill="#CE7A39"/><path d="M27.152 18.894l-.36-.445c-.36-.534-3.505-5.163-1.258-10.77C27.69 2.16 33.174.736 33.803.647l.63-.089.359.445c.36.534 3.505 5.163 1.258 10.77-2.157 5.608-7.73 6.943-8.27 7.032l-.628.089zm6.471-16.377c-1.438.445-4.943 1.958-6.381 5.785-1.529 3.827 0 7.299.808 8.545 1.439-.445 4.944-1.959 6.382-5.786 1.438-3.827-.09-7.298-.809-8.544zM1.625 83.691c-.09 0-.18 0-.36-.089-.449-.178-.719-.712-.539-1.157l8.09-20.65c.18-.445.719-.712 1.168-.534.45.178.72.712.54 1.157l-8.09 20.65a.862.862 0 01-.809.623z" fill="#CE7A39"/></svg>