<svg width="15" height="39" fill="none" xmlns="http://www.w3.org/2000/svg"><path d="M12.08 18.1c-1.75-.828-2.101-4.535-2.062-6.388a2.077 2.077 0 001.83-2.05v-.79a.476.476 0 00-.468-.473H8.733V.513a.513.513 0 00-.311-.474.478.478 0 00-.545.119L6.32 1.775l-.039.039c-.039.04-.039.079-.078.118 0 .04-.039.08-.039.119V8.36H3.556a.477.477 0 00-.467.473v.789c0 1.065.779 1.932 1.83 2.05.039 1.814-.312 5.56-2.063 6.389-3.036 1.42-2.88 5.718-2.842 5.875V36.95c0 1.143.934 2.05 2.063 2.05h10.899C14.105 39 15 38.054 15 36.95V23.935c-.039-.276.078-4.416-2.92-5.836zM7.45 34.465c-1.324 0-2.414-1.104-2.414-2.445 0-.276.04-.552.156-.828l1.83-4.968a.47.47 0 01.467-.316.47.47 0 01.467.316l1.83 4.968c.116.276.155.552.155.828-.039 1.341-1.168 2.445-2.491 2.445zm-6.306-12.5c.272-1.105.817-2.366 2.102-2.958 2.452-1.144 2.647-5.678 2.647-7.256h3.192c0 1.538.194 6.073 2.646 7.256 1.246.592 1.83 1.853 2.063 2.958H1.143z" fill="#CE7A39"/></svg>