<svg width="113" height="105" fill="none" xmlns="http://www.w3.org/2000/svg"><path d="M76.246 101.515H24.933c-.681 0-1.135-.45-1.135-1.124V79.818c0-.674.454-1.124 1.135-1.124s1.135.45 1.135 1.124v19.449h49.157V67.452c0-.225.113-.45.227-.675.794-1.011 1.816-2.136 2.838-3.26 1.59-1.799 3.292-3.597 3.86-4.946.34-1.012.113-2.024-.682-3.26-3.973-5.51-19.185-10.68-31.332-10.456-2.044 0-4.2.225-6.358.563-.567.112-1.249-.338-1.249-.9-.113-.562.341-1.236.909-1.236 2.27-.338 4.54-.563 6.698-.563 12.941-.224 28.721 5.284 33.262 11.467 1.59 2.249 1.476 4.16 1.022 5.284-.681 1.799-2.384 3.71-4.314 5.733-.908.9-1.703 1.912-2.497 2.698v32.49c-.227.562-.682 1.124-1.363 1.124z" fill="#CE7A39"/><path d="M81.355 62.955c-.227 0-.568-.112-.795-.337-.454-.45-.567-1.124-.113-1.574l27.246-30.353c2.951-3.373 3.632-7.87 2.043-12.142-1.589-4.16-5.222-6.97-9.763-7.644l-16.12-2.136c-9.423-1.237-18.846 1.686-25.884 8.094l-6.244 6.52c-.454.45-1.135.45-1.59 0a1.08 1.08 0 010-1.574l6.358-6.408c7.493-6.97 17.596-10.117 27.814-8.768l16.12 2.136c5.336.674 9.65 4.047 11.58 8.993 1.93 4.947 1.021 10.343-2.498 14.39L82.263 62.505c-.227.225-.568.45-.908.45z" fill="#CE7A39"/><path d="M108.601 31.477v32.715L76.246 100.39V67.45l32.355-35.973z" fill="#CE7A39"/><path d="M76.246 101.515c-.113 0-.227 0-.454-.112-.454-.113-.681-.563-.681-1.012v-32.94c0-.224.114-.561.34-.786l32.355-36.087c.341-.337.795-.45 1.249-.337.454.112.681.562.681 1.012v32.826c0 .225-.113.562-.34.787l-32.355 36.087c-.114.45-.454.562-.795.562zm1.136-33.614v29.455l30.084-33.614V34.4L77.382 67.902zM39.918 94.208c-.68 0-1.135-.45-1.135-1.124v-5.397c0-.674.454-1.124 1.135-1.124s1.136.45 1.136 1.124v5.397c0 .562-.455 1.124-1.136 1.124zm18.732 0c-.681 0-1.135-.45-1.135-1.124v-5.397c0-.674.454-1.124 1.135-1.124s1.135.45 1.135 1.124v5.397c0 .562-.454 1.124-1.135 1.124zm-44.956-31.14c-1.022-5.959-6.017-9.331-7.379-10.118-.454.45-4.995 5.171-3.973 11.916.908 5.958 5.562 8.881 6.243 9.331.909-.45 3.293-2.023 4.541-5.059 1.136-2.586.795-4.834.568-6.07z" fill="#CE7A39"/><path d="M8.699 75.434l-.568-.338C6.77 74.197 2.341 71.05 1.32 64.98c-1.135-7.195 3.633-12.254 4.2-12.816l.681-.675.795.45c2.044 1.236 6.812 4.946 7.833 10.905.227 1.236.681 3.71-.567 6.632-1.249 3.148-3.747 4.834-4.995 5.621l-.568.338zM6.542 54.41c-1.249 1.574-3.746 5.284-2.952 10.23.682 4.497 3.633 7.083 5.223 8.207 1.135-.674 2.61-2.024 3.405-4.047.909-2.361.568-4.385.454-5.396-.908-4.61-4.2-7.645-6.13-8.994zm14.191 11.356c4.881-3.71 10.784-2.811 12.374-2.586 0 .674.227 7.195-5.222 11.354-4.768 3.71-10.218 2.81-11.012 2.698-.34-1.011-1.022-3.71.113-6.745.909-2.473 2.725-3.934 3.747-4.721z" fill="#CE7A39"/><path d="M19.257 78.581c-1.135 0-2.044-.112-2.498-.225l-.68-.112-.228-.674c-.454-1.462-1.022-4.272.114-7.42 1.135-2.923 3.178-4.497 4.2-5.284 4.882-3.71 10.898-3.148 13.282-2.81l.909.112v.9c0 .786.113 7.756-5.677 12.253-3.405 2.698-7.038 3.26-9.422 3.26zm-1.476-2.248c1.816.225 5.903.225 9.423-2.586 3.973-3.147 4.654-7.532 4.768-9.555-2.498-.225-6.925-.225-10.558 2.473-.908.674-2.498 1.911-3.406 4.272-.795 2.136-.568 4.047-.227 5.396zm3.406-32.264c-1.022-5.959-6.017-9.331-7.38-10.118-.454.337-4.994 5.059-3.86 11.804.909 5.958 5.564 8.881 6.245 9.33.908-.449 3.292-2.023 4.54-5.058 1.022-2.474.682-4.834.455-5.959z" fill="#CE7A39"/><path d="M16.192 56.435l-.568-.338c-1.362-.899-5.79-4.047-6.811-10.117-1.136-7.195 3.632-12.254 4.2-12.816l.681-.675.795.45c2.043 1.237 6.811 4.946 7.833 10.905.227 1.236.681 3.71-.568 6.632-1.248 3.148-3.746 4.834-4.995 5.621l-.567.338zM14.035 35.3c-1.25 1.574-3.747 5.284-2.952 10.23.681 4.497 3.633 7.082 5.222 8.207 1.135-.675 2.611-2.024 3.406-4.047.908-2.361.568-4.385.454-5.397-.908-4.496-4.2-7.532-6.13-8.993zm14.19 11.467c4.882-3.71 10.785-2.81 12.374-2.586 0 .675.228 7.195-5.222 11.354-4.768 3.71-10.217 2.81-11.012 2.698-.34-1.011-1.021-3.71.114-6.745.908-2.585 2.725-3.934 3.746-4.721z" fill="#CE7A39"/><path d="M26.75 59.582c-1.136 0-2.044-.112-2.498-.224l-.795-.113-.227-.674c-.454-1.462-1.021-4.272.114-7.42 1.135-2.923 3.178-4.497 4.2-5.284 4.882-3.71 10.899-3.148 13.283-2.81l.908.112v.9c0 .786.113 7.756-5.676 12.253-3.293 2.698-6.925 3.26-9.31 3.26zm-1.476-2.36c1.816.224 5.903.224 9.422-2.586 3.974-3.148 4.655-7.532 4.768-9.556-2.497-.224-6.925-.224-10.558 2.474-.908.674-2.497 1.91-3.405 4.271-.795 2.136-.568 4.16-.227 5.397zm3.406-32.265C27.657 19 22.662 15.627 21.3 14.84c-.454.45-4.995 5.172-3.973 11.917.908 5.958 5.563 8.881 6.244 9.33.908-.449 3.292-2.023 4.54-5.058 1.136-2.586.795-4.834.568-6.07z" fill="#CE7A39"/><path d="M23.684 37.436l-.567-.337c-1.363-.9-5.79-4.048-6.812-10.118-1.135-7.195 3.633-12.254 4.2-12.816l.682-.675.794.45c2.044 1.237 6.812 4.947 7.834 10.905.227 1.236.68 3.822-.568 6.633-1.249 3.147-3.746 4.834-4.995 5.62l-.568.338zM21.527 16.3c-1.248 1.574-3.746 5.284-2.951 10.23.68 4.497 3.633 7.083 5.222 8.207 1.135-.675 2.61-2.024 3.406-4.047.908-2.361.567-4.385.454-5.397-.909-4.609-4.2-7.532-6.13-8.993zm14.191 11.468c4.881-3.71 10.785-2.81 12.374-2.586 0 .675.227 7.195-5.222 11.354-4.768 3.71-10.217 2.81-11.012 2.698-.34-1.011-1.022-3.71.114-6.745.908-2.585 2.724-4.047 3.746-4.721z" fill="#CE7A39"/><path d="M34.242 40.584c-1.135 0-2.043-.113-2.611-.225l-.681-.113-.227-.674c-.454-1.462-1.022-4.272.113-7.42 1.136-2.923 3.179-4.497 4.2-5.284 4.882-3.71 10.9-3.147 13.283-2.81l.908.112v.9c0 .787.114 7.757-5.676 12.253-3.292 2.698-6.925 3.26-9.309 3.26zm-1.476-2.361c1.817.224 5.79.224 9.423-2.586 3.973-3.148 4.654-7.532 4.768-9.556-2.498-.224-6.925-.224-10.558 2.474-.908.674-2.498 1.91-3.406 4.272-.794 2.136-.567 4.16-.227 5.396zm10.899-24.508c-2.611 6.52-9.196 8.094-9.65 8.207-.34-.45-4.087-5.958-1.476-12.591 2.611-6.52 9.196-8.094 9.65-8.207.227.45 3.973 6.07 1.476 12.591z" fill="#CE7A39"/><path d="M33.447 23.159l-.454-.563c-.454-.674-4.427-6.52-1.589-13.602 2.725-6.97 9.65-8.77 10.444-8.882L42.643 0l.454.562c.454.675 4.428 6.52 1.59 13.603-2.725 7.082-9.764 8.769-10.445 8.881l-.795.113zm8.174-20.686c-1.816.562-6.244 2.473-8.06 7.308-1.93 4.834 0 9.218 1.022 10.792 1.816-.562 6.244-2.473 8.06-7.308 1.816-4.834-.114-9.218-1.022-10.792zM1.206 105c-.113 0-.227 0-.454-.112-.567-.225-.908-.9-.68-1.462l10.216-26.081c.227-.562.909-.9 1.476-.675.568.225.908.9.681 1.462L2.228 104.213c-.113.45-.568.787-1.022.787z" fill="#CE7A39"/></svg>