<svg viewBox="0 0 100 100" fill="none" xmlns="http://www.w3.org/2000/svg"><path d="M100 44.86C100 28.698 86.578 19 64.16 19c-13.422 0-18.732 4.408-23.452 8.228-2.655 2.204-5.015 4.114-8.85 5.29-4.13 1.322-8.407 1.616-12.537 2.057-8.112.734-15.929 1.469-18.584 9.403-.59 1.764-.737 3.38-.59 5.143L0 59.7c0 3.232 1.475 6.318 4.277 9.11 7.817 7.787 26.254 13.077 46.018 13.077C79.646 81.887 100 71.454 100 56.614l-.147-10.285c.147-.294.147-.881.147-1.47zM50.295 65.724c-19.764 0-38.79-5.73-44.248-13.37-1.622-2.205-1.917-4.408-1.18-6.76 1.77-4.995 6.49-5.73 14.897-6.464 4.13-.441 8.85-.882 13.422-2.204 4.72-1.47 7.522-3.82 10.324-6.172 4.425-3.673 8.702-7.2 20.502-7.2 20.059 0 31.416 7.788 31.416 21.453.147 11.901-18.88 20.717-45.133 20.717zm13.864-37.026c-10.03 0-12.98 2.497-17.256 6.024-2.95 2.35-6.49 5.436-12.242 7.2-5.163 1.616-10.177 2.056-14.455 2.497-7.817.735-9.881 1.323-10.324 2.939-.147.44-.295.881.443 2.057 3.834 5.436 20.206 11.167 39.97 11.167 24.779 0 40.118-8.082 40.118-15.575 0-14.252-16.52-16.31-26.254-16.31zm7.817 17.631c-3.54 0-6.49-2.35-6.49-5.142 0-2.792 2.95-5.143 6.49-5.143s6.49 2.35 6.49 5.143c0 2.791-2.95 5.142-6.49 5.142z" fill="#C94044"/></svg>