<svg width="33" height="30" fill="none" xmlns="http://www.w3.org/2000/svg"><path d="M24.168 16.335l-.009-.015c-1.16.74-3.775 2.312-5.577 2.694a7.454 7.454 0 01-1.555.163c-1.987 0-3.82-.751-5.383-1.454-.099-.045-.293-.127-.56-.241-4.154-1.767-6.887-3.125-8.685-4.197.066 2.813.153 9.68 1.83 11.185 1.526 1.367 10.72 5.95 13.629 5.499 2.897-.45 12.638-5.885 13.144-9.404.168-1.662.13-5.986.053-8.598-1.642 1.213-3.946 2.64-6.887 4.368zM4.714 23.841a.34.34 0 01-.395-.268c-.551-2.93-.787-5.343-.787-8.065a.338.338 0 01.678 0c0 2.679.232 5.054.775 7.942a.337.337 0 01-.27.391zm1.844 1.09a.358.358 0 01-.135.028.326.326 0 01-.3-.19c-.256-.554-.783-6.752-.838-8.34a.338.338 0 01.675-.024c.074 2.111.606 7.63.78 8.09a.343.343 0 01-.182.436zm1.52.69a.34.34 0 01-.381-.288c-.123-.915-.78-6.303-.709-8.131a.345.345 0 01.351-.323.337.337 0 01.325.349c-.064 1.661.53 6.73.704 8.015a.336.336 0 01-.29.377zm1.467.888h-.022a.338.338 0 01-.337-.315c-.078-1.234-.394-6.572-.394-8.2a.337.337 0 01.676-.001c0 1.62.33 7.14.394 8.16a.338.338 0 01-.317.356zm1.738.534a.337.337 0 01-.339-.335c0-.832-.455-7.026-.608-7.96a.339.339 0 01.669-.107c.154.948.616 7.225.616 8.067a.336.336 0 01-.338.335zm1.597.841a.337.337 0 01-.339-.335c0-.964-.308-6.966-.5-7.941a.339.339 0 01.665-.129c.215 1.094.512 7.248.512 8.07a.337.337 0 01-.338.335zm1.596.775a.338.338 0 01-.378-.29c-.103-.804-.361-7.145-.309-8.167a.334.334 0 01.355-.318.335.335 0 01.322.352c-.05.965.206 7.288.303 8.05a.337.337 0 01-.293.373zm1.622.225a.337.337 0 01-.338-.335c0-.67-.106-2.825-.199-4.727-.077-1.59-.145-2.963-.145-3.33 0-.185.152-.336.34-.336.187 0 .338.15.338.336 0 .35.07 1.781.143 3.297.094 1.911.2 4.074.2 4.76a.338.338 0 01-.339.335z" fill="#6E9E48"/><path d="M32.875 8.151c-.2-.197-.541-.443-1.002-.727-.443.923-1.117 1.992-2.02 3.204-.014.02-.028.037-.041.057a34.34 34.34 0 01-1.67 2.054c1.042-.67 2.047-1.358 2.869-2.002 1.127-.883 1.913-1.683 1.985-2.25.017-.135-.018-.232-.121-.336zm-20.81 8.655c1.58.71 3.235 1.363 4.962 1.363.445 0 .892-.043 1.344-.14 1.912-.406 4.993-2.388 5.668-2.833l.136-.091c1.206-.828 2.888-2.555 4.337-4.392 1.031-1.308 1.942-2.669 2.479-3.802a7.37 7.37 0 00.373-.946c.269-.9.15-1.531-.565-1.66-.79-.142-2.574-.227-3.873-.481a6.693 6.693 0 01-.676-.165 3.396 3.396 0 01-.347-.125C21.806 1.755 18.203 0 16.373 0c-.153 0-.296.012-.423.038C13.354.56 3.663 6.106.228 9.24c-.782.713.542 1.89 2.558 3.107 3.34 2.015 8.573 4.14 9.279 4.458z" fill="#6E9E48"/></svg>