<svg viewBox="0 0 100 100" fill="none" xmlns="http://www.w3.org/2000/svg"><path d="M67.475 92.947h-45.41c-.603 0-1.005-.395-1.005-.986V73.936c0-.591.402-.985 1.005-.985.602 0 1.004.394 1.004.985v17.04H66.57V63.101c0-.197.1-.394.201-.591.704-.887 1.608-1.872 2.512-2.857 1.406-1.576 2.913-3.152 3.416-4.334.301-.887.1-1.773-.603-2.857-3.516-4.826-16.979-9.357-27.728-9.16-1.809 0-3.717.197-5.626.492-.503.099-1.105-.295-1.105-.788-.1-.492.301-1.083.803-1.083 2.01-.296 4.019-.493 5.928-.493 11.453-.197 25.417 4.63 29.436 10.047 1.406 1.97 1.306 3.645.904 4.63-.603 1.576-2.11 3.25-3.818 5.024-.803.788-1.507 1.674-2.21 2.364v28.467c-.2.492-.603.984-1.205.984z" fill="#CE7A39"/><path d="M71.996 59.16c-.201 0-.503-.098-.704-.295-.402-.394-.502-.985-.1-1.379l24.111-26.595c2.612-2.955 3.215-6.895 1.809-10.638-1.407-3.645-4.622-6.107-8.64-6.698l-14.266-1.872C65.867 10.6 57.529 13.161 51.3 18.775l-5.526 5.713a.985.985 0 01-1.406 0 .94.94 0 010-1.379l5.626-5.614c6.63-6.107 15.572-8.865 24.614-7.683l14.266 1.871c4.721.591 8.539 3.546 10.247 7.88 1.708 4.334.904 9.062-2.21 12.608L72.799 58.767c-.2.197-.502.394-.803.394z" fill="#CE7A39"/><path d="M96.107 31.58v28.664L67.475 91.962V63.1l28.632-31.52z" fill="#CE7A39"/><path d="M67.475 92.947c-.1 0-.201 0-.402-.099-.402-.099-.603-.492-.603-.886V63.1c0-.197.1-.493.301-.69l28.633-31.619a1.15 1.15 0 011.105-.295c.402.098.603.492.603.886v28.763c0 .197-.1.492-.302.69L68.178 92.453c-.1.394-.402.493-.703.493zm1.004-29.452v25.807L95.102 59.85V34.141L68.48 63.495zM35.326 86.544c-.603 0-1.005-.394-1.005-.985V80.83c0-.591.402-.985 1.005-.985.603 0 1.005.394 1.005.985v4.728a.997.997 0 01-1.005.985zm16.577 0c-.603 0-1.005-.394-1.005-.985V80.83c0-.591.402-.985 1.005-.985.602 0 1.004.394 1.004.985v4.728a.997.997 0 01-1.004.985zM12.119 59.26c-.905-5.221-5.325-8.176-6.53-8.866-.402.394-4.421 4.531-3.517 10.441.804 5.22 4.923 7.782 5.526 8.176.803-.394 2.913-1.773 4.018-4.433 1.005-2.265.704-4.235.503-5.319z" fill="#CE7A39"/><path d="M7.698 70.094l-.502-.295c-1.206-.788-5.124-3.546-6.028-8.865-1.005-6.304 3.215-10.737 3.717-11.23l.603-.59.703.394C8 50.59 12.22 53.841 13.123 59.062c.201 1.084.603 3.25-.502 5.812-1.105 2.758-3.315 4.235-4.42 4.925l-.503.295zM5.79 51.674c-1.105 1.38-3.315 4.63-2.612 8.964.603 3.94 3.215 6.206 4.622 7.19a7.352 7.352 0 003.014-3.545c.803-2.069.502-3.842.401-4.728-.803-4.039-3.717-6.699-5.425-7.88zm12.558 9.949c4.32-3.25 9.544-2.462 10.95-2.265 0 .59.201 6.304-4.621 9.948-4.22 3.25-9.042 2.463-9.745 2.364-.302-.886-.905-3.25.1-5.91.804-2.167 2.411-3.447 3.316-4.137z" fill="#CE7A39"/><path d="M17.041 72.852c-1.004 0-1.808-.098-2.21-.197l-.603-.098-.2-.591c-.402-1.28-.905-3.743.1-6.501 1.005-2.561 2.813-3.94 3.717-4.63 4.32-3.25 9.645-2.758 11.755-2.462l.803.098v.788c0 .69.1 6.797-5.023 10.737-3.014 2.364-6.229 2.856-8.339 2.856zm-1.306-1.97c1.608.197 5.224.197 8.339-2.265 3.516-2.758 4.119-6.6 4.22-8.373-2.21-.197-6.129-.197-9.344 2.167-.803.591-2.21 1.675-3.014 3.743-.703 1.872-.502 3.546-.2 4.728zm3.015-28.27c-.905-5.22-5.325-8.175-6.53-8.865-.403.296-4.421 4.433-3.417 10.343.804 5.22 4.923 7.781 5.526 8.175.804-.394 2.913-1.773 4.018-4.432.905-2.167.603-4.236.402-5.22z" fill="#CE7A39"/><path d="M14.329 53.447l-.502-.295c-1.206-.788-5.124-3.546-6.028-8.865-1.005-6.304 3.215-10.737 3.717-11.23l.603-.59.703.394c1.808 1.083 6.028 4.334 6.932 9.554.2 1.084.603 3.251-.502 5.812-1.105 2.758-3.316 4.236-4.42 4.925l-.503.295zM12.42 34.93c-1.105 1.38-3.315 4.63-2.612 8.964.603 3.94 3.215 6.206 4.621 7.19a7.353 7.353 0 003.014-3.545c.804-2.069.503-3.842.402-4.729-.804-3.94-3.717-6.6-5.425-7.88zm12.558 10.046c4.32-3.25 9.544-2.462 10.95-2.265 0 .59.202 6.304-4.62 9.949-4.22 3.25-9.042 2.462-9.746 2.364-.301-.887-.904-3.251.1-5.91.805-2.266 2.412-3.448 3.316-4.138z" fill="#CE7A39"/><path d="M23.672 56.206c-1.005 0-1.808-.099-2.21-.197l-.703-.099-.201-.59c-.402-1.282-.904-3.744.1-6.502 1.005-2.561 2.813-3.94 3.717-4.63 4.32-3.25 9.645-2.758 11.755-2.462l.803.098v.788c0 .69.1 6.797-5.023 10.737-2.913 2.364-6.128 2.857-8.238 2.857zm-1.306-2.069c1.608.197 5.224.197 8.339-2.266 3.516-2.758 4.119-6.6 4.22-8.372-2.211-.197-6.13-.197-9.344 2.167-.804.591-2.21 1.675-3.014 3.743-.703 1.872-.502 3.645-.201 4.728zm3.014-28.27c-.904-5.22-5.325-8.175-6.53-8.865-.402.394-4.42 4.531-3.517 10.441.804 5.22 4.923 7.782 5.526 8.176.804-.394 2.914-1.773 4.019-4.433 1.004-2.265.703-4.235.502-5.319z" fill="#CE7A39"/><path d="M20.96 36.8l-.503-.295c-1.205-.788-5.123-3.546-6.028-8.865-1.004-6.304 3.215-10.736 3.717-11.229l.603-.59.704.393c1.808 1.084 6.027 4.334 6.932 9.555.2 1.083.602 3.349-.503 5.811-1.105 2.758-3.315 4.236-4.42 4.925l-.503.296zm-1.91-18.517c-1.104 1.379-3.315 4.63-2.611 8.963.602 3.94 3.215 6.206 4.621 7.19a7.352 7.352 0 003.014-3.545c.804-2.069.502-3.842.402-4.728-.804-4.039-3.717-6.6-5.425-7.88zM31.609 28.33c4.32-3.25 9.544-2.463 10.95-2.266 0 .591.201 6.304-4.621 9.949-4.22 3.25-9.042 2.462-9.745 2.364-.301-.887-.904-3.25.1-5.91.804-2.266 2.412-3.546 3.316-4.137z" fill="#CE7A39"/><path d="M30.303 39.559c-1.005 0-1.809-.099-2.31-.197l-.604-.099-.2-.59c-.402-1.281-.905-3.744.1-6.502 1.005-2.56 2.813-3.94 3.717-4.63 4.32-3.25 9.645-2.757 11.754-2.462l.804.099v.788c0 .69.1 6.796-5.023 10.736-2.914 2.364-6.128 2.857-8.238 2.857zm-1.306-2.069c1.607.197 5.123.197 8.338-2.265 3.517-2.758 4.12-6.6 4.22-8.373-2.21-.197-6.129-.197-9.343 2.167-.804.591-2.21 1.675-3.014 3.743-.704 1.872-.503 3.645-.201 4.728zm9.644-21.473c-2.31 5.713-8.137 7.092-8.54 7.19-.3-.393-3.616-5.22-1.305-11.031 2.31-5.713 8.137-7.092 8.54-7.191.2.394 3.516 5.32 1.305 11.032z" fill="#CE7A39"/><path d="M29.6 24.291l-.402-.492c-.402-.591-3.919-5.713-1.407-11.919 2.411-6.107 8.54-7.683 9.243-7.782L37.737 4l.402.493c.402.59 3.918 5.713 1.406 11.918-2.41 6.206-8.64 7.683-9.242 7.782l-.704.098zm7.233-18.124c-1.608.493-5.526 2.167-7.133 6.403-1.708 4.235 0 8.077.904 9.456 1.608-.493 5.526-2.167 7.133-6.403 1.607-4.235-.1-8.077-.904-9.456zM1.068 96c-.1 0-.201 0-.402-.099-.503-.197-.804-.787-.603-1.28l9.042-22.852c.2-.493.803-.788 1.306-.591.502.197.803.788.603 1.28L1.972 95.311c-.1.393-.503.689-.904.689z" fill="#CE7A39"/></svg>