<svg width="40" height="36" fill="none" xmlns="http://www.w3.org/2000/svg"><path d="M26.99 34.805H8.826c-.241 0-.402-.154-.402-.385v-7.054c0-.231.16-.385.402-.385.241 0 .402.154.402.385v6.668h17.4V23.126c0-.077.04-.154.08-.23.282-.348.644-.733 1.005-1.119.563-.616 1.166-1.233 1.366-1.696.121-.346.04-.693-.24-1.117-1.407-1.89-6.792-3.662-11.092-3.585-.723 0-1.487.077-2.25.193-.201.038-.442-.116-.442-.309-.04-.192.12-.424.321-.424a16.865 16.865 0 012.371-.192c4.581-.077 10.167 1.811 11.774 3.931.563.771.523 1.426.362 1.812-.24.616-.844 1.272-1.527 1.965-.321.309-.603.656-.884.925v11.14c-.08.192-.241.385-.482.385z" fill="#DFB107"/><path d="M28.798 21.585c-.08 0-.2-.039-.281-.116-.16-.154-.201-.386-.04-.54l9.644-10.406c1.045-1.157 1.286-2.699.724-4.163-.563-1.426-1.849-2.39-3.456-2.621l-5.707-.733c-3.335-.424-6.67.579-9.162 2.776l-2.21 2.235a.4.4 0 01-.563 0 .362.362 0 010-.54l2.25-2.196c2.653-2.39 6.23-3.47 9.846-3.007l5.706.732c1.89.232 3.416 1.388 4.1 3.084.682 1.696.361 3.546-.885 4.934L29.12 21.43c-.08.078-.201.155-.322.155z" fill="#DFB107"/><path d="M38.443 10.792V22.01L26.99 34.419V23.127l11.453-12.334z" fill="#DFB107"/><path d="M26.99 34.805c-.04 0-.08 0-.16-.038-.162-.039-.242-.193-.242-.347V23.126c0-.077.04-.192.12-.27l11.453-12.372c.121-.116.282-.154.442-.116.161.039.242.193.242.347V21.97a.41.41 0 01-.12.27L27.27 34.612c-.04.155-.16.193-.281.193zm.402-11.524v10.098L38.04 21.854v-10.06L27.39 23.28zM14.13 32.3c-.24 0-.402-.154-.402-.386v-1.85c0-.231.161-.385.402-.385.241 0 .402.154.402.385v1.85c0 .193-.16.386-.402.386zm6.631 0c-.241 0-.402-.154-.402-.386v-1.85c0-.231.16-.385.402-.385.241 0 .402.154.402.385v1.85c0 .193-.16.386-.402.386zM4.847 21.623c-.361-2.043-2.13-3.199-2.612-3.469-.16.154-1.768 1.773-1.406 4.086.321 2.043 1.969 3.045 2.21 3.199.322-.154 1.166-.694 1.608-1.735.401-.886.28-1.657.2-2.08z" fill="#DFB107"/><path d="M3.08 25.863l-.202-.116c-.482-.308-2.05-1.387-2.41-3.469-.403-2.466 1.285-4.2 1.486-4.394l.241-.23.282.153c.723.424 2.41 1.696 2.772 3.739.08.424.241 1.272-.2 2.274-.443 1.08-1.327 1.657-1.769 1.927l-.2.116zm-.764-7.208c-.442.54-1.326 1.812-1.045 3.508.241 1.541 1.286 2.428 1.848 2.813a2.896 2.896 0 001.206-1.387c.322-.81.201-1.503.16-1.85-.32-1.58-1.486-2.621-2.17-3.084zm5.023 3.893c1.728-1.272 3.818-.963 4.38-.886 0 .23.08 2.466-1.848 3.893-1.688 1.272-3.617.963-3.898.925a3.42 3.42 0 01.04-2.313c.321-.848.964-1.349 1.326-1.619z" fill="#DFB107"/><path d="M6.817 26.942a4.24 4.24 0 01-.885-.077l-.24-.038-.081-.232c-.16-.5-.362-1.464.04-2.544.402-1.002 1.125-1.541 1.487-1.811 1.728-1.272 3.858-1.08 4.702-.964l.321.039v.308c0 .27.04 2.66-2.009 4.201a5.46 5.46 0 01-3.335 1.118zm-.523-.77c.643.076 2.09.076 3.336-.887 1.406-1.08 1.647-2.583 1.687-3.276-.884-.078-2.451-.078-3.737.848-.321.23-.884.655-1.205 1.464-.282.732-.201 1.388-.08 1.85zM7.5 15.11c-.362-2.044-2.13-3.2-2.612-3.47-.161.116-1.769 1.735-1.367 4.047.322 2.043 1.97 3.045 2.21 3.2a3.54 3.54 0 001.608-1.735c.362-.848.241-1.657.16-2.043z" fill="#DFB107"/><path d="M5.732 19.349l-.201-.116c-.483-.308-2.05-1.387-2.412-3.469-.401-2.466 1.286-4.2 1.487-4.393l.241-.232.282.154c.723.424 2.41 1.696 2.773 3.74.08.423.24 1.271-.201 2.273-.442 1.08-1.326 1.658-1.769 1.927l-.2.116zm-.764-7.246c-.442.54-1.326 1.811-1.045 3.507.241 1.542 1.286 2.428 1.849 2.814a2.897 2.897 0 001.205-1.388c.322-.809.201-1.503.161-1.85-.321-1.541-1.487-2.582-2.17-3.083zm5.023 3.931c1.728-1.272 3.818-.963 4.38-.886 0 .231.08 2.467-1.848 3.893-1.688 1.272-3.617.963-3.898.925a3.419 3.419 0 01.04-2.313c.322-.886.965-1.349 1.326-1.619z" fill="#DFB107"/><path d="M9.469 20.428a4.22 4.22 0 01-.884-.077l-.282-.038-.08-.232c-.16-.5-.362-1.464.04-2.543.402-1.003 1.125-1.542 1.487-1.812 1.728-1.272 3.858-1.08 4.702-.964l.321.039v.308c0 .27.04 2.66-2.009 4.202-1.165.924-2.451 1.117-3.295 1.117zm-.523-.81c.643.078 2.09.078 3.336-.886 1.406-1.079 1.648-2.582 1.688-3.276-.884-.077-2.452-.077-3.738.848-.321.231-.884.655-1.205 1.465a2.97 2.97 0 00-.08 1.85zm1.206-11.061c-.362-2.043-2.13-3.2-2.612-3.47-.16.155-1.768 1.774-1.407 4.086.322 2.043 1.97 3.045 2.21 3.2a3.54 3.54 0 001.608-1.735c.402-.886.281-1.657.201-2.081z" fill="#DFB107"/><path d="M8.384 12.835l-.201-.116c-.482-.308-2.05-1.387-2.411-3.468-.402-2.467 1.286-4.202 1.487-4.394l.24-.232.282.154c.723.424 2.411 1.696 2.773 3.74.08.423.241 1.31-.201 2.273-.442 1.08-1.326 1.658-1.768 1.928l-.201.115zM7.62 5.59c-.442.54-1.326 1.811-1.045 3.507.242 1.542 1.286 2.429 1.849 2.814a2.897 2.897 0 001.206-1.387c.321-.81.2-1.504.16-1.85-.321-1.58-1.487-2.583-2.17-3.084zm5.023 3.93c1.728-1.272 3.818-.963 4.38-.886 0 .231.081 2.467-1.848 3.893-1.688 1.272-3.617.963-3.898.925a3.418 3.418 0 01.04-2.313c.322-.886.965-1.387 1.326-1.619z" fill="#DFB107"/><path d="M12.121 13.914c-.402 0-.723-.038-.924-.077l-.241-.038-.08-.231c-.161-.502-.362-1.465.04-2.544.401-1.003 1.125-1.542 1.486-1.812 1.728-1.272 3.858-1.08 4.702-.964l.322.039v.308c0 .27.04 2.66-2.01 4.202-1.165.925-2.451 1.117-3.295 1.117zm-.522-.81c.643.078 2.05.078 3.335-.886 1.407-1.079 1.648-2.582 1.688-3.276-.884-.077-2.451-.077-3.737.848-.322.231-.884.655-1.206 1.465a2.97 2.97 0 00-.08 1.85zm3.858-8.402c-.925 2.236-3.256 2.776-3.416 2.814-.12-.154-1.447-2.043-.523-4.317C12.443.964 14.773.424 14.934.385c.08.155 1.407 2.082.523 4.317z" fill="#DFB107"/><path d="M11.84 7.94l-.16-.193c-.162-.23-1.568-2.235-.563-4.663C12.08.694 14.532.077 14.813.039L15.095 0l.16.193c.161.231 1.568 2.235.563 4.664-.964 2.428-3.456 3.006-3.697 3.045l-.281.038zM14.733.848c-.643.193-2.21.848-2.853 2.505-.683 1.658 0 3.16.362 3.7.643-.192 2.21-.847 2.853-2.505.643-1.657-.04-3.16-.362-3.7zM.427 36c-.04 0-.08 0-.16-.038-.202-.078-.322-.309-.242-.502l3.617-8.942a.424.424 0 01.522-.231c.201.077.322.308.241.501L.79 35.73a.384.384 0 01-.362.27z" fill="#DFB107"/></svg>