<svg viewBox="0 0 100 100" fill="none" xmlns="http://www.w3.org/2000/svg"><path d="M87.087 66.39c-.229-8.763-7.649-15.862-16.781-15.862h-9.817c-9.019 0-16.439 6.988-16.781 15.862l-.913 28.84c0 2.551 2.169 4.77 4.908 4.77h35.388C85.717 100 88 97.892 88 95.23l-.913-28.84zM71.79 44.205H59.119v4.66H71.79v-4.66zm-.114-3.327c0-.888-.685-1.553-1.598-1.553h-9.361c-.913 0-1.598.665-1.598 1.553v1.996H71.79v-1.996h-.114zM82.977 6.38c.8-3.993-4.452-6.1-8.676-1.885 0 0 2.512 2.44 2.968 5.878.115.111 5.252-1.442 5.708-3.993zM20.763 43.096s1.37-6.766 4.566-9.761c1.94-1.775 11.53-5.768 20.32-9.207a99.57 99.57 0 003.31-1.331 603.359 603.359 0 018.904-3.55c1.94-.776 2.74-2.994 1.598-4.658v-.111c-.685-.999-1.712-1.553-2.854-1.553a3.6 3.6 0 00-1.484.332c-2.169.999-5.822 2.663-9.703 4.438h-.114c-7.99 3.66-17.694 8.097-21.233 9.983-7.877 3.882-6.735 15.418-6.735 15.418h3.425zm.114 6.434c-.343-.333-1.028-1.442-1.256-1.775l-.228-.333c-.114-.222-.457-.222-.571 0l-.114.333c-.228.444-.913 1.442-1.256 1.775C14.826 51.859 13 53.523 13 56.96c0 4.77 3.767 7.987 7.99 6.767 2.626-.777 4.453-3.55 4.453-6.877-.114-3.217-1.712-4.66-4.566-7.321z" fill="#FF842A"/><path d="M46.676 14.921c-.114-3.66 1.255-6.544 3.881-7.542 3.881-1.553 9.133 2.107 11.644 8.097 2.511 5.99 1.37 12.09-2.511 13.644-3.083 1.22-6.85-.777-9.59-4.548a54.326 54.326 0 01-3.424 1.33c3.767 5.769 9.817 8.875 14.612 6.989a9.002 9.002 0 002.055-1.22l10.73-8.32c2.169-1.663 3.425-4.214 3.425-6.988C77.384 8.6 73.046 4.051 69.62 1.611 67.452.169 64.827-.386 62.201.279L51.242 2.942c-.685.11-1.484.221-2.169.554-4.338 1.775-6.507 6.988-5.822 12.978 1.028-.554 2.283-1.109 3.425-1.553z" fill="#FF842A"/></svg>