<svg width="33" height="36" fill="none" xmlns="http://www.w3.org/2000/svg"><path d="M15.75 31.821s-.13 2.48-3.495 2.48c-4.66 0-9.19-8.117-9.19-12.739s2.848-9.132 6.73-9.132c3.884 0 5.955 4.058 5.955 4.058v15.333zm15.015-16.798c-5.178-9.47-14.886-2.819-14.886-2.819s-4.141-1.69-6.471-1.69S.218 12.768.218 21.9s8.543 13.98 12.167 13.98c3.623 0 3.624-2.142 3.624-2.142s-.13 2.142 4.79 2.142c4.919 0 15.144-11.388 9.966-20.857z" fill="#1C96D9"/><path d="M10.476 22.534c0 .35-.891.635-1.99.635s-1.99-.285-1.99-.635c0-.35.891-.634 1.99-.634s1.99.284 1.99.634zM16.3 9.301s-.291-7.948 8.058-9.3C25.426 8.117 16.3 9.3 16.3 9.3zm-.582 2.368s-5.145-8.202-8.737-8.963C6.107 3.72 5.913 4.397 5.913 4.397s5.242 1.607 9.805 7.272zm-4.424 6.205c-.155.323-1.103.287-2.117-.081-1.015-.368-1.712-.928-1.558-1.251.155-.324 1.102-.288 2.117.08s1.712.928 1.558 1.252zm.961 9.219c.158.322-.532.889-1.541 1.266-1.01.378-1.958.423-2.116.102-.159-.322.531-.89 1.541-1.267 1.01-.377 1.957-.423 2.116-.101z" fill="#1C96D9"/></svg>