<svg viewBox="0 0 100 100" fill="none" xmlns="http://www.w3.org/2000/svg"><path d="M76.792 60.125c-1.038-4.801-5.817-7.515-10.18-9.812-2.91-1.461-6.234-3.34-6.234-4.802 0-1.252.415-2.505 1.039-3.966.623-1.67 1.454-3.758 1.87-6.263.415-3.55-1.04-7.516-2.701-10.439.623-.417 1.246-1.043 1.246-1.878V2.088C61.832.835 61.002 0 59.754 0H40.431c-1.247 0-2.078.835-2.078 2.088v21.085c0 .835.416 1.462 1.247 1.88-1.87 3.13-3.117 7.306-2.701 10.438.415 2.505 1.246 4.384 1.87 6.054.623 1.67 1.038 2.923 1.246 4.175 0 1.044-2.078 2.088-4.363 3.132-4.156 1.879-9.766 4.593-11.844 11.065-3.116 9.394 3.74 35.699 4.364 38.622.208.835 1.039 1.461 2.078 1.461h38.855c1.038 0 1.87-.626 2.077-1.67.416-2.923 7.065-30.48 5.61-38.205zM42.51 21.085v-1.878h15.168v1.879H42.509zm15.168-16.91v10.856H42.509V4.175h15.168zm9.35 91.858h-35.53C29.21 87.265 25.262 67.85 27.34 61.17c1.662-4.802 5.817-6.89 9.765-8.56 3.533-1.67 7.065-3.34 6.857-7.098 0-2.087-.831-3.757-1.454-5.636-.624-1.462-1.247-3.132-1.663-5.22-.415-2.713 1.247-6.889 3.325-9.603h11.428c1.87 2.297 3.74 6.472 3.324 9.604-.208 2.087-.83 3.757-1.454 5.219-.623 1.67-1.455 3.549-1.455 5.428 0 4.175 4.156 6.472 8.312 8.56 3.74 1.878 7.48 3.966 8.103 6.889 1.247 5.636-3.117 26.096-5.402 35.281z" fill="#6E9E48"/><path d="M49.365 60.125c-11.22 0-19.947 6.263-19.947 14.197 0 7.933 8.727 14.196 19.947 14.196 11.22 0 19.947-6.263 19.947-14.197 0-7.933-8.726-14.196-19.947-14.196zm0 23.8c-8.519 0-15.79-4.593-15.79-10.021 0-5.428 7.271-10.02 15.79-10.02 8.52 0 15.792 4.592 15.792 10.02s-7.273 10.02-15.792 10.02z" fill="#6E9E48"/><path fill-rule="evenodd" clip-rule="evenodd" d="M67.027 96.033h-35.53C29.21 87.265 25.262 67.85 27.34 61.17c1.662-4.802 5.817-6.89 9.765-8.56 3.533-1.67 7.065-3.34 6.857-7.098 0-2.087-.831-3.757-1.454-5.636-.624-1.462-1.247-3.132-1.663-5.22-.415-2.713 1.247-6.889 3.325-9.603h11.428c1.87 2.297 3.74 6.472 3.324 9.604-.208 2.087-.83 3.757-1.454 5.219-.623 1.67-1.455 3.549-1.455 5.428 0 4.175 4.156 6.472 8.312 8.56 3.74 1.878 7.48 3.966 8.103 6.889 1.247 5.636-3.117 26.096-5.402 35.281zM29.419 74.321c0-7.933 8.726-14.196 19.946-14.196s19.947 6.263 19.947 14.197c0 7.933-8.726 14.196-19.947 14.196-11.22 0-19.947-6.263-19.947-14.197z" fill="#6E9E48"/></svg>