<svg width="19" height="38" fill="none" xmlns="http://www.w3.org/2000/svg"><path d="M15.682.979v1.577c0 .542-.457.98-1.022.98H4.334c-.56 0-1.022-.438-1.022-.98V.98c0-.542.463-.98 1.022-.98H14.66c.565 0 1.022.438 1.022.979z" fill="#6E9E48"/><path d="M17.78 9.69l-3.204-5.147V2.959a.587.587 0 00-.601-.575H5.019a.587.587 0 00-.601.575v1.584L1.22 9.696A8.026 8.026 0 000 13.939v21.983C0 37.067.974 38 2.17 38h14.66c1.196 0 2.17-.933 2.17-2.078V13.939a8.1 8.1 0 00-1.22-4.249zm.018 6.293a.614.614 0 01-.174.017c-.77-.028-1.395-.184-1.918-.472a8.528 8.528 0 01-.427-.259c-.457-.293-.98-.627-1.647-.662-.763-.034-1.358.334-1.893.662a6.265 6.265 0 01-.673.374 2.296 2.296 0 01-1.81 0 4.36 4.36 0 01-.534-.276c-.445-.248-.944-.53-1.563-.541-.601.005-1.1.236-1.539.455-.234.115-.45.224-.667.287-.517.144-1.142.024-1.737-.109l-.187-.04c-.559-.121-1.184-.248-1.827-.202V13.94c0-1.29.367-2.55 1.052-3.656l3.282-5.285a.574.574 0 00.084-.294v-1.17h7.754v1.169c0 .104.03.207.084.294l3.288 5.285a6.948 6.948 0 011.052 3.656v2.044z" fill="#6E9E48"/></svg>