<svg width="61" height="113" fill="none" xmlns="http://www.w3.org/2000/svg"><path d="M60.766 67.942c-1.174-5.426-6.573-8.493-11.502-11.088-3.286-1.651-7.041-3.775-7.041-5.426 0-1.415.47-2.83 1.174-4.482.704-1.887 1.643-4.247 2.112-7.078.47-4.01-1.174-8.492-3.051-11.795.704-.472 1.408-1.18 1.408-2.123V2.36c0-1.416-.939-2.36-2.347-2.36H19.69c-1.408 0-2.347.944-2.347 2.36v23.826c0 .943.47 1.651 1.409 2.123-2.113 3.539-3.521 8.257-3.052 11.795.47 2.831 1.409 4.955 2.113 6.842.704 1.887 1.173 3.302 1.408 4.718 0 1.18-2.347 2.359-4.93 3.538-4.693 2.124-11.03 5.19-13.378 12.504-3.52 10.615 4.225 40.34 4.93 43.643.234.943 1.173 1.651 2.346 1.651h43.892c1.174 0 2.112-.708 2.347-1.887.47-3.303 7.98-34.443 6.338-43.171zM22.038 23.827v-2.124h17.134v2.124H22.038zM39.172 4.718v12.267H22.038V4.718h17.134zm10.562 103.8H9.598C7.016 98.61 2.556 76.67 4.903 69.121c1.878-5.426 6.572-7.785 11.032-9.672 3.99-1.887 7.98-3.775 7.745-8.021 0-2.36-.938-4.246-1.642-6.37-.705-1.65-1.409-3.538-1.878-5.897-.47-3.067 1.408-7.785 3.755-10.852h12.91c2.112 2.595 4.224 7.313 3.755 10.852-.235 2.359-.939 4.246-1.643 5.898-.704 1.887-1.643 4.01-1.643 6.133 0 4.718 4.694 7.313 9.389 9.672 4.224 2.123 8.45 4.483 9.153 7.785 1.409 6.37-3.52 29.489-6.102 39.869z" fill="#6E9E48"/><path d="M29.783 67.942c-12.675 0-22.533 7.077-22.533 16.041 0 8.965 9.858 16.042 22.533 16.042s22.533-7.077 22.533-16.042c0-8.964-9.858-16.041-22.533-16.041zm0 26.893c-9.623 0-17.838-5.19-17.838-11.323 0-6.134 8.215-11.324 17.838-11.324 9.623 0 17.838 5.19 17.838 11.323 0 6.134-8.215 11.324-17.838 11.324z" fill="#6E9E48"/><path fill-rule="evenodd" clip-rule="evenodd" d="M49.734 108.518H9.598C7.016 98.61 2.556 76.67 4.903 69.121c1.878-5.426 6.572-7.785 11.032-9.672 3.99-1.887 7.98-3.775 7.745-8.021 0-2.36-.938-4.246-1.642-6.37-.705-1.65-1.409-3.538-1.878-5.897-.47-3.067 1.408-7.785 3.755-10.852h12.91c2.112 2.595 4.224 7.313 3.755 10.852-.235 2.359-.939 4.246-1.643 5.898-.704 1.887-1.643 4.01-1.643 6.133 0 4.718 4.694 7.313 9.389 9.672 4.224 2.123 8.45 4.483 9.153 7.785 1.409 6.37-3.52 29.489-6.102 39.869zM7.25 83.983c0-8.964 9.858-16.041 22.533-16.041s22.533 7.077 22.533 16.041c0 8.965-9.858 16.042-22.533 16.042S7.25 92.948 7.25 83.983z" fill="#6E9E48"/></svg>