<svg viewBox="0 0 100 100" fill="none" xmlns="http://www.w3.org/2000/svg"><path d="M61.604 46.41c-4.437-2.123-5.324-11.627-5.226-16.38 2.564-.303 4.635-2.527 4.635-5.258V22.75c0-.707-.592-1.213-1.183-1.213h-6.706V1.314c0-.505-.296-1.01-.789-1.213-.493-.202-.986-.101-1.38.303L47.01 4.55l-.1.101c-.098.101-.098.202-.196.304 0 .1-.099.202-.099.303v16.178H40.01c-.69 0-1.183.607-1.183 1.213v2.022c0 2.73 1.972 4.955 4.635 5.258.098 4.651-.79 14.257-5.227 16.38-7.691 3.64-7.297 14.662-7.198 15.066v33.367c0 2.932 2.367 5.258 5.226 5.258h27.61c2.86 0 5.128-2.427 5.128-5.258V61.375c-.099-.708.197-11.324-7.396-14.965zM49.87 88.373c-3.352 0-6.114-2.831-6.114-6.269 0-.708.1-1.415.395-2.123l4.634-12.74c.198-.506.592-.81 1.184-.81.591 0 .986.304 1.183.81l4.635 12.74c.295.708.394 1.415.394 2.123-.099 3.438-2.958 6.27-6.31 6.27zM33.896 56.32c.69-2.83 2.07-6.066 5.325-7.583 6.212-2.932 6.705-14.56 6.705-18.605h8.086c0 3.944.493 15.572 6.705 18.605 3.155 1.517 4.635 4.752 5.226 7.584H33.896z" fill="#6E9E48"/></svg>