<svg width="20" height="20" fill="none" xmlns="http://www.w3.org/2000/svg"><path d="M5.243 5.935l-.912.188.912-.188zM8.34 17.418a.931.931 0 100 1.862v-1.862zm.041 1.862a.931.931 0 100-1.862v1.862zm6.928-1.862a.931.931 0 100 1.862v-1.862zm.054 1.862a.931.931 0 100-1.862v1.862zm2.912-9.318l-.875-.319.875.32zm-.842 2.313l.874.319-.874-.32zM0 2.655h1.93V.793H0v1.862zm9.4 12.524h5.214v-1.862H9.4v1.862zm8.907-2.585l.843-2.313-1.75-.638-.842 2.313 1.75.638zM3.957 4.306l.374 1.817 1.824-.376-.375-1.816-1.823.375zm.374 1.817l1.219 5.918 1.823-.376-1.218-5.918-1.824.376zm11.125-1.119H5.243v1.862h10.213V5.004zM8.34 19.28h.041v-1.862H8.34v1.862zm6.97 0h.053v-1.862h-.053v1.862zm3.84-9c.934-2.563-.965-5.276-3.694-5.276v1.862A2.069 2.069 0 0117.4 9.643l1.75.638zm-4.536 4.899a3.93 3.93 0 003.693-2.585l-1.75-.638a2.069 2.069 0 01-1.943 1.36v1.863zM9.4 13.317a2.07 2.07 0 01-2.027-1.652l-1.823.376a3.931 3.931 0 003.85 3.138v-1.862zM1.93 2.655c.982 0 1.828.69 2.027 1.651l1.823-.375A3.931 3.931 0 001.93.793v1.862z" fill="#6E9E48"/></svg>