<svg width="34" height="34" fill="none" xmlns="http://www.w3.org/2000/svg"><path fill-rule="evenodd" clip-rule="evenodd" d="M.515 21.636h11.333c.285 0 .516.231.516.515v11.334a.516.516 0 01-.516.515H.515A.515.515 0 010 33.485V22.15c0-.284.23-.515.515-.515zm4.121 1.03v3.803l1.315-.657a.515.515 0 01.461 0l1.315.657v-3.802h-3.09zm-1.03 0H1.03V32.97h10.303V22.667H8.758v4.636a.515.515 0 01-.746.46l-1.83-.914-1.83.915a.515.515 0 01-.746-.461v-4.636zm24.014-5.775a.515.515 0 01-.634 0 22.268 22.268 0 01-.997-.858 24.612 24.612 0 01-2.17-2.25c-2.003-2.368-3.213-4.768-3.213-7.086a6.697 6.697 0 1113.394 0c0 2.318-1.21 4.718-3.213 7.086a24.613 24.613 0 01-2.887 2.88c-.132.11-.227.186-.28.228zm.301-1.618a23.583 23.583 0 002.08-2.155c1.86-2.2 2.969-4.4 2.969-6.421a5.667 5.667 0 00-11.334 0c0 2.022 1.109 4.222 2.97 6.421a23.596 23.596 0 002.697 2.7c.189-.16.396-.342.618-.545zm-.618-5.485a3.09 3.09 0 110-6.182 3.09 3.09 0 010 6.182zm0-1.03a2.06 2.06 0 100-4.122 2.06 2.06 0 000 4.122zm-5.152 7.727a.515.515 0 010 1.03h-2.058a3.605 3.605 0 10-.004 7.212h8.255a4.638 4.638 0 014.634 4.637A4.64 4.64 0 0128.34 34H17a.515.515 0 110-1.03h11.34a3.61 3.61 0 003.608-3.606 3.608 3.608 0 00-3.604-3.606h-8.255a4.635 4.635 0 11.004-9.273h2.058z" fill="#FFA11B"/></svg>