<svg width="43" height="25" fill="none" xmlns="http://www.w3.org/2000/svg"><path d="M36.328 3.79h-5.005V0H7.506v5.422H0v1.584h9.036V1.583h20.758v18.81H18.581c-.463-1.391-1.715-2.447-3.244-2.447-1.529 0-2.78 1.008-3.243 2.447H9.036v-2.207h-1.53v3.791h4.449C12.186 23.704 13.623 25 15.337 25c1.715 0 3.151-1.296 3.383-3.023h13.947C32.899 23.704 34.335 25 36.05 25c1.714 0 3.15-1.296 3.382-3.023H43V11.564c-.139-4.702-2.688-7.773-6.672-7.773zM15.29 23.465c-1.02 0-1.854-.863-1.854-1.919s.835-1.92 1.854-1.92c1.02 0 1.853.864 1.853 1.92s-.834 1.92-1.853 1.92zm20.666 0c-1.02 0-1.854-.863-1.854-1.919s.834-1.92 1.854-1.92 1.853.864 1.853 1.92-.834 1.92-1.853 1.92zm5.375-3.022H39.2c-.463-1.392-1.714-2.448-3.243-2.448-1.483 0-2.78 1.008-3.244 2.448h-1.436V5.374h5.004c3.105 0 5.005 2.4 5.005 6.238v8.83h.046zM1.158 11.804v-1.583H7.46V8.589h1.53v3.215H1.157zm1.112 4.799v-1.584h5.19v-1.631h1.53v3.215H2.27z" fill="#FFA11B"/></svg>