<svg width="17" height="20" fill="none" xmlns="http://www.w3.org/2000/svg"><path d="M12.268 10.613c-.561 0-1.261.092-2.033.268a18.274 18.274 0 01-2.33-2.114c.232-2.27-.141-3.217-.5-3.611-.282-.31-.675-.418-1.11-.3-.499.134-.687.443-.757.678-.29.974.914 2.53 1.726 3.437a18.822 18.822 0 01-.67 3.178c-.735.35-1.365.725-1.828 1.087-.583.455-.914.899-.985 1.318-.058.345.057.668.335.934.214.206.45.31.702.31 1.072 0 1.876-1.957 2.283-3.215.945-.431 1.999-.8 2.997-1.046.857.622 2.01 1.321 2.867 1.321.565 0 .94-.3 1.057-.847.094-.44-.046-.727-.181-.89-.277-.337-.806-.508-1.573-.508zm-7.45 4.579c-.088 0-.177-.045-.274-.138-.171-.165-.174-.3-.157-.4.077-.456.8-1.08 1.932-1.686-.563 1.53-1.143 2.224-1.502 2.224zm1.31-9.487c.026-.089.087-.2.329-.265a.683.683 0 01.176-.026c.124 0 .224.047.314.146.329.361.468 1.295.393 2.56-.728-.89-1.364-1.905-1.212-2.415zm3.345 5.37a18.32 18.32 0 00-2.13.74l.005-.019-.016.008c.2-.731.36-1.496.472-2.24l.011.013.002-.017c.52.53 1.088 1.043 1.658 1.5l-.016.004.014.01zm3.948.811c-.056.264-.184.366-.456.366-.461 0-1.192-.32-2.054-.891a7.775 7.775 0 011.357-.142c.751 0 1.009.177 1.096.283.027.033.11.135.057.384z" fill="#FF842A"/><path d="M13.543 0H0v20h17V3.41L13.543 0zm.18 1.035l2.228 2.197h-2.228V1.035zM.614 19.394V.606h12.494v3.232h3.277v15.556H.616z" fill="#FF842A"/></svg>