<svg width="30" height="29" fill="none" xmlns="http://www.w3.org/2000/svg"><path d="M1.201 29h16.43c.661 0 1.199-.541 1.199-1.206v-2.396h2.383c.661 0 1.2-.542 1.2-1.208v-2.703a5.53 5.53 0 001.394-.441l.518.742-.2.14a.576.576 0 00-.14.803l2.788 3.999a1.477 1.477 0 001.221.637c.304 0 .6-.093.853-.272l.519-.367a1.49 1.49 0 00.611-.968 1.497 1.497 0 00-.248-1.12l-2.787-3.996a.571.571 0 00-.798-.14l-.2.14-.518-.743a5.602 5.602 0 001.541-2.994 5.628 5.628 0 00-.933-4.21 5.559 5.559 0 00-3.616-2.313h-.006V6.395c0-.005-.002-.01-.003-.014a.229.229 0 00-.012-.063c-.003-.007-.005-.015-.009-.022a.23.23 0 00-.037-.056l-.008-.01-.004-.005L15.801.07 15.8.067l-.005-.005a.229.229 0 00-.062-.04l-.018-.007a.227.227 0 00-.065-.013L15.637 0H4.781c-.661 0-1.2.541-1.2 1.207v2.395h-2.38C.54 3.602 0 4.145 0 4.812v22.982C0 28.46.539 29 1.201 29zm25.208-8.117a.112.112 0 01.155.027l2.788 3.998c.157.226.218.5.17.772-.047.272-.196.51-.421.668l-.52.367a1.01 1.01 0 01-.767.172 1.019 1.019 0 01-.663-.424l-2.788-3.998a.112.112 0 01.027-.156l2.019-1.426zm-.843.028l-.864.61-.481-.69a5.436 5.436 0 00.865-.61l.48.69zm.09-7.947a5.166 5.166 0 01.857 3.863 5.14 5.14 0 01-2.109 3.34 5.084 5.084 0 01-3.838.862 5.1 5.1 0 01-3.32-2.124 5.164 5.164 0 01-.855-3.863 5.14 5.14 0 012.11-3.34 5.075 5.075 0 013.837-.86 5.102 5.102 0 013.318 2.122zM15.867.767l5.73 5.397h-5.73V.767zM4.043 3.838l.001-.003V1.207c0-.41.33-.742.737-.742h10.625v5.93c0 .13.103.233.23.233h6.315v3.694a5.524 5.524 0 00-3.716 1c-.43.303-.805.661-1.128 1.06H6.463a.231.231 0 00-.23.232.23.23 0 00.23.232h10.305a5.642 5.642 0 00-.898 2.644H6.463a.231.231 0 00-.23.232c0 .129.103.233.23.233h9.39c.001.924.229 1.828.667 2.646H6.463a.231.231 0 00-.23.232c0 .128.103.232.23.232h10.335l.07.107a5.559 5.559 0 003.618 2.314 5.613 5.613 0 001.465.063v2.641c0 .41-.331.743-.738.743H4.78a.741.741 0 01-.738-.743V3.838zm-3.581.974c0-.41.331-.745.74-.745h2.38V24.19c0 .666.538 1.207 1.2 1.207h13.586v2.397a.74.74 0 01-.736.741H1.202a.741.741 0 01-.74-.74V4.811z" fill="#FFA11B"/><path d="M6.463 22.175h13.194a.232.232 0 00.231-.233.231.231 0 00-.23-.232H6.462a.231.231 0 00-.23.232c0 .129.103.233.23.233zm0-12.438h13.194a.232.232 0 00.231-.233.231.231 0 00-.23-.232H6.462a.231.231 0 00-.23.232c0 .129.103.233.23.233zm.425-2.677h4.615a.23.23 0 00.23-.232V2.182a.231.231 0 00-.23-.232H6.888a.231.231 0 00-.231.232v4.646c0 .128.103.232.23.232zm.23-4.645h4.154v4.18H7.118v-4.18z" fill="#FFA11B"/><path d="M10.42 3.274l-1.957 1.97-.492-.495a.23.23 0 00-.326 0 .233.233 0 000 .328l.654.66a.23.23 0 00.327 0l2.12-2.135a.233.233 0 000-.328.23.23 0 00-.326 0z" fill="#FFA11B"/></svg>