<svg width="14" height="18" fill="none" xmlns="http://www.w3.org/2000/svg"><path fill-rule="evenodd" clip-rule="evenodd" d="M7 0c3.866 0 7 2.948 7 6.584C14 10.22 7 18 7 18S0 10.22 0 6.584 3.134 0 7 0zm.004 3.73c.62 0 1.226.177 1.742.51a3.05 3.05 0 011.155 1.356c.237.553.3 1.16.178 1.748a2.992 2.992 0 01-.858 1.548c-.438.423-.997.71-1.605.827a3.244 3.244 0 01-1.812-.172 3.114 3.114 0 01-1.408-1.113 2.948 2.948 0 01-.528-1.68c0-.802.33-1.572.918-2.139a3.196 3.196 0 012.218-.885z" fill="#FFA11B"/></svg>