<svg width="21" height="21" fill="none" xmlns="http://www.w3.org/2000/svg"><path fill-rule="evenodd" clip-rule="evenodd" d="M14.764 20.2H6.386a5.626 5.626 0 01-3.95-1.613A5.468 5.468 0 01.8 14.693V6.157c0-1.46.588-2.861 1.636-3.894A5.626 5.626 0 016.386.65h8.378c1.482 0 2.902.58 3.95 1.613a5.468 5.468 0 011.636 3.894v8.536c0 1.46-.589 2.861-1.636 3.894a5.626 5.626 0 01-3.95 1.613zm3.77-14.456c0-.913-.367-1.788-1.022-2.434a3.516 3.516 0 00-2.469-1.008H5.967A3.52 3.52 0 003.498 3.31a3.418 3.418 0 00-1.022 2.434v8.949c0 .913.367 1.788 1.022 2.434a3.517 3.517 0 002.469 1.008h9.076a3.52 3.52 0 002.469-1.008 3.418 3.418 0 001.022-2.434v-8.95zm-2.792.55a1.27 1.27 0 01-.699-.208 1.243 1.243 0 01-.462-.556 1.222 1.222 0 01.272-1.35 1.263 1.263 0 011.37-.27c.23.095.425.253.564.457a1.227 1.227 0 01-.157 1.565 1.266 1.266 0 01-.888.363zm-5.237 9.087a5.149 5.149 0 01-2.832-.847 5.041 5.041 0 01-1.877-2.255 4.96 4.96 0 01-.29-2.903A5.004 5.004 0 016.9 6.803a5.12 5.12 0 012.61-1.376 5.165 5.165 0 012.945.286 5.083 5.083 0 012.287 1.851c.56.827.859 1.798.859 2.792a4.99 4.99 0 01-1.493 3.553 5.134 5.134 0 01-3.604 1.472zm0-8.26c-.65 0-1.284.19-1.823.545-.54.355-.96.86-1.209 1.452a3.193 3.193 0 00-.187 1.87c.127.627.44 1.203.899 1.656a3.323 3.323 0 003.576.701c.6-.245 1.112-.66 1.473-1.192a3.203 3.203 0 00-.409-4.085 3.305 3.305 0 00-2.32-.947z" fill="#202323"/></svg>