<svg width="21" height="21" fill="none" xmlns="http://www.w3.org/2000/svg"><path fill-rule="evenodd" clip-rule="evenodd" d="M18.633 12.171s-.014 0 0 0a.455.455 0 00-.071-.085s0-.015-.015-.015l-2.9-1.631 2.9-1.646s0-.015.015-.015a.173.173 0 00.071-.071l2.186-4.38a.23.23 0 00-.014-.215.244.244 0 00-.186-.1l-3.957.172.171-3.965a.209.209 0 00-.1-.186c-.057-.043-.143-.043-.214-.014l-4.371 2.19a.172.172 0 00-.072.071s-.014 0-.014.015L10.42 5.2 8.777 2.296s-.015 0-.015-.015a.172.172 0 00-.071-.071L4.32.02a.229.229 0 00-.215.014.245.245 0 00-.1.186l.172 3.965L.22 4.013a.208.208 0 00-.186.1c-.043.058-.043.144-.014.215l2.186 4.38a.172.172 0 00.07.071l.015.015 2.914 1.646-2.9 1.646-.014.014a.172.172 0 00-.071.072l-2.186 4.38a.23.23 0 00.014.214.3.3 0 00.186.1l3.957-.172-.171 3.908a.13.13 0 00-.015.071c0 .115.1.215.215.215h.014a.263.263 0 00.1-.029l4.371-2.19a.173.173 0 00.072-.071s.014 0 .014-.014l1.643-2.906 1.642 2.906s.015 0 .015.014a.172.172 0 00.071.072l4.371 2.19a.228.228 0 00.215-.015.245.245 0 00.1-.186l-.172-3.965 3.957.172a.208.208 0 00.186-.1c.043-.057.043-.143.014-.215l-2.2-4.38zm-1.657-.486l-4.114-1.03h2.3l1.814 1.03zm-1.814-1.46h-2.857l4.771-1.088-1.914 1.088zm5.114-5.768l-1.828 3.678-1.686-3.52 3.514-.158zm-2.143 4.008l-7.042 1.603 5.285-5.296 1.757 3.693zM16.39.564l-.157 3.52-3.514-1.688L16.39.564zm-4 2.147l3.686 1.76-5.314 5.325 1.629-7.085zm-1.67 2.834l.985-1.76-.986 4.307V5.545zm-.015 9.761c.014-.029.014-.043.014-.071v-2.72l1.015 4.623-1.029-1.832zm.157-4.136l5.214 5.224-3.685 1.775-1.529-7zm1.871 7.3l3.515-1.69.142 3.536-3.657-1.847zm3.643-2.362l-5.442-5.454h.214l6.985 1.76-1.757 3.694zm.386.157l1.686-3.52 1.828 3.663-3.514-.143z" fill="#FF842A"/></svg>