<svg width="17" height="13" fill="none" xmlns="http://www.w3.org/2000/svg"><path fill-rule="evenodd" clip-rule="evenodd" d="M10.589 6.192l5.546-5.126v10.187L10.59 6.192zM.328.355A1.12 1.12 0 011.133 0H15a1.098 1.098 0 01.79.338c.002.003-7.723 6.986-7.723 6.986L.328.355zM0 11.252V1.066l5.546 5.127L0 11.252zm8.045-2.73l2.04-1.864s5.673 5.186 5.672 5.187a1.104 1.104 0 01-.362.252 1.06 1.06 0 01-.427.087H1.122c-.15 0-.299-.032-.437-.093a1.13 1.13 0 01-.37-.263l5.736-5.17 1.994 1.864z" fill="#FFA11B"/></svg>