<svg width="20" height="26" fill="none" xmlns="http://www.w3.org/2000/svg"><path d="M10 .5c5.27 0 9.5 4.058 9.5 9.01 0 1.185-.574 2.78-1.506 4.561-.921 1.763-2.156 3.638-3.4 5.361a87.246 87.246 0 01-4.543 5.749L10 25.24l-.05-.06a87.253 87.253 0 01-4.544-5.748c-1.244-1.723-2.478-3.598-3.4-5.36C1.074 12.29.5 10.694.5 9.51.5 4.558 4.73.5 10 .5zm2.767 5.204a5.062 5.062 0 00-2.762-.817 5.04 5.04 0 00-3.517 1.422 4.813 4.813 0 00-1.463 3.446c0 .966.294 1.909.843 2.71a4.957 4.957 0 002.236 1.79 5.086 5.086 0 002.87.275 5.016 5.016 0 002.548-1.328 4.836 4.836 0 001.367-2.495 4.767 4.767 0 00-.284-2.819 4.894 4.894 0 00-1.838-2.184z" stroke="#FFA11B"/></svg>