<svg width="27" height="39" fill="none" xmlns="http://www.w3.org/2000/svg"><path fill-rule="evenodd" clip-rule="evenodd" d="M19 14.936a.891.891 0 00-.237-.036h-.25a8.34 8.34 0 003.22-6.582c0-4.586-3.692-8.318-8.23-8.318-2.99 0-5.61 1.627-7.048 4.043L5.71 5.656a8.401 8.401 0 00-.444 2.662 8.319 8.319 0 003.22 6.582H8.23a.89.89 0 00-.237.036C2.168 16.621 0 19.442 0 25.359V39h26.141c.473 0 .859-.39.859-.868V25.359c0-5.917-2.168-8.738-8-10.423zm-4.172 5.967H12.18l-.952 10.517 2.268 2.293 2.269-2.293-.938-10.517zm-2.763-1.736h2.87l.63-2.524h-4.122l.622 2.524zm7.95-10.85c0-3.63-2.92-6.581-6.511-6.581-3.6 0-6.52 2.95-6.52 6.582 0 3.63 2.927 6.582 6.52 6.582 3.592 0 6.512-2.951 6.512-6.582zm2.77 28.947h2.519V25.36c0-5.107-1.617-7.24-6.64-8.716h-1.318l-.858 3.457 1.037 11.566a.883.883 0 01-.25.694l-3.163 3.197a.857.857 0 01-1.216 0L9.731 32.36a.883.883 0 01-.25-.694L10.527 20.1l-.86-3.457H8.352c-5.016 1.476-6.634 3.61-6.634 8.716v11.905h2.498v-6.582c0-.477.386-.868.859-.868.472 0 .858.39.858.868v6.582h15.136v-6.582c0-.477.386-.868.858-.868.473 0 .859.39.859.868v6.582z" fill="#FF842A"/></svg>