<svg width="38" height="33" fill="none" xmlns="http://www.w3.org/2000/svg"><path fill-rule="evenodd" clip-rule="evenodd" d="M27.245 6.75h7.17C36.393 6.75 38 8.431 38 10.5v18.75c0 2.069-1.607 3.75-3.585 3.75H3.585C1.607 33 0 31.319 0 29.25V10.5c0-2.069 1.607-3.75 3.585-3.75h7.17v-3c0-2.069 1.607-3.75 3.585-3.75h9.32c1.978 0 3.585 1.681 3.585 3.75v3zm7.17 1.5H3.585c-1.19 0-2.151 1.006-2.151 2.25v6h35.132v-6c0-1.244-.962-2.25-2.15-2.25zM30.83 18h-.717v1.5h.717V18zM7.887 18H7.17v1.5h.717V18zM3.585 31.5h30.83c1.19 0 2.151-1.006 2.151-2.25V18h-4.302v2.25c0 .413-.323.75-.717.75h-2.15c-.395 0-.718-.337-.718-.75V18H9.321v2.25c0 .413-.323.75-.717.75H6.453c-.395 0-.717-.337-.717-.75V18H1.434v11.25c0 1.244.962 2.25 2.15 2.25zm10.755-30c-1.19 0-2.151 1.006-2.151 2.25v3H25.81v-3c0-1.244-.962-2.25-2.15-2.25h-9.32z" fill="#FF842A"/></svg>