<svg width="39" height="47" fill="none" xmlns="http://www.w3.org/2000/svg"><path d="M32.882 0c-3.24 0-5.884 2.67-5.884 5.94 0 3.268 2.644 5.933 5.884 5.933s5.877-2.665 5.877-5.933c0-3.27-2.637-5.94-5.877-5.94zm0 1.647c2.356 0 4.25 1.913 4.25 4.293s-1.894 4.284-4.25 4.284a4.257 4.257 0 01-4.255-4.284c0-2.38 1.899-4.293 4.255-4.293zm-12.997 8.682c-3.026 0-5.529 2.329-5.847 5.299H11.05c-.968 0-1.724.845-1.724 1.8v1.483H5.19c-.972 0-1.779.813-1.779 1.793v7.076H1.81c-.988 0-1.81.824-1.81 1.819v6.71c0 .994.822 1.824 1.809 1.824H3.41v7.076c0 .98.807 1.792 1.779 1.792h29.64c1.654.002 2.873-.55 3.495-1.555.623-1.005.675-2.214.675-3.52V21.739c0-1.962-.3-3.46-1.084-4.535a3.56 3.56 0 00-1.1-.985c-.034-.022-.064-.05-.1-.072a.814.814 0 00-.234-.099c-.613-.28-1.312-.42-2.056-.42h-8.692c-.318-2.97-2.823-5.298-5.849-5.298zm0 1.647c2.357 0 4.25 1.911 4.25 4.29a4.3 4.3 0 01-.925 2.645h-6.649a4.304 4.304 0 01-.925-2.644c0-2.38 1.893-4.291 4.25-4.291zm-8.836 5.3h3.043c.098.57.273 1.12.527 1.635h-3.66v-1.483c0-.122.052-.151.09-.151zm14.63 0h8.747c.65 0 1.116.11 1.493.317.173.122.243.241.255.291.011.056.034.085-.102.237-.273.305-1.38.847-3.576.79h-7.343c.253-.515.43-1.065.526-1.634zM37.11 19.39c.159.612.257 1.379.257 2.348v20.188c0 1.229-.126 2.156-.428 2.644-.302.487-.758.786-2.103.783H5.189c-.094 0-.145-.05-.145-.146v-7.075H8.54c.986 0 1.809-.83 1.809-1.824v-6.71c0-.995-.823-1.817-1.809-1.817H5.044v-7.077c0-.097.05-.145.145-.145h10.927a.817.817 0 00.108 0h7.343a.817.817 0 00.109 0h8.778c2.293.06 3.783-.342 4.655-1.17h.001zM1.81 29.427h6.73c.11 0 .175.06.175.171v6.71c0 .11-.066.177-.175.177H4.365a.82.82 0 00-.146-.014.82.82 0 00-.126.014H1.809c-.11 0-.176-.067-.176-.177v-6.71c0-.11.066-.17.176-.17z" fill="#FF842A"/></svg>