<svg width="40" height="42" fill="none" xmlns="http://www.w3.org/2000/svg"><path d="M37.578 11.888H13.944c-1.309 0-2.356 1.068-2.356 2.403v13.354c0 1.335 1.047 2.404 2.356 2.404h23.7c1.309 0 2.356-1.069 2.356-2.404V14.29c-.066-1.335-1.113-2.403-2.422-2.403zm-.262.934c.916 0 1.702.802 1.702 1.736v1.87H12.504v-1.87c0-.934.786-1.736 1.702-1.736h23.11zm.262 16.292h-23.7c-.785 0-1.44-.668-1.44-1.47V17.43h26.514v10.216c.066.801-.589 1.469-1.374 1.469z" fill="#FF842A"/><path d="M34.566 22.303c-.393 0-.72.067-1.047.2a2.666 2.666 0 00-1.048-.2c-1.44 0-2.553 1.202-2.553 2.604 0 1.47 1.179 2.604 2.553 2.604.393 0 .72-.066 1.048-.2.327.134.654.2 1.047.2 1.44 0 2.553-1.201 2.553-2.604 0-1.468-1.112-2.604-2.553-2.604zm-3.731 2.604c0-.934.72-1.669 1.636-1.669h.131c-.065.134-.13.2-.196.334v.067c-.066.133-.131.2-.131.334 0 .066 0 .066-.066.133 0 .067-.065.2-.065.267v.134c0 .133-.065.267-.065.4 0 .134 0 .267.065.401v.134c0 .066.066.2.066.267 0 .066 0 .066.065.133.065.134.065.2.13.334v.067c.066.133.132.2.197.334-.982.066-1.767-.735-1.767-1.67zm3.731 1.67c-.262 0-.589-.067-.785-.2-.524-.268-.851-.869-.851-1.47 0-.6.327-1.135.85-1.468.263-.134.524-.2.786-.2.917 0 1.637.734 1.637 1.668 0 .935-.72 1.67-1.637 1.67zm-11.784-6.143h-7.856v.935h7.856v-.935zm-7.528 2.604h-.328v.935h.328v-.935zm6.612 0h-.655v.935h.655v-.935zm-2.684 0h-.655v.935h.655v-.935zm-2.619 0h-.655v.935h.655v-.935zm1.309 0h-.654v.935h.654v-.935zm2.619 0h-.655v.935h.655v-.935zm2.357 0h-.328v.935h.328v-.935zm-.066 2.604h-7.856v.935h7.856v-.935z" fill="#FF842A"/><path d="M23.764 42c1.31 0 2.357-1.068 2.357-2.404v-8.079h-.916v2.671H.982V6.48h24.223v4.006h.916V2.408c0-1.336-1.047-2.404-2.357-2.404H2.357C1.047-.064 0 1.004 0 2.34v37.256C0 40.932 1.047 42 2.357 42h21.407zm1.375-6.877v4.473c0 .802-.654 1.47-1.44 1.47H2.357c-.786 0-1.44-.668-1.44-1.47v-4.473h24.222zM.917 5.478V2.34c0-.801.654-1.469 1.44-1.469h21.407c.786 0 1.44.668 1.44 1.469v3.138H.918z" fill="#FF842A"/><path d="M13.028 39.53c.785 0 1.375-.668 1.375-1.403 0-.8-.59-1.402-1.375-1.402-.786 0-1.375.668-1.375 1.402 0 .735.59 1.403 1.375 1.403zm2.095-36.79h-4.19v.935h4.19V2.74zm3.142 28.911H16.89v.935h1.375v-.935zm2.553 0h-1.375v.935h1.375v-.935zm2.619 0h-1.375v.935h1.375v-.935zM4.059 8.883H2.684v.935H4.06v-.935zm2.619 0H5.303v.935h1.375v-.935zm2.552 0H7.857v.935h1.375v-.935z" fill="#FF842A"/></svg>