<svg width="117" height="121" fill="none" xmlns="http://www.w3.org/2000/svg"><path d="M92.02 108.024a2.001 2.001 0 00-2 2.001 6 6 0 01-6.001 6.001H28.006a6 6 0 01-6.001-6.001V77.733a2 2 0 00-4.001 0v32.292a10.015 10.015 0 0010.002 10.002H84.02a10.014 10.014 0 0010.002-10.002 2 2 0 00-2-2.001zM20.004 28.006a2 2 0 002-2V10.002a6.002 6.002 0 016.002-6.001H84.02a6.001 6.001 0 016.001 6.001V45.24a2 2 0 104 0V10.002A10.015 10.015 0 0084.02 0H28.006a10.014 10.014 0 00-10.002 10.002v16.004a2 2 0 002 2zm26.006 42.01H34.009a2 2 0 000 4h12.003a2 2 0 100-4z" fill="#FF842A"/><path d="M18.004 72.016a10.02 10.02 0 009.802-8.002h15.72a2 2 0 100-4H32.007v-36.01h44.01v18.548a2 2 0 104 0V22.005a2 2 0 00-2-2h-48.01a2 2 0 00-2 2v10.002H14.002a2 2 0 00-1.518.698L.482 46.708A2 2 0 000 48.011v14.003a2 2 0 002 2h6.202a10.02 10.02 0 009.802 8.002zm0-4a6.002 6.002 0 110-12.005 6.002 6.002 0 010 12.004zm-3.08-32.008h1.08v6.001a4.001 4.001 0 01-4.001 4.001H6.349l8.574-10.002zM4 50.011h8.002a8.002 8.002 0 008.002-8.002v-6.001h8.001v24.005h-.2a10.001 10.001 0 00-19.604 0H4V50.011z" fill="#FF842A"/><path d="M18.004 64.014a2 2 0 100-4 2 2 0 000 4zm97.438 23.136L99.966 71.673a9.999 9.999 0 00-1.274-12.59L87.377 47.769a6.148 6.148 0 00-8.486 0 5.983 5.983 0 00-1.268 1.86 6.136 6.136 0 00-7.222.971 5.955 5.955 0 00-1.748 3.909 6.014 6.014 0 00-5.083 3.4l-7.312-7.313a5.726 5.726 0 00-2.166-1.334 12.002 12.002 0 004.923-3.343 11.978 11.978 0 009.002 4.093 2 2 0 002-2V36.007a2 2 0 00-2-2 11.979 11.979 0 00-9.002 4.092 11.97 11.97 0 00-19.992 3.109 2 2 0 000 1.6 12.002 12.002 0 009.602 7.098c-.306.2-.592.431-.853.688a6.002 6.002 0 000 8.488l12.973 12.973a6.001 6.001 0 00-1.658 9.658l7.073 7.073a8.002 8.002 0 0011.317 0l30.651 30.653a2 2 0 002.829-2.828L78.889 84.547a2 2 0 00-2.828 0l-1.417 1.414a4.099 4.099 0 01-5.657 0l-7.071-7.072a2 2 0 112.828-2.83l4.24 4.24a2.002 2.002 0 102.834-2.826l-4.243-4.245L50.6 56.256a2 2 0 010-2.83 2.046 2.046 0 012.829 0l11.316 11.316 4.24 4.241a2 2 0 102.832-2.827l-4.245-4.243a2 2 0 012.829-2.826l4.242 4.243a2.001 2.001 0 002.831-2.829l-4.245-4.243a1.999 1.999 0 010-2.83 2.05 2.05 0 012.83 0l2.831 2.828 2.827 2.827a2 2 0 002.829-2.829l-2.827-2.828a2 2 0 010-2.831 2.048 2.048 0 012.827 0l11.316 11.319a6.002 6.002 0 010 8.485 2 2 0 000 2.83l16.75 16.749a2 2 0 003.39-1.422 2 2 0 00-.561-1.407zM66.017 38.261v7.494a8.002 8.002 0 01-4.862-3.667v-.16a8.002 8.002 0 014.861-3.667zM43.092 42.01a8.002 8.002 0 013.301-3.115 1.958 1.958 0 00-.382 1.115 2 2 0 102.647-1.87 7.85 7.85 0 018.218 3.786v.168a7.978 7.978 0 01-13.784-.084zm8.921 40.009a2 2 0 100-4.001H32.008a2 2 0 00-2 2v8.002a2 2 0 002 2h20.005a2 2 0 100-4H34.009v-4.001h18.004z" fill="#FF842A"/></svg>