<svg width="114" height="115" fill="none" xmlns="http://www.w3.org/2000/svg"><path d="M39.901 18.015a1.9 1.9 0 10-3.8 0v1.9h-3.8a7.52 7.52 0 00-3.8 1.057v-4.857a1.9 1.9 0 10-3.8 0v4.857a7.52 7.52 0 00-3.8-1.057h-3.8v-1.9a1.9 1.9 0 00-3.8 0v3.8a9.404 9.404 0 001.95 5.702h-.05a1.9 1.9 0 00-1.9 1.9 9.514 9.514 0 009.5 9.502h1.9v3.8a1.9 1.9 0 003.8 0v-3.8h1.9a9.51 9.51 0 009.5-9.502 1.9 1.9 0 00-1.9-1.9h-.049a9.403 9.403 0 001.95-5.701v-3.801zm-7.6 5.701h3.475a5.712 5.712 0 01-5.375 3.8h-1.9a3.8 3.8 0 013.8-3.8zm-11.4 0a3.8 3.8 0 013.8 3.8h-1.9a5.71 5.71 0 01-5.374-3.8h3.475zm-3.474 7.601h3.475a3.8 3.8 0 013.8 3.8h-1.9a5.71 5.71 0 01-5.375-3.8zm12.974 3.8h-1.9a3.801 3.801 0 013.8-3.8h3.475a5.712 5.712 0 01-5.375 3.8zm72.199 3.802a9.504 9.504 0 00-9.5-9.502 9.499 9.499 0 00-9.5 9.502 9.373 9.373 0 001.24 4.597L79.855 48.5l-13.43-13.433 21.491-21.505 14.778 14.781a1.895 1.895 0 001.35.58 1.896 1.896 0 001.775-1.18 1.896 1.896 0 00-.438-2.087l-2.687-2.687 5.375-5.376 2.687 2.687a1.898 1.898 0 003.22-1.35 1.903 1.903 0 00-.534-1.337L97.323 1.471a1.9 1.9 0 00-2.686 2.687l2.687 2.687-5.377 5.374-2.687-2.687a1.9 1.9 0 00-2.686 0L62.39 33.719a1.9 1.9 0 000 2.687l1.343 1.344-6.716 6.718a1.9 1.9 0 000 2.687L58.36 48.5l-5.375 5.374a1.9 1.9 0 000 2.687l5.375 5.376a1.9 1.9 0 002.687 0l5.373-5.376 1.345 1.344a1.9 1.9 0 002.687 0l3.04-3.04a1.9 1.9 0 00-2.687-2.69l-1.689 1.692-8.062-8.063 5.366-5.365 12.091 12.093a1.9 1.9 0 002.687 0l6.124-6.122a9.31 9.31 0 007.748 1.801 28.214 28.214 0 017.529 19.213 28.495 28.495 0 01-18.32 26.628 28.484 28.484 0 01-31.406-7.625H60.8a7.6 7.6 0 007.6-7.602v-1.9a1.9 1.9 0 00-1.9-1.9h-3.8v-1.9a9.514 9.514 0 00-9.5-9.502H38a9.51 9.51 0 00-9.5 9.502v1.9h-3.8a1.9 1.9 0 00-1.9 1.9v1.9a7.602 7.602 0 007.6 7.602h17.602a32.285 32.285 0 0036.101 11.719A32.286 32.286 0 00106.4 67.424a31.975 31.975 0 00-7.706-20.864 9.52 9.52 0 002.561-2.85 35.697 35.697 0 018.945 23.714 36.083 36.083 0 01-24.26 34.117 36.068 36.068 0 01-40.165-11.787 1.9 1.9 0 10-2.984 2.35 39.872 39.872 0 0014.313 11.426H55.1a5.7 5.7 0 00-5.7 5.701v3.8a1.9 1.9 0 001.9 1.901h13.3a1.902 1.902 0 000-3.801H53.2v-1.9a1.9 1.9 0 011.9-1.901h38a1.902 1.902 0 011.9 1.901v1.9H72.2a1.898 1.898 0 00-1.9 1.9 1.9 1.9 0 001.9 1.901h24.7a1.902 1.902 0 001.9-1.901v-3.8a5.7 5.7 0 00-5.7-5.701h-2.117A39.92 39.92 0 00114 67.424a39.485 39.485 0 00-11.461-27.897c.014-.206.061-.4.061-.608zM100.009 9.53l5.375 5.376-5.375 5.374-5.374-5.374 5.374-5.376zM63.734 53.874l-4.03 4.033-2.688-2.69 4.032-4.03 2.686 2.687zm-31.433 19.25a5.702 5.702 0 013.8-5.35v1.55a1.9 1.9 0 003.8 0v-1.9h3.8v1.9a1.9 1.9 0 103.8 0v-1.9h3.8v1.9a1.9 1.9 0 003.8 0v-1.55a5.7 5.7 0 013.8 5.35v1.9h-26.6v-1.9zm-5.7 5.701h38a3.801 3.801 0 01-3.8 3.801H30.4a3.8 3.8 0 01-3.8-3.8zm60.8-39.906a5.702 5.702 0 016.811-5.592 5.7 5.7 0 014.154 7.773A5.7 5.7 0 0187.4 38.92z" fill="#FF842A"/><path d="M93.1 40.819a1.9 1.9 0 100-3.8 1.9 1.9 0 000 3.8zM33.88 53.103l10.743 6.447a1.9 1.9 0 002.812-2.128L44.613 47.09a26.534 26.534 0 003.458-35.251 1.9 1.9 0 00-3.066 2.244 22.74 22.74 0 01-3.749 30.9 1.9 1.9 0 00-.61 1.955l1.887 6.921-7.41-4.449a1.9 1.9 0 00-1.556-.19A22.797 22.797 0 015.153 35.356 22.808 22.808 0 0117.907 6.423 22.795 22.795 0 0140.032 9.12a1.9 1.9 0 002.244-3.068A26.587 26.587 0 00.414 22.854a26.6 26.6 0 008.348 24.405 26.589 26.589 0 0025.118 5.844z" fill="#FF842A"/></svg>