<svg width="91" height="90" fill="none" xmlns="http://www.w3.org/2000/svg"><path d="M54.6 55.5h-1.684a10.496 10.496 0 002.365-3.43c.55-1.289.834-2.672.836-4.07v-.51a9.079 9.079 0 004.825-3.93 8.916 8.916 0 001.124-6.082 8.978 8.978 0 00-3.109-5.363A9.16 9.16 0 0053.083 30H31.85a3.05 3.05 0 00-2.145.879A2.983 2.983 0 0028.817 33v6a8.931 8.931 0 001.668 5.199 9.09 9.09 0 004.398 3.291V48c.002 1.398.286 2.781.836 4.07a10.496 10.496 0 002.364 3.43H36.4a10.676 10.676 0 00-7.507 3.075A10.442 10.442 0 0025.783 66v22.5c0 .398.16.78.445 1.06a1.525 1.525 0 002.144 0c.285-.28.445-.662.445-1.06V66c0-1.99.799-3.897 2.22-5.303A7.626 7.626 0 0136.4 58.5h18.2c2.011 0 3.94.79 5.362 2.197A7.458 7.458 0 0162.183 66v22.5c0 .398.16.78.445 1.06a1.525 1.525 0 002.144 0c.285-.28.445-.662.445-1.06V66c0-2.785-1.119-5.456-3.11-7.425A10.676 10.676 0 0054.6 55.5zM31.85 39v-6h21.233a6.11 6.11 0 013.687 1.243 5.996 5.996 0 012.162 3.203 5.938 5.938 0 01-.252 3.844 6.021 6.021 0 01-2.563 2.9V39c0-.398-.16-.78-.445-1.06a1.525 1.525 0 00-1.072-.44H36.4c-.402 0-.788.158-1.072.44a1.492 1.492 0 00-.445 1.06v5.19a6.034 6.034 0 01-2.219-2.194A5.95 5.95 0 0131.85 39zm6.067 9v-7.5h15.166V48c0 1.99-.799 3.897-2.22 5.303A7.626 7.626 0 0145.5 55.5c-2.011 0-3.94-.79-5.362-2.197A7.458 7.458 0 0137.917 48z" fill="#FF842A"/><path d="M34.883 66c-.402 0-.788.158-1.072.44a1.492 1.492 0 00-.444 1.06v21c0 .398.16.78.444 1.06a1.525 1.525 0 002.145 0 1.49 1.49 0 00.444-1.06v-21c0-.398-.16-.78-.444-1.06a1.525 1.525 0 00-1.073-.44zm21.234 0c-.403 0-.788.158-1.073.44a1.492 1.492 0 00-.444 1.06v21c0 .398.16.78.444 1.06a1.525 1.525 0 002.145 0c.285-.28.444-.662.444-1.06v-21c0-.398-.16-.78-.444-1.06a1.525 1.525 0 00-1.072-.44zm-7.34 3.105A4.474 4.474 0 0050.05 66c0-.398-.16-.78-.445-1.06a1.525 1.525 0 00-2.144 0 1.492 1.492 0 00-.445 1.06 1.486 1.486 0 01-.652 1.23 1.528 1.528 0 01-1.668 0 1.487 1.487 0 01-.713-1.23c0-.398-.16-.78-.444-1.06a1.525 1.525 0 00-2.145 0A1.492 1.492 0 0040.95 66a4.474 4.474 0 001.274 3.105L40.95 77.79c-.05.363.036.73.242 1.035l3.034 4.5a1.512 1.512 0 001.259.663 1.53 1.53 0 001.258-.663l3.034-4.5c.206-.304.292-.672.242-1.035l-1.243-8.685zM45.5 79.8l-1.517-2.16 1.107-7.14h.82l1.106 7.14L45.5 79.8zM33.367 12c-.403 0-.788.158-1.073.44a1.492 1.492 0 000 2.12c.285.282.67.44 1.073.44h24.266c.403 0 .788-.158 1.073-.44a1.49 1.49 0 00.444-1.06v-6c0-.398-.16-.78-.444-1.06A1.525 1.525 0 0057.633 6H33.367c-.403 0-.788.158-1.073.44a1.492 1.492 0 000 2.12c.285.282.67.44 1.073.44h22.75v3h-22.75zm27.3 9c.402 0 .788-.158 1.072-.44a1.492 1.492 0 000-2.12 1.525 1.525 0 00-1.072-.44H54.6c-.402 0-.788.158-1.072.44a1.492 1.492 0 00-.445 1.06v6c0 .398.16.78.445 1.06.284.282.67.44 1.072.44h6.067c.402 0 .788-.158 1.072-.44a1.492 1.492 0 000-2.12 1.525 1.525 0 00-1.072-.44h-4.55v-3h4.55zm-18.2-3c-.403 0-.788.158-1.073.44a1.492 1.492 0 00-.444 1.06v6c0 .398.16.78.444 1.06.285.282.67.44 1.073.44h6.066c.403 0 .788-.158 1.073-.44a1.49 1.49 0 00.444-1.06v-6c0-.398-.16-.78-.444-1.06a1.525 1.525 0 00-1.073-.44h-6.066zm4.55 6h-3.034v-3h3.034v3zm-18.2-4.5v6c0 .398.16.78.444 1.06.284.282.67.44 1.072.44H36.4c.402 0 .788-.158 1.072-.44.285-.28.445-.662.445-1.06v-6c0-.398-.16-.78-.445-1.06A1.525 1.525 0 0036.4 18h-6.067c-.402 0-.788.158-1.072.44a1.492 1.492 0 00-.444 1.06zM31.85 21h3.033v3H31.85v-3z" fill="#FF842A"/><path d="M86.45 18H69.767V4.5c0-1.193-.48-2.338-1.333-3.182A4.576 4.576 0 0065.217 0H25.783a4.576 4.576 0 00-3.217 1.318A4.475 4.475 0 0021.233 4.5V18H4.55a4.576 4.576 0 00-3.217 1.318A4.475 4.475 0 000 22.5v39c0 .398.16.78.444 1.06a1.525 1.525 0 002.145 0c.285-.28.444-.662.444-1.06v-39c0-.398.16-.78.445-1.06.284-.282.67-.44 1.072-.44h16.683v31.5c0 .398.16.78.445 1.06a1.525 1.525 0 002.144 0c.285-.28.445-.662.445-1.06v-48c0-.398.16-.78.444-1.06.284-.282.67-.44 1.072-.44h39.434c.402 0 .788.158 1.072.44.284.28.444.662.444 1.06v48c0 .398.16.78.445 1.06a1.525 1.525 0 002.144 0c.285-.28.445-.662.445-1.06V21H86.45c.402 0 .788.158 1.072.44.285.28.445.662.445 1.06V63c0 .398.16.78.444 1.06a1.525 1.525 0 002.145 0A1.49 1.49 0 0091 63V22.5c0-1.194-.48-2.338-1.333-3.182A4.576 4.576 0 0086.45 18z" fill="#FF842A"/><path d="M83.417 27c.402 0 .788-.158 1.072-.44a1.492 1.492 0 000-2.12 1.525 1.525 0 00-1.072-.44h-9.1c-.403 0-.788.158-1.073.44a1.492 1.492 0 00-.444 1.06v6c0 .398.16.78.444 1.06.285.282.67.44 1.073.44h9.1c.402 0 .788-.158 1.072-.44a1.492 1.492 0 000-2.12 1.525 1.525 0 00-1.072-.44h-7.584v-3h7.584zM72.8 43.5c0 .398.16.78.444 1.06.285.282.67.44 1.073.44h9.1c.402 0 .788-.158 1.072-.44a1.49 1.49 0 00.444-1.06v-6c0-.398-.16-.78-.444-1.06a1.525 1.525 0 00-1.072-.44h-9.1c-.403 0-.788.158-1.073.44a1.492 1.492 0 00-.444 1.06v6zm3.033-4.5H81.9v3h-6.067v-3zm-1.516 12h9.1c.402 0 .788-.158 1.072-.44a1.492 1.492 0 000-2.12 1.525 1.525 0 00-1.072-.44h-9.1c-.403 0-.788.158-1.073.44a1.492 1.492 0 000 2.12c.285.282.67.44 1.073.44zM16.683 24h-9.1c-.402 0-.788.158-1.072.44a1.492 1.492 0 00-.444 1.06v6c0 .398.16.78.444 1.06.284.282.67.44 1.072.44h9.1c.403 0 .788-.158 1.073-.44a1.49 1.49 0 00.444-1.06v-6c0-.398-.16-.78-.444-1.06a1.525 1.525 0 00-1.073-.44zm-1.516 6H9.1v-3h6.067v3zm1.516 9c.403 0 .788-.158 1.073-.44a1.492 1.492 0 000-2.12 1.525 1.525 0 00-1.073-.44h-9.1c-.402 0-.788.158-1.072.44a1.492 1.492 0 00-.444 1.06v6c0 .398.16.78.444 1.06.284.282.67.44 1.072.44h9.1c.403 0 .788-.158 1.073-.44a1.492 1.492 0 000-2.12 1.525 1.525 0 00-1.073-.44H9.1v-3h7.583zm0 9h-9.1c-.402 0-.788.158-1.072.44a1.492 1.492 0 000 2.12c.284.282.67.44 1.072.44h9.1c.403 0 .788-.158 1.073-.44a1.492 1.492 0 000-2.12 1.525 1.525 0 00-1.073-.44zm71.284 24H86.45v-1.5c0-1.194-.48-2.338-1.333-3.182A4.576 4.576 0 0081.9 66h-3.033a4.576 4.576 0 00-3.218 1.318 4.475 4.475 0 00-1.332 3.182V72H72.8a3.05 3.05 0 00-2.145.879A2.983 2.983 0 0069.767 75v12c0 .796.32 1.559.888 2.121A3.05 3.05 0 0072.8 90h15.167a3.05 3.05 0 002.145-.879A2.984 2.984 0 0091 87V75c0-.796-.32-1.559-.888-2.121A3.05 3.05 0 0087.967 72zM77.35 70.5c0-.398.16-.78.444-1.06.285-.282.67-.44 1.073-.44H81.9c.402 0 .788.158 1.072.44.285.28.445.662.445 1.06V72H77.35v-1.5zM87.967 87H72.8v-6h9.1c.402 0 .788-.158 1.072-.44a1.492 1.492 0 000-2.12A1.525 1.525 0 0081.9 78h-9.1v-3h15.167v12zM12.133 64.5a3.05 3.05 0 012.145.879c.57.562.889 1.325.889 2.121 0 .398.16.78.444 1.06a1.525 1.525 0 002.145 0 1.49 1.49 0 00.444-1.06 5.958 5.958 0 00-1.272-3.672 6.072 6.072 0 00-3.278-2.133V58.5c0-.398-.16-.78-.444-1.06a1.525 1.525 0 00-2.145 0 1.492 1.492 0 00-.444 1.06v3.195a6.066 6.066 0 00-3.493 2.445 5.949 5.949 0 001.01 7.856 6.106 6.106 0 004 1.504c.6 0 1.186.176 1.685.506.498.33.887.798 1.117 1.346a2.97 2.97 0 01-.658 3.27 3.065 3.065 0 01-3.306.65 3.026 3.026 0 01-1.36-1.105A2.977 2.977 0 019.1 76.5c0-.398-.16-.78-.444-1.06a1.525 1.525 0 00-2.145 0 1.492 1.492 0 00-.444 1.06 5.958 5.958 0 001.272 3.671 6.072 6.072 0 003.278 2.134V85.5c0 .398.16.78.444 1.06a1.525 1.525 0 002.145 0 1.49 1.49 0 00.444-1.06v-3.195a6.066 6.066 0 003.492-2.445 5.949 5.949 0 00-1.01-7.856 6.106 6.106 0 00-3.999-1.504 3.05 3.05 0 01-2.145-.879A2.983 2.983 0 019.1 67.5c0-.796.32-1.559.888-2.121a3.05 3.05 0 012.145-.879z" fill="#FF842A"/></svg>