<svg width="90" height="90" fill="none" xmlns="http://www.w3.org/2000/svg"><path d="M85.645 0H18.871a4.36 4.36 0 00-4.355 4.355v38.852c-2.65 2.13-4.355 5.393-4.355 9.051 0 4.035 2.072 7.593 5.204 9.675C6.477 64.677 0 72.965 0 82.742V90h43.548v-7.258c0-2.013-.296-3.956-.81-5.806h7.75l.876-3.508 3.1 1.86 7.76-7.762-1.857-3.1 3.504-.873v-8.392h21.774A4.36 4.36 0 0090 50.806V4.355A4.36 4.36 0 0085.645 0zm-72.58 52.258c0-4.803 3.906-8.71 8.71-8.71 4.803 0 8.709 3.907 8.709 8.71 0 4.803-3.906 8.71-8.71 8.71-4.803 0-8.71-3.907-8.71-8.71zm10.16-11.513V8.71H81.29v37.742H31.816a11.626 11.626 0 00-8.59-5.707zm-1.45 30.384c3.52 0 6.459-2.523 7.115-5.854.373.152.733.326 1.095.502l-8.21 19.096-8.211-19.096c.361-.176.721-.35 1.094-.502.657 3.331 3.595 5.854 7.116 5.854zm4.302-6.744c-.259 2.157-2.078 3.84-4.303 3.84s-4.044-1.683-4.302-3.84a18.781 18.781 0 014.302-.514c1.482 0 2.918.189 4.303.514zM2.903 82.742c0-6.416 3.224-12.086 8.13-15.498l8.536 19.853h-9.408V75.484H7.258v11.613H2.903v-4.355zm37.742 4.355H36.29V75.484h-2.903v11.613H23.98l8.536-19.851c4.906 3.411 8.13 9.081 8.13 15.496v4.355zm20.323-25.811l-2.83.707-.775.293-.675 1.658 1.882 3.135-4.557 4.555-3.134-1.881-1.77.73-.888 3.55h-6.503c-2.524-5.76-7.463-10.226-13.535-12.1a11.643 11.643 0 004.822-6.772h2.272a10.17 10.17 0 00-.438 2.904c0 5.603 4.56 10.16 10.161 10.16 5.602 0 10.161-4.557 10.161-10.16 0-.989-.158-1.965-.438-2.904h6.245v6.125zm-9.323-6.125c.398.912.613 1.899.613 2.904 0 4.002-3.256 7.258-7.258 7.258-4.002 0-7.258-3.256-7.258-7.258 0-1.005.215-1.993.613-2.904h13.29zm35.452-4.355c0 .8-.65 1.452-1.452 1.452H33.387c0-1.004-.14-1.973-.382-2.903h51.189V5.806H20.323v34.94a11.502 11.502 0 00-2.904.754V4.355c0-.8.65-1.452 1.452-1.452h66.774c.802 0 1.452.652 1.452 1.452v46.451z" fill="#FF842A"/><path d="M55.161 17.42h-5.806v-5.807H26.129v14.516h23.226v-5.806h5.806v5.806h10.162v2.903H55.16v14.516h23.226V29.032h-10.16V26.13h10.161V11.613H55.161v5.806zm-8.71 5.806H29.033v-8.71h17.42v8.71zm29.033 17.42h-17.42v-8.71h17.42v8.71zm-17.42-26.13h17.42v8.71h-17.42v-8.71z" fill="#FF842A"/><path d="M63.871 17.42h-2.903v2.903h2.903v-2.904zm8.709 0h-5.806v2.903h5.807v-2.904zm0 17.419H60.969v2.903H72.58v-2.903zM45 17.42H31.936v2.903H45v-2.904zM34.839 29.032h-2.903v2.904h2.903v-2.904zm5.806 0h-2.903v2.904h2.903v-2.904zm5.807 0h-2.904v2.904h2.904v-2.904zm0 5.807H26.129v2.903h20.323v-2.903zm0 5.806H33.387v2.903h13.065v-2.903zm37.742 20.323h-17.42v2.903h17.42v-2.903zm0 5.806h-17.42v2.903h17.42v-2.903zm0 5.806H81.29v2.904h2.904V72.58zm-5.807 0h-2.903v2.904h2.903V72.58zm-5.807 0h-2.903v2.904h2.904V72.58z" fill="#FF842A"/></svg>