<svg width="90" height="90" fill="none" xmlns="http://www.w3.org/2000/svg"><path d="M85.645 53.71H53.71a4.36 4.36 0 00-4.355 4.355v20.322a4.36 4.36 0 004.355 4.355h31.935A4.36 4.36 0 0090 78.387V58.065a4.36 4.36 0 00-4.355-4.355zm1.452 24.677c0 .801-.65 1.452-1.452 1.452H53.71c-.802 0-1.452-.65-1.452-1.452V58.065c0-.802.65-1.452 1.452-1.452h31.935c.802 0 1.452.65 1.452 1.452v20.322z" fill="#FF842A"/><path d="M79.839 59.516a4.36 4.36 0 00-4.355 4.355c0 .552.113 1.076.302 1.562l-3.951 3.386a4.31 4.31 0 00-2.158-.593 4.316 4.316 0 00-2.824 1.068l-3.059-1.748a4.45 4.45 0 00.077-.772 4.36 4.36 0 00-4.355-4.355 4.36 4.36 0 00-4.355 4.355 4.36 4.36 0 004.355 4.355 4.316 4.316 0 002.825-1.068l3.059 1.747a4.512 4.512 0 00-.077.773 4.36 4.36 0 004.354 4.355 4.36 4.36 0 004.355-4.355c0-.552-.113-1.076-.302-1.562l3.953-3.387a4.3 4.3 0 002.156.594 4.36 4.36 0 004.355-4.355 4.36 4.36 0 00-4.355-4.355zm-20.323 8.71a1.452 1.452 0 11.001-2.904 1.452 1.452 0 010 2.904zm10.161 5.806a1.452 1.452 0 11.002-2.904 1.452 1.452 0 01-.002 2.904zm10.162-8.71a1.452 1.452 0 110-2.904 1.452 1.452 0 010 2.905zM18.871 11.613a2.906 2.906 0 012.903 2.903h2.903c0-2.698-1.856-4.951-4.354-5.6v-3.11h-2.904V8.71h-4.354v5.806a5.812 5.812 0 005.806 5.807 2.906 2.906 0 012.903 2.903v2.903h-2.903a2.906 2.906 0 01-2.903-2.903h-2.903c0 2.698 1.856 4.951 4.354 5.6v3.11h2.904v-2.904h4.354v-5.806a5.812 5.812 0 00-5.806-5.807 2.906 2.906 0 01-2.903-2.903v-2.903h2.903zm37.742 14.516h-5.806v17.42h26.129v-26.13h-8.71v2.904h-5.807v2.903h-5.806v2.903zm-2.903 2.903h2.903v11.613H53.71V29.032zm17.419-8.71h2.903v20.323H71.13V20.323zm-2.903 2.904v17.42h-2.903v-17.42h2.903zm-5.807 2.903v14.516h-2.903V26.13h2.903z" fill="#FF842A"/><path d="M78.387 49.355A4.36 4.36 0 0082.742 45V15.968a4.36 4.36 0 00-4.355-4.355H36.26C33.344 4.629 26.489 0 18.87 0 8.466 0 0 8.466 0 18.871s8.466 18.87 18.871 18.87c4.239 0 8.315-1.455 11.613-4.043V45a4.36 4.36 0 004.355 4.355h1.451v5.806a2.906 2.906 0 01-2.903 2.904h-7.42a10.122 10.122 0 003.065-7.258c0-5.602-4.56-10.162-10.161-10.162-5.602 0-10.161 4.56-10.161 10.161 0 3.082 1.384 5.843 3.559 7.709C5.245 60.19 0 66.502 0 74.031V90h30.484V72.707c0-1.054.752-1.955 1.787-2.144l4.643-.845a11.606 11.606 0 009.538-11.424v-8.94h31.935zM18.871 34.839c-8.804 0-15.968-7.164-15.968-15.968S10.067 2.903 18.871 2.903c6.15 0 11.71 3.568 14.352 9.03a4.353 4.353 0 00-2.74 4.035v13.809c-3.02 3.214-7.215 5.062-11.612 5.062zm1.408 38.636l-1.408 1.408-1.408-1.408.893-12.507h1.032l.891 12.507zm-8.666-22.668c0-4.003 3.256-7.259 7.258-7.259 4.002 0 7.258 3.256 7.258 7.258 0 4.003-3.256 7.259-7.258 7.259-4.002 0-7.258-3.256-7.258-7.258zm31.935 7.487a8.706 8.706 0 01-7.152 8.569l-4.643.843a5.08 5.08 0 00-4.172 5v14.39H10.16v-18.87H7.258v18.87H2.903V74.033c0-7.027 5.58-12.76 12.54-13.038l-.97 13.594 4.398 4.399 4.398-4.399-.972-13.62h11.09a5.812 5.812 0 005.807-5.807V42.823c0-1.2.976-2.178 2.177-2.178 1.2 0 2.177.977 2.177 2.178v15.47zm-2.177-20.552a5.086 5.086 0 00-5.08 5.08v3.63h-1.452c-.802 0-1.452-.65-1.452-1.452V15.968c0-.802.65-1.452 1.452-1.452h43.548c.801 0 1.452.65 1.452 1.452V45c0 .801-.65 1.452-1.452 1.452H46.452v-3.63a5.086 5.086 0 00-5.081-5.08z" fill="#FF842A"/><path d="M39.194 17.42H36.29v2.903h2.904v-2.904zm5.806 0h-2.903v2.903H45v-2.904zm5.806 0h-2.903v2.903h2.904v-2.904zm-2.903 5.806H36.29v2.903h11.613v-2.903zm0 5.806H36.29v2.904h11.613v-2.904z" fill="#FF842A"/></svg>