<svg width="118" height="116" fill="none" xmlns="http://www.w3.org/2000/svg"><path d="M18.851 77.894v-3.16h.598c2.216 0 4.02-1.788 4.02-3.985v-.384c0-2.198-1.804-3.986-4.02-3.986h-5.194a.612.612 0 01-.614-.608v-.383c0-.335.276-.607.614-.607h8.101v-3.379h-3.505v-3.16h-3.405v3.16h-1.19c-2.217 0-4.02 1.789-4.02 3.986v.383c0 2.199 1.803 3.987 4.02 3.987h5.193a.61.61 0 01.614.607v.384a.612.612 0 01-.614.606h-8.102v3.38h4.099v3.16h3.405zM60.14 49.847c10.63 0 19.276-8.581 19.276-19.128 0-10.548-8.648-19.13-19.276-19.13-10.632 0-19.28 8.583-19.28 19.13 0 10.547 8.65 19.128 19.28 19.128zm0-34.88c8.752 0 15.87 7.066 15.87 15.751 0 8.684-7.12 15.749-15.87 15.749-8.753 0-15.875-7.065-15.875-15.749 0-8.685 7.122-15.75 15.875-15.75z" fill="#FF842A"/><path d="M53.019 35.086l-2.151 2.133 2.408 2.391 2.084-2.066a8.377 8.377 0 003.076 1.319v2.868h3.406v-2.87a8.353 8.353 0 003.077-1.32L67 39.609l2.409-2.39-2.151-2.135a8.243 8.243 0 001.136-2.985h3.15v-3.378h-3.28a8.227 8.227 0 00-1.25-2.744l2.395-2.375L67 21.212l-2.462 2.442a8.357 8.357 0 00-2.699-1.079v-3.483h-3.405v3.484a8.36 8.36 0 00-2.699 1.079l-2.461-2.442-2.409 2.39 2.394 2.374a8.235 8.235 0 00-1.25 2.745h-3.28V32.1h3.15a8.254 8.254 0 001.139 2.985zm7.12-9.306c2.743 0 4.974 2.215 4.974 4.937 0 2.722-2.232 4.937-4.974 4.937-2.745 0-4.978-2.215-4.978-4.937 0-2.722 2.233-4.937 4.978-4.937zm6.991 25.543H53.147v3.379H67.13v-3.38zm0 4.795H53.147v3.379H67.13v-3.379zM61.84 0h-3.405v8.954h3.405V0zM40.258 18.64h-9.025v3.378h9.025V18.64zm48.612 0h-9.025v3.378h9.025V18.64zM50.256 9.612l-6.383-6.331-2.408 2.39 6.383 6.331 2.408-2.39zm28.197-4.204L76.045 3.02l-6.382 6.332 2.408 2.39 6.382-6.333z" fill="#FF842A"/><path d="M107.089 103.225v-3.379H92.271v-7.524c0-3.533-.602-6.927-1.698-10.097V37.848h-9.99v30.22a31.45 31.45 0 00-19.764-6.955c-17.342 0-31.452 14-31.452 31.21v7.523H18.764V84.59c8.612-.85 15.359-8.078 15.359-16.842 0-8.765-6.749-15.993-15.359-16.844v-4.619h-3.405v4.619C6.747 51.754 0 58.984 0 67.748 0 76.512 6.748 83.74 15.359 84.59v15.256H3.053v3.379h26.314v9.396H3.053V116H92.27v-12.775h14.818zM3.405 67.748c0-7.471 6.128-13.55 13.656-13.55 7.529 0 13.656 6.079 13.656 13.55 0 7.47-6.127 13.548-13.656 13.548-7.528 0-13.656-6.078-13.656-13.548zm83.762-26.522V75.31a31.436 31.436 0 00-3.178-4.067V41.227h3.178zM60.73 91.374L55.017 81.28l2.596-8.393h5.365l2.795 8.454-5.043 10.032zm-6.21-20.007l-1.808 5.846-5.285-9.336a28.18 28.18 0 014.281-1.847l2.812 5.337zm13.413 5.675l-1.892-5.72 2.76-5.664a27.95 27.95 0 014.063 1.572l-4.93 9.812zm-2.542-12.145l-2.249 4.613h-5.756l-2.328-4.42a28.202 28.202 0 015.762-.597c1.56 0 3.078.16 4.571.404zM32.774 92.322c0-9.324 4.661-17.573 11.777-22.625l14.565 25.727v17.198H45.502v-16.3h-3.405v16.3h-9.324l.001-20.3zm56.092 20.299H78.222v-16.3h-3.406v16.3H62.523V95.377l13.324-26.514c7.813 4.945 13.02 13.6 13.02 23.458l-.001 20.3z" fill="#FF842A"/><path d="M102.832 24.835h-9.989V96.67h9.989V24.835zM99.427 93.29h-3.178V28.214h3.178V93.29zm15.665-79.268h-9.989V96.67h9.989V14.022zm-3.406 79.27h-3.178v-75.89h3.178v75.89zM14.835 44.273l1.608.238.314-1.582c.056-.28 1.316-6.88-2.29-11.805-2.036-2.78-5.152-4.436-9.265-4.927l-1.414-.169-.417 1.352c-.077.251-1.86 6.205 1.271 11.127 1.984 3.12 5.414 5.06 10.194 5.766zm-8.5-14.456c2.358.54 4.16 1.64 5.365 3.277 1.788 2.43 1.976 5.587 1.89 7.496-2.823-.699-4.856-1.995-6.054-3.866-1.518-2.367-1.436-5.22-1.2-6.907z" fill="#FF842A"/><path d="M17.854 44.51l1.607-.237c4.78-.706 8.209-2.645 10.194-5.765 3.131-4.922 1.348-10.877 1.27-11.127l-.416-1.351-1.414.169c-4.113.489-7.23 2.146-9.264 4.926-3.606 4.925-2.346 11.526-2.292 11.806l.315 1.58zm4.73-11.4c1.206-1.647 3.01-2.751 5.375-3.293.237 1.686.318 4.54-1.198 6.907-1.2 1.874-3.233 3.17-6.059 3.867-.09-1.896.092-5.034 1.883-7.482zM118 112.621H95.978V116H118v-3.379z" fill="#FF842A"/></svg>