<svg width="116" height="116" fill="none" xmlns="http://www.w3.org/2000/svg"><path d="M1.933 3.867h112.116a1.931 1.931 0 001.933-1.934A1.932 1.932 0 00114.049 0H1.933a1.933 1.933 0 000 3.867zm112.116 3.866H1.933a1.933 1.933 0 000 3.867h40.594v9.667H32.86a1.933 1.933 0 00-1.933 1.933v1.933H19.33a7.732 7.732 0 00-7.732 7.734v21.266a1.934 1.934 0 001.933 1.934h5.53a1.933 1.933 0 000-3.867h-3.597V32.867A3.867 3.867 0 0119.33 29h11.598v1.933a1.934 1.934 0 001.933 1.934H63.79a1.933 1.933 0 001.933-1.934V29H77.32a3.866 3.866 0 013.866 3.867V52.2H77.32a1.933 1.933 0 000 3.867h5.8a1.933 1.933 0 001.932-1.934V32.867a7.734 7.734 0 00-7.732-7.734H65.723V23.2a1.934 1.934 0 00-1.933-1.933h-9.665v-5.8a1.933 1.933 0 10-3.866 0v5.8h-3.866V11.6h67.656a1.931 1.931 0 001.933-1.933 1.932 1.932 0 00-1.933-1.934zm-52.192 17.4V29H34.794v-3.867h27.063z" fill="#FF842A"/><path d="M53.417 54.572a1.95 1.95 0 00-1.604-.4 13.97 13.97 0 00-10.052 8.207 7.717 7.717 0 002.699 14.954 7.641 7.641 0 003.866-1.073 7.634 7.634 0 003.866 1.073 7.715 7.715 0 007.664-6.743 7.718 7.718 0 00-5.731-8.449v-6.074a1.934 1.934 0 00-.708-1.495zM50.26 58.73v3.42a7.675 7.675 0 00-1.933.79 7.672 7.672 0 00-1.997-.82 10.13 10.13 0 013.93-3.39zM40.593 69.6a3.867 3.867 0 117.735 0 3.867 3.867 0 01-7.735 0zm15.465 0a3.867 3.867 0 01-3.866 3.867 3.662 3.662 0 01-.992-.153 7.45 7.45 0 000-7.428c.322-.096.656-.147.992-.153a3.866 3.866 0 013.866 3.867zM19.33 102.467a5.802 5.802 0 00-6.93-5.689 5.799 5.799 0 106.93 5.689zm-7.732 0a1.932 1.932 0 013.83-.378 1.937 1.937 0 01-.823 1.985 1.928 1.928 0 01-2.44-.24 1.935 1.935 0 01-.567-1.367zm46.392-5.8a5.798 5.798 0 00-5.687 6.931 5.801 5.801 0 007.907 4.227 5.798 5.798 0 003.58-5.358 5.8 5.8 0 00-5.8-5.8zm0 7.733a1.929 1.929 0 01-1.785-1.193 1.937 1.937 0 011.409-2.637 1.932 1.932 0 012.31 1.897 1.935 1.935 0 01-1.933 1.933z" fill="#FF842A"/><path d="M102.45 88.933H81.187v-5.8a1.933 1.933 0 00-1.933-1.933h-7.732v-5.8a1.934 1.934 0 10-3.866 0v5.8h-38.66V42.533h11.598v5.8a1.934 1.934 0 001.933 1.934h11.598a1.933 1.933 0 001.933-1.934v-5.8h11.598v25.134a1.933 1.933 0 003.866 0V40.6a1.934 1.934 0 00-1.933-1.933H27.062A1.933 1.933 0 0025.13 40.6v40.6h-7.732a1.933 1.933 0 00-1.933 1.933v5.8h-1.933A13.53 13.53 0 000 102.467 13.534 13.534 0 0013.531 116H88.92a1.935 1.935 0 001.933-1.933 1.932 1.932 0 00-1.933-1.934H67.441a13.548 13.548 0 002.757-3.866h20.045a13.532 13.532 0 1019.095-17.46 13.528 13.528 0 00-6.888-1.874zm-50.258-46.4V46.4H44.46v-3.867h7.732zm38.051 54.134H70.198A13.561 13.561 0 0067.44 92.8H93a13.563 13.563 0 00-2.757 3.867zm-12.922-7.734h-3.866v-3.866h3.866v3.866zm-7.732-3.866v3.866h-3.866v-3.866h3.866zm-7.732 0v3.866H57.99v-3.866h3.866zm-16.073 11.6H25.738a13.561 13.561 0 00-2.756-3.867H48.54a13.565 13.565 0 00-2.756 3.867zm-10.99-7.734v-3.866h3.867v3.866h-3.867zm15.465 0v-3.866h3.866v3.866h-3.866zm-3.866-3.866v3.866h-3.866v-3.866h3.866zm-15.465 0v3.866h-3.866v-3.866h3.866zm-11.598 0h3.866v3.866H19.33v-3.866zm-15.464 17.4a9.668 9.668 0 0111.55-9.481 9.665 9.665 0 017.045 13.18 9.666 9.666 0 01-8.93 5.967 9.676 9.676 0 01-9.665-9.666zm19.116 9.666a13.275 13.275 0 003.926-11.6h17.706a12.164 12.164 0 000 3.867H32.187a1.935 1.935 0 00-1.933 1.933 1.932 1.932 0 001.933 1.934h13.597a13.552 13.552 0 002.756 3.866H22.982zm25.344-9.666a9.668 9.668 0 0111.55-9.481 9.664 9.664 0 017.044 13.18 9.667 9.667 0 01-8.93 5.967 9.676 9.676 0 01-9.664-9.666zm23.041 1.933a12.164 12.164 0 000-3.867h17.707a12.164 12.164 0 000 3.867H71.367zm31.083 7.733a9.666 9.666 0 119.665-9.666 9.675 9.675 0 01-9.665 9.666z" fill="#FF842A"/><path d="M102.45 96.667a5.796 5.796 0 00-5.357 3.58 5.8 5.8 0 0010.179 5.442 5.802 5.802 0 00-4.822-9.022zm0 7.733a1.93 1.93 0 01-1.786-1.193 1.935 1.935 0 013.394-1.814 1.934 1.934 0 01-1.608 3.007z" fill="#FF842A"/></svg>