<svg width="117" height="117" fill="none" xmlns="http://www.w3.org/2000/svg"><path d="M45.52 77.112A11.626 11.626 0 0048.323 55.8l-1.493-.862a7.737 7.737 0 003.568-6.5V7.75h9.688v1.938a1.938 1.938 0 001.937 1.937h15.5a1.938 1.938 0 001.938-1.938v-7.75A1.938 1.938 0 0077.523 0h-15.5a1.938 1.938 0 00-1.937 1.938v1.937H48.46a1.938 1.938 0 00-1.938 1.938V37.89a7.67 7.67 0 00-3.875-1.078h-3.925A9.587 9.587 0 0040.711 31a1.937 1.937 0 00-1.938-1.938h-5.812a7.75 7.75 0 00-7.75 7.75v1.938a1.9 1.9 0 00.12.595 7.803 7.803 0 00-.944 1.275 7.676 7.676 0 00-4.989-1.87h-5.812a1.937 1.937 0 00-1.938 1.938 9.688 9.688 0 005.693 8.8 15.5 15.5 0 0017.557 25.404V108.5H23.273v-1.938a1.94 1.94 0 00-1.937-1.937H1.96a1.939 1.939 0 100 3.875h17.437v3.875H1.961a1.939 1.939 0 100 3.875h19.375a1.939 1.939 0 001.937-1.938v-1.937h13.563a1.939 1.939 0 001.937-1.937v-33.58a11.512 11.512 0 006.747.254zM63.96 3.876h11.626V7.75H63.96V3.875zM46.524 44.563v3.874a3.875 3.875 0 01-3.875 3.876v.216l-7.75-4.479a15.409 15.409 0 00-7.75-2.067v-1.42a3.875 3.875 0 013.875-3.876v1.938a1.938 1.938 0 003.875 0v-1.938h3.875V46.5a1.938 1.938 0 003.875 0v-5.813a3.875 3.875 0 013.875 3.876zM32.961 32.937h3.544a5.824 5.824 0 01-5.482 3.876h-1.937a3.875 3.875 0 013.875-3.876zm-17.106 9.688h3.543a3.875 3.875 0 013.875 3.854l-.096.021h-1.841a5.825 5.825 0 01-5.481-3.875zm20.98 21.313a1.937 1.937 0 00-1.937 1.937v4.56c-.267.053-.52.163-.74.324a11.625 11.625 0 11-1.197-19.347l13.423 7.75a7.75 7.75 0 01-7.61 13.485v-6.772a1.937 1.937 0 00-1.938-1.938z" fill="#FF842A"/><path d="M30.053 56.445a5.812 5.812 0 10.637 9.655 5.759 5.759 0 001.492-1.711 5.814 5.814 0 00-2.13-7.944zm-1.227 6.006a1.915 1.915 0 01-1.176.903 1.938 1.938 0 111.176-.907v.004zM90.99 96.64a1.938 1.938 0 00-2.74 2.74l3.638 3.641a3.876 3.876 0 010 5.479l-2.74 2.74a3.968 3.968 0 01-5.48 0l-13.7-13.7a3.875 3.875 0 010-5.48l2.741-2.741a3.966 3.966 0 015.48 0l4.58 4.58a1.938 1.938 0 002.74-2.74l-4.581-4.58a7.69 7.69 0 00-5.48-2.27c-.67.01-1.337.106-1.983.286L63.343 74.474a34.902 34.902 0 00-5.876-46.787 1.94 1.94 0 10-2.519 2.95 30.983 30.983 0 01-10.94 53.245 1.938 1.938 0 101.14 3.705 35.102 35.102 0 009.968-4.892l10.122 10.121a7.804 7.804 0 00-.287 1.984 7.69 7.69 0 002.271 5.479l13.698 13.7a7.755 7.755 0 005.48 2.27 7.755 7.755 0 005.48-2.27l2.74-2.739a7.75 7.75 0 000-10.959l-3.63-3.64zM58.161 80.254a34.503 34.503 0 002.75-2.731l9.056 9.06-2.738 2.737-9.068-9.066z" fill="#FF842A"/><path d="M83.336 58.125a1.938 1.938 0 001.937-1.938v-15.5a1.937 1.937 0 00-1.937-1.937h-7.75a1.937 1.937 0 00-1.938 1.938v15.5a1.938 1.938 0 001.938 1.937h7.75zm-5.813-3.875v-3.875h3.875v3.875h-3.875zm3.875-11.625V46.5h-3.875v-3.875h3.875zm17.438 15.5a1.938 1.938 0 001.937-1.938V29.064a1.938 1.938 0 00-1.937-1.938h-7.75a1.937 1.937 0 00-1.938 1.938v27.125a1.938 1.938 0 001.938 1.937h7.75zm-5.813-3.875V40.687h3.875V54.25h-3.875zM96.898 31v5.813h-3.875V31h3.875zm17.438-31h-7.75a1.937 1.937 0 100 3.875h3.073L98.034 15.5h-6.948a1.938 1.938 0 00-1.47.678L78.57 29.062h-8.797a1.937 1.937 0 000 3.875h9.688a1.938 1.938 0 001.47-.678l11.046-12.884h6.859c.514 0 1.007-.204 1.37-.568l12.192-12.192v3.072a1.94 1.94 0 003.308 1.37c.363-.363.567-.856.567-1.37v-7.75A1.939 1.939 0 00114.336 0zm0 19.375h-7.75a1.936 1.936 0 00-1.938 1.938v34.874a1.94 1.94 0 001.938 1.938h7.75a1.936 1.936 0 001.937-1.938V46.5a1.938 1.938 0 10-3.875 0v7.75h-3.875V32.937h3.875v5.813a1.94 1.94 0 003.308 1.37c.363-.363.567-.856.567-1.37V21.312a1.938 1.938 0 00-1.937-1.937zm-5.813 9.688V23.25h3.875v5.813h-3.875zM19.4 23.056a34.826 34.826 0 009.346 65.488c.112.023.226.036.34.038a1.937 1.937 0 00.34-3.845 30.952 30.952 0 01-10.027-57.292v5.492a1.937 1.937 0 103.875 0v-7.405a30.322 30.322 0 0117.099-1.769 1.937 1.937 0 00.678-3.815 33.906 33.906 0 00-17.777 1.461V5.813a1.937 1.937 0 00-1.937-1.938H11.293a5.813 5.813 0 100 3.875h8.106v15.306zM5.836 7.75a1.937 1.937 0 110-3.875 1.937 1.937 0 010 3.875z" fill="#FF842A"/></svg>