<svg width="118" height="117" fill="none" xmlns="http://www.w3.org/2000/svg"><path d="M105.863 81.04a2.144 2.144 0 00-1.6-.842A23.2 23.2 0 0087 88.125a23.128 23.128 0 00-36.83 2.621 1.934 1.934 0 000 2.116 23.125 23.125 0 0028.223 8.786A23.123 23.123 0 0087 95.471a23.192 23.192 0 0017.263 7.927h.011a1.93 1.93 0 001.591-.838 1.924 1.924 0 00.213-1.785 24.801 24.801 0 010-17.938 1.927 1.927 0 00-.215-1.798zM54.147 91.797a19.252 19.252 0 0114.386-7.671 28.107 28.107 0 010 15.343 19.252 19.252 0 01-14.386-7.672zm18.442 7.468a32.212 32.212 0 000-14.936 19.372 19.372 0 0112.424 7.468 19.372 19.372 0 01-12.424 7.468zm28.951.043a19.399 19.399 0 01-12.553-7.51 19.399 19.399 0 0112.553-7.512 28.508 28.508 0 000 15.022z" fill="#FF842A"/><path d="M61.863 91.798a1.933 1.933 0 100-3.866 1.933 1.933 0 000 3.866z" fill="#FF842A"/><path d="M108.267 66.665h-58a9.678 9.678 0 00-9.666 9.667v4.605a7.694 7.694 0 00-4.253-2.513 12.68 12.68 0 011.2-7.111l.924-1.849a1.933 1.933 0 00-2.34-2.706A16.486 16.486 0 0025.327 78.48a7.734 7.734 0 001.74 15.251 7.63 7.63 0 003.866-1.072 7.59 7.59 0 009.667-1.6v16.206a9.681 9.681 0 009.666 9.666h58a9.678 9.678 0 009.667-9.666V87.931a1.932 1.932 0 00-3.867 0v19.334a5.8 5.8 0 01-5.8 5.8h-58a5.799 5.799 0 01-5.8-5.8V76.332a5.8 5.8 0 015.8-5.8h58a5.8 5.8 0 015.8 5.8v3.866A1.936 1.936 0 00116 82.132a1.932 1.932 0 001.934-1.934v-3.866a9.678 9.678 0 00-9.667-9.667zm-75.463 6.424a16.696 16.696 0 00-.366 5.58 7.734 7.734 0 00-1.51.669 7.55 7.55 0 00-1.63-.706 12.678 12.678 0 013.506-5.543zM23.2 86a3.866 3.866 0 013.702-3.85l.194-.016a3.866 3.866 0 11-3.896 3.865zm11.6 3.866a3.625 3.625 0 01-.996-.147 7.445 7.445 0 000-7.44c.324-.095.659-.144.996-.146a3.866 3.866 0 110 7.733z" fill="#FF842A"/><path d="M36.733 113.065H15.467a5.799 5.799 0 01-5.8-5.8v-5.8H34.8a1.932 1.932 0 001.367-3.3 1.933 1.933 0 00-1.367-.567H9.667v-34.8h52.2a1.934 1.934 0 001.932-1.933V51.2a5.8 5.8 0 100-11.6H23.2a1.933 1.933 0 100 3.866h40.6a1.934 1.934 0 010 3.867h-58a1.933 1.933 0 110-3.867h9.667a1.933 1.933 0 100-3.866H5.8a5.8 5.8 0 000 11.6v56.066a9.681 9.681 0 009.667 9.666h21.266a1.931 1.931 0 001.367-3.3 1.931 1.931 0 00-1.367-.566zm23.2-61.866v7.733H9.667v-7.733h50.266z" fill="#FF842A"/><path d="M117.263 1.404a1.932 1.932 0 00-1.546-.452l-5.928.847c-4.897.702-9.86.806-14.782.311l-4.605-.46a65.3 65.3 0 00-14.58.182l-.99.121c-4.774.597-9.602.63-14.385.1L50.47.943a1.933 1.933 0 00-2.009 2.64l3.735 9.322v7.36c0 .056.027.102.031.158.004.056-.013.105 0 .159a74.047 74.047 0 01.98 13.821 1.932 1.932 0 001.89 1.978h.044a1.933 1.933 0 001.933-1.89 77.69 77.69 0 00-.717-12.293h57.63a33.132 33.132 0 01-.564 4.946 36.694 36.694 0 00-.215 13.285l.406 2.436c.198 1.224.327 2.457.387 3.695l-.816-.273a40.7 40.7 0 00-2.979-.845v-9.71a7.697 7.697 0 00-5.003-7.247 7.703 7.703 0 00-8.53 2.185c-.117-.131-.21-.279-.335-.404a7.672 7.672 0 00-11.275.404c-.116-.131-.209-.279-.335-.404a7.673 7.673 0 00-11.265.404c-.116-.131-.209-.279-.335-.404a7.733 7.733 0 00-13.198 5.465 1.933 1.933 0 103.866 0 3.867 3.867 0 017.734 0v16.492a1.933 1.933 0 001.933 1.933c.054 0 .099-.025.15-.03h.194a40.304 40.304 0 0012.021-3.075 36.776 36.776 0 0126.127-1.088l2.108.694v12.14a1.931 1.931 0 003.3 1.368c.363-.363.566-.854.566-1.367v-14.5a37.047 37.047 0 00-.502-6.06l-.406-2.447a32.863 32.863 0 01.193-11.893c.476-2.379.715-4.798.715-7.223V2.866a1.936 1.936 0 00-.667-1.462zm-26.4 30.462a3.867 3.867 0 013.867 3.866v8.86a40.655 40.655 0 00-7.733 1.884V35.732a3.867 3.867 0 013.867-3.866zm-11.6 0a3.867 3.867 0 013.867 3.866V47.94a36.528 36.528 0 01-7.733 2.063v-14.27a3.867 3.867 0 013.867-3.866zm19.334 12.373v-8.507a3.867 3.867 0 017.733 0v8.93a40.326 40.326 0 00-7.733-.423zM56.064 14.466h58v3.867h-58v-3.867zm3.961-8.57a65.453 65.453 0 0015.291-.105l.99-.124a61.615 61.615 0 0113.715-.17l4.605.462c5.233.522 10.51.41 15.716-.33l3.722-.534V10.6H55.44l-2.183-5.456 6.768.753zm11.506 56.903h19.333a1.933 1.933 0 100-3.867H71.531a1.933 1.933 0 100 3.867z" fill="#FF842A"/><path d="M108.268 62.799a1.933 1.933 0 000-3.867h-9.667a1.933 1.933 0 100 3.867h9.667z" fill="#FF842A"/></svg>