<svg width="14" height="16" fill="none" xmlns="http://www.w3.org/2000/svg"><path d="M13.182 5.387l-.265-.258.549-.613a2.128 2.128 0 00.34-2.296 2.088 2.088 0 00-.475-.656l-.459-.418a2.003 2.003 0 00-2.247-.348 2.043 2.043 0 00-.642.485l-8.916 10.02a.564.564 0 00-.125.23l-.926 3.77a.573.573 0 00.164.55.545.545 0 00.55.115l3.59-1.287a.547.547 0 00.226-.152l7.63-8.56.265.256a.613.613 0 01.196.426.626.626 0 01-.156.442L9.74 10.16a.562.562 0 00-.142.404.572.572 0 00.18.389.548.548 0 00.395.145.54.54 0 00.38-.183l2.741-3.066a1.74 1.74 0 00.441-1.25 1.765 1.765 0 00-.553-1.203v-.008zM1.325 14.565l.546-2.208c.363.08.698.258.973.513.274.256.478.58.59.943l-2.109.752zM12.652 3.768l-8.314 9.331a3.263 3.263 0 00-.755-1.06 3.18 3.18 0 00-1.102-.67l8.313-9.331a.944.944 0 01.653-.317.926.926 0 01.681.248l.463.43a.966.966 0 01.31.671.985.985 0 01-.25.698z" fill="#939393"/></svg>