<svg width="10" height="11" fill="none" xmlns="http://www.w3.org/2000/svg"><path d="M9.416 3.42l-.19-.184.392-.438a1.496 1.496 0 00.38-1.075A1.519 1.519 0 009.523.69l-.329-.3A1.455 1.455 0 008.142.002a1.432 1.432 0 00-1.011.486L.762 7.645a.403.403 0 00-.09.165l-.66 2.693a.41.41 0 00.116.393.39.39 0 00.394.081l2.564-.92a.391.391 0 00.16-.108l5.451-6.114.19.183a.438.438 0 01.14.304.446.446 0 01-.112.316l-1.958 2.19a.402.402 0 00-.101.289.408.408 0 00.128.277.391.391 0 00.282.104.385.385 0 00.272-.13l1.958-2.19a1.243 1.243 0 00.315-.893 1.262 1.262 0 00-.396-.86l.001-.006zM.946 9.974l.39-1.577c.26.058.5.184.695.367.196.182.342.415.422.673l-1.506.537zm8.091-7.712L3.099 8.928a2.33 2.33 0 00-.54-.757 2.272 2.272 0 00-.787-.478L7.71 1.027a.675.675 0 01.466-.226.661.661 0 01.487.177l.33.307a.69.69 0 01.222.48.703.703 0 01-.178.498z" fill="#FFA11B"/></svg>