<svg width="20" height="20" fill="none" xmlns="http://www.w3.org/2000/svg"><path fill-rule="evenodd" clip-rule="evenodd" d="M2.471 4.238s-.035-.912.544-2.092C3.424 1.312 5.013.851 5.013.851s.68-.173 2.046 1.146a3.1 3.1 0 01.973 1.918c.05.67-1.38 2.1-1.38 2.1a4.35 4.35 0 00.988 2.227c.562.654 1.53 1.674 2.038 2.15.435.409.92.941 1.567 1.37 1.27.842 1.575.766 1.575.766s1.81-1.517 2.352-1.464c.412.042.995.313 1.741.95.554.47.909.827 1.187 1.302.099.165.177.34.232.524 0 0 .073.753-1.096 1.95-1.163 1.19-2.767.879-2.767.879s-.922-.137-2.43-.847a16.617 16.617 0 01-4.503-3.221c-1.222-1.263-2.825-3.196-3.604-4.54-.982-1.69-1.46-3.823-1.46-3.823z" fill="#FFA11B"/></svg>