<svg width="42" height="35" fill="none" xmlns="http://www.w3.org/2000/svg"><path d="M16.804 8.82l16.581-5.73.31.665 6.554 14.202-16.584 5.733-6.86-14.87zm21.343 8.321L32.514 4.936 18.908 9.64l5.634 12.2 13.605-4.698z" fill="#FFA11B"/><path d="M3.76 3.954l8.028 3.13a.789.789 0 01.438.396l7.963 17.249a4.998 4.998 0 013.11.183c.943.365 1.685.978 2.173 1.711l11.327-3.918c.411-.14.882.045 1.05.413.17.369-.025.78-.436.923l-11.378 3.932c.075.364.107.736.07 1.11-.042.4-.148.798-.334 1.186-.789 1.657-2.693 2.582-4.63 2.384a5.026 5.026 0 01-1.339-.324c-1.9-.74-2.983-2.454-2.805-4.171.04-.4.147-.801.33-1.182.315-.67.82-1.214 1.426-1.619L10.866 8.27 3.143 5.258c-.408-.16-.604-.584-.434-.942.167-.361.637-.523 1.05-.362zm16.657 27.068c.287.114.579.184.87.214 1.25.123 2.49-.47 3-1.547.12-.255.188-.508.214-.768.113-1.112-.59-2.226-1.817-2.7l.309-.655-.314.65a3.177 3.177 0 00-.864-.21c-1.26-.128-2.494.47-3.001 1.548-.115.248-.188.51-.214.767-.114 1.11.588 2.222 1.817 2.701z" fill="#FFA11B"/></svg>