<svg width="33" height="38" fill="none" xmlns="http://www.w3.org/2000/svg"><path d="M4.912 29.228l-1.084-1.09a.654.654 0 01-.075-.83l.571-.832c-.183-1.584.425-3.24 1.657-4.48l9.98-10.042.91.92-9.98 10.042c-.99.997-1.473 2.379-1.258 3.607a.654.654 0 01-.105.483l-.41.596.343.343.648-.405a.699.699 0 01.504-.076c1.25.258 2.661-.222 3.684-1.251l9.911-9.973.91.92-9.91 9.972c-1.267 1.275-3.022 1.893-4.631 1.644l-.871.544c-.105.066-.623.184-.794-.092zM32.032.98c-1.425-1.432-3.897-1.276-5.51.348L20.636 7.25l-1.243-1.247a.64.64 0 00-.91 0l-2.522 2.538a.66.66 0 000 .92l7.644 7.673a.647.647 0 00.91-.001l2.522-2.538a.66.66 0 000-.92l-1.23-1.233 5.882-5.919c1.44-1.45 1.89-3.99.343-5.544.631.635-1.425-1.431 0 0zm-7.973 14.776L17.33 9l1.61-1.62 6.73 6.756-1.61 1.62zm.835-4.23l-3.344-3.36 5.882-5.92C28.544 1.13 30.2.973 31.123 1.9c1.04 1.046.592 2.762-.344 3.704l-5.885 5.921zM2.719 38C1.219 38 0 36.768 0 35.254c0-1.355 1.883-3.345 2.26-3.73a.646.646 0 01.917 0c.377.385 2.26 2.374 2.26 3.73C5.437 36.768 4.217 38 2.72 38zm-.001-5.066c-.751.86-1.43 1.864-1.43 2.32a1.44 1.44 0 001.43 1.447 1.44 1.44 0 001.43-1.447c0-.493-.743-1.531-1.43-2.32z" fill="#FFA11B"/></svg>