<svg width="42" height="24" fill="none" xmlns="http://www.w3.org/2000/svg"><path d="M35.483 3.64h-4.888V0H7.332v5.205H0v1.52h8.825V1.52h20.276v18.058H18.15c-.453-1.336-1.675-2.35-3.168-2.35-1.494 0-2.716.968-3.168 2.35H8.825v-2.12H7.332v3.64h4.345A3.34 3.34 0 0014.98 24a3.34 3.34 0 003.304-2.902h13.622A3.34 3.34 0 0035.211 24a3.34 3.34 0 003.304-2.902H42v-9.996c-.136-4.515-2.625-7.463-6.517-7.463zM14.935 22.525c-.995 0-1.81-.83-1.81-1.843s.815-1.842 1.81-1.842c.996 0 1.81.829 1.81 1.842 0 1.014-.814 1.843-1.81 1.843zm20.186 0c-.996 0-1.81-.83-1.81-1.843s.814-1.842 1.81-1.842c.995 0 1.81.829 1.81 1.842 0 1.014-.815 1.843-1.81 1.843zm5.25-2.902h-2.082c-.453-1.336-1.675-2.35-3.168-2.35-1.449 0-2.716.968-3.168 2.35H30.55V5.159h4.887c3.033 0 4.888 2.304 4.888 5.989v8.476h.046zM1.13 11.332v-1.52h6.156V8.246H8.78v3.086H1.131zm1.087 4.607v-1.52h5.069v-1.567H8.78v3.087H2.218z" fill="#FFA11B"/></svg>