<svg width="27" height="34" fill="none" xmlns="http://www.w3.org/2000/svg"><path d="M22.063 7.408H4.458v-3.76h17.605v3.76zM5.82 6.081H20.7V4.976H5.82V6.08z" fill="#FFA11B"/><path d="M13.942 34H0V15.215l6.415-8.853.987.679.413-.284 6.127 8.457V34zm-12.58-1.327H12.58V15.634L6.971 7.895l-5.609 7.74v17.038z" fill="#FFA11B"/><path d="M27 34H13.74v-1.327h11.897V15.634l-6.164-8.507 1.113-.765L27 15.214V34zM20.67 4.54l-1.28-.455 1.03-2.758H8.4L7.2 4.539l-1.28-.454L7.445 0h14.921l-1.695 4.54z" fill="#FFA11B"/><path d="M5.863 4.54L4.168 0H8.35v1.327H6.114l1.03 2.758-1.28.454z" fill="#FFA11B"/></svg>