<svg width="88" height="58" fill="none" xmlns="http://www.w3.org/2000/svg"><path d="M20.427 0C9.16 0 0 9.393 0 20.944 0 31.207 7.18 39.86 16.923 41.583c.534 7.379-5.405 13.598-5.468 13.662a1.644 1.644 0 00-.252 1.95c.299.515.817.805 1.367.805.126 0 .267-.016.409-.064C41.498 49.816 40.9 22.41 40.853 20.912 40.822 9.377 31.677 0 20.427 0zm67.565 20.912C87.96 9.377 78.816 0 67.565 0 56.3 0 47.14 9.393 47.14 20.944c0 10.263 7.18 18.915 16.922 20.639.534 7.379-5.405 13.598-5.468 13.662a1.644 1.644 0 00-.251 1.95c.298.515.817.805 1.367.805.125 0 .267-.016.408-.064 28.52-8.12 27.922-35.525 27.875-37.024z" opacity=".1" fill="#FF842A"/></svg>