<svg width="170" height="112" fill="none" xmlns="http://www.w3.org/2000/svg"><path d="M39.46 0C17.698 0 0 18.138 0 40.444 0 60.262 13.872 76.97 32.692 80.298c1.032 14.249-10.442 26.258-10.564 26.382-.971 1.027-1.183 2.551-.485 3.764.576.996 1.578 1.556 2.64 1.556.243 0 .516-.031.79-.124 55.093-15.68 53.94-68.6 53.848-71.494C78.861 18.107 61.194 0 39.461 0zm130.524 40.382C169.924 18.107 152.258 0 130.524 0c-21.764 0-39.46 18.138-39.46 40.444 0 19.818 13.871 36.525 32.691 39.854 1.032 14.249-10.442 26.258-10.564 26.382-.971 1.027-1.183 2.551-.485 3.764.577.996 1.578 1.556 2.641 1.556.242 0 .516-.031.789-.124 55.093-15.68 53.94-68.6 53.848-71.494z" opacity=".1" fill="#FF842A"/></svg>