<svg version="1.0" xmlns="http://www.w3.org/2000/svg" width="1706.667" height="1242.667" viewBox="0 0 1280 932"><g fill="#ff9800"><path d="M918 119.5V239h239V0H918v119.5zm179.4-64.2c1.7 1.3.2 4-21.5 37.8-12.8 20-31.8 48.7-42.3 63.8l-19 27.3-1.8-2.2c-4.2-5.2-35.8-58.8-35.8-60.7 0-.5 4.3-3 9.5-5.6l9.5-4.7 10.5 21c5.8 11.6 11 20.8 11.5 20.5.5-.3 17.9-22.6 38.7-49.5 20.8-27 38-49 38.3-49 .4 0 1.4.6 2.4 1.3zM607 448.7V706h55V497.5c0-204.4 0-208.5 1.9-208.5 1.8 0 171.5-12 219.2-15.5 11.3-.8 20.9-1.5 21.2-1.5.4 0 .7-3.6.7-8v-8H662v-63.9l-27.5-.3-27.5-.3v257.2zm311-175.2V304h29v-28h76v28h29v-28h76v28h29v-61H918v30.5zM127.5 267c-.2.8-5.6 24-12 51.5s-13.8 59.4-16.5 71C92.7 416.6 70.1 514.1 60.4 556c-4.2 17.9-7.8 33.3-8 34.2-.5 1.7-2.6 1.8-26.5 1.8H0v65h355v-65h-35v-23.9c0-35 3.8-32.5-50.2-32.9l-39.8-.3-.5-2.2c-.2-1.2-1.6-8.3-3-15.7-7-35.9-15.1-60.9-22.5-69.3-8.2-9.4-23.3-11.8-44.5-7.2-3.9.9-7.6 2-8.4 2.4-1.2.8 2.1 14 33.5 134.6 1.9 7.1 3.4 13.4 3.4 14 0 .7-14 1-40 1-22 0-40-.3-40-.6 0-.6 2.8-12.8 20-86.9 7.2-31.1 15.8-68 19-82 3.3-14 10.7-46 16.5-71 5.8-25 10.9-46.7 11.2-48.3l.6-2.7h210.3l3.7 15.7c18.3 78.5 29.6 127.8 29.2 128.2-.3.2-18.9 11.3-41.3 24.7-22.3 13.3-41.5 25.3-42.5 26.6-1.5 2.1-1.6 2.8-.6 5.1 2 4.4 10.2 9 16.8 9.5 5.5.3 5.8.3 21.9-9.4 8.9-5.3 16.4-9.5 16.7-9.3.2.2 14.6 22.8 31.9 50.2l31.7 49.8 3 12.6c1.6 6.9 2.8 13.1 2.6 13.8-.3.6-20.3 12.9-44.4 27.3L370.4 672H192.7c-97.7 0-177.7.4-177.7.8 0 1.9 14 157.1 14.5 160.9l.6 4.3H58v-8.4c0-10.2 2.2-23.5 5.6-34.1 10.7-32.8 35.2-58.2 66-68.3 14.9-4.9 37.1-5.4 52.3-1.3 27.1 7.3 51.8 28.5 64.5 55.4 6.9 14.7 10.3 28.3 11.3 45.8l.6 10.9h159l-.7-6c-.4-3.4-.7-11.1-.7-17.2.2-55.2 35.2-103.1 85.6-116.8 11.3-3.1 31.8-3.8 43.8-1.6 15.6 3 28.4 8.4 42.6 18.1l8.1 5.4V266h-55v342.1l-14.2-.3-14.2-.3-4.2-18c-5.1-22.3-18.1-78.1-31.4-135.5-13.6-58.8-24.6-106.1-33.6-144.7-4.5-19.6-7.4-34.3-7.4-37.7 0-3.8-.4-5.6-1.2-5.6-.7 0-70-.1-154.1-.3-135-.2-152.8 0-153.2 1.3zm297.9 205.7c1.6 5.1 9.2 39.3 8.6 38.6-1.2-1.3-20-31.2-20.6-32.6-.2-.7 1.9-2.6 4.8-4.4 6.2-3.8 6.5-3.8 7.2-1.6z"/><path d="M796 433.5V553h239V314H796v119.5zm179-64c1 1.2-.7 4.5-10.1 19.2-27.5 43.1-39.7 61.5-55.9 84.8l-17.3 24.7-6.7-10.3c-7.7-11.8-31.4-52.8-30.9-53.3s18.8-9.6 19.1-9.6c.2 0 5 9.4 10.8 21 5.8 11.5 10.7 21 11 21 .3-.1 17.6-22.3 38.5-49.5S972 368 972.6 368c.6 0 1.7.7 2.4 1.5zm66 64V553h239V314h-239v119.5zm179.1-64.2c1.5 1.1-1 5.5-23 39.7-13.6 21.2-32.6 49.9-42.3 63.8l-17.7 25.3-3.9-5.8c-7.4-10.9-34.6-57.2-34-57.8l9.8-4.9c7.7-3.7 9.7-4.3 10.5-3.2.6.7 5.3 10.2 10.5 20.9 5.2 10.8 9.8 19.5 10.2 19.4.4-.1 11.2-13.7 23.9-30.2 46.7-60.5 53-68.5 53.7-68.5.4 0 1.4.6 2.3 1.3zM796 587.5V618h29v-28h76v28h29v-28h75v28h30v-61H796v30.5zm245 0V618h29v-28h76v28h29v-28h76v28h29v-61h-239v30.5zm-245 160V867h239V628H796v119.5zm180-63.1c0 1.8-45.2 71.4-64.3 98.9l-20 28.8-3.3-5c-7.4-11-34.9-58-34.2-58.6.4-.4 18.7-9.5 19-9.5.2 0 5 9.4 10.8 21 5.8 11.5 10.7 21 11 20.9.3 0 17.8-22.5 38.9-49.9 34.9-45.4 38.5-49.8 40.2-48.7 1 .6 1.9 1.6 1.9 2.1zm65 63.1V867h239V628h-239v119.5zm177.6-58.2c-1.8 2.9-12.2 19.1-23.1 36.2-20.1 31.3-57.1 85.5-58.5 85.5-1.3 0-11.9-16.9-25.4-40.5l-12.6-22 9.2-4.7c5.1-2.6 9.6-4.7 10-4.7.5-.1 5.6 9.4 11.4 21.1 9.6 19.2 10.7 21 12 19.3.7-1 18.1-23.5 38.6-50.1 36.6-47.5 37.2-48.2 39.5-46.7l2.2 1.5-3.3 5.1zm-706.1 19.2c-39.3 6.2-71.1 36.9-82.2 79.4-3.1 11.8-4.2 32.7-2.3 45.2 7.1 49.2 44.1 87.2 89.3 91.8 10.9 1.1 24.4.1 34.2-2.6 7.5-2 22.8-9 29.1-13.4 7.1-4.9 19.7-17.2 25.3-24.8 22.9-30.9 28-74.5 13.1-111.7-14-35-44.5-59.5-80.3-64.3-9.7-1.4-16-1.3-26.2.4zm28 62.2c6.5 2.2 11.7 5.8 17.2 11.5 14.3 15.2 17.4 38.8 7.6 58.2-3.5 6.9-13.5 16.6-20.5 19.9-3.1 1.5-8.4 3.1-11.8 3.5-23.3 3.2-43.4-12.6-48.7-38.3-1.3-6.8-1.4-9.1-.4-16 4.5-29.3 31.1-47.7 56.6-38.8zm-393.1-33.6c-41.5 4.8-74.7 43.4-77.1 89.5-2.1 40.1 19.2 77.3 53.2 93 21 9.7 47.2 9.9 67.9.5 20.5-9.3 38.4-28.4 46.9-50.2 23.5-59.4-12.1-125.7-71.3-132.9-9.3-1.1-9.4-1.1-19.6.1zm21.8 55.1c5.1 1.7 13.5 7.6 16.8 11.8 14.3 18 12.5 44-4 59.3-8.1 7.5-14.7 10-25.5 9.5-6.4-.2-9.2-.9-14-3.2-27.7-13.7-30.2-55.9-4.2-73.1 9.2-6.1 20.8-7.7 30.9-4.3zM796 901.5V932h29v-28h76v28h29v-28h75.5l-.3 14-.3 14h30.1v-61H796v30.5zm245 0V932h29v-28h76v28h29v-28h76v28h29v-61h-239v30.5z"/></g></svg>