<svg width="23" height="18" fill="none" xmlns="http://www.w3.org/2000/svg"><path d="M8.613 4.336L18.053 0l.223.37L23 8.276l-9.443 4.338-4.944-8.278zM21.71 7.924L17.65 1.13 9.905 4.69l4.06 6.79 7.746-3.556z" fill="#FFA11B"/><path d="M.62 2.27l4.927 1.35c.12.033.223.107.283.206l5.739 9.602a2.994 2.994 0 011.846-.08 2.715 2.715 0 011.386.871l6.45-2.964c.233-.107.522-.026.644.179s.032.457-.202.565l-6.479 2.975c.066.208.108.423.108.644 0 .236-.039.475-.125.713C14.83 17.346 13.763 18 12.608 18a2.99 2.99 0 01-.81-.11c-1.166-.319-1.909-1.255-1.907-2.269 0-.236.038-.477.123-.71.146-.41.411-.758.745-1.03L5.074 4.368l-4.74-1.3C.085 3-.055 2.764.023 2.545c.077-.22.345-.343.598-.274zm11.462 14.82c.176.05.353.073.526.073.746-.002 1.442-.423 1.678-1.082.056-.156.08-.308.08-.461 0-.657-.483-1.266-1.235-1.47l.143-.4-.146.398c-.172-.05-.35-.07-.523-.07-.75 0-1.444.422-1.678 1.082-.053.152-.08.31-.08.461 0 .655.481 1.263 1.235 1.47z" fill="#FFA11B"/></svg>