<svg width="15" height="19" fill="none" xmlns="http://www.w3.org/2000/svg"><path d="M12.257 4.14h-9.78v-2.1h9.78v2.1zm-9.023-.742H11.5v-.617H3.234v.617z" fill="#FFA11B"/><path d="M7.746 19H0V8.502l3.564-4.947.548.38.23-.159 3.404 4.726V19zm-6.99-.742h6.232V8.737L3.873 4.412.757 8.737v9.521z" fill="#FFA11B"/><path d="M15 19H7.633v-.742h6.61V8.737l-3.425-4.754.619-.428L15 8.502V19zM11.484 2.537l-.712-.254.573-1.542H4.667L4 2.537l-.711-.254L4.136 0h8.29l-.942 2.537z" fill="#FFA11B"/><path d="M3.257 2.537L2.316 0h2.323v.741H3.396l.573 1.542-.712.254z" fill="#FFA11B"/></svg>