<svg width="18" height="21" fill="none" xmlns="http://www.w3.org/2000/svg"><path d="M2.68 16.153l-.592-.603a.365.365 0 01-.041-.458l.312-.46c-.1-.876.231-1.791.903-2.476l5.444-5.55.496.508-5.443 5.55c-.54.55-.804 1.315-.687 1.994a.365.365 0 01-.057.266l-.223.33.186.19.354-.224a.377.377 0 01.275-.043c.682.143 1.452-.122 2.01-.691l5.406-5.511.496.508-5.406 5.511c-.69.705-1.648 1.046-2.526.909l-.475.3c-.057.037-.34.102-.433-.05zM17.472.541c-.777-.791-2.126-.705-3.006.193l-3.21 3.273-.678-.69a.346.346 0 00-.496 0L8.706 4.72a.368.368 0 000 .509l4.17 4.24a.35.35 0 00.496 0l1.375-1.403a.368.368 0 000-.509l-.67-.681 3.208-3.271c.786-.801 1.03-2.205.187-3.064-.777-.79.344.35 0 0zm-4.349 8.166l-3.67-3.733.877-.895 3.671 3.733-.878.895zm.456-2.338l-1.825-1.856 3.209-3.27c.606-.62 1.51-.706 2.013-.193.568.578.323 1.526-.187 2.047l-3.21 3.272zM1.483 21C.665 21 0 20.32 0 19.483c0-.75 1.027-1.85 1.233-2.062a.35.35 0 01.5 0c.206.213 1.233 1.312 1.233 2.062C2.966 20.319 2.3 21 1.483 21zm0-2.8c-.41.475-.78 1.03-.78 1.283 0 .44.35.799.78.799a.79.79 0 00.78-.8c0-.272-.406-.846-.78-1.282z" fill="#FFA11B"/></svg>