<svg width="26" height="15" fill="none" xmlns="http://www.w3.org/2000/svg"><path d="M21.965 2.274H18.94V0H4.539v3.253H0v.95h5.463V.95h12.552v11.286h-6.78c-.28-.835-1.037-1.468-1.961-1.468-.925 0-1.681.604-1.961 1.468h-1.85v-1.324H4.54v2.274h2.69A2.07 2.07 0 009.273 15c1.036 0 1.905-.777 2.045-1.814h8.433A2.075 2.075 0 0021.797 15a2.075 2.075 0 002.046-1.814H26V6.94c-.084-2.822-1.625-4.665-4.035-4.665zM9.245 14.08c-.616 0-1.12-.519-1.12-1.152 0-.633.504-1.152 1.12-1.152.617 0 1.121.519 1.121 1.152 0 .633-.504 1.152-1.12 1.152zm12.496 0c-.616 0-1.12-.519-1.12-1.152 0-.633.504-1.152 1.12-1.152.617 0 1.121.519 1.121 1.152 0 .633-.504 1.152-1.12 1.152zm3.25-1.814h-1.288c-.28-.835-1.037-1.469-1.962-1.469-.896 0-1.68.605-1.96 1.469h-.87v-9.04h3.026c1.878 0 3.026 1.44 3.026 3.742v5.298h.028zM.701 7.083v-.95h3.81v-.98h.924v1.93H.7zm.672 2.879v-.95H4.51v-.98h.924v1.93H1.373z" fill="#FFA11B"/></svg>