<svg width="23" height="33" fill="none" xmlns="http://www.w3.org/2000/svg"><path fill-rule="evenodd" clip-rule="evenodd" d="M16.185 12.638a.762.762 0 00-.201-.03h-.214a7.04 7.04 0 002.743-5.57c0-3.88-3.145-7.038-7.01-7.038-2.548 0-4.78 1.377-6.004 3.421l-.634 1.365a7.066 7.066 0 00-.378 2.252 7.022 7.022 0 002.743 5.57h-.22a.762.762 0 00-.2.03C1.846 14.064 0 16.451 0 21.458V33h22.268c.403 0 .732-.33.732-.734V21.457c0-5.006-1.847-7.393-6.815-8.819zm-3.554 5.05h-2.256l-.81 8.898 1.932 1.94 1.932-1.94-.798-8.899zm-2.353-1.47h2.444l.537-2.136H9.747l.53 2.136zm6.772-9.18c0-3.072-2.487-5.57-5.547-5.57-3.066 0-5.553 2.498-5.553 5.57s2.493 5.57 5.553 5.57 5.547-2.498 5.547-5.57zm2.36 24.493h2.145V21.457c0-4.32-1.377-6.126-5.657-7.375h-1.121l-.732 2.926.884 9.786a.744.744 0 01-.213.588l-2.695 2.705a.732.732 0 01-1.036 0L8.29 27.382a.744.744 0 01-.213-.588l.89-9.786-.731-2.925H7.114c-4.273 1.248-5.651 3.054-5.651 7.374v10.074h2.128v-5.57c0-.403.329-.734.731-.734.402 0 .732.33.732.735v5.57h12.893v-5.57c0-.404.329-.735.731-.735.402 0 .732.33.732.735v5.57z" fill="#FF842A"/></svg>