<svg width="36" height="31" fill="none" xmlns="http://www.w3.org/2000/svg"><path fill-rule="evenodd" clip-rule="evenodd" d="M25.811 6.34h6.793C34.477 6.34 36 7.92 36 9.865v17.613C36 29.421 34.477 31 32.604 31H3.396C1.523 31 0 29.42 0 27.477V9.864C0 7.92 1.523 6.34 3.396 6.34h6.793V3.523C10.189 1.579 11.71 0 13.585 0h8.83c1.874 0 3.396 1.58 3.396 3.523V6.34zm6.793 1.41H3.396c-1.126 0-2.038.945-2.038 2.114V15.5h33.284V9.864c0-1.169-.912-2.114-2.038-2.114zm-3.396 9.16h-.68v1.408h.68V16.91zm-21.736 0h-.68v1.408h.68V16.91zM3.396 29.59h29.208c1.126 0 2.038-.944 2.038-2.113V16.91h-4.076v2.114a.694.694 0 01-.68.704H27.85a.694.694 0 01-.68-.704V16.91H8.83v2.114a.694.694 0 01-.68.704H6.114a.694.694 0 01-.679-.704V16.91H1.358v10.568c0 1.169.912 2.114 2.038 2.114zM13.585 1.41c-1.127 0-2.038.944-2.038 2.113V6.34h12.906V3.523c0-1.169-.912-2.114-2.038-2.114h-8.83z" fill="#FF842A"/></svg>