<svg width="13" height="21" fill="none" xmlns="http://www.w3.org/2000/svg"><path fill-rule="evenodd" clip-rule="evenodd" d="M9.148 8.042a.387.387 0 00-.114-.019h-.12c.94-.822 1.55-2.103 1.55-3.544C10.464 2.009 8.686 0 6.502 0 5.062 0 3.8.876 3.108 2.177l-.358.869c-.135.451-.214.93-.214 1.433 0 1.445.61 2.726 1.55 3.544h-.124a.387.387 0 00-.113.02C1.044 8.95 0 10.468 0 13.654V21h12.586c.228 0 .414-.21.414-.467v-6.878c0-3.186-1.044-4.705-3.852-5.613zm-2.009 3.214H5.864l-.458 5.662 1.092 1.235 1.093-1.235-.452-5.662zm-1.33-.935h1.382l.303-1.36H5.509l.3 1.36zm3.828-5.842c0-1.955-1.406-3.544-3.135-3.544-1.733 0-3.14 1.589-3.14 3.544s1.41 3.544 3.14 3.544c1.73 0 3.135-1.589 3.135-3.544zm1.334 15.586h1.212v-6.41c0-2.75-.778-3.899-3.197-4.693h-.634l-.413 1.861.5 6.228a.51.51 0 01-.121.374l-1.523 1.721a.397.397 0 01-.293.136.392.392 0 01-.293-.136l-1.523-1.721a.51.51 0 01-.12-.374l.502-6.228-.413-1.861H4.02C1.606 9.756.827 10.905.827 13.655v6.41h1.202v-3.544c0-.257.186-.467.414-.467.227 0 .413.21.413.467v3.544h7.288v-3.544c0-.257.186-.467.413-.467.227 0 .414.21.414.467v3.544z" fill="#FF842A"/></svg>