<svg width="21" height="12" fill="none" xmlns="http://www.w3.org/2000/svg"><path fill-rule="evenodd" clip-rule="evenodd" d="M16.7 11.696h-.146c-.995-.164-1.61-.868-2.188-1.524-.331-.369-.864-1.318-1.459-1.219-.845.14-.373 1.657-.729 2.286-.282.503-1.501.396-2.334.305-2.64-.283-4.073-1.664-5.251-3.2-1.267-1.64-2.178-3.437-3.064-5.334C1.237 2.388.8 1.783.8 1.029 1.23.677 1.99.724 2.697.724c.594 0 1.459-.072 1.897.152.259.136.519.918.729 1.372.41.908.898 1.775 1.459 2.59.255.366.713 1.009 1.167.915.446-.09.418-1.122.437-1.829.023-.803.084-1.857-.146-2.286-.212-.401-.626-.369-1.02-.61.327-.67 1.24-.761 2.333-.761.918 0 2.118-.152 2.48.457.36.629.173 1.9.146 2.743-.027.947-.206 1.847.438 2.286.497-.054.735-.533 1.02-.914.635-.837 1.116-1.517 1.605-2.591.2-.448.367-1.23.73-1.372.553-.208 1.378-.152 2.188-.152.668 0 1.83-.157 2.042.305.172.369-.277 1.41-.438 1.676-.616 1.015-1.234 1.709-1.896 2.59-.267.357-.765.81-.73 1.372.024.434.402.763.73 1.067a15.45 15.45 0 011.75 1.981c.217.28.778.856.73 1.22-.135 1.134-3.645.75-3.647.761z" fill="#202323"/></svg>