 <svg display="none" xmlns="http://www.w3.org/2000/svg">
    <symbol id="cat-fish" viewBox="0 0 100 100">
        <g>
            <path d="M67.8019 34.0615C52.9412 32.8324 30.6502 35.905 19.195 46.352C18.5759 46.9665 17.6471 46.9665 17.0279 46.352C13.3127 41.743 5.57276 38.3631 0 36.2123C1.54799 39.8994 4.64396 45.7374 9.28793 49.4246C10.2167 50.0391 10.2167 51.2682 9.28793 51.8827C4.64396 55.2626 1.54799 61.4078 0 65.095C4.95356 62.9441 13.9319 59.257 17.0279 54.9553C17.6471 54.3408 18.5759 54.0335 19.195 54.648C30.9598 65.095 52.322 68.4749 67.8019 66.9385C60.9907 57.1061 60.9907 43.8939 67.8019 34.0615ZM47.0588 31.9106C50.1548 31.2961 53.5604 30.9888 56.6563 30.6816C52.9412 27.9162 48.2972 24.8436 43.6533 23C44.2724 25.1508 45.2012 28.838 47.0588 31.9106ZM56.6563 70.3184C53.5604 70.0112 50.1548 69.7039 47.0588 69.3966C45.2012 72.162 44.2724 75.8492 43.6533 78C48.2972 76.1564 52.9412 73.0838 56.6563 70.3184ZM76.4706 35.5978C70.2786 44.5084 70.2786 56.4916 76.4706 65.7095C84.8297 63.5587 94.1176 59.257 96.904 50.6536C94.1176 41.743 84.8297 37.4413 76.4706 35.5978ZM74.3034 32.8324C74.613 32.5251 75.2322 32.2179 76.161 32.2179C86.0681 34.3687 96.904 39.5922 100 50.0391C100 50.3464 100 50.6536 100 50.9609C96.904 61.4078 86.0681 66.6313 76.161 68.7821C75.5418 69.0894 74.9226 68.7821 74.3034 68.1676C66.8731 57.7207 66.5635 43.2793 74.3034 32.8324ZM81.1145 42.9721C83.9009 42.9721 86.3777 45.4302 86.3777 48.1955C86.3777 50.9609 83.9009 53.1117 81.1145 53.1117C78.3282 53.1117 76.161 50.9609 76.161 48.1955C76.161 45.4302 78.3282 42.9721 81.1145 42.9721ZM81.1145 46.0447C80.1858 46.0447 79.257 46.9665 79.257 48.1955C79.257 49.1173 80.1858 50.0391 81.1145 50.0391C82.3529 50.0391 83.2817 49.1173 83.2817 48.1955C83.2817 46.9665 82.3529 46.0447 81.1145 46.0447Z" fill="#CE7A39"/>
        </g>
    </symbol>
</svg>