<svg width="89" height="58" viewBox="0 0 89 58" fill="none" xmlns="http://www.w3.org/2000/svg">
<path d="M88.3452 23.9047C88.3452 9.25374 76.5497 0.463196 56.8472 0.463196C45.0517 0.463196 40.3853 4.4589 36.2374 7.92184C33.9042 9.91969 31.8303 11.6512 28.4601 12.7167C24.8307 13.9154 21.0717 14.1818 17.4423 14.5814C10.3131 15.2473 3.44321 15.9133 1.11002 23.1055C0.591535 24.7038 0.461915 26.1689 0.591536 27.7672L0.461914 37.3569C0.461914 40.2871 1.75813 43.084 4.22093 45.6147C11.0909 52.6737 27.2935 57.4686 44.6628 57.4686C70.4575 57.4686 88.3452 48.0121 88.3452 34.5599L88.2156 25.2366C88.3452 24.9702 88.3452 24.4374 88.3452 23.9047ZM44.6628 42.8177C27.2935 42.8177 10.5724 37.6232 5.77639 30.6974C4.35056 28.6995 4.09131 26.7017 4.73942 24.5706C6.29488 20.0421 10.4428 19.3762 17.8312 18.7102C21.4606 18.3107 25.6085 17.9111 29.6267 16.7124C33.7746 15.3805 36.2374 13.2495 38.7002 11.1184C42.5889 7.78865 46.3479 4.59209 56.7176 4.59209C74.3461 4.59209 84.327 11.6512 84.327 24.0379C84.4566 34.8263 67.7354 42.8177 44.6628 42.8177ZM56.8472 9.25374C48.033 9.25374 45.4405 11.518 41.6815 14.7145C39.0891 16.8456 35.9782 19.6426 30.9229 21.2409C26.3862 22.7059 21.9791 23.1055 18.22 23.5051C11.3501 24.171 9.53541 24.7038 9.14655 26.1689C9.01692 26.5685 8.88731 26.968 9.53541 28.0336C12.9056 32.9616 27.2935 38.156 44.6628 38.156C66.4392 38.156 79.9198 30.8306 79.9198 24.0379C79.9198 11.1184 65.4022 9.25374 56.8472 9.25374ZM63.7172 25.2366C60.6062 25.2366 58.0138 23.1055 58.0138 20.5749C58.0138 18.0443 60.6062 15.9133 63.7172 15.9133C66.8281 15.9133 69.4205 18.0443 69.4205 20.5749C69.4205 23.1055 66.8281 25.2366 63.7172 25.2366Z" fill="#C94044"/>
</svg>
