<svg width="41" height="27" viewBox="0 0 41 27" fill="none" xmlns="http://www.w3.org/2000/svg">
<path d="M40.6407 10.8949C40.6407 4.11978 35.186 0.0546875 26.0748 0.0546875C20.62 0.0546875 18.4621 1.90246 16.544 3.50386C15.465 4.42774 14.506 5.22844 12.9475 5.72118C11.2691 6.27551 9.53078 6.3987 7.8524 6.58347C4.55559 6.89144 1.37867 7.1994 0.29971 10.5254C0.059942 11.2645 2.27767e-07 11.942 0.0599422 12.6811L0 17.1158C0 18.4708 0.59942 19.7642 1.73832 20.9345C4.91524 24.1989 12.408 26.4162 20.4402 26.4162C32.3687 26.4162 40.6407 22.0431 40.6407 15.8223L40.5807 11.5109C40.6407 11.3877 40.6407 11.1413 40.6407 10.8949ZM20.4402 19.6411C12.408 19.6411 4.67548 17.2389 2.45762 14.0361C1.79826 13.1123 1.67838 12.1884 1.97809 11.2029C2.69739 9.10876 4.61553 8.8008 8.03223 8.49284C9.7106 8.30806 11.6287 8.12328 13.4869 7.56895C15.4051 6.95303 16.544 5.96755 17.6829 4.98207C19.4811 3.44227 21.2195 1.96405 26.0148 1.96405C34.1669 1.96405 38.7825 5.22844 38.7825 10.9565C38.8424 15.9455 31.1099 19.6411 20.4402 19.6411ZM26.0748 4.11978C21.9987 4.11978 20.7999 5.16685 19.0616 6.64507C17.8627 7.63055 16.4241 8.92398 14.0864 9.66309C11.9884 10.3406 9.95037 10.5254 8.21205 10.7102C5.03513 11.0181 4.19594 11.2645 4.01611 11.942C3.95617 12.1268 3.89623 12.3116 4.19594 12.8043C5.75443 15.0832 12.408 17.4853 20.4402 17.4853C30.5105 17.4853 36.7444 14.0977 36.7444 10.9565C36.7444 4.98207 30.0309 4.11978 26.0748 4.11978ZM29.2517 11.5109C27.8131 11.5109 26.6143 10.5254 26.6143 9.35513C26.6143 8.18487 27.8131 7.1994 29.2517 7.1994C30.6903 7.1994 31.8891 8.18487 31.8891 9.35513C31.8891 10.5254 30.6903 11.5109 29.2517 11.5109Z" fill="#C94044"/>
</svg>
