<svg width="111" height="72" viewBox="0 0 111 72" fill="none" xmlns="http://www.w3.org/2000/svg">
<path d="M111 29.6075C111 11.1028 96.1018 0 71.2168 0C56.3186 0 50.4248 5.04673 45.1858 9.42056C42.2389 11.9439 39.6195 14.1308 35.3628 15.4766C30.7788 16.9907 26.031 17.3271 21.4469 17.8318C12.4425 18.6729 3.76549 19.514 0.818584 28.5981C0.163717 30.6168 6.2209e-07 32.4673 0.163717 34.486L0 46.5981C0 50.2991 1.63717 53.8318 4.74779 57.028C13.4248 65.9439 33.8894 72 55.8274 72C88.4071 72 111 60.0561 111 43.0654L110.836 31.2897C111 30.9533 111 30.2804 111 29.6075ZM55.8274 53.4953C33.8894 53.4953 12.7699 46.9346 6.71239 38.1869C4.9115 35.6636 4.58407 33.1402 5.40265 30.4486C7.36726 24.729 12.6062 23.8878 21.9381 23.0467C26.5221 22.5421 31.7611 22.0374 36.8363 20.5234C42.0752 18.8411 45.1858 16.1495 48.2965 13.4579C53.208 9.25234 57.9558 5.21495 71.0531 5.21495C93.3186 5.21495 105.925 14.1308 105.925 29.7757C106.088 43.4019 84.969 53.4953 55.8274 53.4953ZM71.2168 11.1028C60.0841 11.1028 56.8097 13.9626 52.0619 18C48.7876 20.6916 44.8584 24.2243 38.4734 26.243C32.7434 28.0935 27.177 28.5981 22.4292 29.1028C13.7522 29.9439 11.4602 30.6168 10.969 32.4673C10.8053 32.972 10.6416 33.4766 11.4602 34.8224C15.7168 41.0467 33.8894 47.6075 55.8274 47.6075C83.3318 47.6075 100.358 38.3551 100.358 29.7757C100.358 13.4579 82.0221 11.1028 71.2168 11.1028ZM79.8938 31.2897C75.9646 31.2897 72.6903 28.5981 72.6903 25.4019C72.6903 22.2056 75.9646 19.514 79.8938 19.514C83.823 19.514 87.0974 22.2056 87.0974 25.4019C87.0974 28.5981 83.823 31.2897 79.8938 31.2897Z" fill="#C94044"/>
</svg>
