<svg width="22" height="36" viewBox="0 0 22 36" fill="none" xmlns="http://www.w3.org/2000/svg">
<path d="M17.9459 7.09779H15.0811L15.4595 4.76972C15.5676 4.03155 16.1622 3.40694 16.9189 3.29338L22 2.55521L21.6757 0L16.5946 0.738171C14.8108 1.02208 13.4054 2.44164 13.0811 4.25868L12.6486 7.09779H0.810811C0.594594 7.09779 0.378378 7.21136 0.216216 7.3817C0.0540538 7.55205 0 7.77918 0 8.00631L1.51351 33.8423C1.56757 35.0347 2.54054 36 3.67568 36H14.973C16.1081 36 17.0811 35.0347 17.1351 33.8423L18.6486 8.00631C18.6486 7.77918 18.5946 7.55205 18.4324 7.3817C18.3784 7.21136 18.1622 7.09779 17.9459 7.09779ZM5.72973 28.7886C5.13513 28.7886 4.59459 28.2776 4.59459 27.5962C4.59459 26.9716 5.08108 26.4038 5.72973 26.4038C6.37838 26.4038 6.86486 26.9148 6.86486 27.5962C6.81081 28.2776 6.32432 28.7886 5.72973 28.7886ZM5.72973 20.2145C5.13513 20.2145 4.59459 19.7035 4.59459 19.0221C4.59459 18.3975 5.08108 17.8297 5.72973 17.8297C6.37838 17.8297 6.86486 18.3407 6.86486 19.0221C6.81081 19.7035 6.32432 20.2145 5.72973 20.2145ZM8.37838 22.8833C8.05405 22.8833 7.78378 22.5994 7.78378 22.2587C7.78378 21.918 8.05405 21.6341 8.37838 21.6341C8.7027 21.6341 8.97297 21.918 8.97297 22.2587C8.97297 22.5994 8.7027 22.8833 8.37838 22.8833ZM11.2432 15.1609H2.05405L1.67568 8.74448H12.3243L11.2432 15.1609ZM16.7027 15.1609H13.6757L14.8108 8.80126H17.0811L16.7027 15.1609Z" fill="#FF842A"/>
</svg>
