<svg width="66" height="90" viewBox="0 0 66 90" fill="none" xmlns="http://www.w3.org/2000/svg">
<path d="M65.0306 59.735C64.8305 51.9644 58.3291 45.6692 50.3273 45.6692H41.7254C33.8237 45.6692 27.3222 51.866 27.0222 59.735L26.222 85.309C26.222 87.5714 28.1224 89.5386 30.5229 89.5386H61.5298C63.8303 89.5386 65.8308 87.6697 65.8308 85.309L65.0306 59.735Z" fill="#FF842A"/>
<path d="M51.6276 40.0626H40.5252V44.1938H51.6276V40.0626Z" fill="#FF842A"/>
<path d="M51.5276 37.1117C51.5276 36.3249 50.9275 35.7347 50.1273 35.7347H41.9255C41.1253 35.7347 40.5252 36.3249 40.5252 37.1117V38.8823H51.6276V37.1117H51.5276Z" fill="#FF842A"/>
<path d="M61.4298 6.52122C62.1299 2.9802 57.5289 1.11132 53.8281 4.84907C53.8281 4.84907 56.0286 7.01303 56.4287 10.0622C56.5287 10.1606 61.0297 8.78354 61.4298 6.52122Z" fill="#FF842A"/>
<path d="M6.91772 39.079C6.91772 39.079 8.11798 33.0789 10.9186 30.4231C12.619 28.8494 21.0208 25.3083 28.7225 22.2591C29.7228 21.8657 30.723 21.4722 31.6232 21.0788C34.7239 19.8001 37.4245 18.7181 39.4249 17.9312C41.1253 17.2427 41.8254 15.2754 40.8252 13.8C40.8252 13.8 40.8252 13.8 40.8252 13.7016C40.2251 12.8164 39.3249 12.3246 38.3247 12.3246C37.9246 12.3246 37.4245 12.4229 37.0244 12.6197C35.124 13.5049 31.9233 14.9803 28.5225 16.5541H28.4225C21.4209 19.8001 12.919 23.7345 9.81836 25.4067C2.91683 28.8494 3.91705 39.079 3.91705 39.079H6.91772Z" fill="#FF842A"/>
<path d="M7.01774 44.784C6.71767 44.4889 6.11754 43.5053 5.91749 43.2102L5.71745 42.9151C5.61743 42.7184 5.31736 42.7184 5.21734 42.9151L5.11732 43.2102C4.91727 43.6036 4.31714 44.4889 4.01707 44.784C1.71657 46.8496 0.116211 48.325 0.116211 51.3742C0.116211 55.6038 3.41694 58.4563 7.11776 57.3743C9.41827 56.6857 11.0186 54.2267 11.0186 51.2758C10.9186 48.4234 9.51829 47.1446 7.01774 44.784Z" fill="#FF842A"/>
<path d="M29.6227 14.0951C29.5227 10.8491 30.723 8.29173 33.0235 7.40648C36.4242 6.02941 41.0253 9.27535 43.2258 14.5869C45.4262 19.8984 44.426 25.3083 41.0253 26.6854C38.3247 27.7674 35.0239 25.9969 32.6234 22.6526C31.7232 23.046 30.723 23.4395 29.6227 23.8329C32.9235 28.9477 38.2247 31.7018 42.4256 30.0297C43.1257 29.7346 43.7259 29.3412 44.226 28.9477L53.6281 21.5706C55.5285 20.0952 56.6287 17.8328 56.6287 15.3738C56.5287 8.48846 52.7279 4.45562 49.7272 2.29166C47.8268 1.01296 45.5263 0.52115 43.2258 1.11132L33.6236 3.47201C33.0235 3.57037 32.3233 3.66873 31.7232 3.96381C27.9224 5.5376 26.0219 10.1606 26.6221 15.4721C27.5223 14.9803 28.6225 14.4885 29.6227 14.0951Z" fill="#FF842A"/>
</svg>
