<svg viewBox="0 0 100 100" fill="none" xmlns="http://www.w3.org/2000/svg">
<path d="M65.783 2.57568V6.72718C65.783 8.15152 64.595 9.30305 63.1256 9.30305H36.2704C34.8167 9.30305 33.613 8.15152 33.613 6.72718V2.57568C33.613 1.15153 34.8167 0 36.2704 0H63.1256C64.595 0 65.783 1.15153 65.783 2.57568Z" fill="#DFB107"/>
<path d="M71.2385 25.4999L62.9069 11.9546V7.7879C62.9069 6.93933 62.2034 6.27275 61.3437 6.27275H38.0524C37.1927 6.27275 36.4893 6.93933 36.4893 7.7879V11.9546L28.1732 25.5151C26.0941 28.894 25 32.7576 25 36.6818V94.5303C25 97.5455 27.5323 100 30.643 100H68.7687C71.8794 100 74.4118 97.5455 74.4118 94.5303V36.6818C74.4118 32.7576 73.3019 28.8789 71.2385 25.4999ZM71.2854 42.0606C71.1291 42.091 70.9728 42.1213 70.832 42.1061C68.8312 42.0303 67.2056 41.6212 65.8455 40.8636C65.4704 40.6514 65.1109 40.4241 64.7357 40.1818C63.5477 39.4091 62.1878 38.5302 60.4527 38.4394C58.4674 38.3486 56.9199 39.3181 55.5287 40.1818C54.919 40.5606 54.3406 40.9091 53.7779 41.1665C52.3242 41.8181 50.5734 41.8181 49.0728 41.1665C48.6351 40.9849 48.1661 40.7273 47.6815 40.4393C46.5248 39.7879 45.2273 39.0455 43.6173 39.0152C42.0541 39.0303 40.7567 39.6362 39.6156 40.2122C39.0059 40.5151 38.4432 40.8029 37.8805 40.9698C36.5361 41.3485 34.9104 41.0302 33.3629 40.6818L32.8783 40.5758C31.4246 40.2577 29.7988 39.9242 28.1263 40.0453V36.6818C28.1263 33.2878 29.0798 29.9697 30.8619 27.0606L39.3967 13.1514C39.5375 12.9091 39.6156 12.6515 39.6156 12.3787V9.30305H59.7805V12.3787C59.7805 12.6515 59.8587 12.9243 59.9993 13.1514L68.5499 27.0606C70.3319 29.9697 71.2854 33.303 71.2854 36.6818V42.0606Z" fill="#DFB107"/>
</svg>
