<svg width="36" height="91" viewBox="0 0 36 91" fill="none" xmlns="http://www.w3.org/2000/svg">
<path d="M28.8087 41.9612C24.7407 40.0447 23.9271 31.4661 24.0175 27.1767C26.3679 26.9029 28.2663 24.8952 28.2663 22.4311V20.6058C28.2663 19.967 27.7239 19.5107 27.1815 19.5107H21.0344V1.2582C21.0344 0.801892 20.7632 0.34558 20.3112 0.163055C19.8592 -0.0194698 19.4072 0.0717926 19.0456 0.436842L15.4296 4.1786L15.3392 4.26986C15.2488 4.36113 15.2488 4.45239 15.1584 4.54365C15.1584 4.63491 15.068 4.72618 15.068 4.81744C15.068 4.9087 15.068 4.9087 15.068 4.9087V19.4194H9.0113C8.37851 19.4194 7.92652 19.967 7.92652 20.5146V22.3398C7.92652 24.8039 9.7345 26.8117 12.1753 27.0855C12.2657 31.2835 11.4521 39.9535 7.38413 41.87C0.333013 45.1554 0.694607 55.103 0.785006 55.4681V85.5847C0.785006 88.2313 2.95458 90.3303 5.57615 90.3303H30.8878C33.5094 90.3303 35.5886 88.14 35.5886 85.5847V55.4681C35.4982 54.8292 35.7694 45.2467 28.8087 41.9612ZM18.0512 79.8351C14.9776 79.8351 12.4465 77.2798 12.4465 74.1769C12.4465 73.538 12.5369 72.8992 12.8081 72.2604L17.0568 60.7613C17.2376 60.305 17.5992 60.0312 18.1416 60.0312C18.684 60.0312 19.0456 60.305 19.2264 60.7613L23.4751 72.2604C23.7463 72.8992 23.8367 73.538 23.8367 74.1769C23.7463 77.2798 21.1248 79.8351 18.0512 79.8351ZM3.40657 50.905C4.03937 48.3496 5.30495 45.4292 8.28812 44.0603C13.9832 41.4137 14.4352 30.9185 14.4352 27.268H21.8479C21.8479 30.8272 22.2999 41.3224 27.9951 44.0603C30.8878 45.4292 32.2438 48.3496 32.7862 50.905H3.40657Z" fill="#6E9E48"/>
</svg>
