<svg width="27" height="36" viewBox="0 0 27 36" fill="none" xmlns="http://www.w3.org/2000/svg">
<path d="M26.6712 23.9004C26.589 20.7458 23.9178 18.1901 20.6301 18.1901H17.0959C13.8493 18.1901 11.1781 20.7058 11.0548 23.9004L10.726 34.2829C10.726 35.2014 11.5068 36 12.4931 36H25.2329C26.1781 36 27 35.2413 27 34.2829L26.6712 23.9004Z" fill="#6E9E48"/>
<path d="M21.1644 15.9139H16.6027V17.5911H21.1644V15.9139Z" fill="#6E9E48"/>
<path d="M21.1233 14.7159C21.1233 14.3965 20.8767 14.1569 20.5479 14.1569H17.1781C16.8493 14.1569 16.6027 14.3965 16.6027 14.7159V15.4347H21.1644V14.7159H21.1233Z" fill="#6E9E48"/>
<path d="M25.1918 2.29689C25.4795 0.859313 23.589 0.100593 22.0685 1.61803C22.0685 1.61803 22.9726 2.49655 23.137 3.73446C23.1781 3.77439 25.0274 3.21534 25.1918 2.29689Z" fill="#6E9E48"/>
<path d="M2.79452 15.5146C2.79452 15.5146 3.28767 13.0787 4.43836 12.0005C5.13699 11.3616 8.58904 9.92401 11.7534 8.6861C12.1644 8.52637 12.5753 8.36664 12.9452 8.20691C14.2192 7.68779 15.3288 7.24853 16.1507 6.92907C16.8493 6.64954 17.137 5.85089 16.726 5.2519C16.726 5.2519 16.726 5.2519 16.726 5.21197C16.4795 4.85257 16.1096 4.65291 15.6986 4.65291C15.5342 4.65291 15.3288 4.69284 15.1644 4.77271C14.3836 5.1321 13.0685 5.73109 11.6712 6.37001H11.6301C8.75342 7.68779 5.26027 9.28509 3.9863 9.96395C1.15068 11.3616 1.56164 15.5146 1.56164 15.5146H2.79452Z" fill="#6E9E48"/>
<path d="M2.83562 17.8307C2.71233 17.7109 2.46575 17.3115 2.38356 17.1917L2.30137 17.0719C2.26027 16.9921 2.13699 16.9921 2.09589 17.0719L2.05479 17.1917C1.9726 17.3515 1.72603 17.7109 1.60274 17.8307C0.657534 18.6693 0 19.2682 0 20.5062C0 22.2233 1.35616 23.3813 2.87671 22.942C3.82192 22.6625 4.47945 21.6642 4.47945 20.4662C4.43836 19.3082 3.86301 18.7891 2.83562 17.8307Z" fill="#6E9E48"/>
<path d="M12.1233 5.3717C12.0822 4.05392 12.5753 3.01567 13.5205 2.65628C14.9178 2.09722 16.8082 3.415 17.7123 5.57136C18.6164 7.72772 18.2055 9.92401 16.8082 10.4831C15.6986 10.9223 14.3425 10.2035 13.3562 8.84583C12.9863 9.00556 12.5753 9.16529 12.1233 9.32502C13.4795 11.4015 15.6575 12.5196 17.3836 11.8408C17.6712 11.721 17.9178 11.5612 18.1233 11.4015L21.9863 8.40657C22.7671 7.80759 23.2192 6.88914 23.2192 5.89082C23.1781 3.09554 21.6164 1.4583 20.3836 0.579785C19.6027 0.0606607 18.6575 -0.139002 17.7123 0.100593L13.7671 1.05898C13.5205 1.09891 13.2329 1.13884 12.9863 1.25864C11.4247 1.89756 10.6438 3.77439 10.8904 5.93075C11.2603 5.73109 11.7123 5.53143 12.1233 5.3717Z" fill="#6E9E48"/>
</svg>
