<svg viewBox="0 0 100 100" fill="none" xmlns="http://www.w3.org/2000/svg">
<path d="M69.9582 94.1538L74.3036 76.2858H25.7435L30.0877 94.1538H69.9582ZM34.5673 11.5021C33.3228 8.40472 31.0702 6.1421 27.5975 5.81505C23.7695 5.45619 24.3163 -0.342878 28.1469 0.0159844C34.5865 0.621724 38.8514 5.14314 40.6121 11.1064C44.5282 12.0379 47.5487 15.204 48.2846 19.149C54.7753 18.8576 61.8078 19.1184 68.3585 19.1184C74.9923 19.1184 77.3241 24.0611 74.4838 29.6642C73.3965 31.8097 71.5413 34.1143 69.2491 36.1313H75.129C84.6325 36.1313 89.2859 46.1299 84.9175 53.6354C97.3916 57.3971 94.7596 76.0045 81.6006 76.0045H80.3906L75.1571 97.5325C74.9387 98.9285 73.7236 100 72.2581 100H28.1826C26.6724 100 25.3411 99.3955 24.945 97.7628L19.6566 76.0045C4.50183 76.0045 2.9111 57.3271 15.1297 53.6354C10.8775 46.3309 15.1923 36.4813 24.3828 36.1415C24.0761 32.3798 26.8935 28.7937 29.5549 26.4293C28.5672 24.8615 27.9948 23.0048 27.9948 21.0171C27.9948 16.782 30.6422 13.0063 34.5673 11.5021ZM47.6228 25.0384C46.096 28.5545 42.6998 30.9609 38.8144 31.1887C37.1546 31.279 35.5268 30.9864 34.0115 30.3043C32.8616 31.2409 30.0902 33.9807 30.2244 35.6414C30.2666 36.1962 32.9446 35.5918 34.2236 37.806C39.8263 47.3528 39.5516 38.497 45.5695 38.497C50.4772 38.5912 53.4836 54.0236 58.1267 45.9542C59.7954 43.119 60.0842 39.482 60.6195 36.2293C61.0386 33.6486 67.9842 29.5471 69.2555 27.0389C70.1767 25.2242 69.8087 24.9824 68.3585 24.9646C61.5446 24.9646 54.3895 24.4772 47.6228 25.0384ZM38.2253 16.6738C35.8054 16.6738 33.8646 18.6069 33.8646 21.0171C33.8646 23.5864 35.9843 25.4431 38.5218 25.3502C40.8203 25.1987 42.5861 23.3166 42.5861 21.0171C42.5861 18.6209 40.6325 16.6738 38.2253 16.6738ZM18.4466 70.1584H81.6006C89.084 70.1584 88.8272 58.9916 81.6006 58.9916H18.4466C10.9772 58.9916 11.2161 70.1584 18.4466 70.1584Z" fill="#FFCB09"/>
</svg>
