<svg width="44" height="114" viewBox="0 0 44 114" fill="none" xmlns="http://www.w3.org/2000/svg">
<path d="M35.4367 52.908C30.2987 50.4874 29.2711 39.6522 29.3853 34.2346C32.3539 33.8888 34.7516 31.3529 34.7516 28.2406V25.9353C34.7516 25.1284 34.0666 24.5521 33.3815 24.5521H25.6175V1.49848C25.6175 0.922144 25.2749 0.345804 24.704 0.115268C24.1332 -0.115268 23.5623 -3.43525e-08 23.1056 0.461072L18.5385 5.18706L18.4243 5.30233C18.3101 5.41759 18.3101 5.53286 18.1959 5.64813C18.1959 5.7634 18.0818 5.87866 18.0818 5.99393C18.0818 6.1092 18.0818 6.1092 18.0818 6.1092V24.4368H10.4319C9.63264 24.4368 9.06175 25.1284 9.06175 25.82V28.1254C9.06175 31.2376 11.3453 33.7735 14.4281 34.1193C14.5423 39.4216 13.5147 50.3721 8.37669 52.7927C-0.529138 56.9424 -0.0724299 69.5066 0.0417474 69.9676V108.006C0.0417474 111.349 2.782 114 6.09314 114H38.0628C41.3739 114 44 111.234 44 108.006V69.9676C43.8858 69.1608 44.2284 57.0576 35.4367 52.908ZM21.8496 100.744C17.9676 100.744 14.7706 97.5167 14.7706 93.5976C14.7706 92.7907 14.8848 91.9838 15.2273 91.1769L20.5937 76.6532C20.822 76.0768 21.2787 75.731 21.9638 75.731C22.6488 75.731 23.1056 76.0768 23.3339 76.6532L28.7002 91.1769C29.0428 91.9838 29.157 92.7907 29.157 93.5976C29.0428 97.5167 25.7316 100.744 21.8496 100.744ZM3.35289 64.2042C4.15213 60.9767 5.75061 57.2882 9.51846 55.5592C16.7116 52.2164 17.2825 38.9606 17.2825 34.3498H26.6451C26.6451 38.8453 27.2159 52.1011 34.4091 55.5592C38.0628 57.2882 39.7754 60.9767 40.4605 64.2042H3.35289Z" fill="#6E9E48"/>
</svg>
