<svg width="81" height="75" viewBox="0 0 81 75" fill="none" xmlns="http://www.w3.org/2000/svg">
<path d="M59.1436 41.0827L59.122 41.0438C56.2818 42.8593 49.8848 46.7186 45.4743 47.657C44.2424 47.921 42.9622 48.0561 41.6686 48.0561C36.8057 48.0561 32.3223 46.213 28.496 44.4886C28.2533 44.377 27.7793 44.1765 27.1232 43.896C16.9594 39.5599 10.2703 36.2278 5.87017 33.5956C6.03161 40.4994 6.24447 57.3567 10.3505 61.0491C14.0832 64.4038 36.5816 75.654 43.7015 74.5446C50.7917 73.4404 74.6309 60.1015 75.869 51.464C76.2793 47.3858 76.1847 36.7712 75.9986 30.3607C71.9789 33.3377 66.3418 36.8387 59.1436 41.0827ZM11.5372 59.5048C11.4857 59.5161 11.4333 59.5192 11.385 59.5192C10.9932 59.5192 10.6446 59.2418 10.5695 58.8478C9.22039 51.6564 8.64351 45.7341 8.64351 39.0533C8.64351 38.5979 9.01473 38.2264 9.47335 38.2264C9.93198 38.2264 10.3022 38.5969 10.3022 39.0533C10.3022 45.6266 10.8698 51.4569 12.2004 58.5449C12.2837 58.9901 11.9855 59.4209 11.5372 59.5048ZM16.0494 62.181C15.9404 62.226 15.8273 62.2486 15.7172 62.2486C15.4118 62.2486 15.1229 62.0807 14.9861 61.7839C14.3578 60.4218 13.0683 45.2101 12.9346 41.314C12.9171 40.8576 13.275 40.4759 13.7316 40.4605C14.1727 40.4339 14.5707 40.7993 14.5871 41.2547C14.766 46.4361 16.0689 59.9828 16.4957 61.1085C16.655 61.524 16.4597 62.0101 16.0494 62.181ZM19.7698 63.8717C19.7317 63.8768 19.6937 63.8809 19.6597 63.8809C19.2505 63.8809 18.8947 63.579 18.8371 63.1655C18.5348 60.9202 16.9275 47.6959 17.1013 43.2094C17.1198 42.755 17.5394 42.3957 17.961 42.4183C18.4165 42.4357 18.7744 42.8194 18.7559 43.2728C18.5996 47.351 20.0536 59.7904 20.4793 62.9465C20.541 63.3978 20.2212 63.8113 19.7698 63.8717ZM23.3586 66.0535C23.3401 66.0535 23.3226 66.0546 23.3041 66.0546C22.8712 66.0546 22.5092 65.7178 22.4804 65.2798C22.2891 62.2516 21.5148 49.1501 21.5148 45.1517C21.5148 44.6994 21.884 44.3279 22.3426 44.3279C22.8012 44.3279 23.1704 44.6984 23.1704 45.1517C23.1704 49.1276 23.9755 62.6753 24.1349 65.1785C24.1637 65.6319 23.8151 66.0228 23.3586 66.0535ZM27.6106 67.3635C27.154 67.3635 26.7828 66.9961 26.7828 66.5407C26.7828 64.499 25.6681 49.2965 25.2949 47.002C25.2229 46.5538 25.5314 46.1301 25.9818 46.0574C26.4332 45.9858 26.8599 46.2918 26.9319 46.7401C27.3083 49.0683 28.4384 64.4744 28.4384 66.5407C28.4384 66.9961 28.0682 67.3635 27.6106 67.3635ZM31.5192 69.4277C31.0626 69.4277 30.6914 69.0602 30.6914 68.6048C30.6914 66.2388 29.9377 51.5091 29.4677 49.1143C29.3803 48.6681 29.6713 48.2373 30.1228 48.1493C30.5721 48.0602 31.0051 48.355 31.0945 48.7991C31.62 51.4825 32.347 66.5867 32.347 68.6059C32.347 69.0592 31.9758 69.4277 31.5192 69.4277ZM35.4247 71.3301C35.3908 71.3353 35.3538 71.3393 35.3198 71.3393C34.9085 71.3393 34.5496 71.0323 34.4992 70.6168C34.2494 68.6458 33.6159 53.082 33.7455 50.5727C33.7702 50.1193 34.1476 49.7632 34.6134 49.7918C35.072 49.8143 35.4247 50.2012 35.4 50.6566C35.2797 53.0247 35.906 68.5445 36.1435 70.4132C36.199 70.8604 35.8761 71.2728 35.4247 71.3301ZM39.396 71.8828C38.9384 71.8828 38.5672 71.5154 38.5672 71.0589C38.5672 69.4174 38.3091 64.1275 38.0819 59.4588C37.8926 55.5576 37.7271 52.1845 37.7271 51.2849C37.7271 50.8316 38.0973 50.4611 38.558 50.4611C39.0145 50.4611 39.3847 50.8306 39.3847 51.2849C39.3847 52.1456 39.5544 55.6569 39.7354 59.3779C39.9647 64.0681 40.2259 69.3775 40.2259 71.0589C40.2259 71.5154 39.8516 71.8828 39.396 71.8828Z" fill="#A96C4D"/>
<path d="M80.4511 20.9956C79.9627 20.5115 79.1267 19.9067 77.9986 19.2098C76.9148 21.4756 75.2675 24.1006 73.0566 27.0756C73.0216 27.1226 72.9887 27.1666 72.9558 27.2147C71.6488 28.9617 70.2647 30.6656 68.8704 32.256C71.4195 30.6104 73.8782 28.9228 75.8896 27.3416C78.6485 25.1761 80.5725 23.2112 80.7473 21.8215C80.7895 21.4878 80.7051 21.2514 80.4511 20.9956Z" fill="#A96C4D"/>
<path d="M29.5243 42.2371C33.3907 43.982 37.4433 45.5836 41.6686 45.5836C42.7565 45.5836 43.8507 45.4782 44.9581 45.2418C49.6359 44.244 57.1754 39.3788 58.8279 38.2858C59.0408 38.1436 59.1621 38.0617 59.1621 38.0617C62.1113 36.0302 66.2276 31.7914 69.7753 27.2823C72.2977 24.0729 74.5281 20.7326 75.8402 17.952C76.0274 17.5611 76.1888 17.1814 76.3348 16.814C76.5004 16.4026 76.6423 16.0055 76.7534 15.6299C77.4115 13.4204 77.1215 11.871 75.3703 11.5548C73.4381 11.2079 69.0729 10.9981 65.8924 10.3748C65.2888 10.2571 64.7335 10.121 64.2399 9.96955C63.9314 9.87335 63.6425 9.77305 63.3905 9.66253C53.3635 5.29673 44.5468 0.989273 40.0665 0.989273C39.6932 0.989273 39.3436 1.01895 39.032 1.08138C32.6791 2.36676 8.96434 15.9769 0.557939 23.6697C-1.35677 25.4207 1.88343 28.3087 6.81724 31.295C14.9902 36.2421 27.7988 41.4573 29.5243 42.2371Z" fill="#A96C4D"/>
</svg>
