<svg width="20" height="37" viewBox="0 0 20 37" fill="none" xmlns="http://www.w3.org/2000/svg">
<path d="M19.9231 22.2463C19.5383 20.4697 17.7683 19.4656 16.1523 18.6159C15.0749 18.0752 13.8436 17.38 13.8436 16.8392C13.8436 16.3758 13.9975 15.9123 14.2284 15.3716C14.4593 14.7537 14.7671 13.9812 14.921 13.0543C15.0749 11.7411 14.5362 10.2735 13.9206 9.19207C14.1514 9.03758 14.3823 8.80584 14.3823 8.49687V0.772443C14.3823 0.308977 14.0745 0 13.6127 0H6.45586C5.99413 0 5.6863 0.308977 5.6863 0.772443V8.57411C5.6863 8.88309 5.84022 9.11482 6.14804 9.26931C5.45544 10.428 4.9937 11.9729 5.14761 13.1315C5.30153 14.0585 5.60935 14.7537 5.84021 15.3716C6.07108 15.9896 6.22499 16.453 6.30195 16.9165C6.30195 17.3027 5.53239 17.6889 4.68588 18.0752C3.14677 18.7704 1.06896 19.7745 0.299408 22.1691C-0.854927 25.6451 1.68461 35.3779 1.91548 36.4593C1.99243 36.7683 2.30025 37 2.68503 37H17.0757C17.4605 37 17.7683 36.7683 17.8453 36.382C17.9992 35.3006 20.4618 25.1044 19.9231 22.2463ZM7.22542 7.80167V7.10647H12.8432V7.80167H7.22542ZM12.8432 1.54489V5.56159H7.22542V1.54489H12.8432ZM16.3062 35.5324H3.14677C2.30025 32.2881 0.838097 25.1044 1.60765 22.6326C2.2233 20.8559 3.76241 20.0835 5.22457 19.4656C6.53282 18.8476 7.84106 18.2296 7.76411 16.8392C7.76411 16.0668 7.45628 15.4489 7.22542 14.7537C6.99455 14.2129 6.76368 13.595 6.60977 12.8225C6.45586 11.8184 7.07151 10.2735 7.84106 9.26931H12.0736C12.7662 10.119 13.4588 11.6639 13.3049 12.8225C13.228 13.595 12.9971 14.2129 12.7662 14.7537C12.5354 15.3716 12.2275 16.0668 12.2275 16.762C12.2275 18.3069 13.7666 19.1566 15.3058 19.929C16.691 20.6242 18.0762 21.3967 18.307 22.4781C18.7688 24.5637 17.1527 32.1336 16.3062 35.5324Z" fill="#A96C4D"/>
<path d="M9.76495 22.2463C5.60935 22.2463 2.37721 24.5637 2.37721 27.499C2.37721 30.4342 5.60935 32.7516 9.76495 32.7516C13.9206 32.7516 17.1527 30.4342 17.1527 27.499C17.1527 24.5637 13.9206 22.2463 9.76495 22.2463ZM9.76495 31.0522C6.60977 31.0522 3.91632 29.3528 3.91632 27.3445C3.91632 25.3361 6.60977 23.6367 9.76495 23.6367C12.9201 23.6367 15.6136 25.3361 15.6136 27.3445C15.6136 29.3528 12.9201 31.0522 9.76495 31.0522Z" fill="#A96C4D"/>
<path fill-rule="evenodd" clip-rule="evenodd" d="M16.3062 35.5324H3.14677C2.30025 32.2881 0.838097 25.1044 1.60765 22.6326C2.2233 20.8559 3.76241 20.0835 5.22457 19.4656C6.53282 18.8476 7.84106 18.2296 7.76411 16.8392C7.76411 16.0668 7.45628 15.4489 7.22542 14.7537C6.99455 14.2129 6.76368 13.595 6.60977 12.8225C6.45586 11.8184 7.07151 10.2735 7.84106 9.26931H12.0736C12.7662 10.119 13.4588 11.6639 13.3049 12.8225C13.228 13.595 12.9971 14.2129 12.7662 14.7537C12.5354 15.3716 12.2275 16.0668 12.2275 16.762C12.2275 18.3069 13.7666 19.1566 15.3058 19.929C16.691 20.6242 18.0762 21.3967 18.307 22.4781C18.7688 24.5637 17.1527 32.1336 16.3062 35.5324ZM2.37721 27.499C2.37721 24.5637 5.60935 22.2463 9.76495 22.2463C13.9206 22.2463 17.1527 24.5637 17.1527 27.499C17.1527 30.4342 13.9206 32.7516 9.76495 32.7516C5.60935 32.7516 2.37721 30.4342 2.37721 27.499Z" fill="#A96C4D"/>
</svg>
