<svg width="102" height="93" viewBox="0 0 102 93" fill="none" xmlns="http://www.w3.org/2000/svg">
<path d="M74.7007 50.6396L74.6734 50.5905C71.0861 52.8835 63.0064 57.7579 57.4358 58.9431C55.8799 59.2766 54.2629 59.4473 52.629 59.4473C46.487 59.4473 40.8243 57.1193 35.9915 54.9413C35.685 54.8004 35.0863 54.5471 34.2576 54.1929C21.4204 48.7162 12.9718 44.5076 7.41425 41.183C7.61816 49.9028 7.88701 71.1943 13.0731 75.8579C17.7877 80.095 46.2039 94.3044 55.1967 92.9032C64.1519 91.5085 94.2617 74.661 95.8255 63.7516C96.3437 58.6006 96.2242 45.1939 95.9891 37.0972C90.9122 40.8573 83.7922 45.2792 74.7007 50.6396ZM14.5719 73.9074C14.5069 73.9216 14.4407 73.9255 14.3797 73.9255C13.8848 73.9255 13.4445 73.5752 13.3497 73.0776C11.6457 63.9946 10.9171 56.5144 10.9171 48.0764C10.9171 47.5012 11.3859 47.032 11.9652 47.032C12.5445 47.032 13.012 47.4999 13.012 48.0764C13.012 56.3787 13.729 63.7425 15.4096 72.695C15.5148 73.2572 15.1382 73.8014 14.5719 73.9074ZM20.271 77.2875C20.1333 77.3444 19.9904 77.3728 19.8515 77.3728C19.4657 77.3728 19.1008 77.1608 18.928 76.786C18.1345 75.0656 16.5058 55.8526 16.3369 50.9317C16.3149 50.3552 16.7668 49.8731 17.3435 49.8537C17.9007 49.8201 18.4033 50.2815 18.4241 50.8567C18.6501 57.4011 20.2956 74.511 20.8346 75.9329C21.036 76.4577 20.7892 77.0717 20.271 77.2875ZM24.97 79.4229C24.9219 79.4293 24.8739 79.4345 24.831 79.4345C24.3141 79.4345 23.8647 79.0532 23.792 78.531C23.4101 75.695 21.3801 58.9923 21.5996 53.3256C21.623 52.7517 22.1529 52.298 22.6854 52.3264C23.2608 52.3484 23.7128 52.8331 23.6894 53.4057C23.492 58.5567 25.3285 74.268 25.8662 78.2544C25.9441 78.8244 25.5402 79.3466 24.97 79.4229ZM29.5028 82.1786C29.4794 82.1786 29.4573 82.18 29.4339 82.18C28.8871 82.18 28.43 81.7547 28.3936 81.2015C28.152 77.3767 27.174 60.829 27.174 55.7789C27.174 55.2076 27.6403 54.7384 28.2196 54.7384C28.7988 54.7384 29.2651 55.2063 29.2651 55.7789C29.2651 60.8006 30.282 77.9118 30.4834 81.0735C30.5197 81.6461 30.0794 82.1399 29.5028 82.1786ZM34.8733 83.8332C34.2966 83.8332 33.8277 83.3691 33.8277 82.7939C33.8277 80.2152 32.4199 61.0139 31.9484 58.1159C31.8575 57.5497 32.2471 57.0146 32.816 56.9228C33.3862 56.8324 33.9251 57.2188 34.0161 57.785C34.4914 60.7256 35.9188 80.1842 35.9188 82.7939C35.9188 83.3691 35.4512 83.8332 34.8733 83.8332ZM39.81 86.4403C39.2333 86.4403 38.7644 85.9763 38.7644 85.4011C38.7644 82.4126 37.8124 63.8084 37.2189 60.7838C37.1085 60.2202 37.476 59.676 38.0462 59.5649C38.6138 59.4524 39.1606 59.8247 39.2736 60.3857C39.9372 63.7748 40.8555 82.8521 40.8555 85.4024C40.8555 85.975 40.3866 86.4403 39.81 86.4403ZM44.7428 88.8432C44.6999 88.8497 44.6532 88.8549 44.6103 88.8549C44.0908 88.8549 43.6375 88.4671 43.5739 87.9423C43.2583 85.4528 42.4582 65.7951 42.6218 62.6257C42.653 62.0531 43.1297 61.6033 43.718 61.6395C44.2973 61.6679 44.7428 62.1565 44.7116 62.7317C44.5596 65.7228 45.3506 85.3248 45.6506 87.6851C45.7208 88.2499 45.3129 88.7708 44.7428 88.8432ZM49.7587 89.5412C49.1807 89.5412 48.7119 89.0772 48.7119 88.5007C48.7119 86.4274 48.3859 79.746 48.0988 73.8492C47.8599 68.9219 47.6508 64.6615 47.6508 63.5254C47.6508 62.9528 48.1183 62.4848 48.7002 62.4848C49.2768 62.4848 49.7444 62.9515 49.7444 63.5254C49.7444 64.6124 49.9587 69.0473 50.1873 73.7471C50.4769 79.671 50.8068 86.377 50.8068 88.5007C50.8068 89.0772 50.3341 89.5412 49.7587 89.5412Z" fill="#A96C4D"/>
<path d="M101.613 25.2687C100.996 24.6573 99.94 23.8934 98.5153 23.0132C97.1463 25.875 95.0657 29.1904 92.2733 32.948C92.2291 33.0074 92.1876 33.063 92.146 33.1238C90.4952 35.3302 88.7471 37.4824 86.9859 39.491C90.2056 37.4126 93.311 35.2811 95.8514 33.2841C99.3361 30.5489 101.766 28.0672 101.987 26.3119C102.04 25.8905 101.934 25.5919 101.613 25.2687Z" fill="#A96C4D"/>
<path d="M37.2903 52.0976C42.1738 54.3015 47.2923 56.3244 52.629 56.3244C54.0031 56.3244 55.3851 56.1912 56.7839 55.8927C62.692 54.6324 72.2148 48.4874 74.3019 47.107C74.5708 46.9273 74.724 46.8239 74.724 46.8239C78.449 44.2581 83.648 38.9042 88.1288 33.2091C91.3148 29.1555 94.1319 24.9365 95.7891 21.4246C96.0255 20.9308 96.2294 20.4513 96.4138 19.9872C96.6229 19.4676 96.8022 18.9661 96.9424 18.4917C97.7737 15.701 97.4074 13.7441 95.1956 13.3446C92.7551 12.9065 87.2418 12.6415 83.2246 11.8543C82.4622 11.7056 81.7609 11.5337 81.1375 11.3424C80.7478 11.2209 80.3829 11.0943 80.0647 10.9547C67.4002 5.44049 56.2643 0 50.6055 0C50.134 0 49.6925 0.0374852 49.2989 0.116333C41.275 1.73982 11.3223 18.9299 0.704698 28.6463C-1.71365 30.8579 2.37884 34.5055 8.61043 38.2773C18.9332 44.5257 35.1109 51.1127 37.2903 52.0976Z" fill="#A96C4D"/>
</svg>
