<svg viewBox="0 0 100 100" fill="none" xmlns="http://www.w3.org/2000/svg">
<path d="M73.2359 53.917L73.2092 53.8705C69.6923 56.0403 61.7709 60.6526 56.3097 61.7742C54.7842 62.0897 53.1989 62.2512 51.5971 62.2512C45.5755 62.2512 40.0238 60.0484 35.2858 57.9875C34.9853 57.8542 34.3983 57.6144 33.5859 57.2793C21.0004 52.0971 12.7174 48.1147 7.26887 44.9689C7.46878 53.2199 7.73236 73.3666 12.8167 77.7795C17.4389 81.7888 45.298 95.2343 54.1144 93.9084C62.894 92.5887 92.4135 76.6469 93.9465 66.3241C94.4546 61.45 94.3375 48.7641 94.107 41.1027C89.1296 44.6607 82.1492 48.8449 73.2359 53.917ZM14.2862 75.9339C14.2225 75.9473 14.1575 75.951 14.0977 75.951C13.6126 75.951 13.1809 75.6196 13.088 75.1487C11.4174 66.554 10.703 59.476 10.703 51.4916C10.703 50.9474 11.1627 50.5034 11.7306 50.5034C12.2985 50.5034 12.7569 50.9461 12.7569 51.4916C12.7569 59.3475 13.4598 66.3155 15.1075 74.7866C15.2106 75.3187 14.8413 75.8336 14.2862 75.9339ZM19.8735 79.1323C19.7385 79.1861 19.5985 79.213 19.4622 79.213C19.084 79.213 18.7262 79.0124 18.5569 78.6577C17.7789 77.0298 16.1821 58.8498 16.0166 54.1934C15.995 53.6479 16.4381 53.1917 17.0034 53.1734C17.5497 53.1416 18.0425 53.5782 18.0628 54.1225C18.2844 60.315 19.8977 76.5051 20.4261 77.8505C20.6235 78.347 20.3816 78.928 19.8735 79.1323ZM24.4804 81.1528C24.4333 81.1589 24.3862 81.1638 24.3441 81.1638C23.8374 81.1638 23.3968 80.803 23.3255 80.3089C22.9511 77.6254 20.9609 61.8206 21.1761 56.4586C21.199 55.9156 21.7185 55.4863 22.2406 55.5132C22.8047 55.534 23.2478 55.9926 23.2249 56.5344C23.0313 61.4085 24.8318 76.2751 25.359 80.0471C25.4354 80.5865 25.0394 81.0807 24.4804 81.1528ZM28.9243 83.7604C28.9014 83.7604 28.8797 83.7617 28.8568 83.7617C28.3207 83.7617 27.8725 83.3593 27.8369 82.8358C27.6 79.2167 26.6412 63.5587 26.6412 58.78C26.6412 58.2394 27.0983 57.7954 27.6662 57.7954C28.2341 57.7954 28.6913 58.2382 28.6913 58.78C28.6913 63.5317 29.6883 79.723 29.8856 82.7147C29.9213 83.2565 29.4896 83.7237 28.9243 83.7604ZM34.1895 85.326C33.6241 85.326 33.1645 84.8869 33.1645 84.3426C33.1645 81.9026 31.7842 63.7336 31.322 60.9914C31.2328 60.4557 31.6148 59.9493 32.1725 59.8625C32.7315 59.7769 33.2599 60.1426 33.3491 60.6783C33.8151 63.4608 35.2145 81.8732 35.2145 84.3426C35.2145 84.8869 34.7561 85.326 34.1895 85.326ZM39.0294 87.793C38.464 87.793 38.0044 87.3539 38.0044 86.8096C38.0044 83.9818 37.071 66.3779 36.4891 63.5158C36.3809 62.9826 36.7412 62.4677 37.3002 62.3625C37.8566 62.2561 38.3927 62.6083 38.5035 63.1391C39.1542 66.3461 40.0544 84.3977 40.0544 86.8108C40.0544 87.3527 39.5947 87.793 39.0294 87.793ZM43.8655 90.0667C43.8234 90.0728 43.7776 90.0777 43.7356 90.0777C43.2263 90.0777 42.7819 89.7108 42.7195 89.2142C42.4101 86.8585 41.6257 68.2578 41.7861 65.2587C41.8167 64.7169 42.284 64.2913 42.8608 64.3255C43.4287 64.3524 43.8655 64.8148 43.8349 65.359C43.6859 68.1893 44.4614 86.7374 44.7555 88.9708C44.8243 89.5053 44.4244 89.9982 43.8655 90.0667ZM48.783 90.7272C48.2164 90.7272 47.7567 90.2881 47.7567 89.7426C47.7567 87.7807 47.4371 81.4586 47.1557 75.8788C46.9214 71.2164 46.7164 67.1851 46.7164 66.11C46.7164 65.5682 47.1748 65.1254 47.7453 65.1254C48.3106 65.1254 48.769 65.567 48.769 66.11C48.769 67.1386 48.9791 71.3351 49.2032 75.7822C49.4872 81.3876 49.8106 87.733 49.8106 89.7426C49.8106 90.2881 49.3471 90.7272 48.783 90.7272Z" fill="#A96C4D"/>
<path d="M99.6205 29.9102C99.0156 29.3317 97.9804 28.6088 96.5836 27.7759C95.2415 30.4838 93.2017 33.6211 90.464 37.1766C90.4207 37.2328 90.38 37.2854 90.3392 37.3429C88.7208 39.4307 87.0069 41.4672 85.2803 43.3679C88.4369 41.4011 91.4814 39.3843 93.972 37.4946C97.3883 34.9065 99.7707 32.5582 99.9872 30.8972C100.039 30.4985 99.935 30.216 99.6205 29.9102Z" fill="#A96C4D"/>
<path d="M36.5591 55.2967C41.3468 57.382 46.365 59.2962 51.5971 59.2962C52.9443 59.2962 54.2991 59.1702 55.6704 58.8877C61.4628 57.6952 70.7988 51.8806 72.845 50.5743C73.1086 50.4043 73.2589 50.3065 73.2589 50.3065C76.9108 47.8786 82.0079 42.8126 86.4008 37.4236C89.5243 33.588 92.2861 29.5959 93.9109 26.2727C94.1426 25.8055 94.3425 25.3517 94.5234 24.9127C94.7284 24.421 94.9041 23.9464 95.0416 23.4975C95.8565 20.8569 95.4975 19.0051 93.329 18.6272C90.9364 18.2126 85.5312 17.9618 81.5928 17.217C80.8453 17.0763 80.1577 16.9136 79.5465 16.7326C79.1645 16.6177 78.8067 16.4978 78.4948 16.3657C66.0786 11.148 55.1611 6 49.6132 6C49.151 6 48.7181 6.03547 48.3323 6.11008C40.4657 7.64628 11.1003 23.9122 0.690881 33.1061C-1.68005 35.1988 2.33219 38.6504 8.4416 42.2194C18.562 48.1318 34.4225 54.3647 36.5591 55.2967Z" fill="#A96C4D"/>
</svg>
