<svg width="99" height="55" viewBox="0 0 99 55" fill="none" xmlns="http://www.w3.org/2000/svg">
<path d="M67.0554 11.075C52.4657 9.85425 30.5813 12.9062 19.3352 23.2829C18.7273 23.8933 17.8154 23.8933 17.2075 23.2829C13.5601 18.705 5.96134 15.3478 0.490234 13.2114C2.00999 16.8738 5.04949 22.6725 9.60874 26.3349C10.5206 26.9453 10.5206 28.166 9.60874 28.7764C5.04949 32.1336 2.00999 38.2375 0.490234 41.8999C5.35344 39.7635 14.168 36.1011 17.2075 31.8284C17.8154 31.218 18.7273 30.9128 19.3352 31.5232C30.8853 41.8999 51.8578 45.257 67.0554 43.7311C60.3684 33.9648 60.3684 20.8413 67.0554 11.075ZM46.6907 8.93866C49.7302 8.32827 53.0736 8.02307 56.1131 7.71788C52.4657 4.97111 47.9065 1.91915 43.3472 0.0879669C43.9551 2.22434 44.867 5.8867 46.6907 8.93866ZM56.1131 47.0882C53.0736 46.783 49.7302 46.4778 46.6907 46.1726C44.867 48.9194 43.9551 52.5818 43.3472 54.7181C47.9065 52.887 52.4657 49.835 56.1131 47.0882ZM75.566 12.601C69.487 21.4517 69.487 33.3544 75.566 42.5103C83.7726 40.3739 92.8911 36.1011 95.6267 27.5556C92.8911 18.705 83.7726 14.4322 75.566 12.601ZM73.4383 9.85425C73.7423 9.54906 74.3502 9.24386 75.262 9.24386C84.9884 11.3802 95.6267 16.5686 98.6662 26.9453C98.6662 27.2505 98.6662 27.5556 98.6662 27.8608C95.6267 38.2375 84.9884 43.4259 75.262 45.5622C74.6541 45.8674 74.0462 45.5622 73.4383 44.9518C66.1435 34.5752 65.8396 20.2309 73.4383 9.85425ZM80.1252 19.9257C82.8608 19.9257 85.2924 22.3673 85.2924 25.1141C85.2924 27.8608 82.8608 29.9972 80.1252 29.9972C77.3897 29.9972 75.262 27.8608 75.262 25.1141C75.262 22.3673 77.3897 19.9257 80.1252 19.9257ZM80.1252 22.9777C79.2134 22.9777 78.3015 23.8933 78.3015 25.1141C78.3015 26.0297 79.2134 26.9453 80.1252 26.9453C81.341 26.9453 82.2529 26.0297 82.2529 25.1141C82.2529 23.8933 81.341 22.9777 80.1252 22.9777Z" fill="#CE7A39"/>
</svg>
