<svg width="46" height="27" viewBox="0 0 46 27" fill="none" xmlns="http://www.w3.org/2000/svg">
<path d="M30.7823 6.03739C24.0355 5.47286 13.9153 6.8842 8.71463 11.6828C8.43351 11.9651 8.01184 11.9651 7.73072 11.6828C6.04402 9.56576 2.53005 8.01328 0 7.02534C0.702793 8.71896 2.10838 11.4005 4.21676 13.0941C4.63843 13.3764 4.63843 13.9409 4.21676 14.2232C2.10838 15.7757 0.702793 18.5984 0 20.292C2.24894 19.3041 6.32513 17.6104 7.73072 15.6346C8.01184 15.3523 8.43351 15.2112 8.71463 15.4934C14.0559 20.292 23.7544 21.8445 30.7823 21.1388C27.69 16.6225 27.69 10.5537 30.7823 6.03739ZM21.3649 5.04945C22.7705 4.76718 24.3166 4.62605 25.7222 4.48491C24.0355 3.2147 21.9271 1.80335 19.8188 0.956543C20.0999 1.94449 20.5215 3.6381 21.3649 5.04945ZM25.7222 22.6913C24.3166 22.5502 22.7705 22.409 21.3649 22.2679C20.5215 23.5381 20.0999 25.2317 19.8188 26.2197C21.9271 25.3729 24.0355 23.9615 25.7222 22.6913ZM34.718 6.74307C31.9068 10.836 31.9068 16.3402 34.718 20.5743C38.513 19.5863 42.7298 17.6104 43.9948 13.6587C42.7298 9.56576 38.513 7.58988 34.718 6.74307ZM33.734 5.47286C33.8746 5.33172 34.1557 5.19059 34.5774 5.19059C39.0753 6.17853 43.9948 8.57782 45.4004 13.3764C45.4004 13.5175 45.4004 13.6587 45.4004 13.7998C43.9948 18.5984 39.0753 20.9977 34.5774 21.9856C34.2963 22.1268 34.0152 21.9856 33.734 21.7034C30.3606 16.9048 30.2201 10.2714 33.734 5.47286ZM36.8263 10.1303C38.0914 10.1303 39.2158 11.2594 39.2158 12.5296C39.2158 13.7998 38.0914 14.7878 36.8263 14.7878C35.5613 14.7878 34.5774 13.7998 34.5774 12.5296C34.5774 11.2594 35.5613 10.1303 36.8263 10.1303ZM36.8263 11.5417C36.4047 11.5417 35.983 11.9651 35.983 12.5296C35.983 12.953 36.4047 13.3764 36.8263 13.3764C37.3886 13.3764 37.8102 12.953 37.8102 12.5296C37.8102 11.9651 37.3886 11.5417 36.8263 11.5417Z" fill="#CE7A39"/>
</svg>
