<svg viewBox="0 0 100 100" fill="none" xmlns="http://www.w3.org/2000/svg">
<path d="M49.3065 88.3916C49.3065 88.3916 48.9454 95.2811 39.598 95.2811C26.6538 95.2811 14.0675 72.7337 14.0675 59.8947C14.0675 47.0547 21.9791 34.5274 32.7654 34.5274C43.5528 34.5274 49.3054 45.8011 49.3054 45.8011V88.3916H49.3065ZM91.0138 41.7305C76.6307 15.4242 49.6644 33.9011 49.6644 33.9011C49.6644 33.9011 38.1602 29.2042 31.6875 29.2042C25.2159 29.2042 6.16016 35.4684 6.16016 60.8337C6.16016 86.2011 29.8917 99.6674 39.957 99.6674C50.0223 99.6674 50.0254 93.7179 50.0254 93.7179C50.0254 93.7179 49.6644 99.6674 63.3296 99.6674C76.9928 99.6663 105.396 68.0347 91.0138 41.7305Z" fill="#6E9E48"/>
<path d="M34.6539 62.5947C34.6539 63.5674 32.1781 64.3569 29.1255 64.3569C26.0729 64.3569 23.5981 63.5674 23.5981 62.5947C23.5981 61.6221 26.0739 60.8326 29.1255 60.8326C32.1771 60.8326 34.6539 61.6221 34.6539 62.5947Z" fill="#6E9E48"/>
<path d="M50.834 25.8368C50.834 25.8368 50.0245 3.75785 73.2161 0.00100708C76.1845 22.5484 50.834 25.8368 50.834 25.8368Z" fill="#6E9E48"/>
<path d="M49.2168 32.4137C49.2168 32.4137 34.9231 9.63053 24.9452 7.51685C22.5179 10.3347 21.98 12.2147 21.98 12.2147C21.98 12.2147 36.541 16.6768 49.2168 32.4137Z" fill="#6E9E48"/>
<path d="M36.9254 49.6484C36.497 50.5452 33.8633 50.4452 31.0454 49.4242C28.2254 48.4031 26.2896 46.8473 26.7181 45.9484C27.1475 45.0505 29.7802 45.1494 32.5981 46.1715C35.417 47.1926 37.3549 48.7494 36.9254 49.6484Z" fill="#6E9E48"/>
<path d="M39.5978 75.2579C40.0378 76.1516 38.1209 77.7274 35.3167 78.7758C32.5104 79.8242 29.8788 79.9505 29.4388 79.0579C28.9988 78.1642 30.9157 76.5874 33.7199 75.5389C36.5262 74.4916 39.1567 74.3642 39.5978 75.2579Z" fill="#6E9E48"/>
</svg>
