<svg width="124" height="69" viewBox="0 0 124 69" fill="none" xmlns="http://www.w3.org/2000/svg">
<path d="M84.0743 13.8771C65.6471 12.3352 38.0062 16.1899 23.8019 29.2961C23.0341 30.067 21.8824 30.067 21.1146 29.2961C16.5077 23.514 6.91022 19.2737 0 16.5754C1.9195 21.2011 5.75851 28.5251 11.517 33.1508C12.6687 33.9218 12.6687 35.4637 11.517 36.2346C5.75851 40.4749 1.9195 48.1844 0 52.8101C6.14242 50.1117 17.2755 45.486 21.1146 40.0894C21.8824 39.3184 23.0341 38.933 23.8019 39.7039C38.3901 52.8101 64.8793 57.0503 84.0743 55.1229C75.6285 42.7877 75.6285 26.2123 84.0743 13.8771ZM58.3529 11.1788C62.192 10.4078 66.4149 10.0223 70.2539 9.63687C65.6471 6.1676 59.8885 2.31285 54.13 0C54.8978 2.69832 56.0495 7.32402 58.3529 11.1788ZM70.2539 59.3631C66.4149 58.9777 62.192 58.5922 58.3529 58.2067C56.0495 61.676 54.8978 66.3017 54.13 69C59.8885 66.6872 65.6471 62.8324 70.2539 59.3631ZM94.8235 15.8045C87.1455 26.9832 87.1455 42.0168 94.8235 53.581C105.189 50.8827 116.706 45.486 120.161 34.6927C116.706 23.514 105.189 18.1173 94.8235 15.8045ZM92.1362 12.3352C92.5201 11.9497 93.2879 11.5642 94.4396 11.5642C106.724 14.2626 120.161 20.8156 124 33.9218C124 34.3073 124 34.6927 124 35.0782C120.161 48.1844 106.724 54.7374 94.4396 57.4358C93.6718 57.8212 92.904 57.4358 92.1362 56.6648C82.9226 43.5587 82.5387 25.4413 92.1362 12.3352ZM100.582 25.0559C104.037 25.0559 107.108 28.1397 107.108 31.6089C107.108 35.0782 104.037 37.7765 100.582 37.7765C97.1269 37.7765 94.4396 35.0782 94.4396 31.6089C94.4396 28.1397 97.1269 25.0559 100.582 25.0559ZM100.582 28.9106C99.4303 28.9106 98.2786 30.067 98.2786 31.6089C98.2786 32.7654 99.4303 33.9218 100.582 33.9218C102.118 33.9218 103.269 32.7654 103.269 31.6089C103.269 30.067 102.118 28.9106 100.582 28.9106Z" fill="#CE7A39"/>
</svg>
