<svg width="36" height="31" viewBox="0 0 36 31" fill="none" xmlns="http://www.w3.org/2000/svg">
<path d="M26.122 19.5971C26.0075 19.4647 25.8335 19.3923 25.6584 19.3996C24.3523 19.4607 22.9688 20.2681 21.9497 21.0213C20.3331 20.1262 18.1304 19.1492 16.2178 19.1492C13.8565 19.1492 11.1911 20.6105 10.0525 21.6479C9.73383 21.9383 9.55109 22.3644 9.55128 22.8163C9.55128 23.2682 9.73421 23.6939 10.0525 23.9839C11.1907 25.0217 13.8562 26.483 16.2178 26.483C18.1304 26.483 20.3331 25.506 21.9497 24.6109C22.9688 25.3637 24.3526 26.1712 25.658 26.2327C25.8413 26.241 26.0075 26.1679 26.1217 26.0351C26.2366 25.9023 26.2815 25.7247 26.2432 25.5548C26.1146 24.9809 25.78 23.3701 25.7766 22.8192C25.78 22.2621 26.1146 20.6513 26.2432 20.0774C26.2815 19.9075 26.2366 19.7299 26.122 19.5971ZM13.9364 24.9156C14.2268 24.3601 14.3453 23.5532 14.3453 22.8159C14.3453 22.0787 14.2268 21.272 13.9365 20.7167C14.6994 20.4454 15.4931 20.267 16.2178 20.267C18.0101 20.267 20.1926 21.3048 21.7077 22.1751C21.9121 22.292 22.1683 22.2745 22.3535 22.1297C23.296 21.3928 24.1924 20.8878 24.9542 20.6567C24.8126 21.3604 24.6374 22.3269 24.6345 22.8192C24.6374 23.3075 24.8126 24.2721 24.9542 24.9751C24.1924 24.7441 23.296 24.239 22.3531 23.5025C22.1683 23.3577 21.9121 23.3403 21.7077 23.4571C20.1926 24.3274 18.0101 25.3652 16.2178 25.3652C15.493 25.3652 14.6992 25.1868 13.9364 24.9156ZM10.8308 23.166C10.7448 23.0874 10.6934 22.9567 10.6934 22.8163C10.6934 22.6755 10.7448 22.5445 10.8308 22.4659C11.2845 22.0525 12.0253 21.5684 12.8785 21.1593C13.0083 21.3514 13.2031 21.9443 13.2031 22.8159C13.2031 23.7533 12.9947 24.2979 12.878 24.4727C12.025 24.0636 11.2844 23.5794 10.8308 23.166ZM32.7514 7.47076C34.1633 6.30572 34.7848 5.14948 34.5578 4.0601C33.8057 0.45106 24.5103 0.277858 16.1442 1.94674C11.6304 2.84732 7.48965 4.22511 4.48476 5.82614C1.24287 7.55361 -0.292105 9.32401 0.0458613 10.9461C0.0971465 11.1923 0.19414 11.42 0.321923 11.6347V25.2902C0.321923 28.9679 9.38062 30.952 17.904 30.952C26.4273 30.952 35.4862 28.9679 35.4862 25.2902V10.974C35.5047 10.859 35.5148 10.7423 35.5148 10.6238C35.5148 9.37329 34.467 8.31889 32.7514 7.47076ZM1.46409 25.2902V12.7662C4.18276 15.071 11.2074 16.2943 17.904 16.2943C24.6008 16.2943 31.6255 15.0709 34.344 12.7661V25.2902C34.344 27.4396 27.5925 29.8342 17.904 29.8342C8.21577 29.8342 1.46409 27.4396 1.46409 25.2902ZM5.03093 6.80786C5.24646 6.69303 5.47001 6.57978 5.69753 6.46737C8.53994 5.06317 12.2932 3.85594 16.3725 3.04199C19.8583 2.34646 23.0227 2.04426 25.6547 2.04426C30.2025 2.04426 33.1602 2.94702 33.4387 4.28351C33.5927 5.02242 32.9128 5.97023 31.5714 6.95868C31.393 7.09013 31.2038 7.22214 31.0024 7.35466C30.8097 7.48131 30.6064 7.60816 30.3933 7.73506C30.1336 7.88978 29.8617 8.04444 29.5727 8.19838C29.1993 8.39735 28.8069 8.59268 28.3982 8.78412C26.7082 9.5757 24.728 10.2976 22.5714 10.9149C21.1875 11.3111 19.7321 11.6648 18.2311 11.9642C11.9012 13.2272 6.63428 13.1926 3.68825 12.4065C2.99424 12.2213 2.42975 11.9946 2.01022 11.733C1.84579 11.6305 1.70365 11.5228 1.5849 11.4101C1.36069 11.1972 1.21601 10.9676 1.16498 10.7227C1.02711 10.0612 1.55695 9.23209 2.63203 8.35621C3.25584 7.848 4.06207 7.32412 5.03093 6.80786ZM34.3714 10.6365C34.3705 10.7099 34.3604 10.7835 34.344 10.8572C34.1663 11.6565 33.0895 12.4761 31.3016 13.1838C31.9998 12.7014 32.3874 12.1733 32.3874 11.6193C32.3874 11.3003 32.2555 10.9903 32.0139 10.6921C31.6051 10.1878 30.8734 9.71859 29.8789 9.30396C29.9586 9.26261 30.0407 9.22177 30.1189 9.1801C30.7084 8.86602 31.2399 8.55047 31.7155 8.23468C33.4195 8.97245 34.3727 9.81542 34.3727 10.6238C34.3727 10.628 34.3715 10.6323 34.3714 10.6365Z" fill="#D87645"/>
<path d="M13.9364 24.9156C14.2268 24.3601 14.3453 23.5532 14.3453 22.8159C14.3453 22.0787 14.2268 21.272 13.9365 20.7167C14.6994 20.4454 15.4931 20.267 16.2178 20.267C18.0101 20.267 20.1926 21.3048 21.7077 22.1751C21.9121 22.292 22.1683 22.2745 22.3535 22.1297C23.296 21.3928 24.1924 20.8878 24.9542 20.6567C24.8126 21.3604 24.6374 22.3269 24.6345 22.8192C24.6374 23.3075 24.8126 24.2721 24.9542 24.9751C24.1924 24.7441 23.296 24.239 22.3531 23.5025C22.1683 23.3577 21.9121 23.3403 21.7077 23.4571C20.1926 24.3274 18.0101 25.3652 16.2178 25.3652C15.493 25.3652 14.6992 25.1868 13.9364 24.9156Z" fill="#D87645"/>
<path d="M10.8308 23.166C10.7448 23.0874 10.6934 22.9567 10.6934 22.8163C10.6934 22.6755 10.7448 22.5445 10.8308 22.4659C11.2845 22.0525 12.0253 21.5684 12.8785 21.1593C13.0083 21.3514 13.2031 21.9443 13.2031 22.8159C13.2031 23.7533 12.9947 24.2979 12.878 24.4727C12.025 24.0636 11.2844 23.5794 10.8308 23.166Z" fill="#D87645"/>
</svg>
