<svg width="77" height="66" viewBox="0 0 77 66" fill="none" xmlns="http://www.w3.org/2000/svg">
<path d="M56.4875 40.7472C56.2399 40.4608 55.8636 40.3042 55.4849 40.32C52.6605 40.4522 49.6688 42.1982 47.4651 43.827C43.9693 41.8913 39.206 39.7786 35.0702 39.7786C29.964 39.7786 24.2002 42.9386 21.7379 45.1819C21.0489 45.8098 20.6537 46.7312 20.6541 47.7085C20.6541 48.6857 21.0497 49.6064 21.7379 50.2335C24.1994 52.4776 29.9632 55.6375 35.0702 55.6375C39.206 55.6375 43.9693 53.5249 47.4651 51.5892C49.6688 53.2172 52.6613 54.9632 55.4841 55.0962C55.8805 55.1143 56.2399 54.9561 56.4867 54.6689C56.7352 54.3817 56.8324 53.9977 56.7496 53.6303C56.4714 52.3894 55.7478 48.9061 55.7406 47.7148C55.7478 46.5101 56.4714 43.0267 56.7496 41.7859C56.8324 41.4184 56.7352 41.0344 56.4875 40.7472ZM30.1368 52.248C30.7647 51.0469 31.0209 49.302 31.0209 47.7077C31.0209 46.1135 30.7648 44.3691 30.137 43.1682C31.7866 42.5816 33.5029 42.1958 35.0702 42.1958C38.9459 42.1958 43.6654 44.4399 46.9417 46.322C47.3839 46.5746 47.9378 46.5369 48.3382 46.2237C50.3763 44.6303 52.3148 43.5382 53.9622 43.0385C53.6558 44.5603 53.2772 46.6502 53.2707 47.7148C53.2772 48.7707 53.6558 50.8567 53.9622 52.3768C52.3148 51.8772 50.3763 50.7851 48.3374 49.1925C47.9378 48.8793 47.3839 48.8415 46.9417 49.0941C43.6654 50.9763 38.9459 53.2203 35.0702 53.2203C33.5027 53.2203 31.7863 52.8347 30.1368 52.248ZM23.4211 48.4646C23.235 48.2947 23.124 48.0122 23.124 47.7085C23.124 47.404 23.235 47.1207 23.4211 46.9507C24.4022 46.0569 26.0041 45.01 27.8491 44.1254C28.1299 44.5407 28.551 45.8229 28.551 47.7077C28.551 49.7348 28.1004 50.9123 27.8481 51.2904C26.0034 50.4057 24.4019 49.3587 23.4211 48.4646ZM70.8233 14.5246C73.8763 12.0052 75.2202 9.50494 74.7294 7.14922C73.1029 -0.655136 53.0022 -1.02968 34.911 2.5792C25.1501 4.52665 16.196 7.50605 9.69806 10.9682C2.68764 14.7037 -0.631661 18.5322 0.0991727 22.0399C0.210074 22.5723 0.419817 23.0647 0.696141 23.529V53.0583C0.696141 61.0109 20.2851 65.3016 38.7164 65.3016C57.1476 65.3016 76.737 61.0109 76.737 53.0583V22.1003C76.777 21.8515 76.7989 21.5992 76.7989 21.3428C76.7989 18.6387 74.5331 16.3586 70.8233 14.5246ZM3.16602 53.0583V25.9757C9.04501 30.9597 24.2354 33.605 38.7164 33.605C53.1979 33.605 68.3885 30.9596 74.2671 25.9754V53.0583C74.2671 57.7062 59.6673 62.8844 38.7164 62.8844C17.7662 62.8844 3.16602 57.7062 3.16602 53.0583ZM10.8791 13.0911C11.3452 12.8428 11.8286 12.5979 12.3206 12.3548C18.4672 9.31831 26.5834 6.70774 35.4047 4.94762C42.9426 3.44356 49.7854 2.79008 55.4769 2.79008C65.3114 2.79008 71.7072 4.74225 72.3094 7.63234C72.6423 9.23018 71.1721 11.2798 68.2714 13.4172C67.8857 13.7015 67.4767 13.987 67.0409 14.2735C66.6244 14.5474 66.1846 14.8217 65.7239 15.0961C65.1623 15.4307 64.5743 15.7652 63.9494 16.098C63.142 16.5283 62.2934 16.9507 61.4095 17.3647C57.755 19.0764 53.4731 20.6375 48.8095 21.9724C45.8168 22.829 42.6697 23.594 39.4239 24.2415C25.7357 26.9725 14.3463 26.8977 7.97564 25.1979C6.47488 24.7975 5.25421 24.3071 4.347 23.7415C3.99143 23.5198 3.68405 23.2869 3.42727 23.0431C2.94241 22.5827 2.62956 22.0863 2.51921 21.5568C2.22107 20.1263 3.36682 18.3334 5.69163 16.4393C7.04059 15.3404 8.78401 14.2075 10.8791 13.0911ZM74.3264 21.3704C74.3244 21.529 74.3026 21.6882 74.2671 21.8477C73.8827 23.5761 71.5542 25.3484 67.6881 26.8786C69.1979 25.8355 70.036 24.6936 70.036 23.4956C70.036 22.8058 69.7508 22.1354 69.2283 21.4907C68.3443 20.4 66.7621 19.3854 64.6115 18.4888C64.7839 18.3994 64.9615 18.311 65.1305 18.221C66.4054 17.5418 67.5546 16.8594 68.5831 16.1765C72.2678 17.7719 74.329 19.5948 74.329 21.3428C74.329 21.3519 74.3265 21.3612 74.3264 21.3704Z" fill="#D87645"/>
<path d="M30.1368 52.248C30.7647 51.0469 31.0209 49.302 31.0209 47.7077C31.0209 46.1135 30.7648 44.3691 30.137 43.1682C31.7866 42.5816 33.5029 42.1958 35.0702 42.1958C38.9459 42.1958 43.6654 44.4399 46.9417 46.322C47.3839 46.5746 47.9378 46.5369 48.3382 46.2237C50.3763 44.6303 52.3148 43.5382 53.9622 43.0385C53.6558 44.5603 53.2772 46.6502 53.2707 47.7148C53.2772 48.7707 53.6558 50.8567 53.9622 52.3768C52.3148 51.8772 50.3763 50.7851 48.3374 49.1925C47.9378 48.8793 47.3839 48.8415 46.9417 49.0941C43.6654 50.9763 38.9459 53.2203 35.0702 53.2203C33.5027 53.2203 31.7863 52.8347 30.1368 52.248Z" fill="#D87645"/>
<path d="M23.4211 48.4646C23.235 48.2947 23.124 48.0122 23.124 47.7085C23.124 47.404 23.235 47.1207 23.4211 46.9507C24.4022 46.0569 26.0041 45.01 27.8491 44.1254C28.1299 44.5407 28.551 45.8229 28.551 47.7077C28.551 49.7348 28.1004 50.9123 27.8481 51.2904C26.0034 50.4057 24.4019 49.3587 23.4211 48.4646Z" fill="#D87645"/>
</svg>
