<svg width="97" height="82" viewBox="0 0 97 82" fill="none" xmlns="http://www.w3.org/2000/svg">
<path d="M71.3459 50.9869C71.0331 50.6251 70.5579 50.4274 70.0796 50.4472C66.5122 50.6142 62.7336 52.8195 59.9502 54.8767C55.5349 52.4319 49.5187 49.7635 44.295 49.7635C37.8457 49.7635 30.5657 53.7547 27.4558 56.588C26.5856 57.3811 26.0865 58.5449 26.087 59.7792C26.087 61.0135 26.5866 62.1763 27.4558 62.9684C30.5647 65.8027 37.8447 69.7939 44.295 69.7939C49.5187 69.7939 55.5349 67.1255 59.9502 64.6807C62.7336 66.7369 66.5132 68.9422 70.0786 69.1102C70.5792 69.133 71.0331 68.9333 71.3449 68.5705C71.6587 68.2078 71.7816 67.7228 71.677 67.2587C71.3256 65.6914 70.4117 61.2918 70.4025 59.7871C70.4117 58.2656 71.3256 53.866 71.677 52.2987C71.7816 51.8346 71.6587 51.3496 71.3459 50.9869ZM38.0639 65.5128C38.857 63.9958 39.1806 61.7919 39.1806 59.7782C39.1806 57.7647 38.8571 55.5614 38.0642 54.0447C40.1477 53.3037 42.3155 52.8165 44.295 52.8165C49.1902 52.8165 55.151 55.6509 59.2891 58.0281C59.8476 58.3471 60.5473 58.2994 61.053 57.9039C63.6272 55.8914 66.0756 54.512 68.1563 53.8809C67.7694 55.8029 67.2911 58.4425 67.283 59.7871C67.2911 61.1208 67.7694 63.7555 68.1563 65.6755C66.0756 65.0444 63.6272 63.665 61.052 61.6535C60.5473 61.258 59.8476 61.2103 59.2891 61.5293C55.151 63.9065 49.1902 66.7409 44.295 66.7409C42.3152 66.7409 40.1473 66.2538 38.0639 65.5128ZM29.5817 60.7343C29.3467 60.5196 29.2065 60.1628 29.2065 59.7792C29.2065 59.3946 29.3467 59.0368 29.5817 58.8221C30.8209 57.6932 32.8442 56.371 35.1745 55.2537C35.5291 55.7782 36.061 57.3977 36.061 59.7782C36.061 62.3385 35.4919 63.8258 35.1732 64.3032C32.8433 63.1859 30.8205 61.8635 29.5817 60.7343ZM89.4525 17.8667C93.3087 14.6846 95.006 11.5266 94.3862 8.55128C92.3318 -1.30592 66.9438 -1.77898 44.094 2.77918C31.7655 5.23888 20.4561 9.00198 12.249 13.3748C3.3946 18.0929 -0.797813 22.9284 0.125259 27.3588C0.265332 28.0312 0.530245 28.6531 0.879253 29.2396V66.5362C0.879253 76.5807 25.6209 82 48.9002 82C72.1796 82 96.9218 76.5807 96.9218 66.5362V27.435C96.9723 27.1208 97 26.8022 97 26.4783C97 23.063 94.1382 20.1831 89.4525 17.8667ZM3.99881 66.5362V32.3299C11.4242 38.6249 30.6103 41.966 48.9002 41.966C67.191 41.966 86.3772 38.6247 93.8022 32.3295V66.5362C93.8022 72.4067 75.3621 78.947 48.9002 78.947C22.4394 78.947 3.99881 72.4067 3.99881 66.5362ZM13.7408 16.0561C14.3294 15.7425 14.94 15.4332 15.5614 15.1261C23.3247 11.2909 33.5759 7.99368 44.7175 5.77057C54.2381 3.87089 62.8809 3.04552 70.0695 3.04552C82.4908 3.04552 90.569 5.51118 91.3296 9.16148C91.7501 11.1796 89.8931 13.7683 86.2294 16.468C85.7423 16.8271 85.2256 17.1876 84.6753 17.5496C84.1492 17.8955 83.5938 18.2419 83.0118 18.5885C82.3025 19.0111 81.5598 19.4335 80.7706 19.854C79.7508 20.3974 78.679 20.9309 77.5626 21.4538C72.9468 23.6158 67.5386 25.5875 61.6483 27.2735C57.8683 28.3555 53.8934 29.3217 49.7939 30.1395C32.5051 33.5889 18.1199 33.4943 10.0735 31.3474C8.17802 30.8417 6.63627 30.2223 5.49042 29.508C5.04133 29.2279 4.6531 28.9338 4.32878 28.6259C3.71638 28.0444 3.32123 27.4175 3.18186 26.7486C2.8053 24.9418 4.25243 22.6773 7.18875 20.2851C8.89254 18.897 11.0945 17.4661 13.7408 16.0561ZM93.8771 26.5131C93.8746 26.7135 93.8471 26.9145 93.8022 27.116C93.3167 29.2991 90.3757 31.5376 85.4926 33.4703C87.3996 32.1528 88.4582 30.7105 88.4582 29.1974C88.4582 28.3262 88.0979 27.4794 87.438 26.6651C86.3215 25.2875 84.3231 24.006 81.6068 22.8736C81.8245 22.7607 82.0488 22.6491 82.2623 22.5353C83.8726 21.6775 85.324 20.8156 86.6231 19.9531C91.277 21.9682 93.8804 24.2705 93.8804 26.4783C93.8804 26.4898 93.8772 26.5016 93.8771 26.5131Z" fill="#D87645"/>
<path d="M38.0639 65.5128C38.857 63.9958 39.1806 61.7919 39.1806 59.7782C39.1806 57.7647 38.8571 55.5614 38.0642 54.0447C40.1477 53.3037 42.3155 52.8165 44.295 52.8165C49.1902 52.8165 55.151 55.6509 59.2891 58.0281C59.8476 58.3471 60.5473 58.2994 61.053 57.9039C63.6272 55.8914 66.0756 54.512 68.1563 53.8809C67.7694 55.8029 67.2911 58.4425 67.283 59.7871C67.2911 61.1208 67.7694 63.7555 68.1563 65.6755C66.0756 65.0444 63.6272 63.665 61.052 61.6535C60.5473 61.258 59.8476 61.2103 59.2891 61.5293C55.151 63.9065 49.1902 66.7409 44.295 66.7409C42.3152 66.7409 40.1473 66.2538 38.0639 65.5128Z" fill="#D87645"/>
<path d="M29.5817 60.7343C29.3467 60.5196 29.2065 60.1628 29.2065 59.7792C29.2065 59.3946 29.3467 59.0368 29.5817 58.8221C30.8209 57.6932 32.8442 56.371 35.1745 55.2537C35.5291 55.7782 36.061 57.3977 36.061 59.7782C36.061 62.3385 35.4919 63.8258 35.1732 64.3032C32.8433 63.1859 30.8205 61.8635 29.5817 60.7343Z" fill="#D87645"/>
</svg>
