<svg viewBox="0 0 100 100" fill="none" xmlns="http://www.w3.org/2000/svg">
<path d="M73.5525 59.9869C73.2301 59.6251 72.7401 59.4274 72.247 59.4472C68.5693 59.6142 64.6738 61.8195 61.8043 63.8767C57.2525 61.4319 51.0502 58.7635 45.665 58.7635C39.0162 58.7635 31.5111 62.7547 28.305 65.588C27.4078 66.3811 26.8933 67.5449 26.8938 68.7792C26.8938 70.0135 27.4089 71.1763 28.305 71.9684C31.51 74.8027 39.0152 78.7939 45.665 78.7939C51.0502 78.7939 57.2525 76.1255 61.8043 73.6807C64.6738 75.7369 68.5704 77.9422 72.246 78.1102C72.7621 78.133 73.23 77.9333 73.5514 77.5705C73.8749 77.2078 74.0016 76.7228 73.8938 76.2587C73.5316 74.6914 72.5894 70.2918 72.5799 68.7871C72.5894 67.2656 73.5316 62.866 73.8938 61.2987C74.0016 60.8346 73.8749 60.3496 73.5525 59.9869ZM39.2412 74.5128C40.0587 72.9958 40.3923 70.7919 40.3923 68.7782C40.3923 66.7647 40.0588 64.5614 39.2415 63.0447C41.3894 62.3037 43.6242 61.8165 45.665 61.8165C50.7115 61.8165 56.8567 64.6509 61.1228 67.0281C61.6986 67.3471 62.4199 67.2994 62.9412 66.9039C65.5951 64.8914 68.1191 63.512 70.2642 62.8809C69.8654 64.8029 69.3723 67.4425 69.3639 68.7871C69.3723 70.1208 69.8654 72.7555 70.2642 74.6755C68.1191 74.0444 65.5951 72.665 62.9402 70.6535C62.4199 70.258 61.6986 70.2103 61.1228 70.5293C56.8567 72.9065 50.7115 75.7409 45.665 75.7409C43.624 75.7409 41.389 75.2538 39.2412 74.5128ZM30.4966 69.7343C30.2543 69.5196 30.1098 69.1628 30.1098 68.7792C30.1098 68.3946 30.2543 68.0368 30.4966 67.8221C31.7741 66.6932 33.86 65.371 36.2624 64.2537C36.6279 64.7782 37.1763 66.3977 37.1763 68.7782C37.1763 71.3385 36.5896 72.8258 36.261 73.3032C33.8591 72.1859 31.7737 70.8635 30.4966 69.7343ZM92.2191 26.8667C96.1945 23.6846 97.9443 20.5266 97.3053 17.5513C95.1875 7.69408 69.0142 7.22102 45.4577 11.7792C32.748 14.2389 21.0888 18.002 12.6279 22.3748C3.49959 27.0929 -0.822487 31.9284 0.129133 36.3588C0.273538 37.0312 0.546645 37.6531 0.906447 38.2396V75.5362C0.906447 85.5807 26.4133 91 50.4126 91C74.412 91 99.9194 85.5807 99.9194 75.5362V36.435C99.9715 36.1208 100 35.8022 100 35.4783C100 32.063 97.0497 29.1831 92.2191 26.8667ZM4.12248 75.5362V41.3299C11.7775 47.6249 31.557 50.966 50.4126 50.966C69.2691 50.966 89.0487 47.6247 96.7034 41.3295V75.5362C96.7034 81.4067 77.6929 87.947 50.4126 87.947C23.1334 87.947 4.12248 81.4067 4.12248 75.5362ZM14.1657 25.0561C14.7726 24.7425 15.402 24.4332 16.0427 24.1261C24.0461 20.2909 34.6143 16.9937 46.1005 14.7706C55.9156 12.8709 64.8256 12.0455 72.2366 12.0455C85.0421 12.0455 93.3701 14.5112 94.1542 18.1615C94.5877 20.1796 92.6733 22.7683 88.8963 25.468C88.3941 25.8271 87.8615 26.1876 87.2941 26.5496C86.7518 26.8955 86.1791 27.2419 85.5792 27.5885C84.8479 28.0111 84.0823 28.4335 83.2687 28.854C82.2173 29.3974 81.1123 29.9309 79.9614 30.4538C75.2029 32.6158 69.6274 34.5875 63.5549 36.2735C59.6581 37.3555 55.5602 38.3217 51.3339 39.1395C33.5104 42.5889 18.6803 42.4944 10.3851 40.3475C8.43095 39.8417 6.84151 39.2223 5.66023 38.508C5.19724 38.2279 4.79701 37.9338 4.46266 37.6259C3.83132 37.0444 3.42395 36.4175 3.28026 35.7486C2.89206 33.9418 4.38394 31.6773 7.41108 29.2851C9.16756 27.897 11.4377 26.4661 14.1657 25.0561ZM96.7805 35.5131C96.7779 35.7135 96.7495 35.9145 96.7034 36.116C96.2028 38.2991 93.1708 40.5376 88.1367 42.4703C90.1027 41.1528 91.194 39.7105 91.194 38.1974C91.194 37.3262 90.8226 36.4794 90.1423 35.6651C88.9913 34.2875 86.931 33.006 84.1308 31.8736C84.3552 31.7607 84.5864 31.6491 84.8065 31.5353C86.4666 30.6775 87.9629 29.8156 89.3022 28.9531C94.1 30.9682 96.784 33.2705 96.784 35.4783C96.784 35.4898 96.7806 35.5016 96.7805 35.5131Z" fill="#D87645"/>
<path d="M39.2412 74.5128C40.0587 72.9958 40.3923 70.7919 40.3923 68.7782C40.3923 66.7647 40.0588 64.5614 39.2415 63.0447C41.3894 62.3037 43.6242 61.8165 45.665 61.8165C50.7115 61.8165 56.8567 64.6509 61.1228 67.0281C61.6986 67.3471 62.4199 67.2994 62.9412 66.9039C65.5951 64.8914 68.1191 63.512 70.2642 62.8809C69.8654 64.8029 69.3723 67.4425 69.3639 68.7871C69.3723 70.1208 69.8654 72.7555 70.2642 74.6755C68.1191 74.0444 65.5951 72.665 62.9402 70.6535C62.4199 70.258 61.6986 70.2103 61.1228 70.5293C56.8567 72.9065 50.7115 75.7409 45.665 75.7409C43.624 75.7409 41.389 75.2538 39.2412 74.5128Z" fill="#D87645"/>
<path d="M30.4966 69.7343C30.2543 69.5196 30.1098 69.1628 30.1098 68.7792C30.1098 68.3946 30.2543 68.0368 30.4966 67.8221C31.7741 66.6932 33.86 65.371 36.2624 64.2537C36.6279 64.7782 37.1763 66.3977 37.1763 68.7782C37.1763 71.3385 36.5896 72.8258 36.261 73.3032C33.8591 72.1859 31.7737 70.8635 30.4966 69.7343Z" fill="#D87645"/>
</svg>
