<svg width="65" height="75" viewBox="0 0 65 75" fill="none" xmlns="http://www.w3.org/2000/svg">
<path d="M47.0789 70.1177L50.2793 56.8196H14.5146L17.7141 70.1177H47.0789ZM21.0134 8.60519C20.0968 6.29998 18.4378 4.61606 15.8801 4.37266C13.0608 4.10558 13.4635 -0.210307 16.2847 0.0567723C21.0275 0.507587 24.1686 3.87259 25.4654 8.31065C28.3496 9.00392 30.5742 11.3603 31.1163 14.2962C35.8967 14.0794 41.0761 14.2735 45.9007 14.2735C50.7866 14.2735 52.5039 17.952 50.412 22.122C49.6112 23.7188 48.2448 25.434 46.5566 26.9352H50.8873C57.8866 26.9352 61.3138 34.3764 58.0965 39.9624C67.2837 42.7619 65.3452 56.6103 55.6536 56.6103H54.7624L50.908 72.6322C50.747 73.6711 49.8521 74.4686 48.7728 74.4686H16.3111C15.1988 74.4686 14.2182 74.0187 13.9265 72.8036L10.0316 56.6103C-1.12995 56.6103 -2.30153 42.7099 6.69752 39.9624C3.56578 34.5261 6.74363 27.1956 13.5124 26.9427C13.2866 24.1431 15.3616 21.4742 17.3217 19.7145C16.5943 18.5477 16.1727 17.1659 16.1727 15.6866C16.1727 12.5347 18.1225 9.72465 21.0134 8.60519ZM30.6288 18.6794C29.5043 21.2962 27.003 23.0871 24.1414 23.2567C22.919 23.3239 21.7201 23.1061 20.604 22.5984C19.7571 23.2955 17.716 25.3346 17.8148 26.5705C17.8459 26.9835 19.8183 26.5336 20.7602 28.1815C24.8866 35.2866 24.6843 28.6958 29.1166 28.6958C32.7311 28.7659 34.9453 40.2512 38.365 34.2457C39.594 32.1356 39.8067 29.4288 40.2009 27.0081C40.5096 25.0874 45.625 22.0349 46.5613 20.1682C47.2398 18.8177 46.9688 18.6377 45.9007 18.6244C40.8822 18.6244 35.6125 18.2617 30.6288 18.6794ZM23.7075 12.4542C21.9252 12.4542 20.4958 13.8928 20.4958 15.6866C20.4958 17.5987 22.057 18.9806 23.9259 18.9114C25.6188 18.7987 26.9193 17.398 26.9193 15.6866C26.9193 13.9032 25.4804 12.4542 23.7075 12.4542ZM9.14043 52.2594H55.6536C61.1652 52.2594 60.976 43.9487 55.6536 43.9487H9.14043C3.63918 43.9487 3.81515 52.2594 9.14043 52.2594Z" fill="#FFCB09"/>
</svg>
