<svg width="30" height="35" viewBox="0 0 30 35" fill="none" xmlns="http://www.w3.org/2000/svg">
<path d="M21.4428 32.4044L22.9228 26.2548H6.38382L7.86339 32.4044H21.4428ZM9.38909 3.95863C8.96524 2.89261 8.19804 2.11389 7.01525 2.00133C5.71149 1.87783 5.89774 -0.118007 7.20237 0.00550126C9.39562 0.213975 10.8482 1.77009 11.4479 3.82242C12.7817 4.14301 13.8104 5.23268 14.0611 6.59039C16.2717 6.4901 18.6669 6.57988 20.898 6.57988C23.1574 6.57988 23.9516 8.28096 22.9842 10.2093C22.6139 10.9478 21.982 11.7409 21.2013 12.4351H23.2039C26.4407 12.4351 28.0256 15.8763 26.5378 18.4594C30.7863 19.754 29.8899 26.1581 25.4081 26.1581H24.996L23.2135 33.5672C23.1391 34.0477 22.7253 34.4164 22.2261 34.4164H7.21456C6.70019 34.4164 6.24675 34.2084 6.11184 33.6465L4.31068 26.1581C-0.850847 26.1581 -1.39263 19.73 2.76888 18.4594C1.32064 15.9455 2.7902 12.5556 5.92037 12.4386C5.81593 11.144 6.77547 9.90977 7.68193 9.09602C7.34554 8.55644 7.15059 7.91745 7.15059 7.23333C7.15059 5.77577 8.05226 4.47631 9.38909 3.95863ZM13.8356 8.61732C13.3156 9.82744 12.1589 10.6556 10.8356 10.734C10.2703 10.7651 9.71591 10.6644 9.1998 10.4296C8.80814 10.752 7.86426 11.6949 7.90996 12.2665C7.92432 12.4575 8.83643 12.2494 9.27203 13.0115C11.1802 16.2971 11.0867 13.2493 13.1363 13.2493C14.8078 13.2817 15.8318 18.593 17.4132 15.8158C17.9815 14.84 18.0798 13.5883 18.2622 12.4688C18.4049 11.5806 20.7705 10.1691 21.2035 9.30581C21.5172 8.68127 21.3919 8.59805 20.898 8.59192C18.5772 8.59192 16.1403 8.42418 13.8356 8.61732ZM10.635 5.73854C9.81077 5.73854 9.14975 6.40382 9.14975 7.23333C9.14975 8.1176 9.8717 8.7566 10.7359 8.72463C11.5188 8.67251 12.1202 8.02475 12.1202 7.23333C12.1202 6.40864 11.4548 5.73854 10.635 5.73854ZM3.89858 24.146H25.4081C27.9568 24.146 27.8694 20.3028 25.4081 20.3028H3.89858C1.35458 20.3028 1.43596 24.146 3.89858 24.146Z" fill="#FFCB09"/>
</svg>
