<svg viewBox="0 0 100 100" fill="none" xmlns="http://www.w3.org/2000/svg">
<path d="M71.0221 19.7161H62.5577L63.6757 13.2492C63.9951 11.1987 65.7518 9.46372 67.9877 9.14827L83 7.09779L82.0418 0L67.0295 2.05048C61.7592 2.83912 57.6069 6.78233 56.6486 11.8297L55.371 19.7161H20.3956C19.7568 19.7161 19.1179 20.0315 18.6388 20.5047C18.1597 20.9779 18 21.6088 18 22.2398L22.4717 94.0063C22.6315 97.3186 25.5061 100 28.86 100H62.2383C65.5921 100 68.4668 97.3186 68.6265 94.0063L73.0983 22.2398C73.0983 21.6088 72.9386 20.9779 72.4594 20.5047C72.2997 20.0315 71.6609 19.7161 71.0221 19.7161ZM34.9287 79.9685C33.172 79.9685 31.5749 78.5489 31.5749 76.6562C31.5749 74.9211 33.0123 73.3439 34.9287 73.3439C36.8452 73.3439 38.2826 74.7634 38.2826 76.6562C38.1228 78.5489 36.6855 79.9685 34.9287 79.9685ZM34.9287 56.1514C33.172 56.1514 31.5749 54.7319 31.5749 52.8391C31.5749 51.1041 33.0123 49.5268 34.9287 49.5268C36.8452 49.5268 38.2826 50.9464 38.2826 52.8391C38.1228 54.7319 36.6855 56.1514 34.9287 56.1514ZM42.7543 63.5647C41.7961 63.5647 40.9975 62.776 40.9975 61.8297C40.9975 60.8833 41.7961 60.0946 42.7543 60.0946C43.7125 60.0946 44.5111 60.8833 44.5111 61.8297C44.5111 62.776 43.7125 63.5647 42.7543 63.5647ZM51.2187 42.1136H24.0688L22.9509 24.2902H54.4128L51.2187 42.1136ZM67.3489 42.1136H58.4054L61.7592 24.448H68.4668L67.3489 42.1136Z" fill="#1C96D9"/>
</svg>
