<svg width="80" height="94" viewBox="0 0 80 94" fill="none" xmlns="http://www.w3.org/2000/svg">
<path d="M58.5658 88.5046L62.608 71.7086H17.4358L21.4769 88.5046H58.5658ZM25.644 10.812C24.4863 7.90044 22.3909 5.77358 19.1604 5.46615C15.5995 5.12882 16.1082 -0.322306 19.6715 0.0150253C25.6618 0.584421 29.6292 4.83455 31.267 10.44C34.91 11.3156 37.7197 14.2918 38.4043 18C44.4422 17.7261 50.984 17.9713 57.0777 17.9713C63.2487 17.9713 65.4178 22.6174 62.7756 27.8843C61.7642 29.9011 60.0384 32.0675 57.9061 33.9634H63.3759C72.2163 33.9634 76.545 43.3621 72.4814 50.4173C84.0852 53.9533 81.6368 71.4443 69.3959 71.4443H68.2703L63.402 91.6805C63.1988 92.9928 62.0684 94 60.7052 94H19.7048C18.2999 94 17.0614 93.4318 16.693 91.8971L11.7736 71.4443C-2.32388 71.4443 -3.80363 53.8875 7.56252 50.4173C3.60701 43.5511 7.62076 34.2924 16.17 33.973C15.8848 30.437 18.5055 27.0661 20.9813 24.8435C20.0625 23.3698 19.5301 21.6245 19.5301 19.7561C19.5301 15.7751 21.9928 12.2259 25.644 10.812ZM37.7887 23.5361C36.3683 26.8412 33.2091 29.1032 29.5948 29.3174C28.0508 29.4023 26.5366 29.1272 25.127 28.486C24.0573 29.3664 21.4793 31.9419 21.6041 33.5029C21.6433 34.0245 24.1345 33.4563 25.3243 35.5377C30.5361 44.5116 30.2806 36.1872 35.8786 36.1872C40.4439 36.2757 43.2406 50.7822 47.5598 43.197C49.112 40.5318 49.3806 37.1131 49.8786 34.0556C50.2685 31.6296 56.7295 27.7743 57.9121 25.4165C58.769 23.7107 58.4267 23.4835 57.0777 23.4667C50.7391 23.4667 44.0832 23.0086 37.7887 23.5361ZM29.0468 15.6734C26.7957 15.6734 24.9903 17.4904 24.9903 19.7561C24.9903 22.1712 26.9621 23.9165 29.3226 23.8292C31.4608 23.6868 33.1034 21.9176 33.1034 19.7561C33.1034 17.5036 31.2861 15.6734 29.0468 15.6734ZM10.648 65.9489H69.3959C76.3572 65.9489 76.1183 55.4522 69.3959 55.4522H10.648C3.69971 55.4522 3.92197 65.9489 10.648 65.9489Z" fill="#FFCB09"/>
</svg>
