<svg width="15" height="39" viewBox="0 0 15 39" fill="none" xmlns="http://www.w3.org/2000/svg">
<path d="M12.0807 18.1001C10.3291 17.272 9.97879 13.5652 10.0177 11.7118C11.0297 11.5935 11.8471 10.726 11.8471 9.66127V8.8726C11.8471 8.59656 11.6136 8.39939 11.3801 8.39939H8.73322V0.512639C8.73322 0.31547 8.61645 0.118301 8.42183 0.0394338C8.22721 -0.0394338 8.03259 -1.17522e-08 7.87689 0.157735L6.31993 1.77452L6.28101 1.81395C6.24208 1.85339 6.24208 1.89282 6.20316 1.93225C6.20316 1.97169 6.16424 2.01112 6.16424 2.05056C6.16424 2.08999 6.16424 2.08999 6.16424 2.08999V8.35996H3.55632C3.28385 8.35996 3.08923 8.59656 3.08923 8.83316V9.62184C3.08923 10.6866 3.86772 11.5541 4.91867 11.6724C4.95759 13.4864 4.60727 17.2326 2.85569 18.0607C-0.180388 19.4803 -0.024692 23.7786 0.0142321 23.9363V36.9494C0.0142321 38.093 0.94841 39 2.07721 39H12.9759C14.1047 39 15 38.0536 15 36.9494V23.9363C14.9611 23.6603 15.0778 19.5197 12.0807 18.1001ZM7.44873 34.4651C6.12531 34.4651 5.03544 33.361 5.03544 32.0202C5.03544 31.7442 5.07436 31.4681 5.19113 31.1921L7.02057 26.2235C7.09841 26.0263 7.25411 25.908 7.48765 25.908C7.7212 25.908 7.87689 26.0263 7.95474 26.2235L9.78417 31.1921C9.90095 31.4681 9.93987 31.7442 9.93987 32.0202C9.90095 33.361 8.77215 34.4651 7.44873 34.4651ZM1.14303 21.9646C1.4155 20.8605 1.96044 19.5986 3.24493 19.0071C5.69715 17.8635 5.89177 13.3286 5.89177 11.7513H9.08354C9.08354 13.2892 9.27816 17.8241 11.7304 19.0071C12.9759 19.5986 13.5598 20.8605 13.7934 21.9646H1.14303Z" fill="#CE7A39"/>
</svg>
