<svg width="113" height="105" viewBox="0 0 113 105" fill="none" xmlns="http://www.w3.org/2000/svg">
<path d="M76.2463 101.515H24.9331C24.2519 101.515 23.7978 101.065 23.7978 100.391V79.818C23.7978 79.1435 24.2519 78.6938 24.9331 78.6938C25.6142 78.6938 26.0683 79.1435 26.0683 79.818V99.2666H75.2246V67.4518C75.2246 67.227 75.3381 67.0021 75.4516 66.7773C76.2463 65.7655 77.268 64.6413 78.2897 63.5171C79.8791 61.7184 81.582 59.9197 82.1496 58.5707C82.4902 57.5589 82.2631 56.5471 81.4684 55.3105C77.4951 49.8019 62.2827 44.6306 50.1356 44.8555C48.0921 44.8555 45.9352 45.0803 43.7782 45.4176C43.2106 45.53 42.5294 45.0803 42.5294 44.5182C42.4159 43.9561 42.87 43.2816 43.4376 43.2816C45.7081 42.9443 47.9786 42.7195 50.1356 42.7195C63.0774 42.4946 78.8574 48.0032 83.3984 54.1863C84.9877 56.4347 84.8742 58.3458 84.4201 59.47C83.7389 61.2687 82.0361 63.1799 80.1061 65.2034C79.1979 66.1028 78.4033 67.1146 77.6086 67.9015V100.391C77.3815 100.953 76.9274 101.515 76.2463 101.515Z" fill="#CE7A39"/>
<path d="M81.3549 62.955C81.1279 62.955 80.7873 62.8426 80.5602 62.6178C80.1061 62.1681 79.9926 61.4936 80.4467 61.0439L107.693 30.6906C110.644 27.318 111.325 22.8212 109.736 18.5493C108.147 14.3897 104.514 11.5792 99.973 10.9047L83.8525 8.76874C74.4299 7.53212 65.0073 10.455 57.9688 16.863L51.7249 23.3833C51.2708 23.833 50.5897 23.833 50.1356 23.3833C49.6815 22.9336 49.6815 22.2591 50.1356 21.8094L56.493 15.4015C63.9856 8.43148 74.0893 5.28373 84.3066 6.63276L100.427 8.76874C105.763 9.44326 110.077 12.8158 112.007 17.7623C113.937 22.7088 113.028 28.1049 109.509 32.152L82.2631 62.5054C82.0361 62.7302 81.6955 62.955 81.3549 62.955Z" fill="#CE7A39"/>
<path d="M108.601 31.4775V64.1917L76.2463 100.391V67.4518L108.601 31.4775Z" fill="#CE7A39"/>
<path d="M76.2463 101.515C76.1328 101.515 76.0192 101.515 75.7922 101.403C75.3381 101.29 75.111 100.84 75.111 100.391V67.4518C75.111 67.227 75.2246 66.8897 75.4516 66.6649L107.806 30.5782C108.147 30.2409 108.601 30.1285 109.055 30.2409C109.509 30.3533 109.736 30.803 109.736 31.2527V64.0792C109.736 64.3041 109.623 64.6413 109.396 64.8662L77.041 100.953C76.9274 101.403 76.5869 101.515 76.2463 101.515ZM77.3815 67.9015V97.3555L107.466 63.742V34.4004L77.3815 67.9015Z" fill="#CE7A39"/>
<path d="M39.9183 94.2077C39.2372 94.2077 38.7831 93.758 38.7831 93.0835V87.6874C38.7831 87.0128 39.2372 86.5632 39.9183 86.5632C40.5995 86.5632 41.0536 87.0128 41.0536 87.6874V93.0835C41.0536 93.6456 40.5995 94.2077 39.9183 94.2077Z" fill="#CE7A39"/>
<path d="M58.6499 94.2077C57.9688 94.2077 57.5147 93.758 57.5147 93.0835V87.6874C57.5147 87.0128 57.9688 86.5632 58.6499 86.5632C59.3311 86.5632 59.7852 87.0128 59.7852 87.6874V93.0835C59.7852 93.6456 59.3311 94.2077 58.6499 94.2077Z" fill="#CE7A39"/>
<path d="M13.6941 63.0675C12.6724 57.1092 7.67728 53.7366 6.31499 52.9497C5.86089 53.3994 1.31989 58.121 2.34162 64.8662C3.24981 70.8244 7.90433 73.7473 8.58548 74.197C9.49368 73.7473 11.8777 72.1735 13.1265 69.1381C14.2617 66.5525 13.9212 64.3041 13.6941 63.0675Z" fill="#CE7A39"/>
<path d="M8.69901 75.4336L8.13138 75.0964C6.76908 74.197 2.34162 71.0492 1.31989 64.9786C0.184643 57.7837 4.95269 52.7248 5.52031 52.1627L6.20146 51.4882L6.99613 51.9379C9.03958 53.1745 13.8076 56.8844 14.8293 62.8426C15.0564 64.0792 15.5105 66.5525 14.2617 69.4754C13.013 72.6231 10.5154 74.3094 9.26663 75.0964L8.69901 75.4336ZM6.54204 54.4111C5.29326 55.985 2.79571 59.6949 3.59039 64.6413C4.27154 69.1381 7.22318 71.7238 8.81253 72.848C9.94778 72.1735 11.4236 70.8244 12.2183 68.8009C13.1265 66.44 12.7859 64.4165 12.6724 63.4047C11.7642 58.7955 8.47196 55.7602 6.54204 54.4111Z" fill="#CE7A39"/>
<path d="M20.7326 65.7655C25.6142 62.0557 31.5175 62.955 33.1068 63.1799C33.1068 63.8544 33.3339 70.3747 27.8847 74.5343C23.1167 78.2441 17.6675 77.3448 16.8728 77.2323C16.5322 76.2206 15.8511 73.5225 16.9863 70.4872C17.8945 68.0139 19.7109 66.5525 20.7326 65.7655Z" fill="#CE7A39"/>
<path d="M19.2568 78.5814C18.1216 78.5814 17.2134 78.469 16.7593 78.3565L16.0781 78.2441L15.8511 77.5696C15.397 76.1081 14.8293 73.2976 15.9646 70.1499C17.0998 67.227 19.1433 65.6531 20.165 64.8662C25.0466 61.1563 31.0634 61.7184 33.4474 62.0557L34.3556 62.1681V63.0675C34.3556 63.8544 34.4692 70.8244 28.6794 75.3212C25.2736 78.0193 21.6408 78.5814 19.2568 78.5814ZM17.781 76.333C19.5974 76.5578 23.6843 76.5578 27.2036 73.7473C31.1769 70.5996 31.8581 66.2152 31.9716 64.1917C29.4741 63.9668 25.0466 63.9668 21.4138 66.6649C20.5056 67.3394 18.9162 68.576 18.008 70.9368C17.2134 73.0728 17.4404 74.9839 17.781 76.333Z" fill="#CE7A39"/>
<path d="M21.1867 44.0685C20.165 38.1103 15.1699 34.7377 13.8076 33.9508C13.3535 34.288 8.81253 39.0096 9.94778 45.7548C10.856 51.7131 15.5105 54.636 16.1916 55.0857C17.0998 54.636 19.4839 53.0621 20.7326 50.0268C21.7544 47.5535 21.4138 45.1927 21.1867 44.0685Z" fill="#CE7A39"/>
<path d="M16.1916 56.4347L15.624 56.0974C14.2617 55.1981 9.83426 52.0503 8.81253 45.9797C7.67728 38.7848 12.4453 33.7259 13.013 33.1638L13.6941 32.4893L14.4888 32.939C16.5322 34.1756 21.3003 37.8854 22.322 43.8437C22.549 45.0803 23.0031 47.5535 21.7544 50.4764C20.5056 53.6242 18.008 55.3105 16.7593 56.0974L16.1916 56.4347ZM14.0347 35.2998C12.7859 36.8737 10.2884 40.5835 11.083 45.53C11.7642 50.0268 14.7158 52.6124 16.3052 53.7366C17.4404 53.0621 18.9162 51.7131 19.7109 49.6895C20.6191 47.3287 20.2785 45.3051 20.165 44.2934C19.2568 39.7966 15.9646 36.7612 14.0347 35.2998Z" fill="#CE7A39"/>
<path d="M28.2253 46.7666C33.1068 43.0567 39.0101 43.9561 40.5995 44.1809C40.5995 44.8555 40.8265 51.3758 35.3773 55.5353C30.6093 59.2452 25.1601 58.3458 24.3654 58.2334C24.0249 57.2216 23.3437 54.5236 24.479 51.4882C25.3872 48.9026 27.2036 47.5535 28.2253 46.7666Z" fill="#CE7A39"/>
<path d="M26.7495 59.5824C25.6142 59.5824 24.706 59.47 24.2519 59.3576L23.4572 59.2452L23.2302 58.5707C22.7761 57.1092 22.2085 54.2987 23.3437 51.151C24.479 48.2281 26.5224 46.6542 27.5441 45.8672C32.4257 42.1574 38.4425 42.7195 40.8265 43.0567L41.7347 43.1692V44.0685C41.7347 44.8555 41.8483 51.8255 36.0585 56.3223C32.7663 59.0203 29.1335 59.5824 26.7495 59.5824ZM25.2736 57.2216C27.09 57.4465 31.1769 57.4465 34.6962 54.636C38.6696 51.4882 39.3507 47.1039 39.4642 45.0803C36.9667 44.8555 32.5392 44.8555 28.9064 47.5535C27.9982 48.2281 26.4089 49.4647 25.5007 51.8255C24.706 53.9615 24.9331 55.985 25.2736 57.2216Z" fill="#CE7A39"/>
<path d="M28.6794 24.9572C27.6577 18.9989 22.6626 15.6263 21.3003 14.8394C20.8462 15.2891 16.3052 20.0107 17.3269 26.7559C18.2351 32.7141 22.8896 35.637 23.5708 36.0867C24.479 35.637 26.863 34.0632 28.1118 31.0278C29.247 28.4422 28.9064 26.1938 28.6794 24.9572Z" fill="#CE7A39"/>
<path d="M23.6843 37.4358L23.1167 37.0985C21.7544 36.1991 17.3269 33.0514 16.3052 26.9807C15.1699 19.7859 19.938 14.727 20.5056 14.1649L21.1867 13.4904L21.9814 13.94C24.0249 15.1767 28.7929 18.8865 29.8146 24.8448C30.0417 26.0814 30.4958 28.667 29.247 31.4775C27.9982 34.6253 25.5007 36.3116 24.2519 37.0985L23.6843 37.4358ZM21.5273 16.3009C20.2785 17.8747 17.781 21.5846 18.5757 26.5311C19.2568 31.0278 22.2085 33.6135 23.7978 34.7377C24.9331 34.0632 26.4089 32.7141 27.2036 30.6906C28.1118 28.3298 27.7712 26.3062 27.6577 25.2944C26.7495 20.6852 23.4572 17.7623 21.5273 16.3009Z" fill="#CE7A39"/>
<path d="M35.7179 27.7677C40.5995 24.0578 46.5028 24.9572 48.0921 25.182C48.0921 25.8565 48.3192 32.3769 42.87 36.5364C38.1019 40.2463 32.6528 39.3469 31.8581 39.2345C31.5175 38.2227 30.8364 35.5246 31.9716 32.4893C32.8798 29.9036 34.6962 28.4422 35.7179 27.7677Z" fill="#CE7A39"/>
<path d="M34.2421 40.5835C33.1068 40.5835 32.1987 40.4711 31.631 40.3587L30.9499 40.2463L30.7228 39.5717C30.2687 38.1103 29.7011 35.2998 30.8364 32.152C31.9716 29.2291 34.015 27.6552 35.0368 26.8683C39.9183 23.1585 45.9352 23.7206 48.3192 24.0578L49.2274 24.1702V25.0696C49.2274 25.8565 49.3409 32.8266 43.5511 37.3233C40.2589 40.0214 36.6261 40.5835 34.2421 40.5835ZM32.7663 38.2227C34.5827 38.4475 38.556 38.4475 42.1888 35.637C46.1622 32.4893 46.8434 28.1049 46.9569 26.0814C44.4593 25.8565 40.0319 25.8565 36.3991 28.5546C35.4909 29.2291 33.9015 30.4657 32.9933 32.8266C32.1987 34.9625 32.4257 36.9861 32.7663 38.2227Z" fill="#CE7A39"/>
<path d="M43.6647 13.7152C41.0536 20.2355 34.4692 21.8094 34.015 21.9218C33.6745 21.4722 29.9282 15.9636 32.5392 9.33084C35.1503 2.81049 41.7347 1.23662 42.1888 1.1242C42.4159 1.57388 46.1622 7.19486 43.6647 13.7152Z" fill="#CE7A39"/>
<path d="M33.4474 23.1585L32.9933 22.5964C32.5392 21.9218 28.5659 16.076 31.404 8.99358C34.1286 2.02355 41.0536 0.22484 41.8483 0.11242L42.6429 0L43.097 0.562099C43.5511 1.23662 47.5245 7.08244 44.6864 14.1649C41.9618 21.2473 34.9233 22.9336 34.2421 23.046L33.4474 23.1585ZM41.6212 2.47323C39.8048 3.03533 35.3773 4.94647 33.561 9.78051C31.631 14.6146 33.561 18.9989 34.5827 20.5728C36.3991 20.0107 40.8265 18.0996 42.6429 13.2655C44.4593 8.43148 42.5294 4.04711 41.6212 2.47323Z" fill="#CE7A39"/>
<path d="M1.20637 105C1.09284 105 0.979317 105 0.752268 104.888C0.184643 104.663 -0.155931 103.988 0.0711191 103.426L10.2884 77.3448C10.5154 76.7827 11.1966 76.4454 11.7642 76.6702C12.3318 76.8951 12.6724 77.5696 12.4453 78.1317L2.22809 104.213C2.11457 104.663 1.66047 105 1.20637 105Z" fill="#CE7A39"/>
</svg>
