<svg viewBox="0 0 100 100" fill="none" xmlns="http://www.w3.org/2000/svg">
<path d="M100 44.8599C100 28.6975 86.5782 19 64.1593 19C50.7375 19 45.4277 23.4079 40.708 27.2282C38.0531 29.4321 35.6932 31.3422 31.8584 32.5177C27.7286 33.8401 23.4513 34.1339 19.3215 34.5747C11.2094 35.3094 3.39233 36.044 0.737463 43.9783C0.147493 45.7415 5.60442e-07 47.3577 0.147493 49.1209L0 59.7C0 62.9325 1.47493 66.018 4.27729 68.8097C12.0944 76.5971 30.531 81.8866 50.295 81.8866C79.646 81.8866 100 71.4545 100 56.6144L99.8525 46.3292C100 46.0354 100 45.4476 100 44.8599ZM50.295 65.7241C30.531 65.7241 11.5044 59.9938 6.0472 52.3534C4.42478 50.1494 4.12979 47.9455 4.86726 45.5946C6.63717 40.5989 11.3569 39.8642 19.764 39.1296C23.8938 38.6888 28.6136 38.248 33.1858 36.9256C37.9056 35.4563 40.708 33.1054 43.5103 30.7545C47.9351 27.0812 52.2124 23.5549 64.0118 23.5549C84.0708 23.5549 95.4277 31.3422 95.4277 45.0068C95.5752 56.9083 76.5487 65.7241 50.295 65.7241ZM64.1593 28.6975C54.1298 28.6975 51.1799 31.1953 46.9027 34.7216C43.9528 37.0725 40.413 40.1581 34.6608 41.9213C29.4985 43.5375 24.4838 43.9783 20.2065 44.4191C12.3894 45.1538 10.3245 45.7415 9.882 47.3577C9.73451 47.7985 9.58702 48.2393 10.3245 49.4148C14.1593 54.8512 30.531 60.5816 50.295 60.5816C75.0737 60.5816 90.413 52.5003 90.413 45.0068C90.413 30.7545 73.8938 28.6975 64.1593 28.6975ZM71.9764 46.3292C68.4366 46.3292 65.4867 43.9783 65.4867 41.1866C65.4867 38.3949 68.4366 36.044 71.9764 36.044C75.5162 36.044 78.4661 38.3949 78.4661 41.1866C78.4661 43.9783 75.5162 46.3292 71.9764 46.3292Z" fill="#C94044"/>
</svg>
