<svg width="91" height="84" viewBox="0 0 91 84" fill="none" xmlns="http://www.w3.org/2000/svg">
<path d="M61.0373 80.932H20.4105C19.8712 80.932 19.5116 80.576 19.5116 80.0419V63.7536C19.5116 63.2195 19.8712 62.8635 20.4105 62.8635C20.9498 62.8635 21.3093 63.2195 21.3093 63.7536V79.1518H60.2283V53.9628C60.2283 53.7847 60.3182 53.6067 60.4081 53.4287C61.0373 52.6276 61.8462 51.7376 62.6552 50.8475C63.9135 49.4234 65.2617 47.9993 65.7112 46.9312C65.9808 46.1301 65.801 45.329 65.1719 44.35C62.026 39.9886 49.9818 35.8943 40.3643 36.0723C38.7465 36.0723 37.0387 36.2503 35.3309 36.5173C34.8815 36.6063 34.3422 36.2503 34.3422 35.8053C34.2523 35.3602 34.6119 34.8262 35.0613 34.8262C36.8589 34.5592 38.6566 34.3811 40.3643 34.3811C50.6109 34.2031 63.1046 38.5645 66.6999 43.4599C67.9582 45.24 67.8683 46.7532 67.5088 47.6432C66.9695 49.0673 65.6213 50.5805 64.0933 52.1826C63.3742 52.8947 62.745 53.6957 62.1159 54.3188V80.0419C61.9361 80.4869 61.5766 80.932 61.0373 80.932Z" fill="#CE7A39"/>
<path d="M65.082 50.4025C64.9022 50.4025 64.6326 50.3135 64.4528 50.1354C64.0933 49.7794 64.0034 49.2454 64.3629 48.8893L85.9347 24.8574C88.2716 22.1871 88.8109 18.6268 87.5526 15.2446C86.2942 11.9513 83.418 9.72611 79.8227 9.19206L67.0594 7.50092C59.5992 6.52184 52.1389 8.83603 46.5662 13.9095L41.6227 19.0719C41.2632 19.4279 40.7239 19.4279 40.3643 19.0719C40.0048 18.7158 40.0048 18.1818 40.3643 17.8258L45.3978 12.7524C51.33 7.2339 59.3295 4.7417 67.4189 5.80978L80.1822 7.50092C84.4067 8.03497 87.8222 10.7052 89.3502 14.6215C90.8782 18.5378 90.1591 22.8102 87.3728 26.0145L65.801 50.0464C65.6213 50.2244 65.3516 50.4025 65.082 50.4025Z" fill="#CE7A39"/>
<path d="M86.6537 25.4804V51.3815L61.0373 80.0419V53.9628L86.6537 25.4804Z" fill="#CE7A39"/>
<path d="M61.0373 80.932C60.9474 80.932 60.8575 80.932 60.6777 80.843C60.3182 80.754 60.1385 80.3979 60.1385 80.0419V53.9628C60.1385 53.7847 60.2283 53.5177 60.4081 53.3397L86.0246 24.7683C86.2942 24.5013 86.6537 24.4123 87.0133 24.5013C87.3728 24.5903 87.5526 24.9464 87.5526 25.3024V51.2925C87.5526 51.4706 87.4627 51.7376 87.2829 51.9156L61.6665 80.4869C61.5766 80.843 61.3069 80.932 61.0373 80.932ZM61.9361 54.3188V77.6387L85.7549 51.0255V27.7946L61.9361 54.3188Z" fill="#CE7A39"/>
<path d="M32.2749 75.1465C31.7356 75.1465 31.3761 74.7905 31.3761 74.2564V69.9841C31.3761 69.45 31.7356 69.094 32.2749 69.094C32.8142 69.094 33.1738 69.45 33.1738 69.9841V74.2564C33.1738 74.7015 32.8142 75.1465 32.2749 75.1465Z" fill="#CE7A39"/>
<path d="M47.1055 75.1465C46.5662 75.1465 46.2067 74.7905 46.2067 74.2564V69.9841C46.2067 69.45 46.5662 69.094 47.1055 69.094C47.6448 69.094 48.0043 69.45 48.0043 69.9841V74.2564C48.0043 74.7015 47.6448 75.1465 47.1055 75.1465Z" fill="#CE7A39"/>
<path d="M11.5121 50.4915C10.7032 45.7741 6.74835 43.1039 5.66976 42.4808C5.31023 42.8368 1.71493 46.5751 2.52388 51.9156C3.24293 56.633 6.92811 58.9472 7.4674 59.3032C8.18646 58.9472 10.074 57.7011 11.0627 55.2979C11.9615 53.2507 11.6919 51.4706 11.5121 50.4915Z" fill="#CE7A39"/>
<path d="M7.55729 60.2823L7.10787 60.0153C6.02929 59.3032 2.52388 56.811 1.71493 52.0046C0.816111 46.3081 4.59117 42.3028 5.04058 41.8578L5.57988 41.3237L6.20905 41.6797C7.82693 42.6588 11.602 45.5961 12.4109 50.3134C12.5907 51.2925 12.9502 53.2507 11.9615 55.5649C10.9728 58.0571 8.9954 59.3922 8.0067 60.0153L7.55729 60.2823ZM5.84952 43.6379C4.86082 44.884 2.88341 47.8213 3.51258 51.7376C4.05188 55.2979 6.38882 57.345 7.64717 58.2351C8.54599 57.7011 9.71446 56.633 10.3436 55.0308C11.0627 53.1617 10.7931 51.5596 10.7032 50.7585C9.98411 47.1092 7.37752 44.706 5.84952 43.6379Z" fill="#CE7A39"/>
<path d="M17.0848 52.6277C20.9498 49.6904 25.6236 50.4025 26.882 50.5805C26.882 51.1145 27.0618 56.2769 22.7474 59.5702C18.9723 62.5075 14.658 61.7954 14.0288 61.7064C13.7592 60.9053 13.2199 58.7692 14.1187 56.366C14.8378 54.4078 16.2759 53.2507 17.0848 52.6277Z" fill="#CE7A39"/>
<path d="M15.9163 62.7745C15.0175 62.7745 14.2985 62.6855 13.9389 62.5965L13.3996 62.5075L13.2199 61.9734C12.8603 60.8163 12.4109 58.5911 13.3098 56.0989C14.2086 53.7847 15.8265 52.5386 16.6354 51.9156C20.5003 48.9783 25.2641 49.4234 27.1516 49.6904L27.8707 49.7794V50.4915C27.8707 51.1145 27.9606 56.633 23.3766 60.1933C20.6801 62.3295 17.8039 62.7745 15.9163 62.7745ZM14.7479 60.9943C16.186 61.1724 19.4218 61.1724 22.2081 58.9472C25.354 56.455 25.8933 52.9837 25.9832 51.3815C24.0058 51.2035 20.5003 51.2035 17.6241 53.3397C16.905 53.8737 15.6467 54.8528 14.9276 56.722C14.2985 58.4131 14.4782 59.9262 14.7479 60.9943Z" fill="#CE7A39"/>
<path d="M17.4443 35.4492C16.6354 30.7318 12.6806 28.0616 11.602 27.4386C11.2425 27.7056 7.64717 31.4439 8.54599 36.7843C9.26505 41.5017 12.9502 43.8159 13.4895 44.172C14.2086 43.8159 16.0961 42.5698 17.0848 40.1666C17.8938 38.2085 17.6241 36.3393 17.4443 35.4492Z" fill="#CE7A39"/>
<path d="M13.4895 45.24L13.0401 44.973C11.9615 44.261 8.45611 41.7687 7.64717 36.9624C6.74834 31.2659 10.5234 27.2606 10.9728 26.8155L11.5121 26.2815L12.1413 26.6375C13.7592 27.6166 17.5342 30.5538 18.3432 35.2712C18.5229 36.2503 18.8825 38.2085 17.8938 40.5226C16.9051 43.0149 14.9276 44.35 13.9389 44.973L13.4895 45.24ZM11.7818 28.5067C10.7931 29.7528 8.81564 32.69 9.44482 36.6063C9.98411 40.1666 12.3211 42.2138 13.5794 43.1039C14.4782 42.5698 15.6467 41.5017 16.2759 39.8996C16.9949 38.0304 16.7253 36.4283 16.6354 35.6272C15.9163 32.0669 13.3098 29.6638 11.7818 28.5067Z" fill="#CE7A39"/>
<path d="M23.017 37.5854C26.882 34.6482 31.5559 35.3602 32.8142 35.5382C32.8142 36.0723 32.994 41.2347 28.6796 44.528C24.9046 47.4652 20.5902 46.7532 19.9611 46.6642C19.6914 45.8631 19.1521 43.7269 20.0509 41.3237C20.77 39.2765 22.2081 38.2085 23.017 37.5854Z" fill="#CE7A39"/>
<path d="M21.8486 47.7322C20.9498 47.7322 20.2307 47.6432 19.8712 47.5542L19.242 47.4652L19.0622 46.9312C18.7027 45.7741 18.2533 43.5489 19.1521 41.0567C20.0509 38.7425 21.6688 37.4964 22.4778 36.8733C26.3427 33.9361 31.1065 34.3811 32.994 34.6482L33.713 34.7372V35.4492C33.713 36.0723 33.8029 41.5907 29.2189 45.151C26.6123 47.2872 23.7361 47.7322 21.8486 47.7322ZM20.6801 45.8631C22.1182 46.0411 25.354 46.0411 28.1403 43.8159C31.2862 41.3237 31.8255 37.8524 31.9154 36.2503C29.938 36.0723 26.4326 36.0723 23.5563 38.2085C22.8373 38.7425 21.5789 39.7216 20.8599 41.5907C20.2307 43.2819 20.4105 44.884 20.6801 45.8631Z" fill="#CE7A39"/>
<path d="M23.3766 20.318C22.5676 15.6006 18.6128 12.9304 17.5342 12.3073C17.1747 12.6633 13.5794 16.4017 14.3883 21.7421C15.1074 26.4595 18.7926 28.7737 19.3319 29.1297C20.0509 28.7737 21.9385 27.5276 22.9272 25.1244C23.826 23.0772 23.5563 21.2971 23.3766 20.318Z" fill="#CE7A39"/>
<path d="M19.4218 30.1978L18.9723 29.9308C17.8938 29.2187 14.3883 26.7265 13.5794 21.9201C12.6806 16.2236 16.4556 12.2183 16.9051 11.7733L17.4443 11.2392L18.0735 11.5953C19.6914 12.5743 23.4665 15.5116 24.2754 20.229C24.4552 21.2081 24.8147 23.2552 23.826 25.4804C22.8373 27.9726 20.8599 29.3077 19.8712 29.9308L19.4218 30.1978ZM17.714 13.4644C16.7253 14.7105 14.7479 17.6478 15.3771 21.5641C15.9163 25.1244 18.2533 27.1715 19.5116 28.0616C20.4105 27.5276 21.5789 26.4595 22.2081 24.8574C22.9272 22.9882 22.6575 21.3861 22.5676 20.585C21.8486 16.9357 19.242 14.6215 17.714 13.4644Z" fill="#CE7A39"/>
<path d="M28.9493 22.5432C32.8142 19.6059 37.4881 20.318 38.7465 20.496C38.7465 21.03 38.9262 26.1925 34.6119 29.4857C30.8368 32.423 26.5225 31.7109 25.8933 31.6219C25.6236 30.8208 25.0843 28.6847 25.9832 26.2815C26.7022 24.2343 28.1403 23.0772 28.9493 22.5432Z" fill="#CE7A39"/>
<path d="M27.7808 32.69C26.882 32.69 26.1629 32.601 25.7135 32.512L25.1742 32.423L24.9945 31.8889C24.6349 30.7318 24.1855 28.5067 25.0843 26.0145C25.9832 23.7003 27.601 22.4542 28.41 21.8311C32.2749 18.8939 37.0387 19.3389 38.9262 19.6059L39.6453 19.6949V20.407C39.6453 21.03 39.7352 26.5485 35.1512 30.1088C32.5446 32.245 29.6683 32.69 27.7808 32.69ZM26.6123 30.8208C28.0505 30.9989 31.1963 30.9989 34.0726 28.7737C37.2185 26.2815 37.7578 22.8102 37.8476 21.2081C35.8702 21.03 32.3648 21.03 29.4886 23.1662C28.7695 23.7003 27.5112 24.6793 26.7921 26.5485C26.1629 28.2396 26.3427 29.8418 26.6123 30.8208Z" fill="#CE7A39"/>
<path d="M35.241 11.4172C33.1738 16.5797 27.9606 17.8258 27.601 17.9148C27.3314 17.5588 24.3653 13.1974 26.4326 7.94596C28.4999 2.78353 33.713 1.53743 34.0726 1.44842C34.2523 1.80445 37.2185 6.25482 35.241 11.4172Z" fill="#CE7A39"/>
<path d="M27.1516 18.8939L26.7921 18.4488C26.4326 17.9148 23.2867 13.2864 25.5338 7.67894C27.6909 2.16048 33.1738 0.736365 33.8029 0.647357L34.4321 0.55835L34.7916 1.00339C35.1512 1.53743 38.297 6.16581 36.05 11.7733C33.8928 17.3807 28.3201 18.7158 27.7808 18.8049L27.1516 18.8939ZM33.6232 2.51651C32.185 2.96155 28.6796 4.47467 27.2415 8.30199C25.7135 12.1293 27.2415 15.6006 28.0505 16.8467C29.4886 16.4017 32.994 14.8885 34.4321 11.0612C35.8702 7.2339 34.3422 3.76261 33.6232 2.51651Z" fill="#CE7A39"/>
<path d="M1.62505 83.6912C1.53517 83.6912 1.44529 83.6912 1.26552 83.6022C0.816112 83.4242 0.546465 82.8901 0.72623 82.4451L8.81564 61.7954C8.9954 61.3504 9.5347 61.0833 9.98411 61.2614C10.4335 61.4394 10.7032 61.9734 10.5234 62.4185L2.43399 83.0682C2.34411 83.4242 1.98458 83.6912 1.62505 83.6912Z" fill="#CE7A39"/>
</svg>
