<svg width="33" height="30" viewBox="0 0 33 30" fill="none" xmlns="http://www.w3.org/2000/svg">
<path d="M24.1679 16.3354L24.159 16.3195C22.9985 17.0592 20.3844 18.6316 18.5822 19.0139C18.0788 19.1215 17.5556 19.1765 17.027 19.1765C15.0399 19.1765 13.2079 18.4256 11.6443 17.723C11.5451 17.6776 11.3514 17.5958 11.0834 17.4816C6.93013 15.7149 4.19675 14.3573 2.39873 13.2849C2.4647 16.0977 2.55168 22.9659 4.22952 24.4703C5.75484 25.8371 14.9483 30.4208 17.8578 29.9688C20.755 29.5189 30.4964 24.0842 31.0024 20.565C31.17 18.9034 31.1314 14.5787 31.0553 11.9668C29.4128 13.1798 27.1092 14.6062 24.1679 16.3354ZM4.71443 23.8411C4.69342 23.8457 4.67199 23.8469 4.65224 23.8469C4.49215 23.8469 4.3497 23.7339 4.31903 23.5734C3.76773 20.6434 3.532 18.2304 3.532 15.5085C3.532 15.323 3.68369 15.1716 3.8711 15.1716C4.0585 15.1716 4.20977 15.3225 4.20977 15.5085C4.20977 18.1867 4.44172 20.5621 4.98546 23.45C5.01949 23.6314 4.89764 23.8069 4.71443 23.8411ZM6.55826 24.9315C6.51371 24.9498 6.46749 24.959 6.42253 24.959C6.29773 24.959 6.17966 24.8906 6.12377 24.7697C5.86703 24.2147 5.3401 18.017 5.28548 16.4296C5.27834 16.2436 5.42456 16.0881 5.61113 16.0818C5.7914 16.071 5.95401 16.2199 5.96073 16.4054C6.03385 18.5165 6.56624 24.0358 6.74062 24.4945C6.80575 24.6638 6.72591 24.8618 6.55826 24.9315ZM8.07853 25.6203C8.06298 25.6224 8.04743 25.624 8.03357 25.624C7.86633 25.624 7.72094 25.501 7.69741 25.3326C7.57387 24.4178 6.9171 19.0298 6.98812 17.2018C6.99568 17.0167 7.16712 16.8703 7.3394 16.8795C7.52555 16.8866 7.67178 17.0429 7.66421 17.2276C7.60034 18.8892 8.1945 23.9574 8.36846 25.2433C8.39367 25.4272 8.26299 25.5957 8.07853 25.6203ZM9.54501 26.5092C9.53745 26.5092 9.53031 26.5097 9.52274 26.5097C9.34584 26.5097 9.19793 26.3725 9.18616 26.194C9.10801 24.9602 8.7916 19.6223 8.7916 17.9932C8.7916 17.8089 8.94245 17.6575 9.12986 17.6575C9.31727 17.6575 9.46812 17.8085 9.46812 17.9932C9.46812 19.6131 9.79713 25.1328 9.86226 26.1527C9.87403 26.3375 9.73158 26.4967 9.54501 26.5092ZM11.2825 27.043C11.096 27.043 10.9443 26.8933 10.9443 26.7077C10.9443 25.8759 10.4888 19.6819 10.3362 18.7471C10.3068 18.5644 10.4329 18.3918 10.6169 18.3622C10.8014 18.333 10.9758 18.4577 11.0052 18.6403C11.159 19.5889 11.6208 25.8659 11.6208 26.7077C11.6208 26.8933 11.4695 27.043 11.2825 27.043ZM12.8797 27.884C12.6931 27.884 12.5414 27.7343 12.5414 27.5487C12.5414 26.5847 12.2334 20.5834 12.0414 19.6077C12.0057 19.4259 12.1246 19.2503 12.3091 19.2145C12.4927 19.1782 12.6696 19.2983 12.7062 19.4792C12.9209 20.5725 13.218 26.7265 13.218 27.5491C13.218 27.7339 13.0663 27.884 12.8797 27.884ZM14.4756 28.6591C14.4617 28.6612 14.4466 28.6629 14.4327 28.6629C14.2647 28.6629 14.118 28.5378 14.0974 28.3685C13.9953 27.5654 13.7365 21.2242 13.7894 20.2018C13.7995 20.0171 13.9537 19.872 14.1441 19.8837C14.3315 19.8929 14.4756 20.0505 14.4655 20.236C14.4164 21.2009 14.6723 27.5241 14.7693 28.2855C14.792 28.4677 14.6601 28.6358 14.4756 28.6591ZM16.0984 28.8843C15.9114 28.8843 15.7597 28.7346 15.7597 28.5486C15.7597 27.8798 15.6543 25.7245 15.5614 23.8223C15.4841 22.2329 15.4164 20.8586 15.4164 20.4921C15.4164 20.3073 15.5677 20.1564 15.7559 20.1564C15.9425 20.1564 16.0938 20.3069 16.0938 20.4921C16.0938 20.8427 16.1631 22.2733 16.2371 23.7894C16.3308 25.7003 16.4375 27.8635 16.4375 28.5486C16.4375 28.7346 16.2845 28.8843 16.0984 28.8843Z" fill="#6E9E48"/>
<path d="M32.8748 8.15121C32.6752 7.95398 32.3335 7.70756 31.8726 7.42361C31.4297 8.34676 30.7565 9.41627 29.8531 10.6284C29.8388 10.6476 29.8254 10.6655 29.8119 10.6851C29.2779 11.3968 28.7123 12.0911 28.1425 12.739C29.1842 12.0686 30.1889 11.381 31.0108 10.7368C32.1382 9.8545 32.9243 9.05393 32.9958 8.48769C33.013 8.35176 32.9785 8.25545 32.8748 8.15121Z" fill="#6E9E48"/>
<path d="M12.0645 16.8057C13.6445 17.5166 15.3004 18.1692 17.027 18.1692C17.4716 18.1692 17.9187 18.1262 18.3712 18.0299C20.2827 17.6233 23.3636 15.6411 24.0389 15.1958C24.1258 15.1378 24.1754 15.1045 24.1754 15.1045C25.3805 14.2768 27.0626 12.5497 28.5123 10.7126C29.543 9.40501 30.4544 8.04405 30.9906 6.91116C31.0671 6.75188 31.133 6.59719 31.1927 6.4475C31.2604 6.27988 31.3183 6.11809 31.3637 5.96507C31.6327 5.06485 31.5142 4.43357 30.7986 4.30472C30.009 4.16337 28.2253 4.0779 26.9256 3.82397C26.679 3.77602 26.4521 3.72056 26.2504 3.65885C26.1243 3.61965 26.0062 3.57879 25.9033 3.53376C21.8059 1.755 18.2032 0 16.3724 0C16.2198 0 16.077 0.012092 15.9497 0.0375267C13.3537 0.561232 3.6631 6.10642 0.227991 9.24073C-0.554416 9.95415 0.769624 11.1308 2.78573 12.3475C6.12545 14.3631 11.3594 16.488 12.0645 16.8057Z" fill="#6E9E48"/>
</svg>
