<svg width="93" height="92" viewBox="0 0 93 92" fill="none" xmlns="http://www.w3.org/2000/svg">
<path d="M45.8546 81.3203C45.8546 81.3203 45.5188 87.6586 36.8258 87.6586C24.7876 87.6586 13.0824 66.915 13.0824 55.1032C13.0824 43.2904 20.4401 31.7652 30.4714 31.7652C40.5037 31.7652 45.8536 42.137 45.8536 42.137V81.3203H45.8546ZM84.6424 38.3921C71.2661 14.1903 46.1874 31.189 46.1874 31.189C46.1874 31.189 35.4885 26.8679 29.469 26.8679C23.4504 26.8679 5.72852 32.631 5.72852 55.967C5.72852 79.305 27.7989 91.694 37.1596 91.694C46.5203 91.694 46.5232 86.2205 46.5232 86.2205C46.5232 86.2205 46.1874 91.694 58.8961 91.694C71.6029 91.6931 98.0178 62.592 84.6424 38.3921Z" fill="#6E9E48"/>
<path d="M32.2272 57.5872C32.2272 58.482 29.9247 59.2083 27.0858 59.2083C24.2468 59.2083 21.9453 58.482 21.9453 57.5872C21.9453 56.6924 24.2478 55.9661 27.0858 55.9661C29.9237 55.9661 32.2272 56.6924 32.2272 57.5872Z" fill="#6E9E48"/>
<path d="M47.2747 23.7699C47.2747 23.7699 46.5219 3.45727 68.09 0.000976562C70.8507 20.7446 47.2747 23.7699 47.2747 23.7699Z" fill="#6E9E48"/>
<path d="M45.7717 29.8206C45.7717 29.8206 32.4785 8.86012 23.1991 6.91553C20.9416 9.50799 20.4414 11.2376 20.4414 11.2376C20.4414 11.2376 33.9832 15.3427 45.7717 29.8206Z" fill="#6E9E48"/>
<path d="M34.3401 45.6765C33.9416 46.5016 31.4923 46.4096 28.8717 45.4702C26.2491 44.5309 24.4488 43.0996 24.8472 42.2725C25.2466 41.4465 27.695 41.5375 30.3156 42.4778C32.9372 43.4172 34.7395 44.8495 34.3401 45.6765Z" fill="#6E9E48"/>
<path d="M36.8256 69.2372C37.2348 70.0594 35.4522 71.5091 32.8442 72.4737C30.2344 73.4382 27.787 73.5545 27.3778 72.7332C26.9686 71.911 28.7513 70.4603 31.3592 69.4958C33.969 68.5322 36.4154 68.415 36.8256 69.2372Z" fill="#6E9E48"/>
</svg>
