<svg width="75" height="73" viewBox="0 0 75 73" fill="none" xmlns="http://www.w3.org/2000/svg">
<g clip-path="url(#clip0)">
<path d="M37.2548 64.4852C37.2548 64.4852 36.989 69.5035 30.1063 69.5035C20.5753 69.5035 11.3077 53.0799 11.3077 43.728C11.3077 34.3753 17.1332 25.2504 25.0753 25.2504C33.0183 25.2504 37.2541 33.4621 37.2541 33.4621V64.4852H37.2548ZM67.9648 30.4972C57.3742 11.3356 37.5184 24.7941 37.5184 24.7941C37.5184 24.7941 29.0476 21.373 24.2817 21.373C19.5165 21.373 5.48535 25.9358 5.48535 44.4119C5.48535 62.8896 22.9594 72.6985 30.3706 72.6985C37.7819 72.6985 37.7842 68.3649 37.7842 68.3649C37.7842 68.3649 37.5183 72.6985 47.5804 72.6985C57.6408 72.6977 78.5546 49.6572 67.9648 30.4972Z" fill="#6E9E48"/>
<path d="M26.4648 45.6947C26.4648 46.4032 24.6418 46.9782 22.3941 46.9782C20.1464 46.9782 18.3242 46.4032 18.3242 45.6947C18.3242 44.9862 20.1472 44.4112 22.3941 44.4112C24.6411 44.4112 26.4648 44.9862 26.4648 45.6947Z" fill="#6E9E48"/>
<path d="M38.3785 18.9202C38.3785 18.9202 37.7825 2.8378 54.8589 0.101307C57.0446 16.5249 38.3785 18.9202 38.3785 18.9202Z" fill="#6E9E48"/>
<path d="M37.1888 23.7108C37.1888 23.7108 26.6641 7.11546 19.3172 5.57585C17.5299 7.62841 17.1338 8.99781 17.1338 8.99781C17.1338 8.99781 27.8554 12.248 37.1888 23.7108Z" fill="#6E9E48"/>
<path d="M28.1387 36.2646C27.8233 36.9178 25.884 36.845 23.8091 36.1012C21.7327 35.3575 20.3074 34.2243 20.6228 33.5695C20.9391 32.9155 22.8775 32.9875 24.9524 33.732C27.028 34.4758 28.4549 35.6098 28.1387 36.2646Z" fill="#6E9E48"/>
<path d="M30.1056 54.9186C30.4296 55.5695 29.0182 56.7173 26.9534 57.481C24.887 58.2447 22.9494 58.3367 22.6254 57.6865C22.3014 57.0355 23.7128 55.887 25.7776 55.1233C27.844 54.3604 29.7809 54.2676 30.1056 54.9186Z" fill="#6E9E48"/>
</g>
<defs>
<clipPath id="clip0">
<rect width="73.632" height="72.8402" fill="white" transform="translate(0.949219 0.100555)"/>
</clipPath>
</defs>
</svg>
