<svg viewBox="0 0 100 100" fill="none" xmlns="http://www.w3.org/2000/svg">
<path d="M67.4746 92.9465H22.0647C21.4619 92.9465 21.06 92.5525 21.06 91.9615V73.9358C21.06 73.3447 21.4619 72.9507 22.0647 72.9507C22.6674 72.9507 23.0693 73.3447 23.0693 73.9358V90.9764H66.5704V63.1006C66.5704 62.9036 66.6709 62.7066 66.7713 62.5096C67.4746 61.6231 68.3788 60.6381 69.283 59.6531C70.6895 58.0771 72.1964 56.5011 72.6987 55.3191C73.0001 54.4325 72.7992 53.546 72.096 52.4625C68.5797 47.636 55.1175 43.1049 44.3678 43.3019C42.5594 43.3019 40.6506 43.4989 38.7418 43.7944C38.2394 43.8929 37.6367 43.4989 37.6367 43.0064C37.5362 42.5139 37.938 41.9229 38.4404 41.9229C40.4497 41.6274 42.4589 41.4304 44.3678 41.4304C55.8207 41.2334 69.7853 46.06 73.8039 51.4775C75.2104 53.4475 75.1099 55.1221 74.708 56.1071C74.1052 57.6831 72.5983 59.3576 70.8904 61.1306C70.0867 61.9186 69.3834 62.8051 68.6802 63.4946V91.9615C68.4792 92.454 68.0774 92.9465 67.4746 92.9465Z" fill="#CE7A39"/>
<path d="M71.9955 59.1606C71.7946 59.1606 71.4932 59.0621 71.2922 58.8651C70.8904 58.4711 70.7899 57.8801 71.1918 57.4861L95.3033 30.8908C97.9153 27.9358 98.5181 23.9957 97.1116 20.2527C95.7051 16.6081 92.4902 14.1456 88.4717 13.5546L74.2057 11.6831C65.8672 10.5996 57.5286 13.1606 51.2998 18.7752L45.7743 24.4882C45.3724 24.8822 44.7696 24.8822 44.3678 24.4882C43.9659 24.0942 43.9659 23.5032 44.3678 23.1092L49.9938 17.4946C56.6244 11.3876 65.5658 8.62955 74.6076 9.81156L88.8735 11.6831C93.5954 12.2741 97.413 15.2291 99.1209 19.5632C100.829 23.8972 100.025 28.6253 96.9107 32.1713L72.7992 58.7666C72.5983 58.9636 72.2969 59.1606 71.9955 59.1606Z" fill="#CE7A39"/>
<path d="M96.107 31.5803V60.2441L67.4746 91.9615V63.1006L96.107 31.5803Z" fill="#CE7A39"/>
<path d="M67.4746 92.9465C67.3741 92.9465 67.2737 92.9465 67.0727 92.848C66.6709 92.7495 66.47 92.3555 66.47 91.9615V63.1006C66.47 62.9036 66.5704 62.6081 66.7713 62.4111L95.4037 30.7923C95.7051 30.4968 96.107 30.3983 96.5088 30.4968C96.9107 30.5953 97.1116 30.9893 97.1116 31.3833V60.1456C97.1116 60.3426 97.0111 60.6381 96.8102 60.8351L68.1778 92.454C68.0774 92.848 67.776 92.9465 67.4746 92.9465ZM68.4792 63.4946V89.3019L95.1023 59.8501V34.1413L68.4792 63.4946Z" fill="#CE7A39"/>
<path d="M35.326 86.5439C34.7232 86.5439 34.3213 86.1499 34.3213 85.5589V80.8308C34.3213 80.2398 34.7232 79.8458 35.326 79.8458C35.9288 79.8458 36.3306 80.2398 36.3306 80.8308V85.5589C36.3306 86.0514 35.9288 86.5439 35.326 86.5439Z" fill="#CE7A39"/>
<path d="M51.9026 86.5439C51.2998 86.5439 50.898 86.1499 50.898 85.5589V80.8308C50.898 80.2398 51.2998 79.8458 51.9026 79.8458C52.5054 79.8458 52.9073 80.2398 52.9073 80.8308V85.5589C52.9073 86.0514 52.5054 86.5439 51.9026 86.5439Z" fill="#CE7A39"/>
<path d="M12.1187 59.2591C11.2145 54.0385 6.79406 51.0835 5.58848 50.394C5.18662 50.788 1.16805 54.9251 2.07223 60.8351C2.87594 66.0557 6.99499 68.6167 7.59777 69.0107C8.40149 68.6167 10.5112 67.2377 11.6164 64.5782C12.621 62.3126 12.3196 60.3426 12.1187 59.2591Z" fill="#CE7A39"/>
<path d="M7.69824 70.0942L7.19591 69.7987C5.99034 69.0107 2.07223 66.2527 1.16805 60.9336C0.163401 54.6295 4.38291 50.197 4.88523 49.7045L5.48802 49.1135L6.19127 49.5075C7.99963 50.591 12.2191 53.8415 13.1233 59.0621C13.3242 60.1456 13.7261 62.3126 12.621 64.8737C11.5159 67.6317 9.30567 69.1092 8.20056 69.7987L7.69824 70.0942ZM5.78941 51.6745C4.6843 53.0535 2.47408 56.3041 3.17734 60.6381C3.78012 64.5782 6.3922 66.8437 7.7987 67.8287C8.80335 67.2377 10.1094 66.0557 10.8126 64.2827C11.6164 62.2141 11.315 60.4411 11.2145 59.5546C10.4108 55.5161 7.49731 52.8565 5.78941 51.6745Z" fill="#CE7A39"/>
<path d="M18.3475 61.6231C22.6674 58.3726 27.8916 59.1606 29.2981 59.3576C29.2981 59.9486 29.499 65.6617 24.6767 69.3062C20.4572 72.5567 15.6349 71.7687 14.9317 71.6702C14.6303 70.7837 14.0275 68.4197 15.0321 65.7602C15.8359 63.5932 17.4433 62.3126 18.3475 61.6231Z" fill="#CE7A39"/>
<path d="M17.0414 72.8522C16.0368 72.8522 15.2331 72.7538 14.8312 72.6553L14.2284 72.5567L14.0275 71.9657C13.6256 70.6852 13.1233 68.2227 14.128 65.4647C15.1326 62.9036 16.941 61.5246 17.8451 60.8351C22.1651 57.5846 27.4897 58.0771 29.5995 58.3726L30.4032 58.4711V59.2591C30.4032 59.9486 30.5037 66.0557 25.38 69.9957C22.3661 72.3597 19.1512 72.8522 17.0414 72.8522ZM15.7354 70.8822C17.3428 71.0792 20.9595 71.0792 24.0739 68.6167C27.5902 65.8587 28.193 62.0171 28.2935 60.2441C26.0832 60.0471 22.1651 60.0471 18.9503 62.4111C18.1465 63.0021 16.74 64.0857 15.9363 66.1542C15.2331 68.0257 15.434 69.7002 15.7354 70.8822Z" fill="#CE7A39"/>
<path d="M18.7493 42.6124C17.8451 37.3919 13.4247 34.4368 12.2191 33.7473C11.8173 34.0428 7.7987 38.1799 8.80334 44.0899C9.60706 49.3105 13.7261 51.8715 14.3289 52.2655C15.1326 51.8715 17.2424 50.4925 18.3475 47.833C19.2516 45.666 18.9503 43.5974 18.7493 42.6124Z" fill="#CE7A39"/>
<path d="M14.3289 53.4475L13.8266 53.152C12.621 52.364 8.70288 49.606 7.7987 44.2869C6.79406 37.9829 11.0136 33.5503 11.5159 33.0578L12.1187 32.4668L12.8219 32.8608C14.6303 33.9443 18.8498 37.1949 19.754 42.4154C19.9549 43.4989 20.3568 45.666 19.2517 48.227C18.1465 50.985 15.9363 52.4625 14.8312 53.152L14.3289 53.4475ZM12.4201 34.9293C11.315 36.3084 9.10474 39.5589 9.80799 43.8929C10.4108 47.833 13.0229 50.0985 14.4294 51.0835C15.434 50.4925 16.74 49.3105 17.4433 47.5375C18.247 45.469 17.9456 43.6959 17.8451 42.8094C17.0414 38.8694 14.128 36.2099 12.4201 34.9293Z" fill="#CE7A39"/>
<path d="M24.9781 44.9764C29.2981 41.7259 34.5223 42.5139 35.9288 42.7109C35.9288 43.3019 36.1297 49.015 31.3074 52.6595C27.0879 55.9101 22.2656 55.1221 21.5623 55.0236C21.2609 54.137 20.6582 51.773 21.6628 49.1135C22.4665 46.848 24.0739 45.666 24.9781 44.9764Z" fill="#CE7A39"/>
<path d="M23.6721 56.2056C22.6674 56.2056 21.8637 56.1071 21.4619 56.0086L20.7586 55.9101L20.5577 55.3191C20.1558 54.0385 19.6535 51.576 20.6582 48.818C21.6628 46.257 23.4712 44.8779 24.3753 44.1884C28.6953 40.9379 34.0199 41.4304 36.1297 41.7259L36.9334 41.8244V42.6124C36.9334 43.3019 37.0339 49.409 31.9102 53.349C28.9967 55.7131 25.7818 56.2056 23.6721 56.2056ZM22.366 54.137C23.9735 54.334 27.5902 54.334 30.7046 51.8715C34.2209 49.1135 34.8236 45.2719 34.9241 43.4989C32.7139 43.3019 28.7958 43.3019 25.5809 45.666C24.7772 46.257 23.3707 47.3405 22.567 49.409C21.8637 51.2805 22.0647 53.0535 22.366 54.137Z" fill="#CE7A39"/>
<path d="M25.38 25.8672C24.4758 20.6467 20.0554 17.6916 18.8498 17.0021C18.4479 17.3961 14.4294 21.5332 15.3335 27.4433C16.1373 32.6638 20.2563 35.2248 20.8591 35.6188C21.6628 35.2248 23.7726 33.8458 24.8777 31.1863C25.8823 28.9208 25.5809 26.9508 25.38 25.8672Z" fill="#CE7A39"/>
<path d="M20.9595 36.8009L20.4572 36.5054C19.2516 35.7173 15.3335 32.9593 14.4294 27.6403C13.4247 21.3362 17.6442 16.9036 18.1465 16.4111L18.7493 15.8201L19.4526 16.2141C21.2609 17.2976 25.4804 20.5482 26.3846 25.7687C26.5856 26.8523 26.9874 29.1178 25.8823 31.5803C24.7772 34.3383 22.567 35.8158 21.4619 36.5054L20.9595 36.8009ZM19.0507 18.2827C17.9456 19.6617 15.7354 22.9122 16.4386 27.2463C17.0414 31.1863 19.6535 33.4518 21.06 34.4368C22.0647 33.8458 23.3707 32.6638 24.0739 30.8908C24.8777 28.8223 24.5763 27.0492 24.4758 26.1627C23.6721 22.1242 20.7586 19.5632 19.0507 18.2827Z" fill="#CE7A39"/>
<path d="M31.6088 28.3298C35.9288 25.0792 41.1529 25.8672 42.5594 26.0642C42.5594 26.6552 42.7603 32.3683 37.938 36.0128C33.7185 39.2634 28.8962 38.4754 28.193 38.3769C27.8916 37.4904 27.2888 35.1263 28.2935 32.4668C29.0972 30.2013 30.7046 28.9208 31.6088 28.3298Z" fill="#CE7A39"/>
<path d="M30.3027 39.5589C29.2981 39.5589 28.4944 39.4604 27.9921 39.3619L27.3893 39.2634L27.1883 38.6724C26.7865 37.3919 26.2842 34.9293 27.2888 32.1713C28.2935 29.6103 30.1018 28.2313 31.006 27.5418C35.326 24.2912 40.6506 24.7837 42.7603 25.0792L43.5641 25.1777V25.9657C43.5641 26.6552 43.6645 32.7623 38.5408 36.7024C35.6274 39.0664 32.4125 39.5589 30.3027 39.5589ZM28.9967 37.4904C30.6041 37.6874 34.1204 37.6874 37.3353 35.2248C40.8515 32.4668 41.4543 28.6253 41.5548 26.8522C39.3445 26.6552 35.4264 26.6552 32.2116 29.0193C31.4079 29.6103 30.0013 30.6938 29.1976 32.7623C28.4944 34.6338 28.6953 36.4069 28.9967 37.4904Z" fill="#CE7A39"/>
<path d="M38.6413 16.0171C36.3306 21.7302 30.5037 23.1092 30.1018 23.2077C29.8004 22.8137 26.4851 17.9872 28.7958 12.1756C31.1065 6.46253 36.9334 5.08351 37.3353 4.98501C37.5362 5.37901 40.8515 10.3041 38.6413 16.0171Z" fill="#CE7A39"/>
<path d="M29.5995 24.2912L29.1976 23.7987C28.7958 23.2077 25.2795 18.0857 27.7911 11.8801C30.2023 5.77302 36.3306 4.197 37.0339 4.0985L37.7371 4L38.139 4.49251C38.5408 5.08351 42.0571 10.2056 39.5455 16.4111C37.1343 22.6167 30.9055 24.0942 30.3027 24.1927L29.5995 24.2912ZM36.8329 6.16702C35.2255 6.65953 31.3074 8.33405 29.7 12.5696C27.9921 16.8051 29.7 20.6467 30.6041 22.0257C32.2116 21.5332 36.1297 19.8587 37.7371 15.6231C39.3445 11.3876 37.6367 7.54604 36.8329 6.16702Z" fill="#CE7A39"/>
<path d="M1.06758 96C0.967118 96 0.866652 96 0.665724 95.9015C0.163401 95.7045 -0.137992 95.1135 0.0629373 94.621L9.10474 71.7687C9.30567 71.2762 9.90846 70.9807 10.4108 71.1777C10.9131 71.3747 11.2145 71.9657 11.0136 72.4583L1.97176 95.3105C1.8713 95.7045 1.46944 96 1.06758 96Z" fill="#CE7A39"/>
</svg>
