<svg width="40" height="36" viewBox="0 0 40 36" fill="none" xmlns="http://www.w3.org/2000/svg">
<path d="M26.9898 34.8051H8.82586C8.58475 34.8051 8.424 34.651 8.424 34.4197V27.3662C8.424 27.1349 8.58475 26.9807 8.82586 26.9807C9.06698 26.9807 9.22772 27.1349 9.22772 27.3662V34.0343H26.6282V23.1263C26.6282 23.0493 26.6684 22.9722 26.7085 22.8951C26.9898 22.5482 27.3515 22.1627 27.7132 21.7773C28.2758 21.1606 28.8786 20.5439 29.0795 20.0814C29.2001 19.7345 29.1197 19.3876 28.8384 18.9636C27.4319 17.0749 22.047 15.3019 17.7471 15.379C17.0238 15.379 16.2602 15.4561 15.4967 15.5717C15.2958 15.6103 15.0547 15.4561 15.0547 15.2634C15.0145 15.0707 15.1752 14.8394 15.3761 14.8394C16.1799 14.7238 16.9836 14.6467 17.7471 14.6467C22.3283 14.5696 27.9141 16.4582 29.5215 18.5782C30.0841 19.349 30.044 20.0043 29.8832 20.3897C29.6421 21.0064 29.0393 21.6617 28.3562 22.3555C28.0347 22.6638 27.7534 23.0107 27.4721 23.2805V34.4197C27.3917 34.6124 27.231 34.8051 26.9898 34.8051Z" fill="#DFB107"/>
<path d="M28.7982 21.5846C28.7178 21.5846 28.5973 21.546 28.5169 21.469C28.3562 21.3148 28.316 21.0835 28.4767 20.9293L38.1213 10.5225C39.1661 9.36617 39.4072 7.82441 38.8446 6.35974C38.282 4.93362 36.9961 3.97002 35.3887 3.73876L29.6823 3.00642C26.3469 2.58244 23.0114 3.58458 20.5199 5.78158L18.3097 8.01713C18.149 8.17131 17.9079 8.17131 17.7471 8.01713C17.5864 7.86296 17.5864 7.63169 17.7471 7.47752L19.9975 5.28051C22.6498 2.89079 26.2263 1.81156 29.843 2.27409L35.5494 3.00642C37.4381 3.23769 38.9652 4.394 39.6484 6.08994C40.3315 7.78587 40.01 9.63598 38.7643 11.0236L29.1197 21.4304C29.0393 21.5075 28.9188 21.5846 28.7982 21.5846Z" fill="#DFB107"/>
<path d="M38.4428 10.7923V22.0086L26.9898 34.4197V23.1263L38.4428 10.7923Z" fill="#DFB107"/>
<path d="M26.9898 34.8051C26.9497 34.8051 26.9095 34.8051 26.8291 34.7666C26.6684 34.7281 26.588 34.5739 26.588 34.4197V23.1263C26.588 23.0493 26.6282 22.9336 26.7085 22.8565L38.1615 10.4839C38.282 10.3683 38.4428 10.3298 38.6035 10.3683C38.7643 10.4069 38.8446 10.561 38.8446 10.7152V21.97C38.8446 22.0471 38.8045 22.1627 38.7241 22.2398L27.2711 34.6124C27.231 34.7666 27.1104 34.8051 26.9898 34.8051ZM27.3917 23.2805V33.379L38.0409 21.8544V11.7944L27.3917 23.2805Z" fill="#DFB107"/>
<path d="M14.1304 32.2998C13.8893 32.2998 13.7285 32.1456 13.7285 31.9143V30.0642C13.7285 29.833 13.8893 29.6788 14.1304 29.6788C14.3715 29.6788 14.5322 29.833 14.5322 30.0642V31.9143C14.5322 32.1071 14.3715 32.2998 14.1304 32.2998Z" fill="#DFB107"/>
<path d="M20.761 32.2998C20.5199 32.2998 20.3592 32.1456 20.3592 31.9143V30.0642C20.3592 29.833 20.5199 29.6788 20.761 29.6788C21.0022 29.6788 21.1629 29.833 21.1629 30.0642V31.9143C21.1629 32.1071 21.0022 32.2998 20.761 32.2998Z" fill="#DFB107"/>
<path d="M4.84747 21.6231C4.4858 19.5803 2.71762 18.424 2.23539 18.1542C2.07465 18.3084 0.467218 19.9272 0.82889 22.2398C1.15038 24.2827 2.79799 25.2848 3.03911 25.439C3.36059 25.2848 4.2045 24.7452 4.64654 23.7045C5.0484 22.818 4.92784 22.0471 4.84747 21.6231Z" fill="#DFB107"/>
<path d="M3.07929 25.863L2.87837 25.7473C2.39614 25.439 0.82889 24.3597 0.467218 22.2784C0.0653604 19.8116 1.75316 18.0771 1.95409 17.8844L2.19521 17.6531L2.47651 17.8073C3.19985 18.2313 4.88765 19.5032 5.24933 21.546C5.3297 21.97 5.49044 22.818 5.0484 23.8201C4.60635 24.8994 3.72227 25.4775 3.28022 25.7473L3.07929 25.863ZM2.31576 18.6552C1.87372 19.1949 0.989633 20.4668 1.27093 22.1627C1.51205 23.7045 2.55688 24.591 3.11948 24.9764C3.52134 24.7452 4.04375 24.2827 4.32505 23.5889C4.64654 22.7794 4.52598 22.0857 4.4858 21.7388C4.16431 20.1585 2.99892 19.1178 2.31576 18.6552Z" fill="#DFB107"/>
<path d="M7.33899 22.5482C9.06698 21.2762 11.1566 21.5846 11.7192 21.6617C11.7192 21.8929 11.7996 24.1285 9.87069 25.5546C8.18289 26.8266 6.25397 26.5182 5.97267 26.4797C5.85211 26.1328 5.611 25.2077 6.01286 24.167C6.33434 23.3191 6.97732 22.818 7.33899 22.5482Z" fill="#DFB107"/>
<path d="M6.81657 26.9422C6.41472 26.9422 6.09323 26.9036 5.93249 26.8651L5.69137 26.8266L5.611 26.5953C5.45026 26.0942 5.24933 25.1306 5.65118 24.0514C6.05304 23.0493 6.77639 22.5096 7.13806 22.2398C8.86605 20.9679 10.9959 21.1606 11.8398 21.2762L12.1613 21.3148V21.6231C12.1613 21.8929 12.2015 24.2827 10.152 25.8244C8.94642 26.7495 7.66047 26.9422 6.81657 26.9422ZM6.29416 26.1713C6.93713 26.2484 8.38382 26.2484 9.62958 25.2848C11.0361 24.2056 11.2772 22.7024 11.3174 22.0086C10.4333 21.9315 8.86605 21.9315 7.5801 22.8565C7.25862 23.0878 6.69602 23.5118 6.37453 24.3212C6.09323 25.0535 6.1736 25.7088 6.29416 26.1713Z" fill="#DFB107"/>
<path d="M7.49973 15.1092C7.13806 13.0664 5.36988 11.9101 4.88765 11.6403C4.72691 11.7559 3.11948 13.3747 3.52134 15.6874C3.84282 17.7302 5.49044 18.7323 5.73156 18.8865C6.05304 18.7323 6.89694 18.1927 7.33899 17.152C7.70066 16.3041 7.5801 15.4946 7.49973 15.1092Z" fill="#DFB107"/>
<path d="M5.73156 19.349L5.53063 19.2334C5.0484 18.9251 3.48115 17.8458 3.11948 15.7645C2.71762 13.2976 4.40543 11.5632 4.60635 11.3705L4.84747 11.1392L5.12877 11.2934C5.85211 11.7173 7.53992 12.9893 7.90159 15.0321C7.98196 15.4561 8.1427 16.3041 7.70066 17.3062C7.25862 18.3854 6.37453 18.9636 5.93249 19.2334L5.73156 19.349ZM4.96803 12.1028C4.52598 12.6424 3.6419 13.9143 3.9232 15.6103C4.16431 17.152 5.20914 18.0385 5.77174 18.424C6.1736 18.1927 6.69601 17.7302 6.97732 17.0364C7.2988 16.227 7.17824 15.5332 7.13806 15.1863C6.81657 13.6445 5.65119 12.6039 4.96803 12.1028Z" fill="#DFB107"/>
<path d="M9.99125 16.0343C11.7192 14.7623 13.8089 15.0707 14.3715 15.1478C14.3715 15.379 14.4519 17.6146 12.523 19.0407C10.8352 20.3126 8.90623 20.0043 8.62493 19.9657C8.50438 19.6188 8.26326 18.6938 8.66512 17.6531C8.9866 16.7666 9.62958 16.3041 9.99125 16.0343Z" fill="#DFB107"/>
<path d="M9.46883 20.4283C9.06698 20.4283 8.74549 20.3897 8.58475 20.3512L8.30345 20.3126L8.22307 20.0814C8.06233 19.5803 7.8614 18.6167 8.26326 17.5375C8.66512 16.5353 9.38846 15.9957 9.75013 15.7259C11.4781 14.454 13.608 14.6467 14.4519 14.7623L14.7734 14.8009V15.1092C14.7734 15.379 14.8135 17.7687 12.7641 19.3105C11.5987 20.2355 10.3127 20.4283 9.46883 20.4283ZM8.94642 19.6188C9.58939 19.6959 11.0361 19.6959 12.2818 18.7323C13.6883 17.6531 13.9295 16.1499 13.9696 15.4561C13.0856 15.379 11.5183 15.379 10.2324 16.3041C9.91088 16.5353 9.34828 16.9593 9.02679 17.7687C8.74549 18.5011 8.82586 19.1949 8.94642 19.6188Z" fill="#DFB107"/>
<path d="M10.152 8.55675C9.79032 6.51392 8.02215 5.3576 7.53992 5.08779C7.37917 5.24197 5.77174 6.86081 6.13341 9.17345C6.4549 11.2163 8.10252 12.2184 8.34363 12.3726C8.66512 12.2184 9.50902 11.6788 9.95106 10.6381C10.3529 9.75161 10.2324 8.98073 10.152 8.55675Z" fill="#DFB107"/>
<path d="M8.38382 12.8351L8.18289 12.7195C7.70066 12.4111 6.13341 11.3319 5.77174 9.25054C5.36988 6.78373 7.05769 5.04925 7.25862 4.85653L7.49973 4.62527L7.78103 4.77944C8.50437 5.20343 10.1922 6.47538 10.5539 8.5182C10.6342 8.94219 10.795 9.82869 10.3529 10.7923C9.91088 11.8715 9.02679 12.4497 8.58475 12.7195L8.38382 12.8351ZM7.62029 5.58887C7.17824 6.12848 6.29416 7.40043 6.57546 9.09636C6.81657 10.6381 7.8614 11.5246 8.424 11.9101C8.82586 11.6788 9.34828 11.2163 9.62958 10.5225C9.95106 9.71306 9.83051 9.01927 9.79032 8.67238C9.46883 7.09208 8.30345 6.08994 7.62029 5.58887Z" fill="#DFB107"/>
<path d="M12.6435 9.52034C14.3715 8.24839 16.4612 8.55675 17.0238 8.63383C17.0238 8.8651 17.1041 11.1006 15.1752 12.5268C13.4874 13.7987 11.5585 13.4904 11.2772 13.4518C11.1566 13.1049 10.9155 12.1799 11.3174 11.1392C11.6389 10.2527 12.2818 9.75161 12.6435 9.52034Z" fill="#DFB107"/>
<path d="M12.1211 13.9143C11.7192 13.9143 11.3978 13.8758 11.1968 13.8373L10.9557 13.7987L10.8753 13.5675C10.7146 13.0664 10.5137 12.1028 10.9155 11.0236C11.3174 10.0214 12.0407 9.4818 12.4024 9.21199C14.1304 7.94004 16.2602 8.13276 17.1041 8.24839L17.4256 8.28694V8.59529C17.4256 8.8651 17.4658 11.2548 15.4163 12.7966C14.2509 13.7216 12.965 13.9143 12.1211 13.9143ZM11.5987 13.1049C12.2417 13.182 13.6482 13.182 14.9341 12.2184C16.3406 11.1392 16.5817 9.63597 16.6219 8.94218C15.7378 8.8651 14.1706 8.8651 12.8846 9.79015C12.5631 10.0214 12.0005 10.4454 11.6791 11.2548C11.3978 11.9872 11.4781 12.6809 11.5987 13.1049Z" fill="#DFB107"/>
<path d="M15.4565 4.70236C14.5322 6.9379 12.2015 7.47752 12.0407 7.51606C11.9202 7.36188 10.594 5.47323 11.5183 3.19914C12.4426 0.963598 14.7734 0.423983 14.9341 0.385439C15.0145 0.539615 16.3406 2.46681 15.4565 4.70236Z" fill="#DFB107"/>
<path d="M11.8398 7.94004L11.6791 7.74732C11.5183 7.51606 10.1118 5.51178 11.1165 3.08351C12.0809 0.69379 14.5322 0.0770879 14.8135 0.038544L15.0948 0L15.2556 0.192719C15.4163 0.423983 16.8228 2.42827 15.8182 4.85653C14.8537 7.2848 12.3622 7.86296 12.1211 7.9015L11.8398 7.94004ZM14.7332 0.847966C14.0902 1.04069 12.523 1.69593 11.88 3.35332C11.1968 5.01071 11.88 6.51392 12.2417 7.05353C12.8846 6.86081 14.4519 6.20557 15.0948 4.54818C15.7378 2.89079 15.0547 1.38758 14.7332 0.847966Z" fill="#DFB107"/>
<path d="M0.427033 36C0.386847 36 0.346661 36 0.266289 35.9615C0.0653605 35.8844 -0.0551967 35.6531 0.0251749 35.4604L3.6419 26.5182C3.72227 26.3255 3.96338 26.2099 4.16431 26.2869C4.36524 26.364 4.4858 26.5953 4.40543 26.788L0.788705 35.7302C0.748519 35.8844 0.587776 36 0.427033 36Z" fill="#DFB107"/>
</svg>
