<svg width="39" height="79" viewBox="0 0 39 79" fill="none" xmlns="http://www.w3.org/2000/svg">
<path d="M32.287 2.57723V5.83128C32.287 6.94771 31.3733 7.85031 30.2431 7.85031H9.58821C8.47011 7.85031 7.54434 6.94771 7.54434 5.83128V2.57723C7.54434 1.46095 8.47011 0.55835 9.58821 0.55835H30.2431C31.3733 0.55835 32.287 1.46095 32.287 2.57723Z" fill="#DFB107"/>
<path d="M36.4829 20.5458L30.0749 9.92863V6.66269C30.0749 5.99756 29.5338 5.47508 28.8726 5.47508H10.9588C10.2976 5.47508 9.75654 5.99756 9.75654 6.66269V9.92863L3.36048 20.5577C1.76145 23.2062 0.919922 26.2345 0.919922 29.3104V74.6535C0.919922 77.0168 2.86759 78.9408 5.26008 78.9408H34.5834C36.9759 78.9408 38.9235 77.0168 38.9235 74.6535V29.3104C38.9235 26.2345 38.0699 23.1943 36.4829 20.5458ZM36.519 33.5265C36.3987 33.5503 36.2785 33.574 36.1703 33.5621C34.6314 33.5027 33.3811 33.182 32.3351 32.5882C32.0465 32.4219 31.77 32.2438 31.4815 32.0539C30.5678 31.4482 29.5218 30.7592 28.1873 30.6881C26.6604 30.6169 25.4702 31.3768 24.4001 32.0539C23.9312 32.3508 23.4864 32.6239 23.0536 32.8257C21.9355 33.3364 20.589 33.3364 19.4348 32.8257C19.0982 32.6833 18.7374 32.4814 18.3647 32.2557C17.4751 31.7451 16.4772 31.1631 15.2389 31.1394C14.0366 31.1513 13.0387 31.6262 12.1611 32.0776C11.6922 32.3151 11.2594 32.5407 10.8266 32.6714C9.79257 32.9683 8.54224 32.7188 7.35201 32.4457L6.97931 32.3626C5.86122 32.1133 4.61081 31.8519 3.32445 31.9469V29.3104C3.32445 26.6502 4.05782 24.0494 5.42842 21.7691L11.9927 10.8667C12.101 10.6768 12.1611 10.4749 12.1611 10.261V7.85031H27.6703V10.261C27.6703 10.4749 27.7304 10.6887 27.8386 10.8667L34.415 21.7691C35.7856 24.0494 36.519 26.662 36.519 29.3104V33.5265Z" fill="#DFB107"/>
</svg>
