<svg viewBox="0 0 100 100" fill="none" xmlns="http://www.w3.org/2000/svg">
<path d="M87.0868 66.3901C86.8584 57.6271 79.4384 50.528 70.3059 50.528H60.4886C51.4703 50.528 44.0502 57.5162 43.7078 66.3901L42.7945 95.2303C42.7945 97.7815 44.9635 100 47.7032 100H83.0913C85.7169 100 88 97.8925 88 95.2303L87.0868 66.3901Z" fill="#FF842A"/>
<path d="M71.79 44.2053H59.1187V48.8641H71.79V44.2053Z" fill="#FF842A"/>
<path d="M71.6758 40.8776C71.6758 39.9902 70.9909 39.3246 70.0776 39.3246H60.7169C59.8037 39.3246 59.1187 39.9902 59.1187 40.8776V42.8742H71.79V40.8776H71.6758Z" fill="#FF842A"/>
<path d="M82.9772 6.38024C83.7763 2.38698 78.5251 0.279426 74.3014 4.49453C74.3014 4.49453 76.8128 6.93486 77.2694 10.3735C77.3836 10.4844 82.5206 8.93149 82.9772 6.38024Z" fill="#FF842A"/>
<path d="M20.7626 43.0961C20.7626 43.0961 22.1324 36.3297 25.3288 33.3347C27.2694 31.56 36.8584 27.5667 45.6484 24.1281C46.79 23.6844 47.9315 23.2407 48.9589 22.797C52.4977 21.355 55.5799 20.1348 57.863 19.2474C59.8037 18.4709 60.6027 16.2525 59.4612 14.5886C59.4612 14.5886 59.4612 14.5886 59.4612 14.4777C58.7763 13.4794 57.7489 12.9248 56.6073 12.9248C56.1507 12.9248 55.5799 13.0357 55.1233 13.2575C52.9543 14.2558 49.3014 15.9197 45.4201 17.6945H45.3059C37.3151 21.355 27.6119 25.7919 24.0731 27.6776C16.1963 31.56 17.3379 43.0961 17.3379 43.0961H20.7626Z" fill="#FF842A"/>
<path d="M20.8767 49.5296C20.5342 49.1969 19.8493 48.0876 19.621 47.7549L19.3927 47.4221C19.2785 47.2002 18.9361 47.2002 18.8219 47.4221L18.7078 47.7549C18.4795 48.1985 17.7945 49.1969 17.4521 49.5296C14.8265 51.859 13 53.5229 13 56.9615C13 61.7313 16.7671 64.9481 20.9909 63.7279C23.6164 62.9514 25.4429 60.1783 25.4429 56.8506C25.3288 53.6338 23.7306 52.1918 20.8767 49.5296Z" fill="#FF842A"/>
<path d="M46.6758 14.9214C46.5616 11.2609 47.9315 8.37687 50.5571 7.37856C54.4384 5.82562 59.6895 9.48611 62.2009 15.476C64.7123 21.4659 63.5708 27.5667 59.6895 29.1196C56.6073 30.3398 52.8402 28.3432 50.1005 24.5718C49.0731 25.0155 47.9315 25.4591 46.6758 25.9028C50.4429 31.6709 56.4932 34.7768 61.2877 32.891C62.0868 32.5583 62.7717 32.1146 63.3425 31.6709L74.0731 23.3516C76.242 21.6877 77.4977 19.1365 77.4977 16.3634C77.3836 8.59872 73.0457 4.05084 69.621 1.61051C67.4521 0.168502 64.8265 -0.386118 62.2009 0.279425L51.242 2.9416C50.5571 3.05252 49.758 3.16345 49.0731 3.49622C44.7352 5.271 42.5662 10.4844 43.2511 16.4743C44.2785 15.9197 45.5343 15.3651 46.6758 14.9214Z" fill="#FF842A"/>
</svg>
