<svg width="48" height="99" viewBox="0 0 48 99" fill="none" xmlns="http://www.w3.org/2000/svg">
<path d="M39.6178 2.54993V6.65991C39.6178 8.07001 38.4637 9.21002 37.0363 9.21002H10.9484C9.53618 9.21002 8.3669 8.07001 8.3669 6.65991V2.54993C8.3669 1.14001 9.53618 0 10.9484 0H37.0363C38.4637 0 39.6178 1.14001 39.6178 2.54993Z" fill="#DFB107"/>
<path d="M44.9174 25.2449L36.8238 11.835V7.71002C36.8238 6.86993 36.1405 6.21002 35.3053 6.21002H12.6795C11.8443 6.21002 11.161 6.86993 11.161 7.71002V11.835L3.08252 25.2599C1.06288 28.6051 0 32.43 0 36.3149V93.585C0 96.57 2.45997 99 5.48179 99H42.5182C45.54 99 48 96.57 48 93.585V36.3149C48 32.43 46.9218 28.5901 44.9174 25.2449ZM44.963 41.64C44.8111 41.67 44.6593 41.7001 44.5226 41.6851C42.5789 41.61 40.9997 41.205 39.6785 40.455C39.3141 40.2449 38.9649 40.0199 38.6004 39.78C37.4464 39.015 36.1253 38.1449 34.4397 38.055C32.5112 37.9651 31.0079 38.9249 29.6564 39.78C29.0642 40.155 28.5023 40.5 27.9557 40.7549C26.5435 41.4 24.8428 41.4 23.385 40.7549C22.9598 40.5751 22.5042 40.32 22.0335 40.0349C20.9098 39.39 19.6494 38.655 18.0854 38.625C16.5669 38.64 15.3065 39.2399 14.198 39.8101C13.6058 40.11 13.0591 40.3949 12.5125 40.5601C11.2065 40.9351 9.62729 40.6199 8.12398 40.275L7.65324 40.17C6.24104 39.8551 4.66174 39.525 3.03701 39.6449V36.3149C3.03701 32.955 3.96328 29.67 5.6944 26.79L13.9854 13.0199C14.1221 12.78 14.198 12.525 14.198 12.2549V9.21002H33.7868V12.2549C33.7868 12.525 33.8627 12.795 33.9993 13.0199L42.3056 26.79C44.0367 29.67 44.963 32.97 44.963 36.3149V41.64Z" fill="#DFB107"/>
</svg>
