<svg width="51" height="79" viewBox="0 0 51 79" fill="none" xmlns="http://www.w3.org/2000/svg">
<path d="M41.5231 15.8562H35.0277L35.8856 10.8385C36.1307 9.24753 37.4788 7.90132 39.1945 7.65655L50.7147 6.06557L49.9793 0.55835L38.4592 2.14933C34.4149 2.76124 31.2285 5.82081 30.4932 9.73706L29.5127 15.8562H2.67328C2.18306 15.8562 1.69284 16.101 1.32518 16.4681C0.957515 16.8353 0.834961 17.3248 0.834961 17.8143L4.26649 73.4985C4.38904 76.0685 6.59503 78.149 9.16867 78.149H34.7826C37.3562 78.149 39.5622 76.0685 39.6848 73.4985L43.1163 17.8143C43.1163 17.3248 42.9937 16.8353 42.6261 16.4681C42.5035 16.101 42.0133 15.8562 41.5231 15.8562ZM13.8257 62.6064C12.4776 62.6064 11.2521 61.505 11.2521 60.0364C11.2521 58.6902 12.3551 57.4663 13.8257 57.4663C15.2964 57.4663 16.3994 58.5678 16.3994 60.0364C16.2768 61.505 15.1738 62.6064 13.8257 62.6064ZM13.8257 44.1266C12.4776 44.1266 11.2521 43.0252 11.2521 41.5566C11.2521 40.2104 12.3551 38.9865 13.8257 38.9865C15.2964 38.9865 16.3994 40.088 16.3994 41.5566C16.2768 43.0252 15.1738 44.1266 13.8257 44.1266ZM19.8309 49.8786C19.0956 49.8786 18.4828 49.2667 18.4828 48.5324C18.4828 47.7981 19.0956 47.1862 19.8309 47.1862C20.5662 47.1862 21.179 47.7981 21.179 48.5324C21.179 49.2667 20.5662 49.8786 19.8309 49.8786ZM26.3263 33.2345H5.49204L4.63415 19.4053H28.7774L26.3263 33.2345ZM38.7043 33.2345H31.8413L34.4149 19.5277H39.5622L38.7043 33.2345Z" fill="#1C96D9"/>
</svg>
