<svg width="33" height="36" viewBox="0 0 33 36" fill="none" xmlns="http://www.w3.org/2000/svg">
<path d="M15.7504 31.821C15.7504 31.821 15.6205 34.3012 12.2554 34.3012C7.5955 34.3012 3.06443 26.1841 3.06443 21.5621C3.06443 16.9397 5.91259 12.4298 9.79567 12.4298C13.6791 12.4298 15.7501 16.4884 15.7501 16.4884V31.821H15.7504ZM30.7651 15.023C25.5872 5.55271 15.8793 12.2044 15.8793 12.2044C15.8793 12.2044 11.7378 10.5135 9.40763 10.5135C7.07786 10.5135 0.217773 12.7686 0.217773 21.9001C0.217773 31.0324 8.76114 35.8802 12.3846 35.8802C16.0081 35.8802 16.0093 33.7384 16.0093 33.7384C16.0093 33.7384 15.8793 35.8802 20.7988 35.8802C25.7175 35.8799 35.9427 24.4925 30.7651 15.023Z" fill="#1C96D9"/>
<path d="M10.4762 22.5343C10.4762 22.8844 9.58489 23.1686 8.48595 23.1686C7.387 23.1686 6.49609 22.8844 6.49609 22.5343C6.49609 22.1841 7.38738 21.8999 8.48595 21.8999C9.58452 21.8999 10.4762 22.1841 10.4762 22.5343Z" fill="#1C96D9"/>
<path d="M16.3001 9.30137C16.3001 9.30137 16.0087 1.35295 24.3576 0.000488281C25.4263 8.11754 16.3001 9.30137 16.3001 9.30137Z" fill="#1C96D9"/>
<path d="M15.7183 11.6689C15.7183 11.6689 10.5726 3.46698 6.98058 2.70605C6.10673 3.7205 5.91309 4.3973 5.91309 4.3973C5.91309 4.3973 11.1551 6.00366 15.7183 11.6689Z" fill="#1C96D9"/>
<path d="M11.2937 17.8736C11.1395 18.1965 10.1913 18.1605 9.17689 17.7929C8.16168 17.4254 7.4648 16.8653 7.61903 16.5417C7.77364 16.2184 8.72139 16.254 9.73583 16.622C10.7507 16.9896 11.4483 17.55 11.2937 17.8736Z" fill="#1C96D9"/>
<path d="M12.255 27.0928C12.4134 27.4145 11.7234 27.9818 10.7139 28.3592C9.70359 28.7366 8.75622 28.7821 8.59782 28.4608C8.43942 28.139 9.12949 27.5714 10.139 27.1939C11.1493 26.8169 12.0963 26.771 12.255 27.0928Z" fill="#1C96D9"/>
</svg>
