<svg viewBox="0 0 100 100" fill="none" xmlns="http://www.w3.org/2000/svg">
<path d="M76.7924 60.1253C75.7535 55.3236 70.9745 52.6096 66.6111 50.3131C63.7022 48.8518 60.3777 46.9729 60.3777 45.5115C60.3777 44.2589 60.7933 43.0063 61.4166 41.5449C62.04 39.8747 62.8711 37.7871 63.2866 35.2818C63.7022 31.7328 62.2477 27.7662 60.5855 24.8434C61.2089 24.4259 61.8322 23.7996 61.8322 22.9645V2.08768C61.8322 0.835073 61.0011 0 59.7544 0H40.4308C39.1841 0 38.353 0.835073 38.353 2.08768V23.1733C38.353 24.0084 38.7686 24.6347 39.5997 25.0522C37.7297 28.1837 36.483 32.3591 36.8986 35.4906C37.3141 37.9958 38.1452 39.8747 38.7686 41.5449C39.3919 43.215 39.8075 44.4676 40.0153 45.7202C40.0153 46.7641 37.9375 47.8079 35.6519 48.8518C31.4963 50.7307 25.8862 53.4447 23.8084 59.9165C20.6917 69.3111 27.5484 95.6159 28.1718 98.5386C28.3796 99.3737 29.2107 100 30.2496 100H69.1045C70.1434 100 70.9745 99.3737 71.1823 98.3298C71.5979 95.4071 78.2468 67.8497 76.7924 60.1253ZM42.5086 21.0856V19.2067H57.6766V21.0856H42.5086ZM57.6766 4.17536V15.0313H42.5086V4.17536H57.6766ZM67.0267 96.0334H31.4963C29.2107 87.2651 25.2629 67.8497 27.3407 61.1691C29.0029 56.3674 33.1585 54.2798 37.1063 52.6096C40.6386 50.9395 44.1709 49.2693 43.9631 45.5115C43.9631 43.4238 43.132 41.7537 42.5086 39.8747C41.8853 38.4134 41.2619 36.7432 40.8464 34.6555C40.4308 31.9415 42.0931 27.7662 44.1709 25.0522H55.5988C57.4688 27.3486 59.3388 31.524 58.9233 34.6555C58.7155 36.7432 58.0921 38.4134 57.4688 39.8747C56.8455 41.5449 56.0143 43.4238 56.0143 45.3027C56.0143 49.4781 60.1699 51.7745 64.3256 53.8622C68.0656 55.7411 71.8056 57.8288 72.429 60.7516C73.6757 66.3883 69.3123 86.8476 67.0267 96.0334Z" fill="#6E9E48"/>
<path d="M49.3654 60.1253C38.1452 60.1253 29.4185 66.3883 29.4185 74.3215C29.4185 82.2547 38.1452 88.5177 49.3654 88.5177C60.5855 88.5177 69.3123 82.2547 69.3123 74.3215C69.3123 66.3883 60.5855 60.1253 49.3654 60.1253ZM49.3654 83.9248C40.8464 83.9248 33.5741 79.3319 33.5741 73.904C33.5741 68.476 40.8464 63.8831 49.3654 63.8831C57.8844 63.8831 65.1567 68.476 65.1567 73.904C65.1567 79.3319 57.8844 83.9248 49.3654 83.9248Z" fill="#6E9E48"/>
<path fill-rule="evenodd" clip-rule="evenodd" d="M67.0267 96.0334H31.4963C29.2107 87.2651 25.2629 67.8497 27.3407 61.1691C29.0029 56.3674 33.1585 54.2798 37.1063 52.6096C40.6386 50.9395 44.1709 49.2693 43.9631 45.5115C43.9631 43.4238 43.132 41.7537 42.5086 39.8747C41.8853 38.4134 41.2619 36.7432 40.8464 34.6555C40.4308 31.9415 42.0931 27.7662 44.1709 25.0522H55.5988C57.4688 27.3486 59.3388 31.524 58.9233 34.6555C58.7155 36.7432 58.0921 38.4134 57.4688 39.8747C56.8455 41.5449 56.0143 43.4238 56.0143 45.3027C56.0143 49.4781 60.1699 51.7745 64.3256 53.8622C68.0656 55.7411 71.8056 57.8288 72.429 60.7516C73.6757 66.3883 69.3123 86.8476 67.0267 96.0334ZM29.4185 74.3215C29.4185 66.3883 38.1452 60.1253 49.3654 60.1253C60.5855 60.1253 69.3123 66.3883 69.3123 74.3215C69.3123 82.2547 60.5855 88.5177 49.3654 88.5177C38.1452 88.5177 29.4185 82.2547 29.4185 74.3215Z" fill="#6E9E48"/>
</svg>
