<svg width="63" height="98" viewBox="0 0 63 98" fill="none" xmlns="http://www.w3.org/2000/svg">
<path d="M51.3907 19.3218H43.1867L44.2703 12.9842C44.5798 10.9748 46.2826 9.27445 48.4496 8.9653L63 6.95584L62.0712 0L47.5209 2.00947C42.4128 2.78234 38.3882 6.64669 37.4595 11.5931L36.2211 19.3218H2.32187C1.7027 19.3218 1.08354 19.6309 0.619164 20.0946C0.154791 20.5584 0 21.1767 0 21.795L4.33415 92.1262C4.48895 95.3723 7.27519 98 10.5258 98H42.8771C46.1278 98 48.914 95.3723 49.0688 92.1262L53.4029 21.795C53.4029 21.1767 53.2481 20.5584 52.7838 20.0946C52.629 19.6309 52.0098 19.3218 51.3907 19.3218ZM16.4079 78.3691C14.7052 78.3691 13.1572 76.9779 13.1572 75.123C13.1572 73.4227 14.5504 71.877 16.4079 71.877C18.2654 71.877 19.6585 73.2682 19.6585 75.123C19.5037 76.9779 18.1106 78.3691 16.4079 78.3691ZM16.4079 55.0284C14.7052 55.0284 13.1572 53.6372 13.1572 51.7823C13.1572 50.082 14.5504 48.5363 16.4079 48.5363C18.2654 48.5363 19.6585 49.9274 19.6585 51.7823C19.5037 53.6372 18.1106 55.0284 16.4079 55.0284ZM23.9926 62.2934C23.0639 62.2934 22.2899 61.5205 22.2899 60.5931C22.2899 59.6656 23.0639 58.8928 23.9926 58.8928C24.9214 58.8928 25.6953 59.6656 25.6953 60.5931C25.6953 61.5205 24.9214 62.2934 23.9926 62.2934ZM32.1966 41.2713H5.88207L4.79853 23.8044H35.2924L32.1966 41.2713ZM47.8305 41.2713H39.1622L42.4128 23.959H48.914L47.8305 41.2713Z" fill="#1C96D9"/>
</svg>
