<svg width="49" height="91" viewBox="0 0 49 91" fill="none" xmlns="http://www.w3.org/2000/svg">
<path d="M48.3654 54.6557C47.4362 50.3598 43.1621 47.9317 39.2596 45.8771C36.6579 44.5697 33.6846 42.8886 33.6846 41.5812C33.6846 40.4605 34.0562 39.3399 34.6137 38.0324C35.1712 36.5382 35.9146 34.6704 36.2862 32.4291C36.6579 29.2538 35.3571 25.705 33.8704 23.0902C34.4279 22.7166 34.9854 22.1563 34.9854 21.4091V2.73132C34.9854 1.61065 34.2421 0.863541 33.1271 0.863541H15.8446C14.7296 0.863541 13.9862 1.61065 13.9862 2.73132V21.5959C13.9862 22.343 14.3579 22.9034 15.1012 23.2769C13.4287 26.0786 12.3137 29.8142 12.6854 32.6158C13.0571 34.8572 13.8004 36.5382 14.3579 38.0324C14.9154 39.5266 15.2871 40.6473 15.4729 41.768C15.4729 42.7019 13.6146 43.6358 11.5704 44.5696C7.85373 46.2507 2.83623 48.6788 0.977895 54.4689C-1.80961 62.8739 4.3229 86.408 4.8804 89.0229C5.06623 89.77 5.80956 90.3303 6.73873 90.3303H41.4896C42.4188 90.3303 43.1621 89.77 43.3479 88.8361C43.7196 86.2212 49.6662 61.5665 48.3654 54.6557ZM17.7029 19.7281V18.0471H31.2687V19.7281H17.7029ZM31.2687 4.59911V14.3116H17.7029V4.59911H31.2687ZM39.6312 86.7815H7.85373C5.80956 78.9369 2.27873 61.5665 4.13706 55.5896C5.62373 51.2937 9.3404 49.4259 12.8712 47.9317C16.0304 46.4374 19.1896 44.9432 19.0037 41.5812C19.0037 39.7134 18.2604 38.2192 17.7029 36.5382C17.1454 35.2307 16.5879 33.7365 16.2162 31.8687C15.8446 29.4406 17.3312 25.705 19.1896 23.2769H29.4104C31.0829 25.3315 32.7554 29.0671 32.3837 31.8687C32.1979 33.7365 31.6404 35.2307 31.0829 36.5382C30.5254 38.0324 29.7821 39.7134 29.7821 41.3944C29.7821 45.13 33.4987 47.1845 37.2154 49.0523C40.5604 50.7333 43.9054 52.6011 44.4629 55.216C45.5779 60.259 41.6754 78.5633 39.6312 86.7815Z" fill="#6E9E48"/>
<path d="M23.8354 54.6557C13.8004 54.6557 5.9954 60.259 5.9954 67.3566C5.9954 74.4542 13.8004 80.0575 23.8354 80.0575C33.8704 80.0575 41.6754 74.4542 41.6754 67.3566C41.6754 60.259 33.8704 54.6557 23.8354 54.6557ZM23.8354 75.9484C16.2162 75.9484 9.71206 71.8393 9.71206 66.983C9.71206 62.1268 16.2162 58.0177 23.8354 58.0177C31.4546 58.0177 37.9587 62.1268 37.9587 66.983C37.9587 71.8393 31.4546 75.9484 23.8354 75.9484Z" fill="#6E9E48"/>
<path fill-rule="evenodd" clip-rule="evenodd" d="M39.6312 86.7815H7.85373C5.80956 78.9369 2.27873 61.5665 4.13706 55.5896C5.62373 51.2937 9.3404 49.4259 12.8712 47.9317C16.0304 46.4374 19.1896 44.9432 19.0037 41.5812C19.0037 39.7134 18.2604 38.2192 17.7029 36.5382C17.1454 35.2307 16.5879 33.7365 16.2162 31.8687C15.8446 29.4406 17.3312 25.705 19.1896 23.2769H29.4104C31.0829 25.3315 32.7554 29.0671 32.3837 31.8687C32.1979 33.7365 31.6404 35.2307 31.0829 36.5382C30.5254 38.0324 29.7821 39.7134 29.7821 41.3944C29.7821 45.13 33.4987 47.1845 37.2154 49.0523C40.5604 50.7333 43.9054 52.6011 44.4629 55.216C45.5779 60.259 41.6754 78.5633 39.6312 86.7815ZM5.9954 67.3566C5.9954 60.259 13.8004 54.6557 23.8354 54.6557C33.8704 54.6557 41.6754 60.259 41.6754 67.3566C41.6754 74.4542 33.8704 80.0575 23.8354 80.0575C13.8004 80.0575 5.9954 74.4542 5.9954 67.3566Z" fill="#6E9E48"/>
</svg>
