<svg width="19" height="38" viewBox="0 0 19 38" fill="none" xmlns="http://www.w3.org/2000/svg">
<path d="M15.682 0.97876V2.55633C15.682 3.09758 15.2252 3.53516 14.6602 3.53516H4.33373C3.77474 3.53516 3.3119 3.09758 3.3119 2.55633V0.97876C3.3119 0.437581 3.77474 0 4.33373 0H14.6602C15.2252 0 15.682 0.437581 15.682 0.97876Z" fill="#6E9E48"/>
<path d="M17.7798 9.68997L14.5761 4.54274V2.9594C14.5761 2.63694 14.3056 2.38364 13.975 2.38364H5.01897C4.68838 2.38364 4.41789 2.63694 4.41789 2.9594V4.54274L1.22017 9.69574C0.420724 10.9797 0 12.4479 0 13.9391V35.9215C0 37.0673 0.97374 38 2.16988 38H16.8301C18.0263 38 19 37.0673 19 35.9215V13.9391C19 12.4479 18.5732 10.974 17.7798 9.68997ZM17.7978 15.983C17.7377 15.9946 17.6776 16.0061 17.6235 16.0003C16.8542 15.9715 16.229 15.816 15.7061 15.5282C15.5618 15.4475 15.4236 15.3612 15.2793 15.2691C14.8225 14.9755 14.2996 14.6415 13.6324 14.607C12.869 14.5725 12.274 14.9409 11.739 15.2691C11.5046 15.413 11.2822 15.5455 11.0658 15.6433C10.5068 15.8909 9.83359 15.8909 9.25655 15.6433C9.08826 15.5743 8.90791 15.4764 8.72158 15.3669C8.27679 15.1194 7.77789 14.8373 7.1588 14.8258C6.55772 14.8315 6.05882 15.0618 5.62004 15.2806C5.38562 15.3958 5.16924 15.5051 4.95286 15.5685C4.43591 15.7124 3.8108 15.5915 3.21574 15.4591L3.02941 15.4188C2.47041 15.2979 1.84527 15.1712 1.20215 15.2172V13.9391C1.20215 12.6494 1.5688 11.3885 2.25403 10.283L5.53589 4.99754C5.59 4.90547 5.62004 4.80756 5.62004 4.70389V3.53516H13.3739V4.70389C13.3739 4.80756 13.404 4.91123 13.4581 4.99754L16.746 10.283C17.4312 11.3885 17.7978 12.6551 17.7978 13.9391V15.983Z" fill="#6E9E48"/>
</svg>
