<svg viewBox="0 0 100 100" fill="none" xmlns="http://www.w3.org/2000/svg">
<path d="M61.6044 46.4105C57.1671 44.2872 56.2796 34.7826 56.3782 30.0303C58.942 29.727 61.0128 27.5025 61.0128 24.7725V22.7503C61.0128 22.0425 60.4211 21.5369 59.8295 21.5369H53.1242V1.31446C53.1242 0.808898 52.8283 0.303337 52.3353 0.101112C51.8423 -0.101112 51.3492 -3.01338e-08 50.9548 0.404449L47.0105 4.55005L46.9119 4.65116C46.8133 4.75227 46.8133 4.85339 46.7147 4.9545C46.7147 5.05561 46.6161 5.15672 46.6161 5.25784C46.6161 5.35895 46.6161 5.35895 46.6161 5.35895V21.4358H40.0094C39.3191 21.4358 38.8261 22.0425 38.8261 22.6491V24.6714C38.8261 27.4014 40.7982 29.6259 43.4606 29.9292C43.5592 34.5804 42.6718 44.186 38.2344 46.3094C30.543 49.9494 30.9374 60.9707 31.0361 61.3751V94.7422C31.0361 97.6744 33.4026 100 36.2623 100H63.8724C66.732 100 69 97.5733 69 94.7422V61.3751C68.9014 60.6673 69.1972 50.0506 61.6044 46.4105ZM49.8701 88.3721C46.5175 88.3721 43.7564 85.5409 43.7564 82.1031C43.7564 81.3953 43.8551 80.6876 44.1509 79.9798L48.7854 67.2396C48.9826 66.7341 49.3771 66.4307 49.9687 66.4307C50.5604 66.4307 50.9548 66.7341 51.152 67.2396L55.7866 79.9798C56.0824 80.6876 56.181 81.3953 56.181 82.1031C56.0824 85.5409 53.2228 88.3721 49.8701 88.3721ZM33.8957 56.3195C34.5859 53.4884 35.9664 50.2528 39.2205 48.7361C45.4328 45.8038 45.9258 34.1759 45.9258 30.1314H54.0116C54.0116 34.0748 54.5047 45.7027 60.717 48.7361C63.8724 50.2528 65.3515 53.4884 65.9432 56.3195H33.8957Z" fill="#6E9E48"/>
</svg>
