<svg width="61" height="113" viewBox="0 0 61 113" fill="none" xmlns="http://www.w3.org/2000/svg">
<path d="M60.7655 67.9415C59.5919 62.5156 54.1934 59.4488 49.2644 56.8539C45.9784 55.2025 42.223 53.0793 42.223 51.428C42.223 50.0125 42.6924 48.5971 43.3966 46.9457C44.1007 45.0585 45.0396 42.6994 45.509 39.8685C45.9784 35.858 44.3354 31.3758 42.4577 28.0731C43.1618 27.6013 43.866 26.8935 43.866 25.9499V2.35908C43.866 0.943632 42.9271 0 41.5188 0H19.6904C18.2821 0 17.3432 0.943632 17.3432 2.35908V26.1858C17.3432 27.1294 17.8127 27.8372 18.7515 28.309C16.6391 31.8476 15.2308 36.5658 15.7002 40.1044C16.1697 42.9353 17.1085 45.0585 17.8127 46.9457C18.5168 48.833 18.9862 50.2484 19.2209 51.6639C19.2209 52.8434 16.8738 54.023 14.2919 55.2025C9.59764 57.3257 3.26034 60.3925 0.913193 67.7056C-2.60753 78.3215 5.13806 108.046 5.8422 111.349C6.07692 112.292 7.01578 113 8.18935 113H52.081C53.2546 113 54.1935 112.292 54.4282 111.113C54.8976 107.81 62.4085 76.6701 60.7655 67.9415ZM22.0375 23.8267V21.7035H39.1717V23.8267H22.0375ZM39.1717 4.71816V16.9854H22.0375V4.71816H39.1717ZM49.7339 108.518H9.59764C7.01577 98.6096 2.5562 76.6701 4.90334 69.1211C6.78106 63.6952 11.4754 61.3361 15.9349 59.4488C19.9251 57.5616 23.9152 55.6743 23.6805 51.428C23.6805 49.0689 22.7417 47.1816 22.0375 45.0585C21.3334 43.4071 20.6292 41.5198 20.1598 39.1607C19.6904 36.0939 21.5681 31.3758 23.9152 28.309H36.8246C38.937 30.904 41.0494 35.6221 40.58 39.1607C40.3453 41.5198 39.6411 43.4071 38.937 45.0585C38.2328 46.9457 37.294 49.0689 37.294 51.1921C37.294 55.9102 41.9883 58.5052 46.6826 60.8643C50.9074 62.9875 55.1323 65.3465 55.8364 68.6493C57.2447 75.0188 52.3157 98.1378 49.7339 108.518Z" fill="#6E9E48"/>
<path d="M29.7831 67.9415C17.1085 67.9415 7.25049 75.0188 7.25049 83.9833C7.25049 92.9478 17.1085 100.025 29.7831 100.025C42.4577 100.025 52.3157 92.9478 52.3157 83.9833C52.3157 75.0188 42.4577 67.9415 29.7831 67.9415ZM29.7831 94.8351C20.1598 94.8351 11.9448 89.6451 11.9448 83.5115C11.9448 77.3779 20.1598 72.1879 29.7831 72.1879C39.4064 72.1879 47.6214 77.3779 47.6214 83.5115C47.6214 89.6451 39.4064 94.8351 29.7831 94.8351Z" fill="#6E9E48"/>
<path fill-rule="evenodd" clip-rule="evenodd" d="M49.7339 108.518H9.59764C7.01577 98.6096 2.5562 76.6701 4.90334 69.1211C6.78106 63.6952 11.4754 61.3361 15.9349 59.4488C19.9251 57.5616 23.9152 55.6743 23.6805 51.428C23.6805 49.0689 22.7417 47.1816 22.0375 45.0585C21.3334 43.4071 20.6292 41.5198 20.1598 39.1607C19.6904 36.0939 21.5681 31.3758 23.9152 28.309H36.8246C38.937 30.904 41.0494 35.6221 40.58 39.1607C40.3453 41.5198 39.6411 43.4071 38.937 45.0585C38.2328 46.9457 37.294 49.0689 37.294 51.1921C37.294 55.9102 41.9883 58.5052 46.6826 60.8643C50.9074 62.9875 55.1323 65.3465 55.8364 68.6493C57.2447 75.0188 52.3157 98.1378 49.7339 108.518ZM7.25049 83.9833C7.25049 75.0188 17.1085 67.9415 29.7831 67.9415C42.4577 67.9415 52.3157 75.0188 52.3157 83.9833C52.3157 92.9478 42.4577 100.025 29.7831 100.025C17.1085 100.025 7.25049 92.9478 7.25049 83.9833Z" fill="#6E9E48"/>
</svg>
