<svg width="20" height="20" viewBox="0 0 20 20" fill="none" xmlns="http://www.w3.org/2000/svg">
<path d="M5.24266 5.93523L4.33077 6.12305L5.24266 5.93523ZM8.33981 17.4176C7.82562 17.4176 7.40878 17.8344 7.40878 18.3486C7.40878 18.8628 7.82562 19.2796 8.33981 19.2796V17.4176ZM8.38116 19.2796C8.89535 19.2796 9.31218 18.8628 9.31218 18.3486C9.31218 17.8344 8.89535 17.4176 8.38116 17.4176V19.2796ZM15.3095 17.4176C14.7953 17.4176 14.3784 17.8344 14.3784 18.3486C14.3784 18.8628 14.7953 19.2796 15.3095 19.2796V17.4176ZM15.3627 19.2796C15.8769 19.2796 16.2937 18.8628 16.2937 18.3486C16.2937 17.8344 15.8769 17.4176 15.3627 17.4176V19.2796ZM18.275 9.96222L17.4002 9.6435L18.275 9.96222ZM17.4325 12.2747L18.3072 12.5935L17.4325 12.2747ZM0 2.6546H1.93011V0.792547H0V2.6546ZM9.39986 15.1788H14.6137V13.3167H9.39986V15.1788ZM18.3072 12.5935L19.1498 10.2809L17.4002 9.6435L16.5577 11.956L18.3072 12.5935ZM3.95655 4.30618L4.33077 6.12305L6.15454 5.74741L5.78032 3.93054L3.95655 4.30618ZM4.33077 6.12305L5.54965 12.0408L7.37342 11.6651L6.15454 5.74741L4.33077 6.12305ZM15.4563 5.00421H5.24266V6.86626H15.4563V5.00421ZM8.33981 19.2796H8.38116V17.4176H8.33981V19.2796ZM15.3095 19.2796H15.3627V17.4176H15.3095V19.2796ZM19.1498 10.2809C20.084 7.7168 18.1853 5.00421 15.4563 5.00421V6.86626C16.8926 6.86626 17.8919 8.29394 17.4002 9.6435L19.1498 10.2809ZM14.6137 15.1788C16.2658 15.1788 17.7417 14.1458 18.3072 12.5935L16.5577 11.956C16.26 12.773 15.4833 13.3167 14.6137 13.3167V15.1788ZM9.39986 13.3167C8.41807 13.3167 7.57148 12.6267 7.37342 11.6651L5.54965 12.0408C5.92597 13.8678 7.53448 15.1788 9.39986 15.1788V13.3167ZM1.93011 2.6546C2.9119 2.6546 3.75849 3.34459 3.95655 4.30618L5.78032 3.93054C5.404 2.10352 3.79549 0.792547 1.93011 0.792547V2.6546Z" fill="#6E9E48"/>
</svg>
