<svg width="34" height="34" viewBox="0 0 34 34" fill="none" xmlns="http://www.w3.org/2000/svg">
<path fill-rule="evenodd" clip-rule="evenodd" d="M0.515152 21.6364H11.8485C12.133 21.6364 12.3636 21.867 12.3636 22.1515V33.4848C12.3636 33.7694 12.133 34 11.8485 34H0.515152C0.230641 34 0 33.7694 0 33.4848V22.1515C0 21.867 0.230641 21.6364 0.515152 21.6364ZM4.63636 22.6667V26.4695L5.95143 25.812C6.09646 25.7395 6.26717 25.7395 6.4122 25.812L7.72727 26.4695V22.6667H4.63636ZM3.60606 22.6667H1.0303V32.9697H11.3333V22.6667H8.75758V27.303C8.75758 27.686 8.35456 27.935 8.01204 27.7638L6.18182 26.8487L4.3516 27.7638C4.00907 27.935 3.60606 27.686 3.60606 27.303V22.6667ZM27.6201 16.8908C27.4338 17.0364 27.1723 17.0364 26.9859 16.8908C26.9331 16.8495 26.8379 16.7727 26.7064 16.6625C26.4896 16.4807 26.2486 16.2702 25.9894 16.0331C25.2497 15.3564 24.5102 14.6008 23.8188 13.7834C21.8157 11.4154 20.6061 9.01491 20.6061 6.69697C20.6061 2.99834 23.6044 0 27.303 0C31.0017 0 34 2.99834 34 6.69697C34 9.01491 32.7904 11.4154 30.7873 13.7834C30.0959 14.6008 29.3563 15.3564 28.6166 16.0331C28.3574 16.2702 28.1164 16.4807 27.8996 16.6625C27.7682 16.7727 27.673 16.8495 27.6201 16.8908ZM27.9212 15.2728C28.6304 14.6241 29.3397 13.8994 30.0006 13.1181C31.8611 10.9186 32.9697 8.71866 32.9697 6.69697C32.9697 3.56736 30.4326 1.0303 27.303 1.0303C24.1734 1.0303 21.6364 3.56736 21.6364 6.69697C21.6364 8.71866 22.7449 10.9186 24.6054 13.1181C25.2663 13.8994 25.9757 14.6241 26.6848 15.2728C26.9068 15.4759 27.1143 15.6582 27.303 15.8179C27.4917 15.6582 27.6993 15.4759 27.9212 15.2728ZM27.303 9.78788C25.596 9.78788 24.2121 8.40403 24.2121 6.69697C24.2121 4.98991 25.596 3.60606 27.303 3.60606C29.0101 3.60606 30.3939 4.98991 30.3939 6.69697C30.3939 8.40403 29.0101 9.78788 27.303 9.78788ZM27.303 8.75758C28.4411 8.75758 29.3636 7.83501 29.3636 6.69697C29.3636 5.55893 28.4411 4.63636 27.303 4.63636C26.165 4.63636 25.2424 5.55893 25.2424 6.69697C25.2424 7.83501 26.165 8.75758 27.303 8.75758ZM22.1515 16.4848C22.436 16.4848 22.6667 16.7155 22.6667 17C22.6667 17.2845 22.436 17.5152 22.1515 17.5152H20.0931C18.1019 17.5152 16.4848 19.1326 16.4848 21.1212C16.4848 23.113 18.0984 24.7273 20.0891 24.7273H28.3437C30.9018 24.7273 32.9783 26.8062 32.9783 29.3636C32.9783 31.9231 30.8989 34 28.3396 34H17C16.7155 34 16.4848 33.7694 16.4848 33.4848C16.4848 33.2003 16.7155 32.9697 17 32.9697H28.3396C30.3302 32.9697 31.948 31.3538 31.948 29.3636C31.948 27.375 30.3325 25.7576 28.3437 25.7576H20.0891C17.5292 25.7576 15.4545 23.6819 15.4545 21.1212C15.4545 18.5637 17.5329 16.4848 20.0931 16.4848H22.1515Z" fill="#FFA11B"/>
</svg>
