<svg width="43" height="25" viewBox="0 0 43 25" fill="none" xmlns="http://www.w3.org/2000/svg">
<path d="M36.3276 3.79079H31.3233V0H7.50646V5.42227H0V7.00576H9.03556V1.58349H29.7942V20.3935H18.5808C18.1175 19.0019 16.8664 17.9463 15.3373 17.9463C13.8082 17.9463 12.5571 18.9539 12.0937 20.3935H9.03556V18.1862H7.50646V21.977H11.9547C12.1864 23.7044 13.6228 25 15.3373 25C17.0517 25 18.4881 23.7044 18.7198 21.977H32.667C32.8987 23.7044 34.3351 25 36.0496 25C37.764 25 39.2004 23.7044 39.4321 21.977H43V11.5643C42.861 6.86181 40.3125 3.79079 36.3276 3.79079ZM15.2909 23.4645C14.2716 23.4645 13.4375 22.6008 13.4375 21.5451C13.4375 20.4894 14.2716 19.6257 15.2909 19.6257C16.3103 19.6257 17.1444 20.4894 17.1444 21.5451C17.1444 22.6008 16.3103 23.4645 15.2909 23.4645ZM35.9569 23.4645C34.9375 23.4645 34.1035 22.6008 34.1035 21.5451C34.1035 20.4894 34.9375 19.6257 35.9569 19.6257C36.9763 19.6257 37.8103 20.4894 37.8103 21.5451C37.8103 22.6008 36.9763 23.4645 35.9569 23.4645ZM41.3319 20.4415H39.2004C38.7371 19.0499 37.486 17.9942 35.9569 17.9942C34.4741 17.9942 33.1767 19.0019 32.7134 20.4415H31.2769V5.37429H36.2812C39.3858 5.37429 41.2856 7.77352 41.2856 11.6123V20.4415H41.3319ZM1.15841 11.8042V10.2207H7.46013V8.58925H8.98922V11.8042H1.15841ZM2.27047 16.6027V15.0192H7.46013V13.3877H8.98922V16.6027H2.27047Z" fill="#FFA11B"/>
</svg>
