<svg width="54" height="29" viewBox="0 0 54 29" fill="none" xmlns="http://www.w3.org/2000/svg">
<path d="M53.8973 8.88145L50.5018 4.99112H41.0088V0H15.2317V4.25752H3.14844V5.4319H15.2317V14.0934H8.93345V15.2677H15.2317V24.3692H17.9273C18.2187 26.6397 20.1387 28.4059 22.4813 28.4059C24.8246 28.4059 26.7447 26.6397 27.0352 24.3692H39.8371H41.0088H42.8616C43.1537 26.6397 45.073 28.4059 47.4163 28.4059C49.7589 28.4059 51.6789 26.6397 51.9703 24.3692H53.8973V8.88145ZM52.7256 9.32223V12.7718H46.7204V6.1655H49.9698L52.7256 9.32223ZM22.4813 27.2315C20.5839 27.2315 19.0396 25.6845 19.0396 23.782C19.0396 21.8795 20.5847 20.3324 22.4813 20.3324C24.3794 20.3324 25.9229 21.8803 25.9229 23.782C25.9237 25.6845 24.3794 27.2315 22.4813 27.2315ZM39.8371 23.194H27.0587C27.0501 23.1314 27.0282 23.0742 27.0173 23.0124C26.9962 22.8824 26.9657 22.7579 26.9337 22.6319C26.8923 22.4729 26.8462 22.3171 26.7876 22.1621C26.7423 22.0431 26.6939 21.9273 26.64 21.8129C26.5697 21.6658 26.4931 21.524 26.408 21.3863C26.3432 21.2798 26.2775 21.1749 26.2041 21.0747C26.108 20.9423 26.0034 20.8186 25.8948 20.6989C25.8128 20.608 25.7323 20.5164 25.6433 20.4319C25.523 20.3176 25.3933 20.2166 25.2605 20.1156C25.166 20.0428 25.0762 19.9684 24.9754 19.9034C24.8286 19.8095 24.6739 19.7319 24.5177 19.6544C24.4161 19.6043 24.3193 19.5472 24.2138 19.5033C24.0349 19.4313 23.8459 19.3812 23.6569 19.3303C23.5623 19.3053 23.4741 19.2692 23.378 19.2497C23.0874 19.1925 22.789 19.1588 22.4828 19.1588C22.1766 19.1588 21.879 19.1925 21.5884 19.2497C21.4916 19.2685 21.4025 19.3045 21.3088 19.3303C21.119 19.3804 20.9315 19.4313 20.7519 19.5033C20.6464 19.548 20.5496 19.6043 20.4488 19.6544C20.2918 19.7327 20.1371 19.8095 19.991 19.9034C19.8903 19.9692 19.7997 20.0435 19.7044 20.1156C19.5724 20.2166 19.4427 20.3184 19.3224 20.4319C19.2334 20.5156 19.1529 20.608 19.0717 20.6989C18.9615 20.8186 18.8576 20.9431 18.7616 21.0747C18.6881 21.1756 18.6233 21.2806 18.5577 21.3863C18.4733 21.524 18.396 21.665 18.3257 21.8129C18.2718 21.9273 18.2218 22.0431 18.1781 22.1621C18.1203 22.3164 18.0734 22.4722 18.032 22.6319C18 22.7579 17.9695 22.8824 17.9476 23.0124C17.9375 23.0742 17.9156 23.1314 17.907 23.194H16.4033V15.2669H24.2388V14.0926H16.4033V5.4319H18.4538V4.25752H16.4033V1.17438H39.8371V4.99112V23.194ZM47.4163 27.2315C45.5182 27.2315 43.9747 25.6845 43.9747 23.782C43.9747 21.8795 45.519 20.3324 47.4163 20.3324C49.3137 20.3324 50.858 21.8803 50.858 23.782C50.858 25.6845 49.3145 27.2315 47.4163 27.2315ZM51.9929 23.194C51.9844 23.1314 51.9633 23.0742 51.9523 23.0124C51.9305 22.8824 51.9008 22.7579 51.8687 22.6319C51.8274 22.4729 51.7805 22.3171 51.7227 22.1621C51.6774 22.0431 51.6282 21.9273 51.5743 21.8129C51.504 21.6658 51.4274 21.524 51.3423 21.3863C51.2782 21.2798 51.211 21.1749 51.1376 21.0747C51.0423 20.9423 50.9376 20.8186 50.8283 20.6989C50.7471 20.608 50.6658 20.5164 50.5775 20.4319C50.4573 20.3176 50.3268 20.2166 50.1948 20.1156C50.1003 20.0428 50.0089 19.9684 49.9089 19.9034C49.7628 19.8095 49.6074 19.7319 49.4512 19.6544C49.3496 19.6043 49.2528 19.5472 49.1473 19.5033C48.9684 19.4313 48.7802 19.3812 48.5912 19.3303C48.4966 19.3053 48.4084 19.2692 48.3115 19.2497C48.0209 19.1925 47.7233 19.1588 47.4163 19.1588C47.1094 19.1588 46.8117 19.1925 46.5212 19.2497C46.4243 19.2685 46.3353 19.3045 46.2415 19.3303C46.0525 19.3804 45.8642 19.4313 45.6846 19.5033C45.5791 19.548 45.4831 19.6043 45.3815 19.6544C45.2245 19.7327 45.0698 19.8095 44.9238 19.9034C44.8238 19.9692 44.7324 20.0435 44.6379 20.1156C44.5051 20.2166 44.3754 20.3184 44.2551 20.4319C44.1661 20.5156 44.0856 20.608 44.0044 20.6989C43.895 20.8186 43.7904 20.9431 43.6951 21.0747C43.6216 21.1756 43.5552 21.2806 43.4904 21.3863C43.406 21.524 43.3287 21.665 43.2592 21.8129C43.2045 21.9273 43.1553 22.0431 43.11 22.1621C43.0538 22.3164 43.0061 22.4722 42.9647 22.6319C42.9327 22.7579 42.9022 22.8824 42.8811 23.0124C42.8702 23.0742 42.8483 23.1314 42.8397 23.194H41.0088V6.1655H45.5495V13.9462H52.7256V23.1948H51.9929V23.194Z" fill="#3384B1"/>
<path d="M9.88591 9.10141H0V10.2758H9.88591V9.10141Z" fill="#3384B1"/>
</svg>
