<svg width="17" height="20" viewBox="0 0 17 20" fill="none" xmlns="http://www.w3.org/2000/svg">
<path d="M12.2679 10.613C11.7068 10.613 11.0066 10.7054 10.2355 10.8805C9.42773 10.2704 8.60799 9.52732 7.90423 8.76732C8.13701 6.49727 7.76362 5.5503 7.40493 5.15576C7.12274 4.84546 6.73 4.73768 6.29446 4.85551C5.79613 4.9903 5.60805 5.29904 5.53801 5.53429C5.24803 6.50843 6.45232 8.0645 7.26361 8.97076C7.13933 10.014 6.90364 11.1322 6.5937 12.1488C5.85865 12.4997 5.22873 12.8743 4.76594 13.236C4.18318 13.6915 3.85178 14.1349 3.78096 14.5543C3.72269 14.899 3.83842 15.222 4.11554 15.4881C4.32952 15.6936 4.56573 15.7978 4.8175 15.7979C5.88989 15.7979 6.69447 13.8411 7.10073 12.5826C8.04566 12.1517 9.09961 11.7839 10.098 11.5365C10.9553 12.1591 12.1088 12.8583 12.9648 12.8583C13.5297 12.8583 13.9052 12.5575 14.0221 12.0114C14.1163 11.5715 13.9756 11.2839 13.8409 11.1201C13.5643 10.7837 13.0351 10.613 12.2679 10.613ZM4.8175 15.1919C4.73015 15.1919 4.64074 15.1468 4.54412 15.054C4.37274 14.8894 4.37013 14.7538 4.38697 14.654C4.46409 14.1976 5.18628 13.5749 6.31924 12.9682C5.75588 14.4982 5.1765 15.1919 4.8175 15.1919ZM6.12753 5.70505C6.15405 5.61596 6.21545 5.5053 6.45693 5.44C6.52027 5.42288 6.57961 5.41419 6.63328 5.41419C6.75689 5.41419 6.85668 5.46066 6.94742 5.56045C7.27559 5.92136 7.41466 6.85535 7.34026 8.12066C6.61218 7.23071 5.97576 6.215 6.12753 5.70505ZM9.47269 11.0742C8.75915 11.2736 8.03102 11.5267 7.34221 11.8146L7.34794 11.7963L7.33197 11.8038C7.5311 11.073 7.6923 10.3077 7.80351 9.56444L7.81519 9.57727L7.81708 9.56015C8.33794 10.0902 8.90457 10.6029 9.4752 11.0606L9.45927 11.0643L9.47269 11.0742ZM13.4209 11.8863C13.3645 12.1497 13.2366 12.2524 12.9648 12.2524C12.5036 12.2524 11.7732 11.9326 10.9112 11.3607C11.4222 11.2676 11.8832 11.2191 12.268 11.2191C13.019 11.2191 13.2768 11.3963 13.3636 11.5019C13.391 11.5352 13.4743 11.6366 13.4209 11.8863Z" fill="#FF842A"/>
<path d="M13.5429 0H0V20H17V3.40985L13.5429 0ZM13.7229 1.0346L15.9511 3.23232H13.7229V1.0346ZM0.614458 19.3939V0.606061H13.1084V3.83838H16.3855V19.3939H0.614458Z" fill="#FF842A"/>
</svg>
