<svg width="27" height="38" viewBox="0 0 27 38" fill="none" xmlns="http://www.w3.org/2000/svg">
<path d="M18.9203 8.05575L16.7243 6.99309L14.5283 8.05575V0H18.9201V8.05575H18.9203ZM16.7243 5.63099L17.6945 6.10047V1.22587H15.754V6.10066L16.7243 5.63099Z" fill="#FF842A"/>
<path d="M20.5331 13.6057L19.9932 12.505C22.9879 11.0361 24.9231 7.9346 24.9231 4.60355C24.9231 4.38182 24.8358 4.17149 24.6774 4.01246C24.5206 3.8561 24.3113 3.76927 24.0893 3.76927H22.1584V2.5434H24.0893C24.6382 2.5434 25.155 2.75714 25.5443 3.14588C25.9348 3.53766 26.1489 4.05483 26.1489 4.60336C26.1489 8.39858 23.9446 11.9322 20.5331 13.6057Z" fill="#FF842A"/>
<path d="M5.61579 13.605C2.20436 11.9313 0 8.39771 0 4.60305C0 4.05453 0.214128 3.53735 0.603435 3.14691C0.993882 2.75684 1.51068 2.54309 2.05958 2.54309H3.99054V3.76896H2.05939C1.83748 3.76896 1.6281 3.85579 1.4704 4.01349C1.31289 4.17119 1.22568 4.38152 1.22568 4.60324C1.22568 7.93373 3.16101 11.0355 6.15576 12.5049L5.61579 13.605Z" fill="#FF842A"/>
<path d="M24.241 38H1.9082V34.1358H24.2412V38H24.241ZM3.13388 36.7743H23.0153V35.3617H3.13388V36.7743Z" fill="#FF842A"/>
<path d="M22.2704 35.3607H3.88086V24.7147H22.2704V35.3607ZM5.10673 34.1348H21.0448V25.9405H5.10673V34.1348Z" fill="#FF842A"/>
<path d="M18.4781 25.9413H7.67437V24.7825C7.67437 24.2784 7.87063 23.8045 8.22688 23.4485C8.5837 23.0918 9.05718 22.896 9.56048 22.896C10.5599 22.896 11.3731 22.0833 11.3731 21.0843C11.3731 20.4436 11.0333 19.8476 10.4852 19.5235C10.4014 19.484 10.3188 19.4408 10.2361 19.3966C6.13633 17.245 3.37793 10.7174 3.37793 3.15645V0H22.7741V3.15645C22.7741 10.7174 20.0157 17.2448 15.9104 19.3992C15.8327 19.441 15.7508 19.4838 15.667 19.5233C15.1185 19.8478 14.779 20.4435 14.779 21.0841C14.779 22.0831 15.5922 22.8958 16.5918 22.8958C17.0949 22.8958 17.5685 23.0917 17.925 23.4479C18.2818 23.8047 18.4781 24.2784 18.4781 24.7823V25.9413ZM8.90366 24.7154H17.2488C17.234 24.5643 17.1673 24.4241 17.0586 24.3152C16.9338 24.1908 16.7679 24.1216 16.5918 24.1216C14.9163 24.1216 13.5533 22.7592 13.5533 21.0843C13.5533 19.9972 14.1379 18.9866 15.0788 18.4473L15.1303 18.4213C15.1996 18.3896 15.2673 18.3539 15.3351 18.317C18.9958 16.3961 21.5484 10.163 21.5484 3.15664V1.22587H4.6038V3.15664C4.6038 10.1632 7.15643 16.3963 10.8114 18.3141C10.8852 18.3537 10.9532 18.39 11.0227 18.4215L11.0732 18.4473C12.0141 18.9866 12.5989 19.9972 12.5989 21.0843C12.5989 22.7592 11.2359 24.1216 9.56048 24.1216C9.38435 24.1216 9.21829 24.1906 9.09346 24.3154C8.98479 24.4239 8.91848 24.5641 8.90366 24.7154Z" fill="#FF842A"/>
</svg>
