<svg width="30" height="29" viewBox="0 0 30 29" fill="none" xmlns="http://www.w3.org/2000/svg">
<path d="M1.20138 29H17.6316C18.2921 29 18.8296 28.459 18.8296 27.7942V25.3975H21.213C21.8744 25.3975 22.4123 24.8561 22.4123 24.1904V21.4871C22.893 21.4031 23.361 21.2549 23.8069 21.0455L24.3247 21.788L24.1253 21.9289C24 22.0174 23.9163 22.1496 23.8898 22.3016C23.8634 22.4533 23.8974 22.6064 23.9853 22.7323L26.7728 26.7295C27.001 27.0572 27.3427 27.2757 27.7344 27.3448C27.8214 27.36 27.9081 27.3675 27.9944 27.3675C28.2978 27.3675 28.5934 27.2743 28.8467 27.0951L29.366 26.7283C29.6916 26.4986 29.9086 26.1547 29.9774 25.7605C30.0459 25.366 29.9577 24.9684 29.7292 24.6408L26.9418 20.6437C26.7597 20.3831 26.4016 20.3205 26.1438 20.5031L25.9442 20.6441L25.426 19.9009C26.2277 19.0904 26.767 18.0575 26.967 16.9074C27.2248 15.4247 26.8936 13.9296 26.034 12.6973C25.175 11.4654 23.8907 10.6438 22.4175 10.3839C22.4157 10.3836 22.4141 10.3834 22.4123 10.3831V6.39605C22.4123 6.39084 22.4097 6.38653 22.4094 6.38154C22.4081 6.35999 22.404 6.33946 22.3969 6.31916C22.3942 6.31156 22.3918 6.30419 22.3884 6.29693C22.3788 6.27663 22.3663 6.25814 22.351 6.24113C22.3479 6.23762 22.3458 6.23353 22.3425 6.23024C22.3412 6.229 22.3406 6.22741 22.3393 6.22616L15.8013 0.0690687C15.8006 0.0682748 15.7999 0.0677077 15.7991 0.0670272L15.7942 0.0623773C15.7756 0.0449117 15.7544 0.0317557 15.7321 0.0215485C15.7262 0.0188266 15.7197 0.0176925 15.7135 0.0154242C15.6926 0.00793892 15.6713 0.00362923 15.6491 0.00238168C15.645 0.00215484 15.6415 0 15.6374 0H4.7812C4.11977 0 3.58184 0.541435 3.58184 1.20717V3.60246H1.20138C0.538831 3.60246 0 4.1448 0 4.81167V27.7942C0 28.459 0.538831 29 1.20138 29ZM26.409 20.8832C26.4284 20.8694 26.4507 20.8628 26.4728 20.8628C26.5077 20.8628 26.5424 20.8796 26.5641 20.9107L29.3515 24.9076C29.5093 25.1337 29.5699 25.4082 29.5226 25.6802C29.4753 25.9524 29.3256 26.1894 29.1009 26.3482L28.5817 26.7149C28.3573 26.8737 28.0841 26.9359 27.8141 26.8871C27.5437 26.8395 27.3082 26.6889 27.1505 26.4627L24.363 22.4654C24.34 22.4325 24.3416 22.3989 24.3445 22.3817C24.3475 22.3646 24.3574 22.3324 24.3903 22.3091L26.409 20.8832ZM25.5664 20.9107L24.7024 21.5211L24.2208 20.8306C24.3733 20.7428 24.5237 20.6502 24.6693 20.5473C24.8143 20.4449 24.9526 20.3355 25.0858 20.2215L25.5664 20.9107ZM25.6563 12.964C26.4449 14.0948 26.7489 15.4668 26.5125 16.8274C26.2758 18.1876 25.5272 19.3737 24.4042 20.1671C23.2806 20.9608 21.9172 21.2659 20.5657 21.0286C19.214 20.7902 18.0352 20.0363 17.2467 18.9053C16.4583 17.7748 16.1546 16.403 16.3912 15.0425C16.6278 13.6815 17.3769 12.495 18.5003 11.7013C19.374 11.0841 20.3931 10.7622 21.4392 10.7622C21.7374 10.7622 22.038 10.7883 22.3377 10.8414C23.6896 11.08 24.868 11.8338 25.6563 12.964ZM15.8672 0.767354L21.5972 6.16356H15.8672V0.767354ZM4.04337 3.83813C4.04337 3.83688 4.04405 3.83598 4.04405 3.83473C4.04405 3.83348 4.04337 3.83257 4.04337 3.83133V1.20717C4.04337 0.797749 4.37442 0.464541 4.7812 0.464541H15.4057V6.39583C15.4057 6.52421 15.5089 6.6281 15.6365 6.6281H21.9508V10.3225C20.6334 10.2007 19.3296 10.548 18.2353 11.3211C17.8057 11.6246 17.4296 11.9834 17.107 12.382H6.46349C6.33594 12.382 6.23273 12.4859 6.23273 12.6143C6.23273 12.7427 6.33594 12.8465 6.46349 12.8465H16.768C16.356 13.4795 16.0701 14.1946 15.9366 14.9624C15.9061 15.1383 15.8844 15.3144 15.8703 15.4902H6.46349C6.33594 15.4902 6.23273 15.5941 6.23273 15.7225C6.23273 15.8509 6.33594 15.9548 6.46349 15.9548H15.853C15.8544 16.8787 16.0816 17.783 16.5198 18.6005H6.46349C6.33594 18.6005 6.23273 18.7043 6.23273 18.8327C6.23273 18.9611 6.33594 19.065 6.46349 19.065H16.7981C16.8218 19.1006 16.8444 19.1368 16.8689 19.1721C17.7282 20.4046 19.0128 21.2264 20.4859 21.4861C20.8123 21.5438 21.139 21.5721 21.4638 21.5721C21.6269 21.5721 21.7892 21.5629 21.9508 21.5486V24.1904C21.9508 24.5998 21.6197 24.933 21.213 24.933H18.5999C18.5995 24.933 18.5992 24.9328 18.5988 24.9328C18.5984 24.9328 18.5981 24.933 18.5977 24.933H4.7812C4.37442 24.933 4.04337 24.5998 4.04337 24.1904V3.83813ZM0.461533 4.81167C0.461533 4.40112 0.793486 4.067 1.20138 4.067H3.58184V24.1904C3.58184 24.8561 4.11977 25.3975 4.7812 25.3975H18.368V27.7942C18.368 28.2029 18.0377 28.5355 17.6316 28.5355H1.20138C0.793486 28.5355 0.461533 28.2029 0.461533 27.7942V4.81167Z" fill="#FFA11B"/>
<path d="M6.46327 22.1748H19.6573C19.7849 22.1748 19.8881 22.0709 19.8881 21.9425C19.8881 21.8141 19.7849 21.7102 19.6573 21.7102H6.46327C6.33572 21.7102 6.2325 21.8141 6.2325 21.9425C6.2325 22.0709 6.33572 22.1748 6.46327 22.1748Z" fill="#FFA11B"/>
<path d="M6.46327 9.73653H19.6573C19.7849 9.73653 19.8881 9.63264 19.8881 9.50426C19.8881 9.37587 19.7849 9.27199 19.6573 9.27199H6.46327C6.33572 9.27199 6.2325 9.37587 6.2325 9.50426C6.2325 9.63264 6.33572 9.73653 6.46327 9.73653Z" fill="#FFA11B"/>
<path d="M6.88762 7.05998H11.5032C11.6307 7.05998 11.7339 6.95609 11.7339 6.82771V2.1823C11.7339 2.05391 11.6307 1.95003 11.5032 1.95003H6.88762C6.76007 1.95003 6.65685 2.05391 6.65685 2.1823V6.82771C6.65685 6.95609 6.76007 7.05998 6.88762 7.05998ZM7.11838 2.41457H11.2724V6.59544H7.11838V2.41457Z" fill="#FFA11B"/>
<path d="M10.4199 3.27356L8.46264 5.24378L7.97091 4.74884C7.88077 4.65811 7.73474 4.65811 7.6446 4.74884C7.55445 4.83957 7.55445 4.98655 7.6446 5.07729L8.29949 5.73644C8.34275 5.77999 8.40135 5.80449 8.46264 5.80449C8.52394 5.80449 8.58254 5.77999 8.6258 5.73644L10.7462 3.60201C10.8363 3.51127 10.8363 3.36429 10.7462 3.27356C10.6561 3.18283 10.51 3.18283 10.4199 3.27356Z" fill="#FFA11B"/>
</svg>
