<svg width="14" height="18" viewBox="0 0 14 18" fill="none" xmlns="http://www.w3.org/2000/svg">
<path fill-rule="evenodd" clip-rule="evenodd" d="M7 0C10.8659 0 14 2.94839 14 6.58439C14 10.2204 7 18 7 18C7 18 0 10.2204 0 6.58439C0 2.94839 3.13413 0 7 0ZM7.00374 3.72959C7.62398 3.72959 8.2303 3.90695 8.74601 4.23923C9.26173 4.57151 9.66366 5.04381 9.90101 5.59637C10.1384 6.14893 10.2005 6.75695 10.0795 7.34355C9.95847 7.93015 9.6598 8.46898 9.22122 8.8919C8.78265 9.31481 8.22386 9.60281 7.61553 9.71949C7.00721 9.83618 6.37667 9.77628 5.80364 9.54741C5.23061 9.31853 4.74083 8.93095 4.39624 8.43365C4.05165 7.93636 3.86773 7.35169 3.86773 6.7536C3.86773 5.95159 4.19814 5.18242 4.78625 4.61531C5.37436 4.0482 6.17202 3.72959 7.00374 3.72959Z" fill="#FFA11B"/>
</svg>
