<svg width="16" height="16" viewBox="0 0 16 16" fill="none" xmlns="http://www.w3.org/2000/svg">
<path fill-rule="evenodd" clip-rule="evenodd" d="M8 0C9.58225 0 11.129 0.469191 12.4446 1.34824C13.7601 2.22729 14.7855 3.47672 15.391 4.93853C15.9965 6.40034 16.155 8.00887 15.8463 9.56072C15.5376 11.1126 14.7757 12.538 13.6569 13.6569C12.538 14.7757 11.1126 15.5376 9.56072 15.8463C8.00887 16.155 6.40034 15.9965 4.93853 15.391C3.47672 14.7855 2.22729 13.7601 1.34824 12.4446C0.469191 11.129 0 9.58225 0 8C0 5.87827 0.842852 3.84343 2.34314 2.34314C3.84343 0.842852 5.87827 0 8 0ZM8 14.4C9.2658 14.4 10.5032 14.0246 11.5556 13.3214C12.6081 12.6182 13.4284 11.6186 13.9128 10.4492C14.3972 9.27972 14.524 7.9929 14.277 6.75142C14.0301 5.50994 13.4205 4.36957 12.5255 3.47451C11.6304 2.57946 10.4901 1.96992 9.24858 1.72297C8.0071 1.47603 6.72027 1.60277 5.55082 2.08717C4.38138 2.57157 3.38183 3.39187 2.67859 4.44435C1.97535 5.49682 1.6 6.7342 1.6 8C1.6 9.69738 2.27428 11.3252 3.47451 12.5255C4.67475 13.7257 6.30261 14.4 8 14.4ZM7.92 3.84C8.0624 3.84 8.2016 3.88223 8.32001 3.96134C8.43841 4.04045 8.5307 4.1529 8.58519 4.28447C8.63969 4.41603 8.65394 4.5608 8.62616 4.70046C8.59838 4.84013 8.52981 4.96842 8.42911 5.06911C8.32842 5.16981 8.20013 5.23838 8.06046 5.26616C7.92079 5.29395 7.77603 5.27969 7.64446 5.22519C7.5129 5.1707 7.40045 5.07841 7.32134 4.96001C7.24223 4.8416 7.2 4.7024 7.2 4.56C7.2 4.36904 7.27586 4.18591 7.41088 4.05088C7.54591 3.91586 7.72904 3.84 7.92 3.84ZM8 6.24C8.1273 6.24 8.24939 6.29057 8.33941 6.38059C8.42942 6.47061 8.48 6.59269 8.48 6.72V11.52C8.48 11.6473 8.42942 11.7694 8.33941 11.8594C8.24939 11.9494 8.1273 12 8 12C7.87269 12 7.75061 11.9494 7.66059 11.8594C7.57057 11.7694 7.52 11.6473 7.52 11.52L7.52 6.72C7.52 6.59269 7.57057 6.47061 7.66059 6.38059C7.75061 6.29057 7.87269 6.24 8 6.24Z" fill="#CE7A39"/>
</svg>
