<svg width="44" height="38" viewBox="0 0 44 38" fill="none" xmlns="http://www.w3.org/2000/svg">
<path d="M5.25791 14.8074H3.89355V16.1717H5.25791V14.8074Z" fill="#C94044"/>
<path d="M42.295 15.6901L38.6842 19.3008L28.0518 8.66843L35.7556 0.964598L34.791 0L27.0879 7.70314C26.8293 7.96033 26.6875 8.30346 26.6875 8.66843C26.6875 9.03339 26.8293 9.37652 27.0872 9.63302L27.487 10.0328L26.1226 11.3971H22.0295L20.9476 12.4791L19.8657 11.3971H17.137L15.7726 10.0328L16.1724 9.63302C16.4302 9.37516 16.5721 9.03271 16.5721 8.66843C16.5721 8.30414 16.4302 7.96169 16.1724 7.70383L8.46855 0L7.50395 0.964598L15.2078 8.66843L4.57536 19.3008L0.964598 15.6901L0 16.6547L3.61008 20.2648C3.86726 20.5233 4.2104 20.6652 4.57536 20.6652C4.94033 20.6652 5.28346 20.5233 5.53996 20.2654L5.93972 19.8657L7.30407 21.23V22.5944L9.74968 25.0407L9.43315 25.3572C8.41465 26.3757 8.41465 28.0327 9.43315 29.0505C9.92636 29.5444 10.5826 29.8152 11.2805 29.8152C11.3248 29.8152 11.3671 29.8043 11.4108 29.8023C11.3753 30.5138 11.6195 31.2369 12.1619 31.7785C12.6551 32.2724 13.3113 32.5433 14.0092 32.5433C14.0535 32.5433 14.0958 32.5323 14.1395 32.5303C14.104 33.2418 14.3482 33.9649 14.8906 34.5066C15.3838 35.0005 16.04 35.2713 16.7379 35.2713C16.7822 35.2713 16.8245 35.2604 16.8682 35.2583C16.8327 35.9698 17.0769 36.6929 17.6193 37.2346C18.1125 37.7285 18.7687 37.9993 19.4666 37.9993C20.1645 37.9993 20.82 37.7278 21.3133 37.2346L21.6298 36.9201L21.9463 37.2366C22.4552 37.7455 23.1244 38 23.793 38C24.4615 38 25.1307 37.7455 25.6396 37.2366C26.1826 36.6943 26.4262 35.9712 26.3914 35.259C26.435 35.2617 26.478 35.272 26.5217 35.272C27.1902 35.272 27.8594 35.0175 28.3683 34.5086C28.9113 33.9663 29.1549 33.2432 29.1201 32.531C29.1638 32.5337 29.2067 32.5439 29.2504 32.5439C29.9189 32.5439 30.5881 32.2895 31.097 31.7806C31.6401 31.2383 31.8836 30.5152 31.8488 29.803C31.8925 29.8057 31.9354 29.8159 31.9791 29.8159C32.6476 29.8159 33.3168 29.5615 33.8258 29.0526C34.8442 28.0348 34.8442 26.3771 33.8258 25.3593L33.5092 25.0407L35.9555 22.5944V21.23L37.3199 19.8657L37.7196 20.2654C37.9775 20.5233 38.3199 20.6652 38.6842 20.6652C39.0485 20.6652 39.391 20.5233 39.6488 20.2654L43.2596 16.6547L42.295 15.6901ZM10.3977 28.0859C9.91135 27.5995 9.91135 26.8082 10.3977 26.3218L10.715 26.0053L12.4784 27.7694L12.1619 28.0859C11.6912 28.5573 10.8698 28.5559 10.3977 28.0859ZM13.1265 30.8146C12.6401 30.3282 12.6401 29.5369 13.1265 29.0505L13.4437 28.734L15.2071 30.4981L14.8906 30.8146C14.4199 31.2867 13.5985 31.2846 13.1265 30.8146ZM15.8552 33.5433C15.3688 33.0569 15.3688 32.2656 15.8552 31.7792L16.1724 31.4627L17.9358 33.2268L17.6193 33.5433C17.1486 34.0154 16.3272 34.0134 15.8552 33.5433ZM20.348 36.272C19.8773 36.7441 19.0553 36.7421 18.5839 36.272C18.0975 35.7857 18.0975 34.9943 18.5839 34.5079L18.9011 34.1914L20.6645 35.9555L20.348 36.272ZM34.5912 20.6652V22.0295L32.5446 24.0761L30.2982 21.8297L29.3336 22.7943L32.8612 26.3218C33.3475 26.8082 33.3475 27.5995 32.8612 28.0859C32.3748 28.5723 31.5834 28.5723 31.097 28.0859L27.5695 24.5584L26.6049 25.523L30.1324 29.0505C30.6188 29.5369 30.6188 30.3282 30.1324 30.8146C29.6461 31.301 28.8547 31.301 28.3683 30.8146L24.8408 27.2871L23.8762 28.2517L27.4037 31.7792C27.8901 32.2656 27.8901 33.0569 27.4037 33.5433C26.9173 34.0297 26.126 34.0297 25.6396 33.5433L22.1121 30.0158L21.1475 30.9804L24.675 34.5079C25.1614 34.9943 25.1614 35.7857 24.675 36.272C24.1886 36.7584 23.3973 36.7584 22.9109 36.272L8.66842 22.0295V20.6652L6.90431 18.9011L14.808 10.9974L16.5721 12.7615H19.3008L19.983 13.4437L16.2549 17.1711C15.2371 18.1903 15.2371 19.8473 16.2549 20.8644C16.7481 21.3583 17.4044 21.6291 18.1023 21.6291C18.8001 21.6291 19.4557 21.3576 19.9489 20.8644L23.9587 16.8546H24.4063C24.5509 17.871 25.0175 18.8097 25.757 19.5485C26.6595 20.4503 27.8587 20.9476 29.1337 20.9476H30.4981C32.003 20.9476 33.2268 19.7238 33.2268 18.2189H31.8624C31.8624 18.9713 31.2505 19.5833 30.4981 19.5833H29.1337C28.223 19.5833 27.3662 19.2285 26.7222 18.5839C26.0783 17.9399 25.7229 17.0831 25.7229 16.1724V15.4902H23.3939L18.9836 19.8998C18.5129 20.3719 17.6909 20.3698 17.2195 19.8998C16.7331 19.4134 16.7338 18.6221 17.2195 18.1364L22.5944 12.7615H26.6875L28.4516 10.9974L36.3553 18.9011L34.5912 20.6652Z" fill="#C94044"/>
<path d="M39.3663 14.8074H38.002V16.1717H39.3663V14.8074Z" fill="#C94044"/>
</svg>
