<svg width="21" height="21" viewBox="0 0 21 21" fill="none" xmlns="http://www.w3.org/2000/svg">
<path fill-rule="evenodd" clip-rule="evenodd" d="M14.7641 20.1999H6.38552C4.9041 20.1999 3.48334 19.6197 2.43582 18.5869C1.38829 17.5542 0.799805 16.1534 0.799805 14.6929V6.15694C0.799805 4.69639 1.38829 3.29565 2.43582 2.26288C3.48334 1.23011 4.9041 0.649902 6.38552 0.649902H14.7641C16.2455 0.649902 17.6663 1.23011 18.7138 2.26288C19.7613 3.29565 20.3498 4.69639 20.3498 6.15694V14.6929C20.3498 16.1534 19.7613 17.5542 18.7138 18.5869C17.6663 19.6197 16.2455 20.1999 14.7641 20.1999ZM18.5344 5.74392C18.5344 4.83107 18.1666 3.95561 17.5119 3.31012C16.8572 2.66464 15.9693 2.30201 15.0434 2.30201H5.96659C5.0407 2.30201 4.15274 2.66464 3.49804 3.31012C2.84334 3.95561 2.47552 4.83107 2.47552 5.74392V14.6929C2.47552 15.6057 2.84334 16.4812 3.49804 17.1267C4.15274 17.7721 5.0407 18.1348 5.96659 18.1348H15.0434C15.9693 18.1348 16.8572 17.7721 17.5119 17.1267C18.1666 16.4812 18.5344 15.6057 18.5344 14.6929V5.74392ZM15.7416 6.29462C15.493 6.29462 15.25 6.22195 15.0434 6.08579C14.8367 5.94964 14.6756 5.75613 14.5805 5.52971C14.4853 5.3033 14.4605 5.05416 14.509 4.8138C14.5575 4.57345 14.6771 4.35266 14.8529 4.17937C15.0287 4.00608 15.2526 3.88807 15.4964 3.84026C15.7402 3.79245 15.9929 3.81699 16.2225 3.91077C16.4522 4.00455 16.6485 4.16337 16.7866 4.36714C16.9247 4.5709 16.9984 4.81047 16.9984 5.05554C16.9984 5.38416 16.866 5.69933 16.6303 5.9317C16.3946 6.16407 16.0749 6.29462 15.7416 6.29462ZM10.505 15.3812C9.4969 15.3812 8.51145 15.0865 7.67326 14.5343C6.83507 13.9822 6.18179 13.1973 5.79601 12.2791C5.41023 11.3609 5.30928 10.3505 5.50595 9.3757C5.70262 8.40091 6.18805 7.50551 6.90088 6.80273C7.6137 6.09995 8.52189 5.62134 9.51061 5.42744C10.4993 5.23355 11.5242 5.33307 12.4555 5.71341C13.3868 6.09375 14.1829 6.73784 14.743 7.56422C15.303 8.39061 15.6019 9.36218 15.6019 10.3561C15.6019 11.6888 15.065 12.967 14.1091 13.9094C13.1532 14.8518 11.8568 15.3812 10.505 15.3812ZM10.505 7.12068C9.85594 7.12068 9.22148 7.31043 8.68182 7.66594C8.14216 8.02144 7.72155 8.52674 7.47317 9.11793C7.22479 9.70912 7.15981 10.3597 7.28643 10.9873C7.41305 11.6149 7.72559 12.1913 8.18453 12.6438C8.64347 13.0963 9.22821 13.4044 9.86478 13.5293C10.5013 13.6541 11.1612 13.5901 11.7608 13.3452C12.3604 13.1003 12.873 12.6856 13.2335 12.1535C13.5941 11.6215 13.7866 10.996 13.7866 10.3561C13.7866 9.49798 13.4409 8.67505 12.8254 8.0683C12.21 7.46155 11.3753 7.12068 10.505 7.12068Z" fill="#202323"/>
</svg>
