<svg width="21" height="21" viewBox="0 0 21 21" fill="none" xmlns="http://www.w3.org/2000/svg">
<path fill-rule="evenodd" clip-rule="evenodd" d="M18.6332 12.1715C18.6332 12.1715 18.6189 12.1715 18.6332 12.1715C18.6046 12.1286 18.5903 12.1143 18.5618 12.0857C18.5618 12.0857 18.5618 12.0714 18.5475 12.0714L15.6476 10.4397L18.5475 8.79372C18.5475 8.79372 18.5475 8.77941 18.5618 8.77941C18.5903 8.76509 18.6189 8.73647 18.6332 8.70784L20.8188 4.32811C20.8473 4.25655 20.8473 4.18499 20.8045 4.11342C20.7616 4.05617 20.6902 4.01323 20.6188 4.01323L16.6619 4.18499L16.8333 0.22033C16.8333 0.148766 16.8047 0.0772017 16.7333 0.0342632C16.6761 -0.00867531 16.5904 -0.00867536 16.519 0.0199503L12.1478 2.20981C12.1192 2.22413 12.0907 2.25275 12.0764 2.28138C12.0764 2.28138 12.0621 2.28138 12.0621 2.29569L10.4193 5.2012L8.77658 2.29569C8.77658 2.29569 8.76229 2.29569 8.76229 2.28138C8.748 2.25275 8.71943 2.22413 8.69086 2.20981L4.31967 0.0199503C4.24825 -0.00867536 4.17683 -0.00867531 4.1054 0.0342632C4.04826 0.0772017 4.0054 0.148766 4.0054 0.22033L4.17683 4.18499L0.219897 4.01323C0.148472 4.01323 0.0770492 4.04186 0.0341944 4.11342C-0.00866044 4.17067 -0.00865695 4.25655 0.0199129 4.32811L2.20551 8.70784C2.21979 8.73647 2.24836 8.76509 2.27693 8.77941C2.27693 8.77941 2.27693 8.77941 2.29121 8.79372L5.20534 10.4397L2.3055 12.0857C2.3055 12.0857 2.3055 12.0857 2.29121 12.1C2.26264 12.1143 2.23407 12.1429 2.21979 12.1715L0.0341944 16.5513C0.0056245 16.6228 0.00562101 16.6944 0.0484758 16.766C0.0913306 16.8232 0.162762 16.8518 0.234187 16.8662L4.19111 16.6944L4.01969 20.6018C4.00541 20.6304 4.0054 20.6448 4.0054 20.6734C4.0054 20.7879 4.1054 20.8881 4.21968 20.8881H4.23397C4.26254 20.8881 4.30539 20.8738 4.33396 20.8594L8.70515 18.6696C8.73372 18.6553 8.76229 18.6266 8.77658 18.598C8.77658 18.598 8.79086 18.598 8.79086 18.5837L10.4336 15.6782L12.0764 18.5837C12.0764 18.5837 12.0907 18.5837 12.0907 18.598C12.105 18.6266 12.1335 18.6553 12.1621 18.6696L16.5333 20.8594C16.6047 20.8881 16.6761 20.8881 16.7476 20.8451C16.8047 20.8022 16.8476 20.7306 16.8476 20.6591L16.6761 16.6944L20.6331 16.8662C20.7045 16.8662 20.7759 16.8375 20.8188 16.766C20.8616 16.7087 20.8616 16.6228 20.8331 16.5513L18.6332 12.1715ZM16.9761 11.6849L12.8621 10.6544H15.1619L16.9761 11.6849ZM15.1619 10.225H12.305L17.0761 9.13723L15.1619 10.225ZM20.276 4.45693L18.4475 8.13533L16.7619 4.61437L20.276 4.45693ZM18.1332 8.46452L11.0907 10.0676L16.3762 4.77181L18.1332 8.46452ZM16.3904 0.563838L16.2333 4.0848L12.7192 2.39588L16.3904 0.563838ZM12.3907 2.71076L16.0762 4.47124L10.7622 9.79562L12.3907 2.71076ZM10.7193 5.54471L11.705 3.78423L10.7193 8.09239V5.54471ZM10.705 15.3061C10.7193 15.2774 10.7193 15.2631 10.7193 15.2345V12.5151L11.7336 17.1381L10.705 15.3061ZM10.8622 11.1697L16.0762 16.3938L12.3907 18.1686L10.8622 11.1697ZM12.7335 18.4692L16.2476 16.7803L16.3904 20.3156L12.7335 18.4692ZM16.3762 16.1076L10.9336 10.6544H11.1479L18.1332 12.4149L16.3762 16.1076ZM16.7619 16.265L18.4475 12.7441L20.276 16.4081L16.7619 16.265Z" fill="#FF842A"/>
</svg>
