<svg width="19" height="14" viewBox="0 0 19 14" fill="none" xmlns="http://www.w3.org/2000/svg">
<path fill-rule="evenodd" clip-rule="evenodd" d="M12.4688 7.11473L19 1.22504V12.9305L12.4688 7.11473ZM0.38589 0.408374C0.50992 0.279311 0.65777 0.176754 0.820854 0.106656C0.983939 0.0365593 1.15901 0.000319864 1.33589 4.28064e-05H17.6641C17.8367 -0.00137148 18.0079 0.0322723 18.1677 0.0990258C18.3275 0.165779 18.4728 0.264316 18.5951 0.38893C18.5968 0.391263 9.5 8.41536 9.5 8.41536C9.5 8.41536 0.38551 0.409346 0.38589 0.408374ZM0 12.929V1.22504L6.53125 7.11667L0 12.929ZM9.4734 9.79241L11.875 7.65022C11.875 7.65022 18.5563 13.6097 18.5548 13.6111C18.4328 13.7355 18.288 13.834 18.1285 13.9007C17.9691 13.9675 17.7983 14.0012 17.6261 14H1.32069C1.14397 13.9997 0.969076 13.9635 0.806176 13.8934C0.643276 13.8233 0.495629 13.7207 0.37183 13.5916L7.125 7.65022L9.4734 9.79241Z" fill="#B4B4B4"/>
</svg>
