<svg width="17" height="13" viewBox="0 0 17 13" fill="none" xmlns="http://www.w3.org/2000/svg">
<path fill-rule="evenodd" clip-rule="evenodd" d="M10.5887 6.19168L16.1351 1.0661V11.253L10.5887 6.19168ZM0.327705 0.355392C0.433033 0.243074 0.55859 0.153822 0.697084 0.0928191C0.835578 0.0318162 0.984248 0.000278365 1.13446 3.72528e-05H15.0007C15.1473 -0.00119355 15.2926 0.0280854 15.4283 0.0861784C15.564 0.144272 15.6874 0.230024 15.7913 0.338471C15.7927 0.340501 8.06757 7.32357 8.06757 7.32357C8.06757 7.32357 0.327382 0.356239 0.327705 0.355392ZM0 11.2516V1.0661L5.54645 6.19337L0 11.2516ZM8.04498 8.52196L10.0845 6.6577C10.0845 6.6577 15.7584 11.844 15.7571 11.8452C15.6535 11.9535 15.5305 12.0392 15.3951 12.0973C15.2597 12.1554 15.1147 12.1847 14.9684 12.1836H1.12155C0.971483 12.1834 0.822956 12.1519 0.684619 12.0909C0.546282 12.0299 0.420897 11.9406 0.315765 11.8283L6.05068 6.6577L8.04498 8.52196Z" fill="#FFA11B"/>
</svg>
