<svg width="12" height="16" viewBox="0 0 12 16" fill="none" xmlns="http://www.w3.org/2000/svg">
<path fill-rule="evenodd" clip-rule="evenodd" d="M6 0C9.3136 0 12 2.62079 12 5.85279C12 9.08479 6 16 6 16C6 16 0 9.08479 0 5.85279C0 2.62079 2.6864 0 6 0ZM6.0032 3.3152C6.53484 3.3152 7.05454 3.47284 7.49658 3.7682C7.93862 4.06356 8.28313 4.48338 8.48658 4.97455C8.69003 5.46572 8.74327 6.00618 8.63955 6.5276C8.53583 7.04902 8.27983 7.52798 7.90391 7.90391C7.52798 8.27983 7.04902 8.53583 6.5276 8.63955C6.00618 8.74327 5.46572 8.69003 4.97455 8.48658C4.48338 8.28313 4.06356 7.93862 3.7682 7.49658C3.47284 7.05454 3.3152 6.53484 3.3152 6.0032C3.3152 5.2903 3.5984 4.6066 4.1025 4.1025C4.6066 3.5984 5.2903 3.3152 6.0032 3.3152Z" fill="#6E9E48"/>
</svg>
