<svg width="20" height="26" viewBox="0 0 20 26" fill="none" xmlns="http://www.w3.org/2000/svg">
<path d="M10 0.5C15.2704 0.5 19.5 4.55825 19.5 9.51079C19.5 10.695 18.9261 12.2904 17.9945 14.0711C17.0725 15.8336 15.8376 17.709 14.5945 19.4324C13.3527 21.1539 12.1099 22.7137 11.1769 23.8438C10.7107 24.4086 10.3223 24.8654 10.0508 25.1806C10.0334 25.2009 10.0164 25.2205 10 25.2396C9.98355 25.2205 9.96661 25.2009 9.94919 25.1806C9.67771 24.8654 9.28934 24.4086 8.82308 23.8438C7.89012 22.7137 6.64728 21.1539 5.40551 19.4324C4.1624 17.709 2.92754 15.8336 2.00554 14.0711C1.07393 12.2904 0.5 10.695 0.5 9.51079C0.5 4.55825 4.72956 0.5 10 0.5ZM12.7672 5.70439C11.9486 5.1711 10.9875 4.88719 10.0053 4.88719C8.68858 4.88719 7.4233 5.39709 6.48845 6.30856C5.55318 7.22045 5.02533 8.45998 5.02533 9.75521C5.02533 10.7209 5.31908 11.6638 5.8679 12.4646C6.41661 13.2653 7.19518 13.8874 8.10368 14.2543C9.01209 14.6212 10.011 14.717 10.9745 14.5301C11.9381 14.3432 12.825 13.8817 13.5222 13.2018C14.2196 12.5219 14.696 11.654 14.8892 10.7073C15.0823 9.76046 14.9831 8.7792 14.6045 7.88814C14.226 6.99723 13.586 6.23778 12.7672 5.70439Z" stroke="#FFA11B"/>
</svg>
