<svg width="38" height="33" viewBox="0 0 38 33" fill="none" xmlns="http://www.w3.org/2000/svg">
<path fill-rule="evenodd" clip-rule="evenodd" d="M27.2453 6.75H34.4151C36.3928 6.75 38 8.43125 38 10.5V29.25C38 31.3188 36.3928 33 34.4151 33H3.58491C1.60723 33 0 31.3188 0 29.25V10.5C0 8.43125 1.60723 6.75 3.58491 6.75H10.7547V3.75C10.7547 1.68125 12.3619 0 14.3396 0H23.6604C25.6381 0 27.2453 1.68125 27.2453 3.75V6.75ZM34.4151 8.25H3.58491C2.39591 8.25 1.43396 9.25625 1.43396 10.5V16.5H36.566V10.5C36.566 9.25625 35.6041 8.25 34.4151 8.25ZM30.8302 18H30.1132V19.5H30.8302V18ZM7.88679 18H7.16981V19.5H7.88679V18ZM3.58491 31.5H34.4151C35.6041 31.5 36.566 30.4937 36.566 29.25V18H32.2641V20.25C32.2641 20.6625 31.9415 21 31.5472 21H29.3962C29.0019 21 28.6792 20.6625 28.6792 20.25V18H9.32075V20.25C9.32075 20.6625 8.99811 21 8.60377 21H6.45283C6.05849 21 5.73585 20.6625 5.73585 20.25V18H1.43396V29.25C1.43396 30.4937 2.39591 31.5 3.58491 31.5ZM14.3396 1.5C13.1506 1.5 12.1887 2.50625 12.1887 3.75V6.75H25.8113V3.75C25.8113 2.50625 24.8494 1.5 23.6604 1.5H14.3396Z" fill="#FF842A"/>
</svg>
