<svg width="40" height="37" viewBox="0 0 40 37" fill="none" xmlns="http://www.w3.org/2000/svg">
<path d="M12.7931 5.82759H3.62069C2.17341 5.82759 1 6.90836 1 8.24138M1 8.24138V36H37.6897V26.3448M1 8.24138C1 9.5744 2.17341 10.6552 3.62069 10.6552H37.6897V20.3103M35.069 5.97845V10.6552M33.1034 23.3276H33.11M4.27586 10.6552L21.9655 1L25.2414 5.22414M11.4828 10.6552L27.8621 4.62069L31.1379 10.6552M28.5172 5.82759H35.069M33.1034 26.3448C31.2945 26.3448 29.8276 24.9937 29.8276 23.3276C29.8276 21.6615 31.2945 20.3103 33.1034 20.3103H39V26.3448H33.1034Z" stroke="#FF842A" stroke-width="1.5" stroke-linecap="round"/>
</svg>
