<svg width="40" height="42" viewBox="0 0 40 42" fill="none" xmlns="http://www.w3.org/2000/svg">
<path d="M37.5777 11.8877H13.9444C12.635 11.8877 11.5876 12.9559 11.5876 14.2913C11.5876 17.3626 11.5876 24.5736 11.5876 27.6449C11.5876 28.9803 12.635 30.0485 13.9444 30.0485H37.6432C38.9525 30.0485 40 28.9803 40 27.6449C40 23.1714 40 17.1623 40 14.5584V14.2913C39.9345 12.9559 38.8871 11.8877 37.5777 11.8877ZM37.3159 12.8224C38.2324 12.8224 39.018 13.6236 39.018 14.5584V16.4279H12.5041V14.5584C12.5041 13.6236 13.2897 12.8224 14.2062 12.8224H37.3159ZM37.5777 29.1138H13.8789C13.0933 29.1138 12.4386 28.4461 12.4386 27.6449V17.4294H38.9525V27.6449C39.018 28.4461 38.3633 29.1138 37.5777 29.1138Z" fill="#FF842A"/>
<path d="M34.5663 22.3035C34.1735 22.3035 33.8462 22.3702 33.5188 22.5038C33.1915 22.3702 32.8642 22.3035 32.4714 22.3035C31.0311 22.3035 29.9182 23.5053 29.9182 24.9074C29.9182 26.3763 31.0966 27.5114 32.4714 27.5114C32.8642 27.5114 33.1915 27.4446 33.5188 27.3111C33.8462 27.4446 34.1735 27.5114 34.5663 27.5114C36.0065 27.5114 37.1195 26.3095 37.1195 24.9074C37.1195 23.4385 36.0065 22.3035 34.5663 22.3035ZM30.8347 24.9074C30.8347 23.9727 31.5548 23.2382 32.4714 23.2382C32.5368 23.2382 32.5368 23.2382 32.6023 23.2382C32.5368 23.3717 32.4714 23.4385 32.4059 23.5721V23.6388C32.3404 23.7724 32.275 23.8391 32.275 23.9727C32.275 24.0394 32.275 24.0394 32.2095 24.1062C32.2095 24.173 32.144 24.3065 32.144 24.3733C32.144 24.44 32.144 24.44 32.144 24.5068C32.144 24.6403 32.0786 24.7739 32.0786 24.9074C32.0786 25.0409 32.0786 25.1745 32.144 25.308C32.144 25.3748 32.144 25.3748 32.144 25.4416C32.144 25.5083 32.2095 25.6419 32.2095 25.7086C32.2095 25.7754 32.2095 25.7754 32.275 25.8422C32.3404 25.9757 32.3404 26.0425 32.4059 26.176C32.4059 26.176 32.4059 26.176 32.4059 26.2428C32.4714 26.3763 32.5368 26.4431 32.6023 26.5766C31.6203 26.6434 30.8347 25.8422 30.8347 24.9074ZM34.5663 26.5766C34.3044 26.5766 33.9771 26.5098 33.7807 26.3763C33.257 26.1092 32.9296 25.5083 32.9296 24.9074C32.9296 24.3065 33.257 23.7724 33.7807 23.4385C34.0426 23.305 34.3044 23.2382 34.5663 23.2382C35.4828 23.2382 36.2029 23.9727 36.2029 24.9074C36.2029 25.8422 35.4828 26.5766 34.5663 26.5766Z" fill="#FF842A"/>
<path d="M22.7823 20.434H14.9263V21.3687H22.7823V20.434Z" fill="#FF842A"/>
<path d="M15.2537 23.0379H14.9263V23.9727H15.2537V23.0379Z" fill="#FF842A"/>
<path d="M21.8658 23.0379H21.2111V23.9727H21.8658V23.0379Z" fill="#FF842A"/>
<path d="M19.1817 23.0379H18.527V23.9727H19.1817V23.0379Z" fill="#FF842A"/>
<path d="M16.563 23.0379H15.9083V23.9727H16.563V23.0379Z" fill="#FF842A"/>
<path d="M17.8723 23.0379H17.2177V23.9727H17.8723V23.0379Z" fill="#FF842A"/>
<path d="M20.491 23.0379H19.8363V23.9727H20.491V23.0379Z" fill="#FF842A"/>
<path d="M22.8478 23.0379H22.5205V23.9727H22.8478V23.0379Z" fill="#FF842A"/>
<path d="M22.7823 25.6419H14.9263V26.5766H22.7823V25.6419Z" fill="#FF842A"/>
<path d="M23.7643 42C25.0736 42 26.1211 40.9317 26.1211 39.5964C26.1211 36.7253 26.1211 34.3885 26.1211 31.5174H25.2046V34.1882H0.981997V6.47946H25.2046V10.4855H26.1211C26.1211 8.4825 26.1211 4.47642 26.1211 2.40661C26.1211 1.07125 25.0736 0.00296811 23.7643 0.00296811H2.35679C1.04746 -0.0637998 0 1.00449 0 2.33985C0 7.48098 0 34.0546 0 39.5964C0 40.9317 1.04746 42 2.35679 42H23.7643ZM25.1391 35.1229V39.5964C25.1391 40.3976 24.4845 41.0653 23.6989 41.0653H2.35679C1.57119 41.0653 0.91653 40.3976 0.91653 39.5964V35.1229H25.1391ZM0.91653 5.47794V2.33985C0.91653 1.53863 1.57119 0.870951 2.35679 0.870951H23.7643C24.5499 0.870951 25.2046 1.53863 25.2046 2.33985V5.47794H0.91653Z" fill="#FF842A"/>
<path d="M13.0278 39.5296C13.8134 39.5296 14.4026 38.8619 14.4026 38.1275C14.4026 37.3262 13.8134 36.7253 13.0278 36.7253C12.2422 36.7253 11.653 37.393 11.653 38.1275C11.653 38.8619 12.2422 39.5296 13.0278 39.5296Z" fill="#FF842A"/>
<path d="M15.1228 2.74045H10.9329V3.6752H15.1228V2.74045Z" fill="#FF842A"/>
<path d="M18.2651 31.651H16.8903V32.5857H18.2651V31.651Z" fill="#FF842A"/>
<path d="M20.8183 31.651H19.4435V32.5857H20.8183V31.651Z" fill="#FF842A"/>
<path d="M23.437 31.651H22.0622V32.5857H23.437V31.651Z" fill="#FF842A"/>
<path d="M4.05892 8.8831H2.68412V9.81785H4.05892V8.8831Z" fill="#FF842A"/>
<path d="M6.67758 8.8831H5.30278V9.81785H6.67758V8.8831Z" fill="#FF842A"/>
<path d="M9.23077 8.8831H7.85597V9.81785H9.23077V8.8831Z" fill="#FF842A"/>
</svg>
