<svg width="39" height="47" viewBox="0 0 39 47" fill="none" xmlns="http://www.w3.org/2000/svg">
<path d="M32.882 0C29.6422 0 26.9984 2.67069 26.9984 5.93957C26.9984 9.20841 29.6422 11.8727 32.882 11.8727C36.1218 11.8727 38.7592 9.20841 38.7592 5.93957C38.7592 2.67069 36.1218 0 32.882 0ZM32.882 1.64695C35.2384 1.64695 37.1324 3.55993 37.1324 5.93957C37.1324 8.31915 35.2384 10.2241 32.882 10.2241C30.5256 10.2241 28.6268 8.31915 28.6268 5.93957C28.6268 3.55993 30.5256 1.64695 32.882 1.64695ZM19.8852 10.3286C16.8594 10.3286 14.3562 12.6576 14.0383 15.628H11.0494C10.0805 15.628 9.32535 16.4729 9.32535 17.4278V18.9106H5.1898C4.21798 18.9106 3.41148 19.7242 3.41148 20.704V27.7805H1.80861C0.82241 27.7805 0 28.6034 0 29.598V36.3078C0 37.3024 0.82241 38.1317 1.80861 38.1317H3.41148V45.2083C3.41148 46.188 4.218 47 5.1898 47H34.8294C36.4841 47.0023 37.7026 46.4498 38.3253 45.4448C38.9481 44.4399 39 43.2315 39 41.9257V21.7381C39 19.776 38.7002 18.2784 37.9155 17.2026C37.615 16.7907 37.2419 16.4654 36.8166 16.2183C36.7821 16.1957 36.7518 16.1674 36.7161 16.1457C36.6435 16.1009 36.5644 16.0677 36.4816 16.0475C35.8692 15.7668 35.1703 15.6277 34.4258 15.6277H25.7337C25.4157 12.6572 22.9109 10.3286 19.8852 10.3286ZM19.8852 11.9756C22.2416 11.9756 24.1356 13.887 24.1356 16.2666C24.1356 17.2333 23.7986 18.1568 23.2105 18.9106H16.5614C15.9739 18.1568 15.6364 17.2326 15.6364 16.2666C15.6364 13.887 17.5288 11.9756 19.8852 11.9756ZM11.0494 17.2766H14.0925C14.1899 17.8451 14.3654 18.3959 14.6188 18.9106H10.9585V17.4278C10.9585 17.3063 11.0106 17.2766 11.0494 17.2766ZM25.6794 17.2766H34.4259C35.0765 17.2766 35.5421 17.3861 35.9187 17.5935C36.0921 17.7152 36.1622 17.8344 36.1738 17.8844C36.1851 17.9399 36.2082 17.9686 36.0718 18.121C35.7989 18.4257 34.6927 18.9675 32.496 18.9106C32.49 18.9106 32.484 18.9106 32.4781 18.9106H25.1527C25.4063 18.3956 25.5823 17.8457 25.6794 17.2766ZM37.1101 19.3899C37.2685 20.0019 37.3668 20.7686 37.3668 21.7381V41.9257C37.3668 43.155 37.2414 44.0823 36.9394 44.5699C36.6373 45.0574 36.1807 45.3559 34.8358 45.3531C34.8335 45.3531 34.8313 45.3531 34.829 45.3531H5.18928C5.09483 45.3531 5.04411 45.3035 5.04411 45.2067V38.1317H8.54014C9.52637 38.1317 10.3488 37.3024 10.3488 36.3078V29.598C10.3488 28.6034 9.52637 27.7805 8.54014 27.7805H5.04411V20.704C5.04411 20.6074 5.0945 20.5591 5.18928 20.5591H16.1159C16.152 20.5615 16.1882 20.5615 16.2243 20.5591H23.5672C23.6033 20.5615 23.6395 20.5615 23.6756 20.5591H32.4539C34.7468 20.6182 36.2366 20.2171 37.1094 19.3899L37.1101 19.3899ZM1.80861 29.4275H8.54068C8.65016 29.4275 8.71612 29.4875 8.71612 29.5981V36.308C8.71612 36.4186 8.65016 36.4847 8.54068 36.4847H4.36524C4.31683 36.4758 4.26772 36.4712 4.21851 36.4711C4.17623 36.4724 4.13411 36.4769 4.09254 36.4847H1.80863C1.69905 36.4847 1.63321 36.4179 1.63321 36.308V29.5981C1.63321 29.4875 1.69908 29.4275 1.80861 29.4275Z" fill="#FF842A"/>
</svg>
