<svg width="118" height="117" viewBox="0 0 118 117" fill="none" xmlns="http://www.w3.org/2000/svg">
<path d="M105.863 81.0392C105.674 80.791 105.432 80.5872 105.156 80.4419C104.879 80.2966 104.575 80.2135 104.263 80.1982C100.989 80.2266 97.7581 80.9476 94.7829 82.3138C91.8076 83.68 89.1552 85.6604 87 88.1248C84.6468 85.4283 81.6998 83.3147 78.3911 81.9504C75.0824 80.586 71.5022 80.0082 67.9322 80.2623C64.3623 80.5164 60.9 81.5955 57.8179 83.4148C54.7358 85.234 52.1179 87.7437 50.1703 90.7464C49.9649 91.0609 49.8555 91.4283 49.8555 91.8039C49.8555 92.1795 49.9649 92.547 50.1703 92.8615C52.1189 95.8634 54.7375 98.3721 57.8201 100.19C60.9027 102.008 64.3652 103.086 67.9351 103.339C71.505 103.592 75.0849 103.014 78.3932 101.648C81.7014 100.283 84.6476 98.1686 87 95.4714C89.1552 97.9359 91.8076 99.9163 94.7829 101.282C97.7581 102.649 100.989 103.37 104.263 103.398H104.274C104.587 103.398 104.896 103.321 105.173 103.175C105.45 103.029 105.688 102.818 105.865 102.56C106.043 102.302 106.155 102.005 106.192 101.694C106.229 101.382 106.19 101.067 106.078 100.775C103.84 95.0048 103.84 88.607 106.078 82.8372C106.192 82.5428 106.232 82.225 106.194 81.9115C106.157 81.5981 106.043 81.2986 105.863 81.0392ZM54.1472 91.7981C55.8378 89.5448 58.0023 87.69 60.4879 86.3645C62.9736 85.039 65.7199 84.2751 68.533 84.1267C69.9559 89.142 69.9559 94.4542 68.533 99.4695C65.7199 99.3212 62.9736 98.5573 60.4879 97.2318C58.0023 95.9063 55.8378 94.0514 54.1472 91.7981ZM72.5891 99.2665C73.7594 94.3564 73.7594 89.2399 72.5891 84.3297C77.5407 85.1176 81.994 87.7947 85.0126 91.7981C81.994 95.8015 77.5407 98.4786 72.5891 99.2665ZM101.54 99.3091C96.5363 98.5395 92.0313 95.844 88.9875 91.7981C92.0313 87.7523 96.5363 85.0568 101.54 84.2872C100.197 89.2044 100.197 94.3918 101.54 99.3091Z" fill="#FF842A"/>
<path d="M61.863 91.7983C62.9307 91.7983 63.7963 90.9327 63.7963 89.865C63.7963 88.7972 62.9307 87.9316 61.863 87.9316C60.7953 87.9316 59.9297 88.7972 59.9297 89.865C59.9297 90.9327 60.7953 91.7983 61.863 91.7983Z" fill="#FF842A"/>
<path d="M108.267 66.665H50.2675C47.7047 66.6681 45.2477 67.6875 43.4356 69.4997C41.6234 71.3119 40.604 73.7688 40.6009 76.3316V80.9368C39.4979 79.6543 38.0031 78.7709 36.3476 78.4235C36.0511 75.987 36.4682 73.5168 37.5482 71.3127L38.4723 69.4645C38.6459 69.1222 38.7137 68.7359 38.667 68.355C38.6204 67.974 38.4613 67.6155 38.2102 67.3253C37.9592 67.035 37.6273 66.826 37.2571 66.7249C36.8868 66.6239 36.4948 66.6353 36.1311 66.7578C33.4862 67.6389 31.1079 69.1763 29.2186 71.2263C27.3293 73.2762 25.9906 75.7717 25.3277 78.4795C23.4925 78.9208 21.8821 80.018 20.7998 81.5644C19.7176 83.1109 19.2383 84.9997 19.4522 86.875C19.6661 88.7504 20.5586 90.4827 21.9613 91.7456C23.3641 93.0086 25.1803 93.7149 27.0677 93.7314C28.4292 93.7251 29.7643 93.3547 30.9343 92.6585C32.4748 93.577 34.2907 93.9203 36.0602 93.6277C37.8296 93.335 39.4383 92.4252 40.6009 91.0596V107.265C40.604 109.827 41.6234 112.284 43.4356 114.097C45.2477 115.909 47.7047 116.928 50.2675 116.931H108.267C110.83 116.928 113.287 115.909 115.099 114.097C116.911 112.284 117.93 109.827 117.934 107.265V87.9315C117.934 87.4188 117.73 86.927 117.367 86.5644C117.005 86.2019 116.513 85.9982 116 85.9982C115.487 85.9982 114.996 86.2019 114.633 86.5644C114.271 86.927 114.067 87.4188 114.067 87.9315V107.265C114.067 108.803 113.456 110.278 112.368 111.366C111.28 112.454 109.805 113.065 108.267 113.065H50.2675C48.7292 113.065 47.254 112.454 46.1663 111.366C45.0786 110.278 44.4675 108.803 44.4675 107.265V76.3316C44.4675 74.7934 45.0786 73.3181 46.1663 72.2304C47.254 71.1427 48.7292 70.5317 50.2675 70.5317H108.267C109.805 70.5317 111.28 71.1427 112.368 72.2304C113.456 73.3181 114.067 74.7934 114.067 76.3316V80.1982C114.067 80.711 114.271 81.2027 114.633 81.5653C114.996 81.9279 115.487 82.1316 116 82.1316C116.513 82.1316 117.005 81.9279 117.367 81.5653C117.73 81.2027 117.934 80.711 117.934 80.1982V76.3316C117.93 73.7688 116.911 71.3119 115.099 69.4997C113.287 67.6875 110.83 66.6681 108.267 66.665ZM32.8038 73.0894C32.3692 74.9155 32.2457 76.8018 32.4384 78.669C31.9127 78.8374 31.4065 79.0617 30.9285 79.3379C30.4149 79.0394 29.8679 78.8026 29.2987 78.6323C29.9607 76.5092 31.1695 74.5976 32.8038 73.0894ZM23.2011 85.9982C23.2046 85.0035 23.5914 84.0485 24.2809 83.3317C24.9704 82.6148 25.9096 82.1912 26.9034 82.149L27.0967 82.1335C27.8603 82.1392 28.605 82.3709 29.2371 82.7993C29.8692 83.2277 30.3603 83.8337 30.6484 84.5409C30.9366 85.248 31.0089 86.0246 30.8563 86.7728C30.7037 87.521 30.333 88.2072 29.7909 88.745C29.2488 89.2828 28.5596 89.648 27.8103 89.7947C27.0609 89.9413 26.2849 89.8628 25.58 89.569C24.8752 89.2752 24.2732 88.7793 23.8498 88.1439C23.4264 87.5084 23.2007 86.7618 23.2011 85.9982ZM34.801 89.8648C34.4639 89.8624 34.1287 89.8129 33.8053 89.7179C34.4577 88.5868 34.8011 87.304 34.8011 85.9982C34.8011 84.6924 34.4577 83.4096 33.8053 82.2785C34.1287 82.1835 34.4639 82.134 34.801 82.1316C35.8265 82.1316 36.8099 82.5389 37.5351 83.2641C38.2602 83.9892 38.6676 84.9727 38.6676 85.9982C38.6676 87.0237 38.2602 88.0072 37.5351 88.7323C36.8099 89.4574 35.8265 89.8648 34.801 89.8648Z" fill="#FF842A"/>
<path d="M36.733 113.065H15.4665C13.9283 113.065 12.453 112.454 11.3653 111.366C10.2776 110.278 9.66658 108.803 9.66658 107.265V101.465H34.7997C35.3124 101.465 35.8042 101.261 36.1667 100.898C36.5293 100.536 36.733 100.044 36.733 99.5314C36.733 99.0187 36.5293 98.5269 36.1667 98.1644C35.8042 97.8018 35.3124 97.5981 34.7997 97.5981H9.66658V62.7984H61.8661C62.3789 62.7984 62.8706 62.5947 63.2332 62.2322C63.5957 61.8696 63.7994 61.3779 63.7994 60.8651V51.1985C65.3377 51.1985 66.8129 50.5875 67.9006 49.4998C68.9883 48.4121 69.5994 46.9368 69.5994 45.3986C69.5994 43.8603 68.9883 42.3851 67.9006 41.2974C66.8129 40.2097 65.3377 39.5986 63.7994 39.5986H23.1998C22.687 39.5986 22.1953 39.8023 21.8327 40.1649C21.4702 40.5275 21.2665 41.0192 21.2665 41.5319C21.2665 42.0447 21.4702 42.5364 21.8327 42.899C22.1953 43.2616 22.687 43.4653 23.1998 43.4653H63.7994C64.3122 43.4653 64.8039 43.669 65.1665 44.0315C65.5291 44.3941 65.7327 44.8858 65.7327 45.3986C65.7327 45.9113 65.5291 46.4031 65.1665 46.7656C64.8039 47.1282 64.3122 47.3319 63.7994 47.3319H5.79995C5.2872 47.3319 4.79545 47.1282 4.43289 46.7656C4.07032 46.4031 3.86663 45.9113 3.86663 45.3986C3.86663 44.8858 4.07032 44.3941 4.43289 44.0315C4.79545 43.669 5.2872 43.4653 5.79995 43.4653H15.4665C15.9793 43.4653 16.471 43.2616 16.8336 42.899C17.1962 42.5364 17.3998 42.0447 17.3998 41.5319C17.3998 41.0192 17.1962 40.5275 16.8336 40.1649C16.471 39.8023 15.9793 39.5986 15.4665 39.5986H5.79995C4.26171 39.5986 2.78647 40.2097 1.69877 41.2974C0.611064 42.3851 0 43.8603 0 45.3986C0 46.9368 0.611064 48.4121 1.69877 49.4998C2.78647 50.5875 4.26171 51.1985 5.79995 51.1985V107.265C5.80302 109.827 6.82244 112.284 8.63461 114.097C10.4468 115.909 12.9037 116.928 15.4665 116.931H36.733C37.2458 116.931 37.7375 116.728 38.1001 116.365C38.4626 116.002 38.6663 115.511 38.6663 114.998C38.6663 114.485 38.4626 113.993 38.1001 113.631C37.7375 113.268 37.2458 113.065 36.733 113.065ZM59.9328 51.1985V58.9318H9.66658V51.1985H59.9328Z" fill="#FF842A"/>
<path d="M117.263 1.40441C117.053 1.2222 116.806 1.08746 116.539 1.00939C116.272 0.931316 115.992 0.911747 115.717 0.952018L109.789 1.79881C104.892 2.50063 99.9287 2.60515 95.0069 2.11007L90.4017 1.64994C85.5504 1.16609 80.6603 1.22704 75.8226 1.83168L74.8327 1.95348C70.0579 2.54979 65.2295 2.58289 60.4469 2.05207L50.471 0.944284C50.139 0.907406 49.8032 0.957158 49.4962 1.08869C49.1892 1.22022 48.9215 1.42905 48.7192 1.69482C48.5169 1.96059 48.3869 2.27423 48.3419 2.60519C48.2968 2.93614 48.3383 3.27311 48.4623 3.58326L52.1974 12.9057V20.2658C52.1974 20.3219 52.2245 20.3683 52.2284 20.4244C52.2323 20.4804 52.2149 20.5288 52.2284 20.5829C52.9864 25.1492 53.3146 29.7766 53.2086 34.4042C53.2027 34.6581 53.2468 34.9107 53.3386 35.1475C53.4303 35.3843 53.5678 35.6007 53.7432 35.7844C53.9186 35.9681 54.1285 36.1154 54.3609 36.2179C54.5932 36.3204 54.8435 36.3762 55.0974 36.382H55.1419C55.6474 36.3821 56.1328 36.1842 56.4941 35.8308C56.8555 35.4774 57.0641 34.9965 57.0752 34.4912C57.1617 30.3813 56.9218 26.2711 56.3579 22.1992H113.988C113.924 23.8595 113.736 25.5126 113.424 27.1446C112.544 31.5232 112.472 36.0256 113.209 40.4303L113.615 42.8663C113.813 44.0896 113.942 45.3231 114.002 46.5609L113.186 46.2883C112.202 45.9596 111.206 45.6947 110.207 45.4434V35.7324C110.214 34.1579 109.738 32.6191 108.843 31.3234C107.949 30.0277 106.678 29.0373 105.204 28.4857C103.729 27.9342 102.121 27.848 100.595 28.2387C99.0701 28.6294 97.7013 29.4783 96.6734 30.6709C96.5574 30.5395 96.4646 30.3925 96.3389 30.2669C95.5929 29.5138 94.6989 28.9235 93.7134 28.5332C92.7279 28.1428 91.6722 27.9609 90.6129 27.9988C89.5535 28.0368 88.5135 28.2938 87.5585 28.7537C86.6034 29.2136 85.754 29.8664 85.0638 30.6709C84.9478 30.5395 84.855 30.3925 84.7294 30.2669C83.9835 29.5154 83.0901 28.9264 82.1055 28.537C81.1209 28.1476 80.0664 27.9661 79.0082 28.0041C77.9501 28.042 76.9113 28.2985 75.9571 28.7575C75.0029 29.2165 74.1541 29.868 73.4639 30.6709C73.3479 30.5395 73.2551 30.3925 73.1295 30.2669C72.048 29.1865 70.6705 28.4508 69.1711 28.1529C67.6718 27.855 66.1177 28.0081 64.7053 28.593C63.2929 29.1778 62.0856 30.1682 61.2358 31.4389C60.3859 32.7096 59.9318 34.2037 59.9307 35.7324C59.9307 36.2451 60.1344 36.7369 60.497 37.0994C60.8595 37.462 61.3513 37.6657 61.864 37.6657C62.3768 37.6657 62.8685 37.462 63.2311 37.0994C63.5937 36.7369 63.7973 36.2451 63.7973 35.7324C63.7973 34.7069 64.2047 33.7234 64.9299 32.9982C65.655 32.2731 66.6385 31.8657 67.664 31.8657C68.6895 31.8657 69.673 32.2731 70.3981 32.9982C71.1232 33.7234 71.5306 34.7069 71.5306 35.7324V52.2236C71.5306 52.7363 71.7343 53.228 72.0969 53.5906C72.4594 53.9532 72.9512 54.1569 73.4639 54.1569C73.5181 54.1569 73.5625 54.1317 73.6147 54.1279C73.6766 54.1279 73.7404 54.1279 73.8081 54.1279C77.9499 53.7293 82.0051 52.6917 85.8294 51.052C94.1109 47.5007 103.408 47.1134 111.956 49.9635L114.064 50.6576V62.7988C114.064 63.3115 114.267 63.8033 114.63 64.1659C114.992 64.5284 115.484 64.7321 115.997 64.7321C116.51 64.7321 117.001 64.5284 117.364 64.1659C117.727 63.8033 117.93 63.3115 117.93 62.7988V48.2989C117.929 46.2689 117.761 44.2423 117.428 42.2399L117.022 39.7923C116.362 35.849 116.428 31.8184 117.215 27.8986C117.691 25.5204 117.93 23.101 117.93 20.6757V2.866C117.93 2.5888 117.871 2.31482 117.756 2.06264C117.641 1.81046 117.473 1.58598 117.263 1.40441ZM90.8638 31.8657C91.8893 31.8657 92.8728 32.2731 93.5979 32.9982C94.323 33.7234 94.7304 34.7069 94.7304 35.7324V44.5928C92.0973 44.966 89.5071 45.5967 86.9971 46.4758V35.7324C86.9971 34.7069 87.4045 33.7234 88.1296 32.9982C88.8548 32.2731 89.8383 31.8657 90.8638 31.8657ZM79.2639 31.8657C80.2894 31.8657 81.2729 32.2731 81.998 32.9982C82.7231 33.7234 83.1305 34.7069 83.1305 35.7324V47.9393C80.6361 48.9081 78.0428 49.5999 75.3972 50.0022V35.7324C75.3972 34.7069 75.8046 33.7234 76.5297 32.9982C77.2549 32.2731 78.2384 31.8657 79.2639 31.8657ZM98.597 44.239V35.7324C98.597 34.7069 99.0044 33.7234 99.7295 32.9982C100.455 32.2731 101.438 31.8657 102.464 31.8657C103.489 31.8657 104.473 32.2731 105.198 32.9982C105.923 33.7234 106.33 34.7069 106.33 35.7324V44.6624C103.772 44.2735 101.182 44.1317 98.597 44.239ZM56.0641 14.4659H114.064V18.3325H56.0641V14.4659ZM60.0254 5.89551C65.1089 6.45823 70.2408 6.4232 75.316 5.79111L76.3059 5.66737C80.857 5.10041 85.4571 5.04335 90.0208 5.49724L94.626 5.95931C99.8589 6.48075 105.136 6.36975 110.342 5.62871L114.064 5.09511V10.5993H55.4396L53.2569 5.14345L60.0254 5.89551Z" fill="#FF842A"/>
<path d="M71.531 62.7988H90.8641C91.3769 62.7988 91.8686 62.5951 92.2312 62.2325C92.5938 61.8699 92.7974 61.3782 92.7974 60.8654C92.7974 60.3527 92.5938 59.8609 92.2312 59.4984C91.8686 59.1358 91.3769 58.9321 90.8641 58.9321H71.531C71.0182 58.9321 70.5265 59.1358 70.1639 59.4984C69.8013 59.8609 69.5977 60.3527 69.5977 60.8654C69.5977 61.3782 69.8013 61.8699 70.1639 62.2325C70.5265 62.5951 71.0182 62.7988 71.531 62.7988Z" fill="#FF842A"/>
<path d="M108.268 62.7988C108.781 62.7988 109.272 62.5951 109.635 62.2325C109.997 61.8699 110.201 61.3782 110.201 60.8654C110.201 60.3527 109.997 59.8609 109.635 59.4984C109.272 59.1358 108.781 58.9321 108.268 58.9321H98.6013C98.0885 58.9321 97.5968 59.1358 97.2342 59.4984C96.8717 59.8609 96.668 60.3527 96.668 60.8654C96.668 61.3782 96.8717 61.8699 97.2342 62.2325C97.5968 62.5951 98.0885 62.7988 98.6013 62.7988H108.268Z" fill="#FF842A"/>
</svg>
