<svg width="114" height="115" viewBox="0 0 114 115" fill="none" xmlns="http://www.w3.org/2000/svg">
<path d="M39.9013 18.015C39.9013 17.511 39.7012 17.0277 39.3449 16.6713C38.9885 16.3149 38.5053 16.1147 38.0014 16.1147C37.4975 16.1147 37.0142 16.3149 36.6579 16.6713C36.3016 17.0277 36.1014 17.511 36.1014 18.015V19.9153H32.3015C30.9634 19.9232 29.6517 20.2879 28.5016 20.9719V16.1147C28.5016 15.6107 28.3014 15.1273 27.9451 14.771C27.5888 14.4146 27.1055 14.2144 26.6016 14.2144C26.0977 14.2144 25.6144 14.4146 25.2581 14.771C24.9018 15.1273 24.7016 15.6107 24.7016 16.1147V20.9719C23.5515 20.2879 22.2398 19.9232 20.9017 19.9153H17.1018V18.015C17.1018 17.511 16.9016 17.0277 16.5453 16.6713C16.189 16.3149 15.7057 16.1147 15.2018 16.1147C14.6979 16.1147 14.2146 16.3149 13.8583 16.6713C13.502 17.0277 13.3018 17.511 13.3018 18.015V21.8157C13.3088 23.8784 13.9938 25.8816 15.2512 27.5166H15.2018C14.6979 27.5166 14.2146 27.7169 13.8583 28.0732C13.502 28.4296 13.3018 28.913 13.3018 29.417C13.3049 31.936 14.3067 34.3511 16.0876 36.1323C17.8685 37.9136 20.2831 38.9156 22.8017 38.9186H24.7016V42.7192C24.7016 43.2232 24.9018 43.7066 25.2581 44.063C25.6144 44.4194 26.0977 44.6196 26.6016 44.6196C27.1055 44.6196 27.5888 44.4194 27.9451 44.063C28.3014 43.7066 28.5016 43.2232 28.5016 42.7192V38.9186H30.4015C32.9201 38.9156 35.3347 37.9136 37.1156 36.1323C38.8965 34.3511 39.8983 31.936 39.9013 29.417C39.9013 28.913 39.7012 28.4296 39.3449 28.0732C38.9885 27.7169 38.5053 27.5166 38.0014 27.5166H37.952C39.2094 25.8816 39.8944 23.8784 39.9013 21.8157V18.015ZM32.3015 23.716H35.7765C35.3821 24.8267 34.6538 25.7883 33.6915 26.4687C32.7292 27.1492 31.58 27.5152 30.4015 27.5166H28.5016C28.5016 26.5086 28.9019 25.5419 29.6145 24.8292C30.3272 24.1164 31.2937 23.716 32.3015 23.716ZM20.9017 23.716C21.9095 23.716 22.876 24.1164 23.5887 24.8292C24.3013 25.5419 24.7016 26.5086 24.7016 27.5166H22.8017C21.6232 27.5152 20.474 27.1492 19.5117 26.4687C18.5494 25.7883 17.8211 24.8267 17.4267 23.716H20.9017ZM17.4267 31.3173H20.9017C21.9095 31.3173 22.876 31.7177 23.5887 32.4305C24.3013 33.1432 24.7016 34.11 24.7016 35.1179H22.8017C21.6232 35.1165 20.474 34.7505 19.5117 34.07C18.5494 33.3896 17.8211 32.428 17.4267 31.3173ZM30.4015 35.1179H28.5016C28.5016 34.11 28.9019 33.1432 29.6145 32.4305C30.3272 31.7177 31.2937 31.3173 32.3015 31.3173H35.7765C35.3821 32.428 34.6538 33.3896 33.6915 34.07C32.7292 34.7505 31.58 35.1165 30.4015 35.1179Z" fill="#FF842A"/>
<path d="M102.6 38.9186C102.6 36.3986 101.599 33.9818 99.8177 32.1999C98.0361 30.418 95.6198 29.417 93.1003 29.417C90.5808 29.417 88.1645 30.418 86.3829 32.1999C84.6014 33.9818 83.6005 36.3986 83.6005 38.9186C83.6109 40.532 84.0376 42.1154 84.8393 43.5155L79.8557 48.5L66.4267 35.0666L87.9172 13.5625L102.695 28.3433C102.87 28.5248 103.08 28.6696 103.312 28.7691C103.544 28.8687 103.793 28.9212 104.045 28.9234C104.298 28.9255 104.548 28.8775 104.781 28.7819C105.015 28.6864 105.227 28.5453 105.405 28.3668C105.584 28.1884 105.725 27.9762 105.82 27.7427C105.916 27.5091 105.964 27.2589 105.962 27.0066C105.959 26.7543 105.907 26.5049 105.807 26.2731C105.708 26.0412 105.563 25.8315 105.382 25.6562L102.695 22.9692L108.07 17.5931L110.757 20.2802C111.115 20.6264 111.595 20.8179 112.093 20.8136C112.591 20.8092 113.068 20.6094 113.42 20.257C113.772 19.9047 113.972 19.4281 113.977 18.9298C113.981 18.4316 113.789 17.9515 113.443 17.5931L97.3239 1.47077C96.9656 1.12461 96.4857 0.933071 95.9875 0.937401C95.4893 0.941731 95.0128 1.14159 94.6605 1.49392C94.3083 1.84626 94.1084 2.32288 94.1041 2.82114C94.0998 3.3194 94.2913 3.79943 94.6374 4.15783L97.3239 6.8449L91.947 12.219L89.2605 9.53196C88.9042 9.1757 88.421 8.97557 87.9172 8.97557C87.4134 8.97557 86.9302 9.1757 86.5739 9.53196L62.3912 33.7193C62.035 34.0757 61.8349 34.5589 61.8349 35.0628C61.8349 35.5667 62.035 36.05 62.3912 36.4064L63.7345 37.7499L57.0181 44.4675C56.6619 44.8239 56.4618 45.3072 56.4618 45.8111C56.4618 46.315 56.6619 46.7982 57.0181 47.1546L58.3614 48.5L52.9864 53.8742C52.6302 54.2305 52.4301 54.7138 52.4301 55.2177C52.4301 55.7216 52.6302 56.2049 52.9864 56.5612L58.3614 61.9372C58.7177 62.2935 59.2009 62.4936 59.7047 62.4936C60.2085 62.4936 60.6916 62.2935 61.0479 61.9372L66.421 56.5612L67.7662 57.9048C68.1225 58.261 68.6057 58.4611 69.1095 58.4611C69.6133 58.4611 70.0965 58.261 70.4528 57.9048L73.4927 54.8642C73.6692 54.6878 73.8093 54.4783 73.9049 54.2477C74.0004 54.0172 74.0497 53.77 74.0498 53.5204C74.0499 53.2708 74.0008 53.0236 73.9054 52.793C73.81 52.5624 73.6701 52.3528 73.4936 52.1762C73.3172 51.9997 73.1078 51.8596 72.8773 51.764C72.6467 51.6684 72.3997 51.6191 72.1501 51.619C71.9005 51.619 71.6534 51.668 71.4228 51.7635C71.1922 51.8589 70.9827 51.9988 70.8061 52.1753L69.1171 53.8666L61.0555 45.8035L66.421 40.4389L78.5124 52.5325C78.8687 52.8888 79.3519 53.0889 79.8557 53.0889C80.3595 53.0889 80.8427 52.8888 81.199 52.5325L87.3225 46.4097C88.4008 47.2638 89.6548 47.8683 90.9945 48.1798C92.3342 48.4913 93.7262 48.502 95.0706 48.2112C99.9162 53.4344 102.606 60.2981 102.6 67.4235C102.603 73.1957 100.852 78.8325 97.5808 83.5877C94.3093 88.3429 89.6711 91.9922 84.2801 94.0524C78.8891 96.1126 72.9996 96.4866 67.3914 95.1249C61.7832 93.7632 56.7208 90.7299 52.8743 86.4268H60.8009C62.8165 86.4268 64.7496 85.6259 66.1749 84.2004C67.6001 82.7749 68.4008 80.8414 68.4008 78.8254V76.9251C68.4008 76.4211 68.2006 75.9378 67.8443 75.5814C67.488 75.225 67.0047 75.0248 66.5008 75.0248H62.7009V73.1245C62.6979 70.6054 61.696 68.1904 59.9151 66.4091C58.1342 64.6279 55.7197 63.6259 53.2011 63.6228H38.0014C35.4828 63.6259 33.0682 64.6279 31.2873 66.4091C29.5064 68.1904 28.5046 70.6054 28.5016 73.1245V75.0248H24.7016C24.1977 75.0248 23.7145 75.225 23.3582 75.5814C23.0018 75.9378 22.8017 76.4211 22.8017 76.9251V78.8254C22.8017 80.8414 23.6024 82.7749 25.0276 84.2004C26.4529 85.6259 28.3859 86.4268 30.4015 86.4268H48.0028C52.0121 91.9428 57.6645 96.0477 64.1498 98.1529C70.6352 100.258 77.6204 100.256 84.1042 98.1457C90.5881 96.0357 96.2375 91.9268 100.243 86.4078C104.248 80.8888 106.403 74.2431 106.4 67.4235C106.411 59.7706 103.676 52.3677 98.6938 46.5598C99.732 45.7932 100.603 44.8234 101.255 43.7093C107.037 50.2533 110.219 58.6904 110.2 67.4235C110.206 74.9274 107.872 82.2464 103.524 88.3615C99.1759 94.4767 93.0294 99.0835 85.9406 101.541C78.8517 103.998 71.1732 104.183 63.9742 102.07C56.7751 99.9578 50.4139 95.6526 45.776 89.7542C45.6238 89.5522 45.4328 89.3827 45.2142 89.2555C44.9957 89.1283 44.7539 89.046 44.5031 89.0134C44.2523 88.9809 43.9975 88.9988 43.7538 89.066C43.51 89.1332 43.282 89.2485 43.0833 89.405C42.8847 89.5614 42.7192 89.756 42.5967 89.9773C42.4742 90.1985 42.397 90.442 42.3698 90.6935C42.3426 90.945 42.3659 91.1993 42.4382 91.4417C42.5106 91.6841 42.6306 91.9096 42.7912 92.1049C46.6112 96.9722 51.5112 100.884 57.1036 103.53H55.101C53.5893 103.53 52.1396 104.13 51.0706 105.199C50.0017 106.269 49.4012 107.719 49.4012 109.231V113.031C49.4012 113.535 49.6013 114.019 49.9576 114.375C50.314 114.731 50.7972 114.932 51.3011 114.932H64.6009C65.1048 114.932 65.588 114.731 65.9443 114.375C66.3007 114.019 66.5008 113.535 66.5008 113.031C66.5008 112.527 66.3007 112.044 65.9443 111.688C65.588 111.331 65.1048 111.131 64.6009 111.131H53.2011V109.231C53.2011 108.727 53.4013 108.243 53.7576 107.887C54.1139 107.531 54.5971 107.33 55.101 107.33H93.1003C93.6042 107.33 94.0875 107.531 94.4438 107.887C94.8001 108.243 95.0003 108.727 95.0003 109.231V111.131H72.2007C71.6968 111.131 71.2136 111.331 70.8572 111.688C70.5009 112.044 70.3008 112.527 70.3008 113.031C70.3008 113.535 70.5009 114.019 70.8572 114.375C71.2136 114.731 71.6968 114.932 72.2007 114.932H96.9002C97.4042 114.932 97.8874 114.731 98.2437 114.375C98.6 114.019 98.8002 113.535 98.8002 113.031V109.231C98.8002 107.719 98.1997 106.269 97.1308 105.199C96.0618 104.13 94.612 103.53 93.1003 103.53H90.9838C97.8526 100.319 103.665 95.2184 107.741 88.8242C111.817 82.4299 113.988 75.0068 114 67.4235C114.021 56.974 109.9 46.9423 102.539 39.5267C102.553 39.3215 102.6 39.1276 102.6 38.9186ZM100.009 9.53006L105.384 14.9061L100.009 20.2802L94.6355 14.9061L100.009 9.53006ZM63.7345 53.8742L59.7047 57.9067L57.0162 55.2177L61.0479 51.1871L63.7345 53.8742ZM32.3015 73.1245C32.3064 71.9496 32.674 70.8049 33.3542 69.847C34.0344 68.8891 34.9939 68.1648 36.1014 67.7731V69.3238C36.1014 69.8278 36.3016 70.3112 36.6579 70.6676C37.0142 71.0239 37.4975 71.2241 38.0014 71.2241C38.5053 71.2241 38.9885 71.0239 39.3449 70.6676C39.7012 70.3112 39.9013 69.8278 39.9013 69.3238V67.4235H43.7013V69.3238C43.7013 69.8278 43.9014 70.3112 44.2578 70.6676C44.6141 71.0239 45.0973 71.2241 45.6012 71.2241C46.1051 71.2241 46.5884 71.0239 46.9447 70.6676C47.301 70.3112 47.5012 69.8278 47.5012 69.3238V67.4235H51.3011V69.3238C51.3011 69.8278 51.5013 70.3112 51.8576 70.6676C52.2139 71.0239 52.6972 71.2241 53.2011 71.2241C53.705 71.2241 54.1883 71.0239 54.5446 70.6676C54.9009 70.3112 55.101 69.8278 55.101 69.3238V67.7731C56.2086 68.1648 57.168 68.8891 57.8482 69.847C58.5284 70.8049 58.8961 71.9496 58.901 73.1245V75.0248H32.3015V73.1245ZM26.6016 78.8254H64.6009C64.6009 79.8334 64.2005 80.8002 63.4879 81.5129C62.7753 82.2257 61.8087 82.6261 60.8009 82.6261H30.4015C29.3937 82.6261 28.4272 82.2257 27.7146 81.5129C27.0019 80.8002 26.6016 79.8334 26.6016 78.8254ZM87.4004 38.9186C87.4004 37.791 87.7347 36.6888 88.361 35.7513C88.9874 34.8138 89.8775 34.0831 90.9191 33.6516C91.9606 33.2201 93.1066 33.1072 94.2123 33.3272C95.318 33.5471 96.3336 34.0901 97.1308 34.8874C97.9279 35.6847 98.4708 36.7005 98.6907 37.8064C98.9106 38.9123 98.7977 40.0585 98.3663 41.1003C97.9349 42.142 97.2044 43.0324 96.267 43.6588C95.3297 44.2852 94.2277 44.6196 93.1003 44.6196C91.5886 44.6196 90.1388 44.0189 89.0699 42.9498C88.001 41.8807 87.4004 40.4306 87.4004 38.9186Z" fill="#FF842A"/>
<path d="M93.1003 40.8189C94.1496 40.8189 95.0003 39.9681 95.0003 38.9186C95.0003 37.8691 94.1496 37.0183 93.1003 37.0183C92.051 37.0183 91.2003 37.8691 91.2003 38.9186C91.2003 39.9681 92.051 40.8189 93.1003 40.8189Z" fill="#FF842A"/>
<path d="M33.8804 53.1026L44.6227 59.5504C44.9479 59.7459 45.324 59.8395 45.7028 59.8193C46.0816 59.7991 46.4456 59.666 46.7481 59.437C47.0506 59.2081 47.2776 58.8938 47.4 58.5347C47.5223 58.1756 47.5344 57.7881 47.4347 57.4221L44.6132 47.09C49.4298 42.6721 52.4464 36.6314 53.0845 30.1261C53.7226 23.6208 51.9374 17.1089 48.0712 11.839C47.772 11.4366 47.3259 11.1688 46.8302 11.094C46.3345 11.0192 45.8293 11.1433 45.4247 11.4394C45.0201 11.7355 44.7489 12.1796 44.6702 12.6748C44.5916 13.17 44.7118 13.6763 45.0046 14.0832C48.4252 18.7449 49.9415 24.5348 49.2451 30.275C48.5487 36.0152 45.6919 41.2744 41.256 44.9825C40.9782 45.2162 40.7732 45.5245 40.6651 45.871C40.557 46.2176 40.5504 46.5878 40.6461 46.938L42.5328 53.859L35.1229 49.4103C34.892 49.2697 34.6337 49.1801 34.3654 49.1473C34.0971 49.1145 33.8248 49.1394 33.5669 49.2203C29.8529 50.4193 25.8933 50.6447 22.0673 49.875C18.2412 49.1052 14.6768 47.366 11.7152 44.8239C8.75356 42.2818 6.49395 39.0219 5.15265 35.3563C3.81136 31.6906 3.43328 27.742 4.05461 23.8883C4.67595 20.0347 6.2759 16.4051 8.70129 13.347C11.1267 10.2889 14.2963 7.90466 17.9068 6.42259C21.5172 4.94052 25.4476 4.41022 29.3216 4.88244C33.1956 5.35466 36.8836 6.8136 40.0324 9.11959C40.4393 9.41253 40.9455 9.53275 41.4406 9.45405C41.9357 9.37536 42.3797 9.10412 42.6757 8.69945C42.9718 8.29478 43.0959 7.78949 43.0211 7.29367C42.9463 6.79785 42.6786 6.35171 42.2763 6.05246C38.6335 3.39046 34.3733 1.6993 29.8968 1.13812C25.4204 0.576937 20.8747 1.1642 16.6877 2.84463C12.5007 4.52507 8.81006 7.24341 5.96306 10.7438C3.11606 14.2443 1.20635 18.4117 0.413663 22.8539C-0.379027 27.296 -0.0286336 31.8669 1.43187 36.1363C2.89237 40.4057 5.41495 44.2332 8.76221 47.2586C12.1095 50.284 16.1713 52.4078 20.5655 53.4302C24.9597 54.4525 29.5417 54.3398 33.8804 53.1026Z" fill="#FF842A"/>
</svg>
