<svg width="116" height="116" viewBox="0 0 116 116" fill="none" xmlns="http://www.w3.org/2000/svg">
<path d="M1.93303 3.86667H114.049C114.561 3.86667 115.053 3.66298 115.415 3.30041C115.778 2.93784 115.982 2.44609 115.982 1.93333C115.982 1.42058 115.778 0.92883 115.415 0.56626C115.053 0.20369 114.561 0 114.049 0H1.93303C1.42036 0 0.928683 0.20369 0.56617 0.56626C0.203657 0.92883 0 1.42058 0 1.93333C0 2.44609 0.203657 2.93784 0.56617 3.30041C0.928683 3.66298 1.42036 3.86667 1.93303 3.86667Z" fill="#FF842A"/>
<path d="M114.049 7.73333H1.93303C1.42036 7.73333 0.928683 7.93702 0.56617 8.29959C0.203657 8.66216 0 9.15391 0 9.66667C0 10.1794 0.203657 10.6712 0.56617 11.0337C0.928683 11.3963 1.42036 11.6 1.93303 11.6H42.5266V21.2667H32.8614C32.3488 21.2667 31.8571 21.4704 31.4946 21.8329C31.1321 22.1955 30.9284 22.6872 30.9284 23.2V25.1333H19.3303C17.2796 25.1333 15.3129 25.9481 13.8628 27.3984C12.4128 28.8487 11.5982 30.8157 11.5982 32.8667V54.1333C11.5982 54.6461 11.8018 55.1378 12.1643 55.5004C12.5268 55.863 13.0185 56.0667 13.5312 56.0667H19.0616C19.5742 56.0667 20.0659 55.863 20.4284 55.5004C20.7909 55.1378 20.9946 54.6461 20.9946 54.1333C20.9946 53.6206 20.7909 53.1288 20.4284 52.7663C20.0659 52.4037 19.5742 52.2 19.0616 52.2H15.4642V32.8667C15.4642 31.8412 15.8715 30.8577 16.5965 30.1325C17.3216 29.4074 18.3049 29 19.3303 29H30.9284V30.9333C30.9284 31.4461 31.1321 31.9378 31.4946 32.3004C31.8571 32.663 32.3488 32.8667 32.8614 32.8667H63.7898C64.3025 32.8667 64.7942 32.663 65.1567 32.3004C65.5192 31.9378 65.7229 31.4461 65.7229 30.9333V29H77.321C78.3464 29 79.3297 29.4074 80.0547 30.1325C80.7798 30.8577 81.1871 31.8412 81.1871 32.8667V52.2H77.321C76.8084 52.2 76.3167 52.4037 75.9542 52.7663C75.5917 53.1288 75.388 53.6206 75.388 54.1333C75.388 54.6461 75.5917 55.1378 75.9542 55.5004C76.3167 55.863 76.8084 56.0667 77.321 56.0667H83.1201C83.6328 56.0667 84.1244 55.863 84.487 55.5004C84.8495 55.1378 85.0531 54.6461 85.0531 54.1333V32.8667C85.0531 30.8157 84.2385 28.8487 82.7884 27.3984C81.3384 25.9481 79.3717 25.1333 77.321 25.1333H65.7229V23.2C65.7229 22.6872 65.5192 22.1955 65.1567 21.8329C64.7942 21.4704 64.3025 21.2667 63.7898 21.2667H54.1247V15.4667C54.1247 14.9539 53.9211 14.4622 53.5585 14.0996C53.196 13.737 52.7044 13.5333 52.1917 13.5333C51.679 13.5333 51.1873 13.737 50.8248 14.0996C50.4623 14.4622 50.2587 14.9539 50.2587 15.4667V21.2667H46.3926V11.6H114.049C114.561 11.6 115.053 11.3963 115.415 11.0337C115.778 10.6712 115.982 10.1794 115.982 9.66667C115.982 9.15391 115.778 8.66216 115.415 8.29959C115.053 7.93702 114.561 7.73333 114.049 7.73333ZM61.8568 25.1333V29H34.7945V25.1333H61.8568Z" fill="#FF842A"/>
<path d="M53.4172 54.5722C53.1954 54.392 52.9368 54.2628 52.6595 54.1936C52.3823 54.1245 52.0932 54.1171 51.8128 54.172C49.5986 54.6249 47.5273 55.6082 45.7766 57.0377C44.0259 58.4671 42.648 60.2999 41.7611 62.379C40.0625 63.0089 38.6396 64.2164 37.7417 65.7901C36.8437 67.3637 36.528 69.2032 36.8498 70.9862C37.1715 72.7693 38.1102 74.3823 39.5015 75.5428C40.8928 76.7032 42.648 77.3371 44.4596 77.3333C45.8208 77.3264 47.1555 76.9559 48.3256 76.2603C49.4956 76.9563 50.8304 77.3267 52.1917 77.3333C54.0712 77.3357 55.887 76.6519 57.2981 75.4102C58.7093 74.1686 59.6189 72.4546 59.8562 70.5898C60.0935 68.725 59.6421 66.8377 58.5868 65.2822C57.5316 63.7266 55.9449 62.6097 54.1247 62.1412V56.0667C54.1246 55.7807 54.0611 55.4984 53.9388 55.24C53.8164 54.9815 53.6383 54.7535 53.4172 54.5722ZM50.2587 58.7289V62.1489C49.5813 62.3232 48.931 62.5892 48.3256 62.9397C47.702 62.5737 47.0297 62.2977 46.3288 62.1199C47.3221 60.6674 48.6765 59.4987 50.2587 58.7289ZM40.5935 69.6C40.5935 68.8352 40.8203 68.0877 41.2451 67.4518C41.6699 66.8159 42.2737 66.3203 42.9801 66.0277C43.6865 65.735 44.4639 65.6584 45.2138 65.8076C45.9638 65.9568 46.6526 66.3251 47.1933 66.8659C47.734 67.4066 48.1022 68.0956 48.2514 68.8456C48.4005 69.5957 48.324 70.3732 48.0314 71.0797C47.7387 71.7862 47.2432 72.3901 46.6075 72.815C45.9717 73.2399 45.2242 73.4667 44.4596 73.4667C43.4342 73.4667 42.4509 73.0593 41.7259 72.3341C41.0009 71.609 40.5935 70.6255 40.5935 69.6ZM56.0577 69.6C56.0577 70.6255 55.6504 71.609 54.9254 72.3341C54.2004 73.0593 53.217 73.4667 52.1917 73.4667C51.8557 73.4615 51.522 73.4101 51.2 73.3139C51.8498 72.1841 52.1918 70.9034 52.1918 69.6C52.1918 68.2966 51.8498 67.0159 51.2 65.8861C51.522 65.7899 51.8557 65.7385 52.1917 65.7333C53.217 65.7333 54.2004 66.1407 54.9254 66.8659C55.6504 67.591 56.0577 68.5745 56.0577 69.6Z" fill="#FF842A"/>
<path d="M19.3303 102.467C19.3303 101.32 18.9901 100.198 18.3529 99.2444C17.7157 98.2906 16.81 97.5472 15.7504 97.1082C14.6907 96.6692 13.5247 96.5543 12.3998 96.7781C11.2749 97.0019 10.2416 97.5543 9.43061 98.3654C8.6196 99.1766 8.06729 100.21 7.84353 101.335C7.61977 102.46 7.73461 103.626 8.17353 104.686C8.61245 105.746 9.35573 106.652 10.3094 107.289C11.263 107.926 12.3842 108.267 13.5312 108.267C15.0692 108.267 16.5442 107.656 17.6317 106.568C18.7193 105.48 19.3303 104.005 19.3303 102.467ZM11.5982 102.467C11.5982 102.084 11.7115 101.711 11.9239 101.393C12.1363 101.075 12.4382 100.827 12.7914 100.681C13.1447 100.534 13.5333 100.496 13.9083 100.57C14.2833 100.645 14.6277 100.829 14.898 101.1C15.1684 101.37 15.3525 101.714 15.4271 102.089C15.5016 102.465 15.4634 102.853 15.3171 103.207C15.1708 103.56 14.923 103.862 14.6051 104.074C14.2872 104.287 13.9135 104.4 13.5312 104.4C13.0185 104.4 12.5268 104.196 12.1643 103.834C11.8018 103.471 11.5982 102.979 11.5982 102.467Z" fill="#FF842A"/>
<path d="M57.9908 96.6667C56.8438 96.6667 55.7226 97.0068 54.769 97.6441C53.8153 98.2815 53.072 99.1873 52.6331 100.247C52.1942 101.307 52.0794 102.473 52.3031 103.598C52.5269 104.723 53.0792 105.757 53.8902 106.568C54.7012 107.379 55.7345 107.931 56.8594 108.155C57.9843 108.379 59.1503 108.264 60.21 107.825C61.2696 107.386 62.1753 106.643 62.8125 105.689C63.4497 104.735 63.7898 103.614 63.7898 102.467C63.7898 100.928 63.1789 99.4532 62.0913 98.3654C61.0038 97.2777 59.5288 96.6667 57.9908 96.6667ZM57.9908 104.4C57.6085 104.4 57.2347 104.287 56.9168 104.074C56.5989 103.862 56.3512 103.56 56.2049 103.207C56.0586 102.853 56.0203 102.465 56.0949 102.089C56.1695 101.714 56.3536 101.37 56.6239 101.1C56.8942 100.829 57.2387 100.645 57.6137 100.57C57.9886 100.496 58.3773 100.534 58.7305 100.681C59.0837 100.827 59.3856 101.075 59.598 101.393C59.8104 101.711 59.9238 102.084 59.9238 102.467C59.9238 102.979 59.7201 103.471 59.3576 103.834C58.9951 104.196 58.5034 104.4 57.9908 104.4Z" fill="#FF842A"/>
<path d="M102.45 88.9333H81.1871V83.1333C81.1871 82.6206 80.9834 82.1288 80.6209 81.7663C80.2584 81.4037 79.7667 81.2 79.2541 81.2H71.5219V75.4C71.5219 74.8872 71.3183 74.3955 70.9558 74.0329C70.5933 73.6704 70.1016 73.4667 69.5889 73.4667C69.0762 73.4667 68.5846 73.6704 68.2221 74.0329C67.8596 74.3955 67.6559 74.8872 67.6559 75.4V81.2H28.9954V42.5333H40.5935V48.3333C40.5935 48.8461 40.7972 49.3378 41.1597 49.7004C41.5222 50.063 42.0139 50.2667 42.5266 50.2667H54.1247C54.6374 50.2667 55.1291 50.063 55.4916 49.7004C55.8541 49.3378 56.0577 48.8461 56.0577 48.3333V42.5333H67.6559V67.6667C67.6559 68.1794 67.8596 68.6712 68.2221 69.0337C68.5846 69.3963 69.0762 69.6 69.5889 69.6C70.1016 69.6 70.5933 69.3963 70.9558 69.0337C71.3183 68.6712 71.5219 68.1794 71.5219 67.6667V40.6C71.5219 40.0872 71.3183 39.5955 70.9558 39.2329C70.5933 38.8704 70.1016 38.6667 69.5889 38.6667H27.0624C26.5497 38.6667 26.058 38.8704 25.6955 39.2329C25.333 39.5955 25.1293 40.0872 25.1293 40.6V81.2H17.3972C16.8846 81.2 16.3929 81.4037 16.0304 81.7663C15.6679 82.1288 15.4642 82.6206 15.4642 83.1333V88.9333H13.5312C9.94249 88.9333 6.50078 90.3592 3.96319 92.8971C1.4256 95.4351 4.60869e-07 98.8774 4.60869e-07 102.467C4.60869e-07 106.056 1.4256 109.498 3.96319 112.036C6.50078 114.574 9.94249 116 13.5312 116H88.9192C89.4318 116 89.9235 115.796 90.286 115.434C90.6485 115.071 90.8522 114.579 90.8522 114.067C90.8522 113.554 90.6485 113.062 90.286 112.7C89.9235 112.337 89.4318 112.133 88.9192 112.133H67.4413C68.5804 111.017 69.5135 109.708 70.1978 108.267H90.2433C91.2814 110.456 92.888 112.326 94.8954 113.682C96.9027 115.038 99.2372 115.83 101.655 115.975C104.073 116.121 106.486 115.615 108.641 114.51C110.797 113.405 112.616 111.741 113.91 109.693C115.203 107.644 115.923 105.286 115.994 102.865C116.065 100.443 115.485 98.0465 114.315 95.9256C113.144 93.8047 111.425 92.037 109.338 90.8071C107.251 89.5771 104.873 88.93 102.45 88.9333ZM52.1917 42.5333V46.4H44.4596V42.5333H52.1917ZM90.2433 96.6667H70.1978C69.5135 95.2257 68.5804 93.9167 67.4413 92.8H92.9998C91.8608 93.9167 90.9276 95.2257 90.2433 96.6667ZM77.321 88.9333H73.455V85.0667H77.321V88.9333ZM69.5889 85.0667V88.9333H65.7229V85.0667H69.5889ZM61.8568 85.0667V88.9333H57.9908V85.0667H61.8568ZM45.7837 96.6667H25.7382C25.0539 95.2257 24.1208 93.9167 22.9817 92.8H48.5402C47.4012 93.9167 46.4681 95.2257 45.7837 96.6667ZM34.7945 88.9333V85.0667H38.6605V88.9333H34.7945ZM50.2587 88.9333V85.0667H54.1247V88.9333H50.2587ZM46.3926 85.0667V88.9333H42.5266V85.0667H46.3926ZM30.9284 85.0667V88.9333H27.0624V85.0667H30.9284ZM19.3303 85.0667H23.1963V88.9333H19.3303V85.0667ZM3.86605 102.467C3.86605 100.555 4.4329 98.6858 5.49492 97.0962C6.55694 95.5065 8.06642 94.2675 9.83249 93.5358C11.5986 92.8042 13.5419 92.6127 15.4168 92.9857C17.2916 93.3587 19.0138 94.2794 20.3655 95.6313C21.7171 96.9832 22.6377 98.7056 23.0106 100.581C23.3835 102.456 23.1921 104.4 22.4606 106.166C21.7291 107.932 20.4903 109.442 18.9008 110.504C17.3114 111.566 15.4428 112.133 13.5312 112.133C10.9688 112.13 8.51219 111.111 6.70029 109.299C4.88839 107.486 3.86912 105.029 3.86605 102.467ZM22.9817 112.133C24.519 110.657 25.6784 108.832 26.3617 106.813C27.045 104.794 27.2323 102.64 26.9077 100.533H44.6142C44.408 101.814 44.408 103.119 44.6142 104.4H32.1868C31.6741 104.4 31.1825 104.604 30.82 104.966C30.4574 105.329 30.2538 105.821 30.2538 106.333C30.2538 106.846 30.4574 107.338 30.82 107.7C31.1825 108.063 31.6741 108.267 32.1868 108.267H45.7837C46.4681 109.708 47.4012 111.017 48.5402 112.133H22.9817ZM48.3256 102.467C48.3256 100.555 48.8925 98.6858 49.9545 97.0962C51.0165 95.5065 52.526 94.2675 54.2921 93.5358C56.0582 92.8042 58.0015 92.6127 59.8763 92.9857C61.7512 93.3587 63.4734 94.2794 64.825 95.6313C66.1767 96.9832 67.0973 98.7056 67.4702 100.581C67.8431 102.456 67.6517 104.4 66.9202 106.166C66.1887 107.932 64.9498 109.442 63.3604 110.504C61.771 111.566 59.9024 112.133 57.9908 112.133C55.4284 112.13 52.9718 111.111 51.1599 109.299C49.348 107.486 48.3287 105.029 48.3256 102.467ZM71.3673 104.4C71.5735 103.119 71.5735 101.814 71.3673 100.533H89.0738C88.8676 101.814 88.8676 103.119 89.0738 104.4H71.3673ZM102.45 112.133C100.539 112.133 98.6701 111.566 97.0807 110.504C95.4913 109.442 94.2525 107.932 93.5209 106.166C92.7894 104.4 92.598 102.456 92.9709 100.581C93.3439 98.7056 94.2644 96.9832 95.6161 95.6313C96.9678 94.2794 98.6899 93.3587 100.565 92.9857C102.44 92.6127 104.383 92.8042 106.149 93.5358C107.915 94.2675 109.425 95.5065 110.487 97.0962C111.549 98.6858 112.115 100.555 112.115 102.467C112.112 105.029 111.093 107.486 109.281 109.299C107.469 111.111 105.013 112.13 102.45 112.133Z" fill="#FF842A"/>
<path d="M102.45 96.6667C101.303 96.6667 100.182 97.0068 99.2286 97.6441C98.2749 98.2815 97.5316 99.1873 97.0927 100.247C96.6538 101.307 96.5389 102.473 96.7627 103.598C96.9865 104.723 97.5388 105.757 98.3498 106.568C99.1608 107.379 100.194 107.931 101.319 108.155C102.444 108.379 103.61 108.264 104.67 107.825C105.729 107.386 106.635 106.643 107.272 105.689C107.909 104.735 108.249 103.614 108.249 102.467C108.249 100.928 107.638 99.4532 106.551 98.3654C105.463 97.2777 103.988 96.6667 102.45 96.6667ZM102.45 104.4C102.068 104.4 101.694 104.287 101.376 104.074C101.059 103.862 100.811 103.56 100.664 103.207C100.518 102.853 100.48 102.465 100.554 102.089C100.629 101.714 100.813 101.37 101.083 101.1C101.354 100.829 101.698 100.645 102.073 100.57C102.448 100.496 102.837 100.534 103.19 100.681C103.543 100.827 103.845 101.075 104.058 101.393C104.27 101.711 104.383 102.084 104.383 102.467C104.383 102.979 104.18 103.471 103.817 103.834C103.455 104.196 102.963 104.4 102.45 104.4Z" fill="#FF842A"/>
</svg>
