<svg width="90" height="90" viewBox="0 0 90 90" fill="none" xmlns="http://www.w3.org/2000/svg">
<path d="M85.6452 0H18.871C16.47 0 14.5161 1.95387 14.5161 4.35484V43.2073C11.8655 45.3368 10.1613 48.6 10.1613 52.2581C10.1613 56.2935 12.2327 59.8515 15.3653 61.9331C6.4771 64.6766 0 72.9653 0 82.7419V90H43.5484V82.7419C43.5484 80.7286 43.2523 78.7863 42.7384 76.9355H50.4885L51.3639 73.4284L54.4645 75.2879L62.2248 67.5261L60.3668 64.4269L63.871 63.5531V55.1613H85.6452C88.0461 55.1613 90 53.2074 90 50.8065V4.35484C90 1.95387 88.0461 0 85.6452 0ZM13.0645 52.2581C13.0645 47.4547 16.9708 43.5484 21.7742 43.5484C26.5776 43.5484 30.4839 47.4547 30.4839 52.2581C30.4839 57.0615 26.5776 60.9677 21.7742 60.9677C16.9708 60.9677 13.0645 57.0615 13.0645 52.2581ZM23.2258 40.7453V8.70968H81.2903V46.4516H31.8165C30.0353 43.3844 26.8969 41.2069 23.2258 40.7453ZM21.7742 71.129C25.2958 71.129 28.2339 68.6061 28.89 65.2747C29.2631 65.4271 29.6231 65.6013 29.9845 65.7769L21.7742 84.8729L13.5639 65.7769C13.9253 65.6013 14.2853 65.4271 14.6584 65.2747C15.3145 68.6061 18.2526 71.129 21.7742 71.129ZM26.0768 64.3848C25.8184 66.5419 23.9995 68.2258 21.7742 68.2258C19.5489 68.2258 17.73 66.5419 17.4716 64.3848C18.8565 64.0597 20.2921 63.871 21.7742 63.871C23.2563 63.871 24.6919 64.0597 26.0768 64.3848ZM2.90323 82.7419C2.90323 76.3258 6.12726 70.6558 11.0337 67.2445L19.5692 87.0968H10.1613V75.4839H7.25806V87.0968H2.90323V82.7419ZM40.6452 87.0968H36.2903V75.4839H33.3871V87.0968H23.9792L32.5147 67.246C37.4211 70.6573 40.6452 76.3273 40.6452 82.7419V87.0968ZM60.9677 61.2856L58.1385 61.9926L57.3634 62.2858L56.6884 63.9436L58.5697 67.079L54.0131 71.6342L50.879 69.7529L49.1081 70.4831L48.2211 74.0323H41.7179C39.1936 68.2737 34.2552 63.8071 28.1831 61.9331C30.5361 60.3697 32.2781 57.9687 33.0053 55.1613H35.2771C34.9969 56.1005 34.8387 57.076 34.8387 58.0645C34.8387 63.6677 39.3982 68.2258 45 68.2258C50.6018 68.2258 55.1613 63.6677 55.1613 58.0645C55.1613 57.076 55.0031 56.1005 54.7229 55.1613H60.9677V61.2856ZM51.6455 55.1613C52.0432 56.0729 52.2581 57.06 52.2581 58.0645C52.2581 62.0666 49.0021 65.3226 45 65.3226C40.9979 65.3226 37.7419 62.0666 37.7419 58.0645C37.7419 57.06 37.9568 56.0715 38.3545 55.1613H51.6455ZM87.0968 50.8065C87.0968 51.6063 86.4465 52.2581 85.6452 52.2581H33.3871C33.3871 51.2536 33.2463 50.2853 33.0053 49.3548H84.1936V5.80645H20.3226V40.7453C19.3094 40.8731 18.3353 41.1271 17.4194 41.5002V4.35484C17.4194 3.555 18.0697 2.90323 18.871 2.90323H85.6452C86.4465 2.90323 87.0968 3.555 87.0968 4.35484V50.8065Z" fill="#FF842A"/>
<path d="M55.1613 17.4194H49.3548V11.6129H26.129V26.129H49.3548V20.3226H55.1613V26.129H65.3226V29.0323H55.1613V43.5484H78.3871V29.0323H68.2258V26.129H78.3871V11.6129H55.1613V17.4194ZM46.4516 23.2258H29.0323V14.5161H46.4516V23.2258ZM75.4839 40.6452H58.0645V31.9355H75.4839V40.6452ZM58.0645 14.5161H75.4839V23.2258H58.0645V14.5161Z" fill="#FF842A"/>
<path d="M63.871 17.4194H60.9677V20.3226H63.871V17.4194Z" fill="#FF842A"/>
<path d="M72.5807 17.4194H66.7742V20.3226H72.5807V17.4194Z" fill="#FF842A"/>
<path d="M72.5807 34.8387H60.9677V37.7419H72.5807V34.8387Z" fill="#FF842A"/>
<path d="M45 17.4194H31.9355V20.3226H45V17.4194Z" fill="#FF842A"/>
<path d="M34.8387 29.0323H31.9355V31.9355H34.8387V29.0323Z" fill="#FF842A"/>
<path d="M40.6452 29.0323H37.7419V31.9355H40.6452V29.0323Z" fill="#FF842A"/>
<path d="M46.4516 29.0323H43.5484V31.9355H46.4516V29.0323Z" fill="#FF842A"/>
<path d="M46.4516 34.8387H26.129V37.7419H46.4516V34.8387Z" fill="#FF842A"/>
<path d="M46.4516 40.6452H33.3871V43.5484H46.4516V40.6452Z" fill="#FF842A"/>
<path d="M84.1936 60.9677H66.7742V63.871H84.1936V60.9677Z" fill="#FF842A"/>
<path d="M84.1936 66.7742H66.7742V69.6774H84.1936V66.7742Z" fill="#FF842A"/>
<path d="M84.1936 72.5807H81.2903V75.4839H84.1936V72.5807Z" fill="#FF842A"/>
<path d="M78.3871 72.5807H75.4839V75.4839H78.3871V72.5807Z" fill="#FF842A"/>
<path d="M72.5807 72.5807H69.6774V75.4839H72.5807V72.5807Z" fill="#FF842A"/>
</svg>
