<svg width="118" height="116" viewBox="0 0 118 116" fill="none" xmlns="http://www.w3.org/2000/svg">
<path d="M18.8512 77.8942V74.7343H19.4492C21.6654 74.7343 23.469 72.9462 23.469 70.7486V70.3647C23.469 68.1671 21.6654 66.379 19.4492 66.379H14.2552C13.916 66.379 13.6408 66.106 13.6408 65.7708V65.3883C13.6408 65.0531 13.9174 64.7814 14.2552 64.7814H22.3561V61.4025H18.8512V58.2413H15.4457V61.4025H14.2552C12.0389 61.4025 10.2354 63.1906 10.2354 65.3883V65.7708C10.2354 67.9697 12.0389 69.7579 14.2552 69.7579H19.4492C19.7884 69.7579 20.0635 70.0295 20.0635 70.3647V70.7486C20.0635 71.0837 19.787 71.3554 19.4492 71.3554H11.3469V74.7343H15.4457V77.8942H18.8512Z" fill="#FF842A"/>
<path d="M60.1401 49.8467C70.7692 49.8467 79.4163 41.2657 79.4163 30.7195C79.4163 20.1706 70.7678 11.5896 60.1401 11.5896C49.5083 11.5896 40.8599 20.172 40.8599 30.7195C40.8599 41.2657 49.5097 49.8467 60.1401 49.8467ZM60.1401 14.9671C68.8921 14.9671 76.0109 22.0331 76.0109 30.7182C76.0109 39.4019 68.8908 46.4665 60.1401 46.4665C51.3868 46.4665 44.2653 39.4019 44.2653 30.7182C44.2653 22.0331 51.3868 14.9671 60.1401 14.9671Z" fill="#FF842A"/>
<path d="M53.0187 35.0864L50.8678 37.2191L53.2761 39.6101L55.3603 37.5435C56.2716 38.1733 57.3123 38.6315 58.4361 38.8626V41.7306H61.8415V38.8613C62.9667 38.6302 64.0074 38.172 64.9187 37.5408L67.0014 39.6087L69.4098 37.2191L67.2589 35.0837C67.8187 34.1863 68.211 33.1793 68.3949 32.0995H71.5457V28.7206H68.2655C68.0163 27.7231 67.5912 26.7959 67.0151 25.9769L69.4098 23.6022L67.0014 21.2113L64.5386 23.6536C63.7199 23.1495 62.8127 22.7751 61.8401 22.575V19.0921H58.4347V22.5764C57.4621 22.7764 56.5549 23.1508 55.7362 23.6549L53.2748 21.2127L50.8664 23.6022L53.2598 25.9769C52.6836 26.7959 52.2586 27.7245 52.0093 28.7219H48.7292V32.1008H51.8799C52.0652 33.1807 52.4575 34.189 53.0187 35.0864ZM60.1388 25.7796C62.8822 25.7796 65.1134 27.9948 65.1134 30.7168C65.1134 33.4388 62.8808 35.654 60.1388 35.654C57.394 35.654 55.1614 33.4388 55.1614 30.7168C55.1614 27.9948 57.394 25.7796 60.1388 25.7796Z" fill="#FF842A"/>
<path d="M67.1295 51.3226H53.1481V54.7015H67.1295V51.3226Z" fill="#FF842A"/>
<path d="M67.1295 56.118H53.1481V59.4968H67.1295V56.118Z" fill="#FF842A"/>
<path d="M61.8401 0H58.4347V8.95406H61.8401V0Z" fill="#FF842A"/>
<path d="M40.2578 18.6393H31.2334V22.0182H40.2578V18.6393Z" fill="#FF842A"/>
<path d="M88.8698 18.6393H79.8454V22.0182H88.8698V18.6393Z" fill="#FF842A"/>
<path d="M50.2558 9.61242L43.8727 3.28095L41.4651 5.6705L47.8481 12.002L50.2558 9.61242Z" fill="#FF842A"/>
<path d="M78.4529 5.4082L76.0449 3.01899L69.6628 9.35136L72.0707 11.7406L78.4529 5.4082Z" fill="#FF842A"/>
<path d="M107.089 103.225V99.8462H92.2712V92.3221C92.2712 88.7891 91.6691 85.3954 90.5725 82.2246V37.8476H80.5837V68.0684C75.1786 63.7232 68.3009 61.1133 60.8185 61.1133C43.4766 61.1133 29.3672 75.1127 29.3672 92.3221V99.8462H18.764V84.5898C27.3757 83.7397 34.1225 76.5116 34.1225 67.7481C34.1225 58.9833 27.3743 51.7551 18.764 50.9037V46.2854H15.3586V50.9037C6.74687 51.7538 0 58.9833 0 67.7481C0 76.5116 6.74823 83.7397 15.3586 84.5898V99.8462H3.05264V103.225H29.3672V112.621H3.05264V116H92.2712V103.225H107.089ZM3.40544 67.7481C3.40544 60.2767 9.53252 54.1974 17.0613 54.1974C24.59 54.1974 30.7171 60.2767 30.7171 67.7481C30.7171 75.2181 24.59 81.2961 17.0613 81.2961C9.53252 81.2961 3.40544 75.2181 3.40544 67.7481ZM87.1671 41.2265V75.3101C86.219 73.8693 85.1579 72.5069 83.9891 71.2432V41.2265H87.1671ZM60.73 91.3733L55.017 81.2799L57.6133 72.8867H62.9776L65.7727 81.3407L60.73 91.3733ZM54.5198 71.3662L52.7122 77.2117L47.4269 67.8765C48.7864 67.1412 50.2248 66.5371 51.7083 66.0289L54.5198 71.3662ZM67.9332 77.0414L66.0411 71.3203L68.8009 65.6572C70.208 66.0735 71.5579 66.6087 72.8642 67.2291L67.9332 77.0414ZM65.3913 64.8963L63.1424 69.5092H57.3858L55.0579 65.0882C56.9186 64.7003 58.8447 64.4922 60.8199 64.4922C62.3796 64.4922 63.8984 64.6517 65.3913 64.8963ZM32.774 92.3221C32.774 82.9977 37.4354 74.7492 44.5514 69.697L59.1158 95.4239V112.622H45.5022V96.3227H42.0967V112.622H32.7726L32.774 92.3221ZM88.8657 112.621H78.2217V96.3213H74.8162V112.621H62.5226V95.3766L75.8474 68.8631C83.6595 73.8085 88.8671 82.4638 88.8671 92.3207L88.8657 112.621Z" fill="#FF842A"/>
<path d="M102.832 24.8348H92.8433V96.67H102.832V24.8348ZM99.4267 93.2912H96.2487V28.2137H99.4267V93.2912Z" fill="#FF842A"/>
<path d="M115.092 14.0224H105.103V96.67H115.092V14.0224ZM111.686 93.2912H108.508V17.4013H111.686V93.2912Z" fill="#FF842A"/>
<path d="M14.8355 44.2729L16.4428 44.5108L16.7575 42.9295C16.8134 42.6497 18.0734 36.0487 14.4663 31.1236C12.4312 28.3448 9.31457 26.6878 5.20216 26.1972L3.78822 26.0283L3.37139 27.3798C3.29375 27.6312 1.51065 33.5848 4.6423 38.5072C6.62563 41.6279 10.0556 43.5674 14.8355 44.2729ZM6.33549 29.8167C8.69342 30.3573 10.4942 31.4561 11.6997 33.0942C13.4883 35.5243 13.6763 38.6815 13.5891 40.5899C10.7667 39.8912 8.73428 38.595 7.53557 36.7245C6.0181 34.3566 6.09983 31.5034 6.33549 29.8167Z" fill="#FF842A"/>
<path d="M17.8541 44.5108L19.4614 44.2729C24.2413 43.5674 27.6699 41.6279 29.6546 38.5085C32.7863 33.5862 31.0032 27.6312 30.9255 27.3812L30.5087 26.0296L29.0948 26.1986C24.9823 26.6878 21.8657 28.3448 19.8306 31.125C16.2249 36.0501 17.4849 42.6511 17.5394 42.9308L17.8541 44.5108ZM22.5849 33.1091C23.7904 31.4629 25.594 30.3587 27.9587 29.8167C28.1957 31.5034 28.2774 34.3566 26.7613 36.7245C25.5613 38.5977 23.5275 39.8939 20.7024 40.5913C20.6111 38.695 20.7936 35.5567 22.5849 33.1091Z" fill="#FF842A"/>
<path d="M118 112.621H95.9777V116H118V112.621Z" fill="#FF842A"/>
</svg>
