<svg width="91" height="90" viewBox="0 0 91 90" fill="none" xmlns="http://www.w3.org/2000/svg">
<path d="M54.6 55.5H52.9165C53.9278 54.5235 54.7319 53.3571 55.2814 52.0692C55.8309 50.7813 56.1149 49.3979 56.1167 48V47.49C58.1439 46.7847 59.8534 45.3925 60.9423 43.5601C62.0312 41.7277 62.4292 39.5733 62.0659 37.4785C61.7026 35.3836 60.6014 33.4836 58.9573 32.1148C57.3132 30.746 55.2324 29.9968 53.0833 30H31.85C31.0455 30 30.274 30.3161 29.7051 30.8787C29.1362 31.4413 28.8167 32.2044 28.8167 33V39C28.8157 40.862 29.3986 42.6784 30.4852 44.1989C31.5717 45.7195 33.1084 46.8694 34.8833 47.49V48C34.8851 49.3979 35.1691 50.7813 35.7186 52.0692C36.2681 53.3571 37.0722 54.5235 38.0835 55.5H36.4C33.5843 55.5 30.8839 56.6062 28.8929 58.5754C26.9019 60.5445 25.7833 63.2152 25.7833 66V88.5C25.7833 88.8978 25.9431 89.2794 26.2276 89.5607C26.512 89.842 26.8978 90 27.3 90C27.7022 90 28.088 89.842 28.3724 89.5607C28.6569 89.2794 28.8167 88.8978 28.8167 88.5V66C28.8167 64.0109 29.6156 62.1032 31.0378 60.6967C32.4599 59.2902 34.3888 58.5 36.4 58.5H54.6C56.6112 58.5 58.5401 59.2902 59.9622 60.6967C61.3844 62.1032 62.1833 64.0109 62.1833 66V88.5C62.1833 88.8978 62.3431 89.2794 62.6276 89.5607C62.912 89.842 63.2978 90 63.7 90C64.1022 90 64.488 89.842 64.7724 89.5607C65.0569 89.2794 65.2167 88.8978 65.2167 88.5V66C65.2167 63.2152 64.0981 60.5445 62.1071 58.5754C60.1161 56.6062 57.4157 55.5 54.6 55.5ZM31.85 39V33H53.0833C54.4168 33.0023 55.7124 33.4391 56.7697 34.2429C57.827 35.0466 58.587 36.1724 58.9323 37.4463C59.2776 38.7201 59.189 40.071 58.68 41.29C58.171 42.5091 57.2701 43.5282 56.1167 44.19V39C56.1167 38.6022 55.9569 38.2206 55.6724 37.9393C55.388 37.658 55.0022 37.5 54.6 37.5H36.4C35.9978 37.5 35.612 37.658 35.3276 37.9393C35.0431 38.2206 34.8833 38.6022 34.8833 39V44.19C33.962 43.6639 33.1967 42.9075 32.6643 41.9965C32.1319 41.0856 31.8511 40.0522 31.85 39ZM37.9167 48V40.5H53.0833V48C53.0833 49.9891 52.2844 51.8968 50.8622 53.3033C49.4401 54.7098 47.5112 55.5 45.5 55.5C43.4888 55.5 41.5599 54.7098 40.1378 53.3033C38.7156 51.8968 37.9167 49.9891 37.9167 48Z" fill="#FF842A"/>
<path d="M34.8833 66C34.4811 66 34.0953 66.158 33.8109 66.4393C33.5265 66.7206 33.3667 67.1022 33.3667 67.5V88.5C33.3667 88.8978 33.5265 89.2794 33.8109 89.5607C34.0953 89.842 34.4811 90 34.8833 90C35.2856 90 35.6713 89.842 35.9558 89.5607C36.2402 89.2794 36.4 88.8978 36.4 88.5V67.5C36.4 67.1022 36.2402 66.7206 35.9558 66.4393C35.6713 66.158 35.2856 66 34.8833 66Z" fill="#FF842A"/>
<path d="M56.1167 66C55.7144 66 55.3286 66.158 55.0442 66.4393C54.7598 66.7206 54.6 67.1022 54.6 67.5V88.5C54.6 88.8978 54.7598 89.2794 55.0442 89.5607C55.3286 89.842 55.7144 90 56.1167 90C56.5189 90 56.9047 89.842 57.1891 89.5607C57.4735 89.2794 57.6333 88.8978 57.6333 88.5V67.5C57.6333 67.1022 57.4735 66.7206 57.1891 66.4393C56.9047 66.158 56.5189 66 56.1167 66Z" fill="#FF842A"/>
<path d="M48.7767 69.105C49.5897 68.2708 50.0461 67.1586 50.0507 66C50.0507 65.6022 49.8909 65.2206 49.6065 64.9393C49.3221 64.658 48.9363 64.5 48.5341 64.5C48.1318 64.5 47.7461 64.658 47.4616 64.9393C47.1772 65.2206 47.0174 65.6022 47.0174 66C47.017 66.2418 46.9575 66.48 46.8439 66.6941C46.7304 66.9083 46.5661 67.0922 46.3652 67.23C46.1176 67.3913 45.8276 67.4773 45.5311 67.4773C45.2346 67.4773 44.9445 67.3913 44.6969 67.23C44.4848 67.099 44.3087 66.9182 44.1843 66.7036C44.0599 66.489 43.9911 66.2473 43.9841 66C43.9841 65.6022 43.8243 65.2206 43.5398 64.9393C43.2554 64.658 42.8696 64.5 42.4674 64.5C42.0652 64.5 41.6794 64.658 41.395 64.9393C41.1105 65.2206 40.9507 65.6022 40.9507 66C40.9554 67.1586 41.4117 68.2708 42.2247 69.105L40.9507 77.79C40.9012 78.1527 40.9875 78.5208 41.1934 78.825L44.2267 83.325C44.3655 83.5292 44.5529 83.6965 44.7724 83.8122C44.9919 83.9279 45.2368 83.9884 45.4856 83.9884C45.7343 83.9884 45.9792 83.9279 46.1988 83.8122C46.4183 83.6965 46.6057 83.5292 46.7444 83.325L49.7777 78.825C49.9836 78.5208 50.0699 78.1527 50.0204 77.79L48.7767 69.105ZM45.5007 79.8L43.9841 77.64L45.0912 70.5H45.9102L47.0174 77.64L45.5007 79.8Z" fill="#FF842A"/>
<path d="M33.3667 12C32.9644 12 32.5787 12.158 32.2942 12.4393C32.0098 12.7206 31.85 13.1022 31.85 13.5C31.85 13.8978 32.0098 14.2794 32.2942 14.5607C32.5787 14.842 32.9644 15 33.3667 15H57.6333C58.0356 15 58.4213 14.842 58.7058 14.5607C58.9902 14.2794 59.15 13.8978 59.15 13.5V7.5C59.15 7.10218 58.9902 6.72065 58.7058 6.43934C58.4213 6.15804 58.0356 6 57.6333 6H33.3667C32.9644 6 32.5787 6.15804 32.2942 6.43934C32.0098 6.72065 31.85 7.10218 31.85 7.5C31.85 7.89783 32.0098 8.27936 32.2942 8.56066C32.5787 8.84196 32.9644 9 33.3667 9H56.1167V12H33.3667Z" fill="#FF842A"/>
<path d="M60.6667 21C61.0689 21 61.4547 20.842 61.7391 20.5607C62.0235 20.2794 62.1833 19.8978 62.1833 19.5C62.1833 19.1022 62.0235 18.7206 61.7391 18.4393C61.4547 18.158 61.0689 18 60.6667 18H54.6C54.1978 18 53.812 18.158 53.5276 18.4393C53.2431 18.7206 53.0833 19.1022 53.0833 19.5V25.5C53.0833 25.8978 53.2431 26.2794 53.5276 26.5607C53.812 26.842 54.1978 27 54.6 27H60.6667C61.0689 27 61.4547 26.842 61.7391 26.5607C62.0235 26.2794 62.1833 25.8978 62.1833 25.5C62.1833 25.1022 62.0235 24.7206 61.7391 24.4393C61.4547 24.158 61.0689 24 60.6667 24H56.1167V21H60.6667Z" fill="#FF842A"/>
<path d="M42.4667 18C42.0644 18 41.6786 18.158 41.3942 18.4393C41.1098 18.7206 40.95 19.1022 40.95 19.5V25.5C40.95 25.8978 41.1098 26.2794 41.3942 26.5607C41.6786 26.842 42.0644 27 42.4667 27H48.5333C48.9356 27 49.3214 26.842 49.6058 26.5607C49.8902 26.2794 50.05 25.8978 50.05 25.5V19.5C50.05 19.1022 49.8902 18.7206 49.6058 18.4393C49.3214 18.158 48.9356 18 48.5333 18H42.4667ZM47.0167 24H43.9833V21H47.0167V24Z" fill="#FF842A"/>
<path d="M28.8167 19.5V25.5C28.8167 25.8978 28.9765 26.2794 29.2609 26.5607C29.5453 26.842 29.9311 27 30.3333 27H36.4C36.8022 27 37.188 26.842 37.4724 26.5607C37.7569 26.2794 37.9167 25.8978 37.9167 25.5V19.5C37.9167 19.1022 37.7569 18.7206 37.4724 18.4393C37.188 18.158 36.8022 18 36.4 18H30.3333C29.9311 18 29.5453 18.158 29.2609 18.4393C28.9765 18.7206 28.8167 19.1022 28.8167 19.5ZM31.85 21H34.8833V24H31.85V21Z" fill="#FF842A"/>
<path d="M86.45 18H69.7667V4.5C69.7667 3.30653 69.2873 2.16193 68.434 1.31802C67.5807 0.474106 66.4234 0 65.2167 0H25.7833C24.5766 0 23.4193 0.474106 22.566 1.31802C21.7127 2.16193 21.2333 3.30653 21.2333 4.5V18H4.55C3.34326 18 2.18595 18.4741 1.33266 19.318C0.479374 20.1619 0 21.3065 0 22.5V61.5C0 61.8978 0.159791 62.2794 0.444221 62.5607C0.728651 62.842 1.11442 63 1.51667 63C1.91891 63 2.30468 62.842 2.58911 62.5607C2.87354 62.2794 3.03333 61.8978 3.03333 61.5V22.5C3.03333 22.1022 3.19312 21.7206 3.47756 21.4393C3.76199 21.158 4.14775 21 4.55 21H21.2333V52.5C21.2333 52.8978 21.3931 53.2794 21.6776 53.5607C21.962 53.842 22.3478 54 22.75 54C23.1522 54 23.538 53.842 23.8224 53.5607C24.1069 53.2794 24.2667 52.8978 24.2667 52.5V4.5C24.2667 4.10218 24.4265 3.72064 24.7109 3.43934C24.9953 3.15804 25.3811 3 25.7833 3H65.2167C65.6189 3 66.0047 3.15804 66.2891 3.43934C66.5735 3.72064 66.7333 4.10218 66.7333 4.5V52.5C66.7333 52.8978 66.8931 53.2794 67.1776 53.5607C67.462 53.842 67.8478 54 68.25 54C68.6522 54 69.038 53.842 69.3224 53.5607C69.6069 53.2794 69.7667 52.8978 69.7667 52.5V21H86.45C86.8522 21 87.238 21.158 87.5224 21.4393C87.8069 21.7206 87.9667 22.1022 87.9667 22.5V63C87.9667 63.3978 88.1265 63.7794 88.4109 64.0607C88.6953 64.342 89.0811 64.5 89.4833 64.5C89.8856 64.5 90.2713 64.342 90.5558 64.0607C90.8402 63.7794 91 63.3978 91 63V22.5C91 21.3065 90.5206 20.1619 89.6673 19.318C88.814 18.4741 87.6567 18 86.45 18Z" fill="#FF842A"/>
<path d="M83.4167 27C83.8189 27 84.2047 26.842 84.4891 26.5607C84.7735 26.2794 84.9333 25.8978 84.9333 25.5C84.9333 25.1022 84.7735 24.7206 84.4891 24.4393C84.2047 24.158 83.8189 24 83.4167 24H74.3167C73.9144 24 73.5286 24.158 73.2442 24.4393C72.9598 24.7206 72.8 25.1022 72.8 25.5V31.5C72.8 31.8978 72.9598 32.2794 73.2442 32.5607C73.5286 32.842 73.9144 33 74.3167 33H83.4167C83.8189 33 84.2047 32.842 84.4891 32.5607C84.7735 32.2794 84.9333 31.8978 84.9333 31.5C84.9333 31.1022 84.7735 30.7206 84.4891 30.4393C84.2047 30.158 83.8189 30 83.4167 30H75.8333V27H83.4167Z" fill="#FF842A"/>
<path d="M72.8 43.5C72.8 43.8978 72.9598 44.2794 73.2442 44.5607C73.5286 44.842 73.9144 45 74.3167 45H83.4167C83.8189 45 84.2047 44.842 84.4891 44.5607C84.7735 44.2794 84.9333 43.8978 84.9333 43.5V37.5C84.9333 37.1022 84.7735 36.7206 84.4891 36.4393C84.2047 36.158 83.8189 36 83.4167 36H74.3167C73.9144 36 73.5286 36.158 73.2442 36.4393C72.9598 36.7206 72.8 37.1022 72.8 37.5V43.5ZM75.8333 39H81.9V42H75.8333V39Z" fill="#FF842A"/>
<path d="M74.3167 51H83.4167C83.8189 51 84.2047 50.842 84.4891 50.5607C84.7735 50.2794 84.9333 49.8978 84.9333 49.5C84.9333 49.1022 84.7735 48.7206 84.4891 48.4393C84.2047 48.158 83.8189 48 83.4167 48H74.3167C73.9144 48 73.5286 48.158 73.2442 48.4393C72.9598 48.7206 72.8 49.1022 72.8 49.5C72.8 49.8978 72.9598 50.2794 73.2442 50.5607C73.5286 50.842 73.9144 51 74.3167 51Z" fill="#FF842A"/>
<path d="M16.6833 24H7.58333C7.18109 24 6.79532 24.158 6.51089 24.4393C6.22646 24.7206 6.06667 25.1022 6.06667 25.5V31.5C6.06667 31.8978 6.22646 32.2794 6.51089 32.5607C6.79532 32.842 7.18109 33 7.58333 33H16.6833C17.0856 33 17.4713 32.842 17.7558 32.5607C18.0402 32.2794 18.2 31.8978 18.2 31.5V25.5C18.2 25.1022 18.0402 24.7206 17.7558 24.4393C17.4713 24.158 17.0856 24 16.6833 24ZM15.1667 30H9.1V27H15.1667V30Z" fill="#FF842A"/>
<path d="M16.6833 39C17.0856 39 17.4713 38.842 17.7558 38.5607C18.0402 38.2794 18.2 37.8978 18.2 37.5C18.2 37.1022 18.0402 36.7206 17.7558 36.4393C17.4713 36.158 17.0856 36 16.6833 36H7.58333C7.18109 36 6.79532 36.158 6.51089 36.4393C6.22646 36.7206 6.06667 37.1022 6.06667 37.5V43.5C6.06667 43.8978 6.22646 44.2794 6.51089 44.5607C6.79532 44.842 7.18109 45 7.58333 45H16.6833C17.0856 45 17.4713 44.842 17.7558 44.5607C18.0402 44.2794 18.2 43.8978 18.2 43.5C18.2 43.1022 18.0402 42.7206 17.7558 42.4393C17.4713 42.158 17.0856 42 16.6833 42H9.1V39H16.6833Z" fill="#FF842A"/>
<path d="M16.6833 48H7.58333C7.18109 48 6.79532 48.158 6.51089 48.4393C6.22646 48.7206 6.06667 49.1022 6.06667 49.5C6.06667 49.8978 6.22646 50.2794 6.51089 50.5607C6.79532 50.842 7.18109 51 7.58333 51H16.6833C17.0856 51 17.4713 50.842 17.7558 50.5607C18.0402 50.2794 18.2 49.8978 18.2 49.5C18.2 49.1022 18.0402 48.7206 17.7558 48.4393C17.4713 48.158 17.0856 48 16.6833 48Z" fill="#FF842A"/>
<path d="M87.9667 72H86.45V70.5C86.45 69.3065 85.9706 68.1619 85.1173 67.318C84.264 66.4741 83.1067 66 81.9 66H78.8667C77.6599 66 76.5026 66.4741 75.6493 67.318C74.796 68.1619 74.3167 69.3065 74.3167 70.5V72H72.8C71.9955 72 71.224 72.3161 70.6551 72.8787C70.0862 73.4413 69.7667 74.2043 69.7667 75V87C69.7667 87.7956 70.0862 88.5587 70.6551 89.1213C71.224 89.6839 71.9955 90 72.8 90H87.9667C88.7712 90 89.5427 89.6839 90.1116 89.1213C90.6804 88.5587 91 87.7956 91 87V75C91 74.2043 90.6804 73.4413 90.1116 72.8787C89.5427 72.3161 88.7712 72 87.9667 72ZM77.35 70.5C77.35 70.1022 77.5098 69.7206 77.7942 69.4393C78.0787 69.158 78.4644 69 78.8667 69H81.9C82.3022 69 82.688 69.158 82.9724 69.4393C83.2569 69.7206 83.4167 70.1022 83.4167 70.5V72H77.35V70.5ZM87.9667 87H72.8V81H81.9C82.3022 81 82.688 80.842 82.9724 80.5607C83.2569 80.2794 83.4167 79.8978 83.4167 79.5C83.4167 79.1022 83.2569 78.7206 82.9724 78.4393C82.688 78.158 82.3022 78 81.9 78H72.8V75H87.9667V87Z" fill="#FF842A"/>
<path d="M12.1333 64.5C12.9378 64.5 13.7094 64.8161 14.2782 65.3787C14.8471 65.9413 15.1667 66.7044 15.1667 67.5C15.1667 67.8978 15.3265 68.2794 15.6109 68.5607C15.8953 68.842 16.2811 69 16.6833 69C17.0856 69 17.4713 68.842 17.7558 68.5607C18.0402 68.2794 18.2 67.8978 18.2 67.5C18.199 66.1706 17.7516 64.8792 16.9281 63.8285C16.1045 62.7778 14.9515 62.0274 13.65 61.695V58.5C13.65 58.1022 13.4902 57.7206 13.2058 57.4393C12.9213 57.158 12.5356 57 12.1333 57C11.7311 57 11.3453 57.158 11.0609 57.4393C10.7765 57.7206 10.6167 58.1022 10.6167 58.5V61.695C9.191 62.0635 7.94967 62.9326 7.12448 64.14C6.29928 65.3474 5.94664 66.8106 6.13238 68.2563C6.31812 69.7021 7.02956 71.0315 8.13385 71.9965C9.23814 72.9614 10.6598 73.4958 12.1333 73.5C12.7333 73.5 13.3197 73.6759 13.8186 74.0056C14.3174 74.3352 14.7062 74.8038 14.9358 75.352C15.1654 75.9001 15.2254 76.5033 15.1084 77.0853C14.9913 77.6672 14.7024 78.2018 14.2782 78.6213C13.854 79.0409 13.3135 79.3266 12.7251 79.4424C12.1367 79.5581 11.5268 79.4987 10.9725 79.2716C10.4183 79.0446 9.94452 78.6601 9.61121 78.1667C9.2779 77.6734 9.1 77.0933 9.1 76.5C9.1 76.1022 8.94021 75.7206 8.65578 75.4393C8.37135 75.158 7.98558 75 7.58333 75C7.18109 75 6.79532 75.158 6.51089 75.4393C6.22646 75.7206 6.06667 76.1022 6.06667 76.5C6.06767 77.8294 6.51506 79.1208 7.3386 80.1715C8.16213 81.2222 9.31517 81.9726 10.6167 82.305V85.5C10.6167 85.8978 10.7765 86.2794 11.0609 86.5607C11.3453 86.842 11.7311 87 12.1333 87C12.5356 87 12.9213 86.842 13.2058 86.5607C13.4902 86.2794 13.65 85.8978 13.65 85.5V82.305C15.0757 81.9365 16.317 81.0674 17.1422 79.86C17.9674 78.6526 18.32 77.1894 18.1343 75.7437C17.9485 74.2979 17.2371 72.9685 16.1328 72.0035C15.0285 71.0386 13.6069 70.5042 12.1333 70.5C11.3288 70.5 10.5573 70.1839 9.98844 69.6213C9.41958 69.0587 9.1 68.2956 9.1 67.5C9.1 66.7044 9.41958 65.9413 9.98844 65.3787C10.5573 64.8161 11.3288 64.5 12.1333 64.5Z" fill="#FF842A"/>
</svg>
