<svg width="90" height="90" viewBox="0 0 90 90" fill="none" xmlns="http://www.w3.org/2000/svg">
<path d="M85.6452 53.7097H53.7097C51.3087 53.7097 49.3548 55.6636 49.3548 58.0645V78.3871C49.3548 80.7881 51.3087 82.7419 53.7097 82.7419H85.6452C88.0461 82.7419 90 80.7881 90 78.3871V58.0645C90 55.6636 88.0461 53.7097 85.6452 53.7097ZM87.0968 78.3871C87.0968 79.1884 86.4465 79.8387 85.6452 79.8387H53.7097C52.9084 79.8387 52.2581 79.1884 52.2581 78.3871V58.0645C52.2581 57.2632 52.9084 56.6129 53.7097 56.6129H85.6452C86.4465 56.6129 87.0968 57.2632 87.0968 58.0645V78.3871Z" fill="#FF842A"/>
<path d="M79.8387 59.5161C77.4377 59.5161 75.4839 61.47 75.4839 63.871C75.4839 64.4226 75.5971 64.9466 75.7858 65.4329L71.8345 68.8195C71.1958 68.4523 70.4656 68.2258 69.6774 68.2258C68.5945 68.2258 67.6147 68.6381 66.8526 69.2942L63.794 67.5465C63.8376 67.2953 63.871 67.0384 63.871 66.7742C63.871 64.3732 61.9171 62.4194 59.5161 62.4194C57.1152 62.4194 55.1613 64.3732 55.1613 66.7742C55.1613 69.1752 57.1152 71.129 59.5161 71.129C60.599 71.129 61.5789 70.7168 62.341 70.0606L65.3995 71.8084C65.356 72.0595 65.3226 72.3165 65.3226 72.5807C65.3226 74.9816 67.2765 76.9355 69.6774 76.9355C72.0784 76.9355 74.0323 74.9816 74.0323 72.5807C74.0323 72.029 73.919 71.505 73.7303 71.0187L77.6831 67.6321C78.3203 67.9994 79.0505 68.2258 79.8387 68.2258C82.2397 68.2258 84.1936 66.2719 84.1936 63.871C84.1936 61.47 82.2397 59.5161 79.8387 59.5161ZM59.5161 68.2258C58.7148 68.2258 58.0645 67.5755 58.0645 66.7742C58.0645 65.9729 58.7148 65.3226 59.5161 65.3226C60.3174 65.3226 60.9677 65.9729 60.9677 66.7742C60.9677 67.5755 60.3174 68.2258 59.5161 68.2258ZM69.6774 74.0323C68.8761 74.0323 68.2258 73.3819 68.2258 72.5807C68.2258 71.7794 68.8761 71.129 69.6774 71.129C70.4787 71.129 71.129 71.7794 71.129 72.5807C71.129 73.3819 70.4787 74.0323 69.6774 74.0323ZM79.8387 65.3226C79.0374 65.3226 78.3871 64.6723 78.3871 63.871C78.3871 63.0697 79.0374 62.4194 79.8387 62.4194C80.64 62.4194 81.2903 63.0697 81.2903 63.871C81.2903 64.6723 80.64 65.3226 79.8387 65.3226Z" fill="#FF842A"/>
<path d="M18.871 11.6129C20.4721 11.6129 21.7742 12.915 21.7742 14.5161H24.6774C24.6774 11.8176 22.8208 9.56468 20.3226 8.91581V5.80645H17.4194V8.70968H13.0645V14.5161C13.0645 17.7184 15.6687 20.3226 18.871 20.3226C20.4721 20.3226 21.7742 21.6247 21.7742 23.2258V26.129H18.871C17.2698 26.129 15.9677 24.8269 15.9677 23.2258H13.0645C13.0645 25.9244 14.9211 28.1773 17.4194 28.8261V31.9355H20.3226V29.0323H24.6774V23.2258C24.6774 20.0235 22.0732 17.4194 18.871 17.4194C17.2698 17.4194 15.9677 16.1173 15.9677 14.5161V11.6129H18.871Z" fill="#FF842A"/>
<path d="M56.6129 26.129H50.8065V43.5484H76.9355V17.4194H68.2258V20.3226H62.4194V23.2258H56.6129V26.129ZM53.7097 29.0323H56.6129V40.6452H53.7097V29.0323ZM71.129 20.3226H74.0323V40.6452H71.129V20.3226ZM68.2258 23.2258V40.6452H65.3226V23.2258H68.2258ZM62.4194 26.129V40.6452H59.5161V26.129H62.4194Z" fill="#FF842A"/>
<path d="M78.3871 49.3548C80.7881 49.3548 82.7419 47.401 82.7419 45V15.9677C82.7419 13.5668 80.7881 11.6129 78.3871 11.6129H36.2598C33.3435 4.62919 26.489 0 18.871 0C8.46581 0 0 8.46581 0 18.871C0 29.2761 8.46581 37.7419 18.871 37.7419C23.1097 37.7419 27.1858 36.286 30.4839 33.6977V45C30.4839 47.401 32.4377 49.3548 34.8387 49.3548H36.2903V55.1613C36.2903 56.7624 34.9882 58.0645 33.3871 58.0645H25.9679C27.8565 56.2181 29.0323 53.6487 29.0323 50.8065C29.0323 45.2047 24.4727 40.6452 18.871 40.6452C13.2692 40.6452 8.70968 45.2047 8.70968 50.8065C8.70968 53.8882 10.0945 56.6492 12.269 58.5145C5.24468 60.1897 0 66.5027 0 74.0323V90H30.4839V72.7069C30.4839 71.6531 31.2358 70.7516 32.2708 70.5629L36.9145 69.7181C42.4408 68.715 46.4516 63.9087 46.4516 58.2939V49.3548H78.3871ZM18.871 34.8387C10.0669 34.8387 2.90323 27.675 2.90323 18.871C2.90323 10.0669 10.0669 2.90323 18.871 2.90323C25.0215 2.90323 30.5811 6.47129 33.2231 11.9323C31.6205 12.5753 30.4839 14.1387 30.4839 15.9677V29.7769C27.4631 32.9908 23.2679 34.8387 18.871 34.8387ZM20.279 73.4748L18.871 74.8829L17.4629 73.4748L18.3556 60.9677H19.3877L20.279 73.4748ZM11.6129 50.8065C11.6129 46.8044 14.8689 43.5484 18.871 43.5484C22.8731 43.5484 26.129 46.8044 26.129 50.8065C26.129 54.8086 22.8731 58.0645 18.871 58.0645C14.8689 58.0645 11.6129 54.8086 11.6129 50.8065ZM43.5484 58.2939C43.5484 62.505 40.5406 66.1094 36.3963 66.8627L31.7526 67.7061C29.3356 68.146 27.5806 70.2494 27.5806 72.7069V87.0968H10.1613V68.2258H7.25806V87.0968H2.90323V74.0323C2.90323 67.005 8.48323 61.2726 15.4437 60.9939L14.4726 74.5882L18.871 78.9866L23.2694 74.5882L22.2968 60.9677H33.3871C36.5894 60.9677 39.1936 58.3636 39.1936 55.1613V42.8226C39.1936 41.6221 40.1705 40.6452 41.371 40.6452C42.5715 40.6452 43.5484 41.6221 43.5484 42.8226V58.2939ZM41.371 37.7419C38.5694 37.7419 36.2903 40.021 36.2903 42.8226V46.4516H34.8387C34.0374 46.4516 33.3871 45.8013 33.3871 45V15.9677C33.3871 15.1665 34.0374 14.5161 34.8387 14.5161H78.3871C79.1884 14.5161 79.8387 15.1665 79.8387 15.9677V45C79.8387 45.8013 79.1884 46.4516 78.3871 46.4516H46.4516V42.8226C46.4516 40.021 44.1726 37.7419 41.371 37.7419Z" fill="#FF842A"/>
<path d="M39.1936 17.4194H36.2903V20.3226H39.1936V17.4194Z" fill="#FF842A"/>
<path d="M45 17.4194H42.0968V20.3226H45V17.4194Z" fill="#FF842A"/>
<path d="M50.8065 17.4194H47.9032V20.3226H50.8065V17.4194Z" fill="#FF842A"/>
<path d="M47.9032 23.2258H36.2903V26.129H47.9032V23.2258Z" fill="#FF842A"/>
<path d="M47.9032 29.0323H36.2903V31.9355H47.9032V29.0323Z" fill="#FF842A"/>
</svg>
