<svg width="117" height="117" viewBox="0 0 117 117" fill="none" xmlns="http://www.w3.org/2000/svg">
<path d="M45.5198 77.1125C47.7451 76.5202 49.7444 75.2805 51.2641 73.5504C52.7837 71.8203 53.7554 69.6778 54.0557 67.3947C54.356 65.1116 53.9715 62.7908 52.951 60.7265C51.9304 58.6623 50.3198 56.9476 48.3234 55.8L46.8296 54.9378C47.9212 54.2398 48.82 53.2789 49.4436 52.1431C50.0672 51.0074 50.3955 49.7332 50.3984 48.4375V7.75H60.0859V9.6875C60.0859 10.2014 60.2901 10.6942 60.6534 11.0575C61.0168 11.4209 61.5096 11.625 62.0234 11.625H77.5234C78.0373 11.625 78.5301 11.4209 78.8935 11.0575C79.2568 10.6942 79.4609 10.2014 79.4609 9.6875V1.9375C79.4609 1.42364 79.2568 0.930832 78.8935 0.567481C78.5301 0.204129 78.0373 0 77.5234 0H62.0234C61.5096 0 61.0168 0.204129 60.6534 0.567481C60.2901 0.930832 60.0859 1.42364 60.0859 1.9375V3.875H48.4609C47.9471 3.875 47.4543 4.07913 47.0909 4.44248C46.7276 4.80583 46.5234 5.29864 46.5234 5.8125V37.8897C45.3506 37.1924 44.0129 36.8205 42.6484 36.8125H38.7231C40.0053 35.1455 40.7038 33.1031 40.7109 31C40.7109 30.4861 40.5068 29.9933 40.1435 29.63C39.7801 29.2666 39.2873 29.0625 38.7734 29.0625H32.9609C30.9055 29.0625 28.9343 29.879 27.4809 31.3324C26.0275 32.7858 25.2109 34.7571 25.2109 36.8125V38.75C25.2189 38.9534 25.2594 39.1543 25.3311 39.3448C24.9741 39.7366 24.6579 40.1638 24.3875 40.6197C23.001 39.4208 21.2313 38.7576 19.3984 38.75H13.5859C13.0721 38.75 12.5793 38.9541 12.2159 39.3175C11.8526 39.6808 11.6484 40.1736 11.6484 40.6875C11.6533 42.5458 12.1925 44.3635 13.2018 45.9238C14.2111 47.4842 15.6479 48.7213 17.3408 49.4876C14.3568 51.9618 12.4081 55.4643 11.8791 59.3043C11.3501 63.1444 12.2792 67.0433 14.483 70.2322C16.6869 73.421 20.0057 75.6684 23.7848 76.531C27.564 77.3936 31.5292 76.8089 34.8984 74.8921V108.5H23.2734V106.562C23.2734 106.049 23.0693 105.556 22.706 105.192C22.3426 104.829 21.8498 104.625 21.3359 104.625H1.96094C1.44708 104.625 0.95427 104.829 0.590918 105.192C0.227566 105.556 0.0234375 106.049 0.0234375 106.562C0.0234375 107.076 0.227566 107.569 0.590918 107.933C0.95427 108.296 1.44708 108.5 1.96094 108.5H19.3984V112.375H1.96094C1.44708 112.375 0.95427 112.579 0.590918 112.942C0.227566 113.306 0.0234375 113.799 0.0234375 114.312C0.0234375 114.826 0.227566 115.319 0.590918 115.683C0.95427 116.046 1.44708 116.25 1.96094 116.25H21.3359C21.8498 116.25 22.3426 116.046 22.706 115.683C23.0693 115.319 23.2734 114.826 23.2734 114.312V112.375H36.8359C37.3498 112.375 37.8426 112.171 38.206 111.808C38.5693 111.444 38.7734 110.951 38.7734 110.438V76.8587C39.9697 77.2757 41.2266 77.4924 42.4934 77.5C43.5149 77.5042 44.5324 77.3739 45.5198 77.1125ZM63.9609 3.875H75.5859V7.75H63.9609V3.875ZM46.5234 44.5625V48.4375C46.5234 49.4652 46.1152 50.4508 45.3885 51.1775C44.6618 51.9042 43.6762 52.3125 42.6484 52.3125V52.5295L34.8984 48.05C32.5429 46.6888 29.869 45.9756 27.1484 45.9827V44.5625C27.1484 43.5348 27.5567 42.5492 28.2834 41.8225C29.0101 41.0958 29.9957 40.6875 31.0234 40.6875V42.625C31.0234 43.1389 31.2276 43.6317 31.5909 43.995C31.9543 44.3584 32.4471 44.5625 32.9609 44.5625C33.4748 44.5625 33.9676 44.3584 34.331 43.995C34.6943 43.6317 34.8984 43.1389 34.8984 42.625V40.6875H38.7734V46.5C38.7734 47.0139 38.9776 47.5067 39.3409 47.87C39.7043 48.2334 40.1971 48.4375 40.7109 48.4375C41.2248 48.4375 41.7176 48.2334 42.081 47.87C42.4443 47.5067 42.6484 47.0139 42.6484 46.5V40.6875C43.6762 40.6875 44.6618 41.0958 45.3885 41.8225C46.1152 42.5492 46.5234 43.5348 46.5234 44.5625ZM32.9609 32.9375H36.5046C36.1024 34.07 35.3598 35.0503 34.3784 35.7441C33.3971 36.4378 32.2252 36.811 31.0234 36.8125H29.0859C29.0859 35.7848 29.4942 34.7992 30.2209 34.0725C30.9476 33.3458 31.9332 32.9375 32.9609 32.9375ZM15.8547 42.625H19.3984C20.4225 42.625 21.4049 43.0303 22.131 43.7524C22.8571 44.4745 23.2678 45.4547 23.2734 46.4787L23.1766 46.5H21.3359C20.1342 46.4985 18.9623 46.1253 17.9809 45.4316C16.9996 44.7378 16.2569 43.7575 15.8547 42.625ZM36.8359 63.9375C36.3221 63.9375 35.8293 64.1416 35.4659 64.505C35.1026 64.8683 34.8984 65.3611 34.8984 65.875V70.4359C34.6309 70.488 34.3782 70.5985 34.1583 70.7594C32.4815 72.0255 30.493 72.8134 28.4041 73.0395C26.3152 73.2655 24.2041 72.9212 22.2953 72.0432C20.3865 71.1652 18.7513 69.7862 17.5637 68.053C16.3761 66.3198 15.6804 64.2971 15.5506 62.2C15.4208 60.103 15.8618 58.0099 16.8266 56.1435C17.7915 54.2771 19.2442 52.707 21.0302 51.6003C22.8161 50.4936 24.8687 49.8917 26.9695 49.8584C29.0703 49.8252 31.1408 50.3619 32.9609 51.4116L46.3839 59.1616C48.0756 60.2192 49.2943 61.8886 49.7862 63.8222C50.2781 65.7557 50.0053 67.8045 49.0247 69.542C48.0441 71.2795 46.4312 72.5719 44.5217 73.1502C42.6122 73.7285 40.5533 73.5481 38.7734 72.6466V65.875C38.7734 65.3611 38.5693 64.8683 38.206 64.505C37.8426 64.1416 37.3498 63.9375 36.8359 63.9375Z" fill="#FF842A"/>
<path d="M30.0526 56.4449C29.2246 55.969 28.2922 55.7045 27.3376 55.6747C26.3831 55.6449 25.4359 55.8508 24.5798 56.2741C23.7238 56.6974 22.9852 57.3251 22.4294 58.1017C21.8737 58.8784 21.5178 59.78 21.3933 60.7268C21.2689 61.6737 21.3796 62.6366 21.7158 63.5305C22.052 64.4244 22.6032 65.2216 23.3208 65.8518C24.0384 66.482 24.9002 66.9256 25.83 67.1435C26.7598 67.3615 27.729 67.3469 28.6518 67.1012C29.3908 66.906 30.0836 66.5656 30.6896 66.0999C31.2957 65.6342 31.803 65.0525 32.182 64.3887C32.5641 63.7274 32.8122 62.9972 32.912 62.24C33.0118 61.4827 32.9614 60.7132 32.7636 59.9755C32.5659 59.2377 32.2247 58.5462 31.7595 57.9404C31.2943 57.3346 30.7143 56.8264 30.0526 56.4449ZM28.8262 62.4512C28.7 62.6722 28.531 62.866 28.329 63.021C28.1271 63.176 27.8963 63.2892 27.6501 63.3541C27.1529 63.4859 26.6238 63.4163 26.1776 63.1603C25.8083 62.947 25.5196 62.6179 25.3564 62.2238C25.1932 61.8298 25.1646 61.3929 25.275 60.981C25.3854 60.569 25.6286 60.205 25.967 59.9453C26.3053 59.6857 26.7199 59.5449 27.1464 59.5449C27.4867 59.5436 27.8211 59.6332 28.1151 59.8046C28.5594 60.0611 28.8838 60.4835 29.0171 60.9789C29.1504 61.4743 29.0817 62.0024 28.8262 62.4473V62.4512Z" fill="#FF842A"/>
<path d="M90.9894 96.6407C90.6239 96.2878 90.1345 96.0925 89.6265 96.0969C89.1185 96.1014 88.6326 96.3051 88.2733 96.6644C87.9141 97.0236 87.7103 97.5095 87.7059 98.0175C87.7015 98.5255 87.8968 99.015 88.2497 99.3804L91.8884 103.021C92.6148 103.748 93.0229 104.733 93.0229 105.761C93.0229 106.788 92.6148 107.774 91.8884 108.5L89.1487 111.24C88.4105 111.945 87.429 112.338 86.4081 112.338C85.3873 112.338 84.4058 111.945 83.6676 111.24L69.9675 97.5397C69.241 96.8131 68.8329 95.8276 68.8329 94.8001C68.8329 93.7726 69.241 92.7872 69.9675 92.0605L72.709 89.3189C73.4469 88.614 74.4282 88.2206 75.4487 88.2206C76.4692 88.2206 77.4504 88.614 78.1883 89.3189L82.7686 93.8992C83.134 94.2521 83.6234 94.4474 84.1314 94.443C84.6394 94.4386 85.1253 94.2348 85.4846 93.8756C85.8438 93.5164 86.0476 93.0304 86.052 92.5224C86.0564 92.0144 85.8611 91.525 85.5082 91.1596L80.9279 86.5793C80.2104 85.8569 79.3566 85.2842 78.416 84.8944C77.4755 84.5046 76.4668 84.3055 75.4487 84.3086C74.7778 84.3184 74.1109 84.4148 73.4647 84.5953L63.3432 74.4738C68.3917 67.353 70.5887 58.5989 69.5009 49.938C68.4131 41.2771 64.1194 33.3382 57.4667 27.6871C57.0754 27.3531 56.5675 27.1882 56.0546 27.2287C55.5417 27.2692 55.066 27.5118 54.732 27.9031C54.3979 28.2944 54.2331 28.8024 54.2736 29.3152C54.3141 29.8281 54.5567 30.3039 54.948 30.6379C59.1872 34.2332 62.381 38.9028 64.1948 44.1571C66.0085 49.4114 66.3752 55.0569 65.2566 60.5017C64.138 65.9465 61.5751 70.9901 57.8367 75.1038C54.0984 79.2174 49.3222 82.2495 44.0089 83.8823C43.5176 84.0334 43.1065 84.3734 42.866 84.8276C42.6254 85.2818 42.5752 85.8129 42.7262 86.3042C42.8773 86.7954 43.2173 87.2065 43.6715 87.4471C44.1257 87.6876 44.6569 87.7379 45.1481 87.5868C48.7094 86.4953 52.0743 84.8439 55.1165 82.6946L65.2381 92.8161C65.0576 93.4624 64.9612 94.1292 64.9513 94.8001C64.9482 95.8183 65.1474 96.8269 65.5372 97.7675C65.927 98.7081 66.4997 99.5619 67.222 100.279L80.9202 113.979C81.6398 114.699 82.4942 115.27 83.4345 115.66C84.3748 116.049 85.3826 116.249 86.4004 116.249C87.4182 116.249 88.426 116.049 89.3663 115.66C90.3066 115.27 91.161 114.699 91.8806 113.979L94.6202 111.24C96.0731 109.786 96.8893 107.816 96.8893 105.761C96.8893 103.706 96.0731 101.735 94.6202 100.281L90.9894 96.6407ZM58.1623 80.2534C59.1292 79.395 60.0471 78.4829 60.9116 77.5215L69.9675 86.5812L67.2298 89.3189L58.1623 80.2534Z" fill="#FF842A"/>
<path d="M83.3359 58.125C83.8498 58.125 84.3426 57.9209 84.706 57.5575C85.0693 57.1942 85.2734 56.7014 85.2734 56.1875V40.6875C85.2734 40.1736 85.0693 39.6808 84.706 39.3175C84.3426 38.9541 83.8498 38.75 83.3359 38.75H75.5859C75.0721 38.75 74.5793 38.9541 74.2159 39.3175C73.8526 39.6808 73.6484 40.1736 73.6484 40.6875V56.1875C73.6484 56.7014 73.8526 57.1942 74.2159 57.5575C74.5793 57.9209 75.0721 58.125 75.5859 58.125H83.3359ZM77.5234 54.25V50.375H81.3984V54.25H77.5234ZM81.3984 42.625V46.5H77.5234V42.625H81.3984Z" fill="#FF842A"/>
<path d="M98.8359 58.125C99.3498 58.125 99.8426 57.9209 100.206 57.5575C100.569 57.1942 100.773 56.7014 100.773 56.1875V29.0625C100.773 28.5486 100.569 28.0558 100.206 27.6925C99.8426 27.3291 99.3498 27.125 98.8359 27.125H91.0859C90.5721 27.125 90.0793 27.3291 89.7159 27.6925C89.3526 28.0558 89.1484 28.5486 89.1484 29.0625V56.1875C89.1484 56.7014 89.3526 57.1942 89.7159 57.5575C90.0793 57.9209 90.5721 58.125 91.0859 58.125H98.8359ZM93.0234 54.25V40.6875H96.8984V54.25H93.0234ZM96.8984 31V36.8125H93.0234V31H96.8984Z" fill="#FF842A"/>
<path d="M114.336 0H106.586C106.072 0 105.579 0.204129 105.216 0.567481C104.853 0.930832 104.648 1.42364 104.648 1.9375C104.648 2.45136 104.853 2.94417 105.216 3.30752C105.579 3.67087 106.072 3.875 106.586 3.875H109.659L98.0338 15.5H91.0859C90.8064 15.5003 90.5303 15.561 90.2764 15.6781C90.0226 15.7951 89.7971 15.9657 89.6154 16.1781L78.5697 29.0625H69.7734C69.2596 29.0625 68.7668 29.2666 68.4034 29.63C68.0401 29.9933 67.8359 30.4861 67.8359 31C67.8359 31.5139 68.0401 32.0067 68.4034 32.37C68.7668 32.7334 69.2596 32.9375 69.7734 32.9375H79.4609C79.7405 32.9372 80.0166 32.8765 80.2705 32.7594C80.5243 32.6424 80.7498 32.4718 80.9315 32.2594L91.9772 19.375H98.8359C99.3498 19.3749 99.8425 19.1707 100.206 18.8073L112.398 6.61462V9.6875C112.398 10.2014 112.603 10.6942 112.966 11.0575C113.329 11.4209 113.822 11.625 114.336 11.625C114.85 11.625 115.343 11.4209 115.706 11.0575C116.069 10.6942 116.273 10.2014 116.273 9.6875V1.9375C116.273 1.42364 116.069 0.930832 115.706 0.567481C115.343 0.204129 114.85 0 114.336 0Z" fill="#FF842A"/>
<path d="M114.336 19.375H106.586C106.072 19.375 105.579 19.5791 105.216 19.9425C104.853 20.3058 104.648 20.7986 104.648 21.3125V56.1875C104.648 56.7014 104.853 57.1942 105.216 57.5575C105.579 57.9209 106.072 58.125 106.586 58.125H114.336C114.85 58.125 115.343 57.9209 115.706 57.5575C116.069 57.1942 116.273 56.7014 116.273 56.1875V46.5C116.273 45.9861 116.069 45.4933 115.706 45.13C115.343 44.7666 114.85 44.5625 114.336 44.5625C113.822 44.5625 113.329 44.7666 112.966 45.13C112.603 45.4933 112.398 45.9861 112.398 46.5V54.25H108.523V32.9375H112.398V38.75C112.398 39.2639 112.603 39.7567 112.966 40.12C113.329 40.4834 113.822 40.6875 114.336 40.6875C114.85 40.6875 115.343 40.4834 115.706 40.12C116.069 39.7567 116.273 39.2639 116.273 38.75V21.3125C116.273 20.7986 116.069 20.3058 115.706 19.9425C115.343 19.5791 114.85 19.375 114.336 19.375ZM108.523 29.0625V23.25H112.398V29.0625H108.523Z" fill="#FF842A"/>
<path d="M19.3991 23.0563C12.8325 26.3114 7.46022 31.5552 4.04716 38.0412C0.634089 44.5271 -0.645791 51.9244 0.389742 59.18C1.42527 66.4356 4.72343 73.1796 9.81464 78.4518C14.9058 83.7239 21.5306 87.2555 28.7456 88.5438C28.8578 88.567 28.972 88.5799 29.0866 88.5825C29.5718 88.5837 30.0398 88.4028 30.3981 88.0755C30.7563 87.7483 30.9788 87.2985 31.0214 86.8152C31.064 86.3318 30.9237 85.8501 30.6282 85.4652C30.3327 85.0803 29.9036 84.8203 29.4256 84.7366C23.1739 83.6237 17.4156 80.615 12.932 76.1183C8.44835 71.6216 5.45627 65.8547 4.3616 59.5997C3.26692 53.3447 4.12263 46.9044 6.81264 41.1523C9.50266 35.4001 13.8968 30.6146 19.3991 27.4447V32.9375C19.3991 33.4514 19.6032 33.9442 19.9666 34.3075C20.3299 34.6709 20.8227 34.875 21.3366 34.875C21.8504 34.875 22.3432 34.6709 22.7066 34.3075C23.07 33.9442 23.2741 33.4514 23.2741 32.9375V25.5324C28.6836 23.3057 34.6217 22.6914 40.3725 23.7634C40.8756 23.8469 41.3913 23.7286 41.8077 23.4342C42.2242 23.1399 42.5078 22.6932 42.597 22.1911C42.6863 21.689 42.574 21.172 42.2845 20.7522C41.995 20.3323 41.5517 20.0436 41.0506 19.9485C35.1009 18.8402 28.963 19.3447 23.2741 21.4094V5.81251C23.2741 5.29865 23.07 4.80584 22.7066 4.44249C22.3432 4.07914 21.8504 3.87501 21.3366 3.87501H11.2926C10.8355 2.58228 9.9362 1.49275 8.75352 0.798976C7.57085 0.105201 6.18099 -0.148143 4.8296 0.0837204C3.4782 0.315583 2.25227 1.01772 1.3685 2.06605C0.484724 3.11437 0 4.44137 0 5.81251C0 7.18366 0.484724 8.51066 1.3685 9.55898C2.25227 10.6073 3.4782 11.3094 4.8296 11.5413C6.18099 11.7732 7.57085 11.5198 8.75352 10.826C9.9362 10.1323 10.8355 9.04274 11.2926 7.75001H19.3991V23.0563ZM5.83658 7.75001C5.45338 7.75001 5.07878 7.63638 4.76016 7.42348C4.44154 7.21059 4.19321 6.90799 4.04656 6.55396C3.89992 6.19993 3.86155 5.81036 3.93631 5.43452C4.01107 5.05869 4.19559 4.71346 4.46656 4.44249C4.73752 4.17153 5.08275 3.987 5.45859 3.91224C5.83443 3.83748 6.22399 3.87585 6.57803 4.02249C6.93206 4.16914 7.23465 4.41747 7.44755 4.73609C7.66045 5.05471 7.77408 5.42931 7.77408 5.81251C7.77408 6.32637 7.56995 6.81918 7.2066 7.18253C6.84325 7.54588 6.35043 7.75001 5.83658 7.75001Z" fill="#FF842A"/>
</svg>
