<svg width="117" height="121" viewBox="0 0 117 121" fill="none" xmlns="http://www.w3.org/2000/svg">
<path d="M92.0204 108.024C91.4899 108.024 90.981 108.235 90.6059 108.61C90.2307 108.985 90.02 109.494 90.02 110.025C90.02 111.616 89.3877 113.143 88.2622 114.268C87.1367 115.394 85.6103 116.026 84.0186 116.026H28.0061C26.4145 116.026 24.888 115.394 23.7625 114.268C22.6371 113.143 22.0048 111.616 22.0048 110.025V77.7334C22.0048 77.2028 21.794 76.694 21.4189 76.3188C21.0437 75.9437 20.5349 75.7329 20.0044 75.7329C19.4738 75.7329 18.965 75.9437 18.5898 76.3188C18.2147 76.694 18.0039 77.2028 18.0039 77.7334V110.025C18.0071 112.676 19.0619 115.219 20.937 117.094C22.8121 118.969 25.3544 120.024 28.0061 120.027H84.0186C86.6704 120.024 89.2127 118.969 91.0878 117.094C92.9628 115.219 94.0177 112.676 94.0209 110.025C94.0209 109.494 93.8101 108.985 93.4349 108.61C93.0598 108.235 92.551 108.024 92.0204 108.024Z" fill="#FF842A"/>
<path d="M20.0044 28.0062C20.5349 28.0062 21.0437 27.7955 21.4189 27.4203C21.794 27.0452 22.0048 26.5363 22.0048 26.0058V10.0022C22.0048 8.41058 22.6371 6.88411 23.7625 5.75864C24.888 4.63317 26.4145 4.00089 28.0061 4.00089H84.0186C85.6103 4.00089 87.1367 4.63317 88.2622 5.75864C89.3877 6.88411 90.02 8.41058 90.02 10.0022V45.2401C90.02 45.7706 90.2307 46.2795 90.6059 46.6546C90.981 47.0298 91.4899 47.2405 92.0204 47.2405C92.551 47.2405 93.0598 47.0298 93.4349 46.6546C93.8101 46.2795 94.0209 45.7706 94.0209 45.2401V10.0022C94.0177 7.35045 92.9628 4.80819 91.0878 2.93309C89.2127 1.058 86.6704 0.00317642 84.0186 0H28.0061C25.3544 0.00317642 22.8121 1.058 20.937 2.93309C19.0619 4.80819 18.0071 7.35045 18.0039 10.0022V26.0058C18.0039 26.5363 18.2147 27.0452 18.5898 27.4203C18.965 27.7955 19.4738 28.0062 20.0044 28.0062Z" fill="#FF842A"/>
<path d="M46.0109 70.0156H34.0083C33.4777 70.0156 32.9689 70.2264 32.5937 70.6015C32.2186 70.9767 32.0078 71.4855 32.0078 72.0161C32.0078 72.5466 32.2186 73.0554 32.5937 73.4306C32.9689 73.8058 33.4777 74.0165 34.0083 74.0165H46.0109C46.5415 74.0165 47.0503 73.8058 47.4255 73.4306C47.8006 73.0554 48.0114 72.5466 48.0114 72.0161C48.0114 71.4855 47.8006 70.9767 47.4255 70.6015C47.0503 70.2264 46.5415 70.0156 46.0109 70.0156Z" fill="#FF842A"/>
<path d="M18.004 72.016C20.3089 72.0131 22.5424 71.2156 24.3279 69.758C26.1135 68.3005 27.3419 66.2719 27.8062 64.0142H43.5257C44.0563 64.0142 44.5651 63.8034 44.9402 63.4283C45.3154 63.0531 45.5261 62.5443 45.5261 62.0138C45.5261 61.4832 45.3154 60.9744 44.9402 60.5992C44.5651 60.2241 44.0563 60.0133 43.5257 60.0133H32.0071V24.0053H76.0169V42.5534C76.0169 43.084 76.2277 43.5928 76.6029 43.9679C76.978 44.3431 77.4868 44.5539 78.0174 44.5539C78.5479 44.5539 79.0568 44.3431 79.4319 43.9679C79.8071 43.5928 80.0178 43.084 80.0178 42.5534V22.0048C80.0178 21.4743 79.8071 20.9655 79.4319 20.5903C79.0568 20.2152 78.5479 20.0044 78.0174 20.0044H30.0067C29.4761 20.0044 28.9673 20.2152 28.5922 20.5903C28.217 20.9655 28.0062 21.4743 28.0062 22.0048V32.0071H14.0031C13.7147 32.0071 13.4296 32.0695 13.1676 32.19C12.9055 32.3105 12.6726 32.4863 12.4848 32.7052L0.482108 46.7083C0.171057 47.071 4.32966e-05 47.5329 0 48.0106V62.0138C0 62.5443 0.210761 63.0531 0.585917 63.4283C0.961074 63.8034 1.46989 64.0142 2.00045 64.0142H8.20183C8.66613 66.2719 9.89457 68.3005 11.6801 69.758C13.4656 71.2156 15.6991 72.0131 18.004 72.016ZM18.004 68.0151C16.8171 68.0151 15.6568 67.6631 14.6698 67.0037C13.6829 66.3442 12.9137 65.407 12.4595 64.3104C12.0053 63.2138 11.8864 62.0071 12.118 60.843C12.3496 59.6788 12.9211 58.6095 13.7604 57.7702C14.5997 56.9309 15.6691 56.3593 16.8332 56.1277C17.9974 55.8962 19.204 56.015 20.3006 56.4692C21.3972 56.9235 22.3345 57.6927 22.9939 58.6796C23.6534 59.6665 24.0054 60.8268 24.0054 62.0138C24.0054 63.6054 23.3731 65.1319 22.2476 66.2573C21.1221 67.3828 19.5957 68.0151 18.004 68.0151ZM14.9233 36.008H16.0036V42.0093C16.0036 43.0704 15.582 44.088 14.8317 44.8384C14.0814 45.5887 13.0638 46.0102 12.0027 46.0102H6.34941L14.9233 36.008ZM4.00089 50.0111H12.0027C14.1249 50.0111 16.1602 49.168 17.6608 47.6674C19.1614 46.1668 20.0045 44.1315 20.0045 42.0093V36.008H28.0062V60.0133H27.8062C27.3471 57.7522 26.1204 55.7194 24.3339 54.2593C22.5475 52.7991 20.3112 52.0015 18.004 52.0015C15.6968 52.0015 13.4605 52.7991 11.6741 54.2593C9.88766 55.7194 8.66096 57.7522 8.20183 60.0133H4.00089V50.0111Z" fill="#FF842A"/>
<path d="M18.0044 64.0141C19.1092 64.0141 20.0048 63.1184 20.0048 62.0136C20.0048 60.9088 19.1092 60.0132 18.0044 60.0132C16.8995 60.0132 16.0039 60.9088 16.0039 62.0136C16.0039 63.1184 16.8995 64.0141 18.0044 64.0141Z" fill="#FF842A"/>
<path d="M115.442 87.1492L99.9661 71.6737C101.237 69.75 101.805 67.4462 101.572 65.1522C101.34 62.8582 100.323 60.7149 98.6918 59.0849L87.3773 47.7684C86.2339 46.6778 84.7144 46.0693 83.1343 46.0693C81.5542 46.0693 80.0348 46.6778 78.8914 47.7684C78.3547 48.3027 77.9243 48.934 77.6231 49.6288C76.4737 48.9976 75.1523 48.7512 73.8526 48.9258C72.553 49.1004 71.3435 49.6868 70.4015 50.599C69.3542 51.6401 68.7311 53.0332 68.6531 54.5079C67.5791 54.5685 66.5411 54.9159 65.6471 55.5141C64.753 56.1122 64.0358 56.9391 63.5699 57.9087L56.2583 50.595C55.6454 49.9934 54.9049 49.5374 54.0918 49.2607C55.9874 48.5774 57.6805 47.4278 59.0149 45.918C60.1376 47.2017 61.5214 48.2309 63.0739 48.9367C64.6263 49.6426 66.3116 50.0088 68.0169 50.0109C68.5475 50.0109 69.0563 49.8001 69.4315 49.425C69.8066 49.0498 70.0174 48.541 70.0174 48.0104V36.0078C70.0174 35.4772 69.8066 34.9684 69.4315 34.5932C69.0563 34.2181 68.5475 34.0073 68.0169 34.0073C66.3116 34.0094 64.6263 34.3757 63.0739 35.0815C61.5214 35.7873 60.1376 36.8165 59.0149 38.1002C57.686 36.5799 55.9942 35.4205 54.0967 34.7298C52.1993 34.039 50.158 33.8395 48.1627 34.1498C46.1675 34.46 44.2831 35.27 42.685 36.5042C41.0869 37.7384 39.827 39.3569 39.0225 41.2089C38.9123 41.4613 38.8555 41.7337 38.8555 42.0091C38.8555 42.2845 38.9123 42.5569 39.0225 42.8093C39.8645 44.7274 41.1938 46.3917 42.8783 47.6368C44.5628 48.882 46.5439 49.6646 48.6246 49.9069C48.3187 50.1078 48.0332 50.3383 47.7724 50.595C47.215 51.1523 46.7729 51.8139 46.4712 52.5421C46.1696 53.2703 46.0143 54.0508 46.0143 54.839C46.0143 55.6272 46.1696 56.4076 46.4712 57.1358C46.7729 57.864 47.215 58.5256 47.7724 59.0829L60.7453 72.0558C59.879 72.4695 59.1246 73.085 58.5454 73.8506C57.9662 74.6162 57.5792 75.5096 57.4167 76.4557C57.2542 77.4019 57.3211 78.3732 57.6118 79.2882C57.9024 80.2031 58.4083 81.035 59.0869 81.714L66.1605 88.7875C66.9036 89.5306 67.7857 90.1201 68.7565 90.5222C69.7274 90.9244 70.7679 91.1314 71.8188 91.1314C72.8696 91.1314 73.9102 90.9244 74.881 90.5222C75.8519 90.1201 76.734 89.5306 77.477 88.7875L108.128 119.44C108.505 119.805 109.01 120.006 109.535 120.002C110.06 119.997 110.561 119.787 110.932 119.416C111.303 119.045 111.513 118.543 111.518 118.019C111.523 117.494 111.321 116.989 110.957 116.612L78.8894 84.5466C78.5142 84.1716 78.0055 83.9609 77.475 83.9609C76.9446 83.9609 76.4359 84.1716 76.0607 84.5466L74.6444 85.9609C73.8821 86.6878 72.8691 87.0933 71.8158 87.0933C70.7624 87.0933 69.7495 86.6878 68.9872 85.9609L61.9156 78.8893C61.7297 78.7036 61.5823 78.4831 61.4816 78.2404C61.381 77.9976 61.3291 77.7375 61.329 77.4747C61.329 77.212 61.3806 76.9518 61.4811 76.709C61.5815 76.4662 61.7288 76.2456 61.9146 76.0597C62.1003 75.8738 62.3208 75.7264 62.5635 75.6257C62.8063 75.5251 63.0664 75.4733 63.3292 75.4732C63.5919 75.4731 63.8521 75.5247 64.0949 75.6252C64.3377 75.7257 64.5583 75.873 64.7442 76.0587L68.9832 80.2996C69.358 80.6755 69.8668 80.8871 70.3976 80.8879C70.9285 80.8886 71.4379 80.6785 71.8138 80.3036C72.1897 79.9288 72.4013 79.42 72.402 78.8892C72.4028 78.3583 72.1926 77.8489 71.8178 77.473L67.5748 73.2281L50.6011 56.2563C50.4151 56.0705 50.2675 55.8499 50.1668 55.607C50.0662 55.3642 50.0144 55.1039 50.0144 54.841C50.0144 54.5781 50.0662 54.3178 50.1668 54.0749C50.2675 53.8321 50.4151 53.6114 50.6011 53.4257C50.9819 53.0615 51.4885 52.8583 52.0154 52.8583C52.5423 52.8583 53.0489 53.0615 53.4297 53.4257L64.7462 64.7422L68.9852 68.9831C69.36 69.3588 69.8687 69.5701 70.3993 69.5707C70.93 69.5712 71.4391 69.361 71.8148 68.9861C72.1904 68.6113 72.4018 68.1026 72.4023 67.5719C72.4029 67.0413 72.1926 66.5321 71.8178 66.1565L67.5728 61.9135C67.1984 61.5385 66.9881 61.0302 66.9881 60.5002C66.9881 59.9703 67.1984 59.462 67.5728 59.0869C67.948 58.7119 68.4567 58.5012 68.9872 58.5012C69.5176 58.5012 70.0263 58.7119 70.4015 59.0869L74.6444 63.3299C75.0195 63.7052 75.5284 63.9162 76.059 63.9164C76.5897 63.9166 77.0987 63.706 77.474 63.3309C77.8494 62.9558 78.0604 62.4469 78.0606 61.9163C78.0608 61.3856 77.8501 60.8766 77.475 60.5012L73.2301 56.2583C73.0441 56.0725 72.8965 55.8519 72.7959 55.609C72.6952 55.3662 72.6434 55.1059 72.6434 54.843C72.6434 54.5801 72.6952 54.3198 72.7959 54.0769C72.8965 53.8341 73.0441 53.6134 73.2301 53.4277C73.6115 53.0638 74.1183 52.8609 74.6454 52.8609C75.1725 52.8609 75.6793 53.0638 76.0607 53.4277L78.8914 56.2563L81.718 59.0829C82.0953 59.4473 82.6006 59.6489 83.1251 59.6444C83.6496 59.6398 84.1514 59.4294 84.5223 59.0585C84.8932 58.6877 85.1035 58.1859 85.1081 57.6614C85.1127 57.1369 84.911 56.6316 84.5466 56.2543L81.72 53.4257C81.534 53.2399 81.3864 53.0192 81.2858 52.7764C81.1851 52.5335 81.1333 52.2732 81.1333 52.0103C81.1333 51.7474 81.1851 51.4871 81.2858 51.2443C81.3864 51.0014 81.534 50.7808 81.72 50.595C82.1009 50.2319 82.607 50.0294 83.1333 50.0294C83.6596 50.0294 84.1657 50.2319 84.5466 50.595L95.8631 61.9135C96.9882 63.039 97.6203 64.5652 97.6203 66.1565C97.6203 67.7478 96.9882 69.274 95.8631 70.3994C95.4881 70.7746 95.2774 71.2833 95.2774 71.8138C95.2774 72.3442 95.4881 72.8529 95.8631 73.2281L112.613 89.9778C112.99 90.3422 113.495 90.5438 114.02 90.5393C114.545 90.5347 115.046 90.3243 115.417 89.9534C115.788 89.5825 115.998 89.0808 116.003 88.5563C116.008 88.0318 115.806 87.5265 115.442 87.1492ZM66.0165 38.2623V45.7559C63.9762 45.222 62.2292 43.9042 61.1554 42.0891C61.1554 42.0351 61.1554 41.9831 61.1554 41.9291C62.2292 40.114 63.9762 38.7962 66.0165 38.2623ZM43.0934 42.0091C43.87 40.6741 45.0163 39.5923 46.3941 38.8944C46.1554 39.2178 46.022 39.6068 46.012 40.0087C46.0078 40.3773 46.1056 40.7399 46.2945 41.0564C46.4834 41.373 46.756 41.6312 47.0824 41.8026C47.4088 41.974 47.7762 42.0518 48.144 42.0275C48.5119 42.0033 48.8659 41.8778 49.1669 41.6651C49.4679 41.4523 49.7043 41.1605 49.85 40.8219C49.9957 40.4832 50.0449 40.1109 49.9923 39.7461C49.9398 39.3812 49.7874 39.038 49.552 38.7542C49.3167 38.4705 49.0075 38.2573 48.6586 38.1382C50.2517 37.8443 51.8968 38.0505 53.3681 38.7285C54.8394 39.4065 56.0649 40.5231 56.8765 41.9251C56.8765 41.9831 56.8765 42.0351 56.8765 42.0931C56.1666 43.2935 55.1546 44.2869 53.9411 44.9742C52.7277 45.6614 51.3553 46.0186 49.9608 46.0101C48.5663 46.0016 47.1983 45.6277 45.9934 44.9257C44.7884 44.2237 43.7885 43.2181 43.0934 42.0091Z" fill="#FF842A"/>
<path d="M52.0127 82.0185C52.5433 82.0185 53.0521 81.8077 53.4272 81.4326C53.8024 81.0574 54.0132 80.5486 54.0132 80.018C54.0132 79.4875 53.8024 78.9786 53.4272 78.6035C53.0521 78.2283 52.5433 78.0176 52.0127 78.0176H32.0083C31.4777 78.0176 30.9689 78.2283 30.5937 78.6035C30.2186 78.9786 30.0078 79.4875 30.0078 80.018V88.0198C30.0078 88.5504 30.2186 89.0592 30.5937 89.4343C30.9689 89.8095 31.4777 90.0203 32.0083 90.0203H52.0127C52.5433 90.0203 53.0521 89.8095 53.4272 89.4343C53.8024 89.0592 54.0132 88.5504 54.0132 88.0198C54.0132 87.4893 53.8024 86.9804 53.4272 86.6053C53.0521 86.2301 52.5433 86.0194 52.0127 86.0194H34.0087V82.0185H52.0127Z" fill="#FF842A"/>
</svg>
