<svg width="14" height="16" viewBox="0 0 14 16" fill="none" xmlns="http://www.w3.org/2000/svg">
<path d="M13.1825 5.38655L12.9173 5.12945L13.4655 4.51629C13.6467 4.31376 13.787 4.07666 13.8783 3.81857C13.9696 3.56048 14.0103 3.28646 13.9978 3.01221C13.9854 2.73796 13.9201 2.46887 13.8058 2.22035C13.6914 1.97183 13.5303 1.74877 13.3315 1.56393L12.872 1.14618C12.6736 0.960936 12.4414 0.817502 12.1887 0.724095C11.936 0.630688 11.6678 0.589144 11.3994 0.601843C11.1311 0.614541 10.8678 0.681233 10.6248 0.798097C10.3818 0.914962 10.1638 1.0797 9.98328 1.28288L1.06689 11.3023C1.00764 11.3681 0.964659 11.4475 0.941541 11.5338L0.0160379 15.3034C-0.00771425 15.4016 -0.0050411 15.5046 0.0237737 15.6014C0.0525886 15.6982 0.106473 15.7853 0.179723 15.8534C0.252973 15.9215 0.342863 15.9681 0.439876 15.9883C0.536889 16.0085 0.637416 16.0015 0.730815 15.9681L4.32076 14.6805C4.4069 14.6498 4.48415 14.5975 4.54553 14.5285L12.1759 5.96835L12.4411 6.22546C12.4996 6.27968 12.5471 6.34518 12.5808 6.4182C12.6145 6.49121 12.6338 6.5703 12.6375 6.65092C12.6412 6.73154 12.6293 6.8121 12.6025 6.88798C12.5757 6.96385 12.5344 7.03355 12.4811 7.09307L9.74004 10.1589C9.69156 10.2134 9.65408 10.2771 9.62972 10.3465C9.60536 10.4158 9.59461 10.4894 9.59807 10.563C9.60154 10.6366 9.61916 10.7088 9.64993 10.7755C9.68069 10.8422 9.724 10.902 9.77738 10.9516C9.83076 11.0012 9.89316 11.0396 9.96103 11.0646C10.0289 11.0895 10.1009 11.1006 10.1729 11.0971C10.2449 11.0936 10.3156 11.0757 10.3808 11.0443C10.446 11.0129 10.5045 10.9687 10.553 10.9141L13.2941 7.84833C13.4444 7.67995 13.5608 7.48289 13.6365 7.26843C13.7123 7.05397 13.7459 6.82631 13.7354 6.59849C13.725 6.37067 13.6707 6.14715 13.5756 5.94072C13.4806 5.73429 13.3467 5.54901 13.1816 5.39547L13.1825 5.38655ZM1.32534 14.5652L1.87068 12.3569C2.23351 12.4375 2.56917 12.6146 2.84372 12.8702C3.11826 13.1258 3.32195 13.4509 3.43419 13.8127L1.32534 14.5652ZM12.6518 3.76771L4.33845 13.0991C4.15932 12.6974 3.90231 12.337 3.58298 12.0396C3.26364 11.7423 2.88864 11.5142 2.48067 11.3693L10.7941 2.03789C10.8771 1.94381 10.9775 1.86739 11.0895 1.81301C11.2015 1.75863 11.3229 1.72735 11.4468 1.72094C11.5707 1.71454 11.6946 1.73315 11.8115 1.77571C11.9284 1.81827 12.0359 1.88393 12.128 1.96896L12.5906 2.39838C12.683 2.48395 12.758 2.58738 12.8112 2.70269C12.8644 2.81801 12.8947 2.94292 12.9004 3.07023C12.9061 3.19755 12.887 3.32473 12.8444 3.44444C12.8017 3.56415 12.7363 3.67402 12.6518 3.76771Z" fill="#939393"/>
</svg>
