<svg width="10" height="11" viewBox="0 0 10 11" fill="none" xmlns="http://www.w3.org/2000/svg">
<path d="M9.41611 3.41924L9.22666 3.2356L9.61824 2.79763C9.74765 2.65297 9.84784 2.48361 9.91308 2.29926C9.97832 2.1149 10.0073 1.91918 9.99843 1.72329C9.98954 1.5274 9.94292 1.33519 9.86126 1.15767C9.77959 0.980161 9.66447 0.820828 9.52251 0.688801L9.19432 0.390407C9.05257 0.25809 8.88669 0.155638 8.70619 0.0889185C8.52569 0.0221992 8.33411 -0.00747512 8.14243 0.00159533C7.95075 0.0106657 7.76274 0.0583025 7.58917 0.141777C7.41559 0.225252 7.25987 0.342923 7.13092 0.48805L0.762066 7.6448C0.719742 7.69181 0.689042 7.7485 0.67253 7.81013L0.0114556 10.5027C-0.00551017 10.5729 -0.00360078 10.6464 0.0169812 10.7156C0.0375633 10.7847 0.0760524 10.8469 0.128374 10.8956C0.180695 10.9442 0.244902 10.9775 0.314197 10.9919C0.383492 11.0064 0.455297 11.0014 0.52201 10.9775L3.08626 10.0578C3.14778 10.0358 3.20297 9.99851 3.24681 9.94923L8.69705 3.83482L8.8865 4.01846C8.92831 4.05719 8.96222 4.10398 8.9863 4.15613C9.01037 4.20829 9.02413 4.26478 9.02679 4.32236C9.02945 4.37995 9.02095 4.43749 9.00178 4.49169C8.98261 4.54589 8.95315 4.59567 8.91509 4.63819L6.95717 6.82805C6.92254 6.86699 6.89577 6.91253 6.87837 6.96206C6.86097 7.01159 6.85329 7.06415 6.85577 7.11673C6.85824 7.16931 6.87083 7.22088 6.89281 7.26851C6.91478 7.31614 6.94571 7.35888 6.98384 7.39431C7.02197 7.42973 7.06655 7.45714 7.11502 7.47496C7.1635 7.49278 7.21493 7.50068 7.26637 7.49819C7.31782 7.49571 7.36827 7.48289 7.41485 7.46047C7.46143 7.43805 7.50322 7.40647 7.53785 7.36753L9.49577 5.17766C9.60316 5.05739 9.68629 4.91663 9.74038 4.76344C9.79447 4.61026 9.81847 4.44764 9.81101 4.28491C9.80354 4.12218 9.76476 3.96253 9.69687 3.81508C9.62899 3.66763 9.53334 3.53529 9.41539 3.42561L9.41611 3.41924ZM0.946672 9.97545L1.3362 8.3981C1.59537 8.45564 1.83512 8.58211 2.03123 8.7647C2.22733 8.94728 2.37282 9.17952 2.45299 9.43792L0.946672 9.97545ZM9.03703 2.26293L3.0989 8.92822C2.97095 8.64128 2.78736 8.38382 2.55927 8.17144C2.33117 7.95905 2.06331 7.79616 1.77191 7.69263L7.71004 1.02734C7.76937 0.960142 7.84109 0.905561 7.92109 0.866717C8.00109 0.827872 8.08781 0.805526 8.17629 0.800954C8.26478 0.796382 8.35329 0.809674 8.43677 0.840072C8.52026 0.870469 8.59708 0.917375 8.66284 0.97811L8.99325 1.28483C9.0593 1.34596 9.11287 1.41983 9.15085 1.5022C9.18883 1.58457 9.21048 1.6738 9.21455 1.76473C9.21862 1.85567 9.20503 1.94651 9.17456 2.03202C9.14409 2.11753 9.09735 2.19601 9.03703 2.26293Z" fill="#FFA11B"/>
</svg>
