<svg width="20" height="20" viewBox="0 0 20 20" fill="none" xmlns="http://www.w3.org/2000/svg">
<path fill-rule="evenodd" clip-rule="evenodd" d="M2.54895 4.39555C2.54895 4.39555 2.51308 3.45485 3.11013 2.23762C3.5313 1.37676 5.17086 0.901212 5.17086 0.901212C5.17086 0.901212 5.87204 0.72302 7.28135 2.08373C7.84153 2.60227 8.19777 3.30406 8.28569 4.06232C8.3366 4.75424 6.86134 6.2295 6.86134 6.2295C6.97551 7.07654 7.32917 7.87338 7.88072 8.5263C8.46041 9.20087 9.45895 10.2526 9.9831 10.7444C10.432 11.1656 10.933 11.7152 11.5995 12.1572C12.9105 13.0261 13.2252 12.9475 13.2252 12.9475C13.2252 12.9475 15.0927 11.3831 15.6516 11.4375C16.0762 11.4803 16.6779 11.7603 17.4474 12.4163C18.0189 12.9023 18.3846 13.2703 18.6715 13.7609C18.7737 13.9303 18.8541 14.1118 18.911 14.3012C18.911 14.3012 18.9862 15.0776 17.7806 16.3134C16.5807 17.541 14.9261 17.2194 14.9261 17.2194C14.9261 17.2194 13.975 17.0782 12.4187 16.3458C10.6956 15.5055 9.12572 14.3823 7.77425 13.0227C6.51305 11.7198 4.85961 9.72616 4.05544 8.33884C3.04301 6.59514 2.54895 4.39555 2.54895 4.39555Z" fill="#6E9E48"/>
</svg>
