<svg width="20" height="20" viewBox="0 0 20 20" fill="none" xmlns="http://www.w3.org/2000/svg">
<path fill-rule="evenodd" clip-rule="evenodd" d="M2.47125 4.23797C2.47125 4.23797 2.43648 3.32609 3.01524 2.14614C3.42351 1.31165 5.01285 0.850665 5.01285 0.850665C5.01285 0.850665 5.69255 0.677931 7.0587 1.99696C7.60172 2.49961 7.94705 3.17991 8.03227 3.91494C8.08162 4.58568 6.65154 6.01575 6.65154 6.01575C6.76222 6.83684 7.10505 7.60927 7.6397 8.24219C8.20164 8.8961 9.16959 9.91565 9.67769 10.3923C10.1129 10.8006 10.5985 11.3334 11.2446 11.7619C12.5154 12.6042 12.8205 12.5279 12.8205 12.5279C12.8205 12.5279 14.6308 11.0115 15.1725 11.0642C15.5842 11.1057 16.1674 11.3771 16.9133 12.0131C17.4674 12.4842 17.8218 12.8409 18.1 13.3164C18.199 13.4806 18.277 13.6566 18.3322 13.8402C18.3322 13.8402 18.4051 14.5928 17.2363 15.7907C16.0732 16.9808 14.4693 16.669 14.4693 16.669C14.4693 16.669 13.5473 16.5321 12.0387 15.8222C10.3684 15.0077 8.84657 13.9188 7.53649 12.6008C6.31392 11.3379 4.71113 9.4053 3.9316 8.06047C2.95017 6.37018 2.47125 4.23797 2.47125 4.23797Z" fill="#FFA11B"/>
</svg>
