<svg width="42" height="24" viewBox="0 0 42 24" fill="none" xmlns="http://www.w3.org/2000/svg">
<path d="M35.4828 3.63916H30.5948V0H7.3319V5.20538H0V6.72553H8.82543V1.52015H29.1013V19.5777H18.1487C17.6961 18.2418 16.4741 17.2284 14.9806 17.2284C13.4871 17.2284 12.2651 18.1958 11.8125 19.5777H8.82543V17.4587H7.3319V21.0979H11.6767C11.903 22.7562 13.306 24 14.9806 24C16.6552 24 18.0582 22.7562 18.2845 21.0979H31.9073C32.1336 22.7562 33.5366 24 35.2112 24C36.8858 24 38.2888 22.7562 38.5151 21.0979H42V11.1017C41.8642 6.58733 39.375 3.63916 35.4828 3.63916ZM14.9353 22.5259C13.9397 22.5259 13.125 21.6967 13.125 20.6833C13.125 19.6699 13.9397 18.8407 14.9353 18.8407C15.931 18.8407 16.7457 19.6699 16.7457 20.6833C16.7457 21.6967 15.931 22.5259 14.9353 22.5259ZM35.1207 22.5259C34.125 22.5259 33.3103 21.6967 33.3103 20.6833C33.3103 19.6699 34.125 18.8407 35.1207 18.8407C36.1164 18.8407 36.931 19.6699 36.931 20.6833C36.931 21.6967 36.1164 22.5259 35.1207 22.5259ZM40.3707 19.6238H38.2888C37.8362 18.2879 36.6142 17.2745 35.1207 17.2745C33.6724 17.2745 32.4052 18.2418 31.9526 19.6238H30.5496V5.15931H35.4375C38.4698 5.15931 40.3254 7.46258 40.3254 11.1478V19.6238H40.3707ZM1.13147 11.3321V9.8119H7.28663V8.24568H8.78017V11.3321H1.13147ZM2.21767 15.9386V14.4184H7.28663V12.8522H8.78017V15.9386H2.21767Z" fill="#FFA11B"/>
</svg>
