<svg width="42" height="35" viewBox="0 0 42 35" fill="none" xmlns="http://www.w3.org/2000/svg">
<path d="M16.8044 8.82061L33.385 3.08999L33.6949 3.75463L40.2488 17.9573L23.6652 23.6901L16.8044 8.82061ZM38.1471 17.1411L32.5145 4.93627L18.9085 9.63948L24.5416 21.8396L38.1471 17.1411Z" fill="#FFA11B"/>
<path d="M3.75935 3.95356L11.7884 7.08359C11.9845 7.15896 12.1437 7.30278 12.2262 7.47968L20.1894 24.7289C20.7533 24.5819 21.3516 24.525 21.9594 24.5871C22.4086 24.6329 22.8597 24.7391 23.2987 24.9115C24.2424 25.2774 24.9843 25.8898 25.472 26.6231L36.7993 22.7055C37.2104 22.5645 37.6807 22.7497 37.8496 23.1183C38.0185 23.487 37.8244 23.898 37.413 24.0413L26.0354 27.9731C26.1097 28.3369 26.1424 28.7085 26.1042 29.0825C26.0634 29.4827 25.9575 29.881 25.7712 30.2688C24.9824 31.9261 23.0781 32.8509 21.1416 32.6533C20.6898 32.6072 20.2359 32.5007 19.8023 32.3288C17.9022 31.5886 16.8188 29.875 16.9968 28.1578C17.0377 27.7576 17.1438 27.3569 17.3267 26.976C17.6424 26.3054 18.1462 25.7624 18.7528 25.3573L10.8656 8.26987L3.14252 5.25772C2.73485 5.09817 2.53901 4.67383 2.70873 4.31568C2.87599 3.95487 3.3463 3.79347 3.75935 3.95356ZM20.4167 31.022C20.7041 31.1356 20.9958 31.2063 21.2863 31.2359C22.5374 31.3588 23.7774 30.7657 24.2868 29.6889C24.4079 29.4341 24.4745 29.1809 24.501 28.9213C24.6145 27.8089 23.9102 26.6948 22.6841 26.2207L22.9927 25.5662L22.6792 26.2153C22.3999 26.1026 22.105 26.0364 21.8145 26.0068C20.5558 25.8783 19.3207 26.4767 18.814 27.5538C18.699 27.802 18.6261 28.0642 18.5998 28.3214C18.4865 29.4315 19.1884 30.5429 20.4167 31.022Z" fill="#FFA11B"/>
</svg>
