<svg width="33" height="38" viewBox="0 0 33 38" fill="none" xmlns="http://www.w3.org/2000/svg">
<path d="M4.91224 29.2284L3.82762 28.1387C3.60669 27.9168 3.57512 27.5671 3.75266 27.3085L4.32432 26.4761C4.14099 24.8922 4.74864 23.236 5.98108 21.9959L15.9613 11.9537L16.8712 12.8734L6.89099 22.9157C5.90025 23.9125 5.41804 25.2949 5.63253 26.5232C5.66192 26.6917 5.62424 26.8652 5.5277 27.0057L5.11844 27.6017L5.46055 27.9453L6.10862 27.5404C6.25677 27.4478 6.44445 27.4293 6.61257 27.4635C7.86233 27.7215 9.27441 27.242 10.2974 26.2127L20.2081 16.2404L21.118 17.1601L11.2073 27.1324C9.94051 28.4072 8.18568 29.0253 6.57658 28.7764L5.70604 29.3204C5.60129 29.3859 5.08261 29.5041 4.91224 29.2284Z" fill="#FFA11B"/>
<path d="M32.0319 0.979273C30.6072 -0.45235 28.1353 -0.29587 26.5215 1.32796L20.6357 7.2504L19.3927 6.00262C19.1413 5.75024 18.7347 5.75032 18.4834 6.00319L15.9614 8.54081C15.7122 8.79156 15.7124 9.21066 15.9619 9.46109L23.6054 17.1335C23.8539 17.3829 24.2665 17.3826 24.5148 17.1329L27.0367 14.5953C27.2859 14.3445 27.2857 13.9254 27.0362 13.675L25.8074 12.4416L31.6893 6.52322C33.1297 5.07381 33.5782 2.53286 32.0319 0.979273C32.6632 1.61356 30.6071 -0.452269 32.0319 0.979273ZM24.0591 15.756L17.3288 9.00018L18.9387 7.38024L25.6691 14.1361L24.0591 15.756ZM24.8942 11.5251L21.5487 8.16703L27.4313 2.24776C28.5437 1.12869 30.1998 0.972451 31.1227 1.89972C32.1636 2.9457 31.7151 4.66211 30.7793 5.60358L24.8942 11.5251Z" fill="#FFA11B"/>
<path d="M2.7186 38C1.21957 38 0 36.7683 0 35.2543C0 33.8985 1.88301 31.9089 2.26055 31.5238C2.50942 31.2701 2.92778 31.2701 3.17665 31.5238C3.55411 31.9089 5.43712 33.8985 5.43712 35.2543C5.43712 36.7683 4.21764 38 2.7186 38ZM2.71788 32.934C1.96683 33.7931 1.28825 34.798 1.28825 35.2543C1.28825 36.0518 1.92987 36.7007 2.7186 36.7007C3.50733 36.7007 4.14888 36.0519 4.14888 35.2543C4.14888 34.7607 3.40532 33.7227 2.71788 32.934Z" fill="#FFA11B"/>
</svg>
