<svg width="27" height="34" viewBox="0 0 27 34" fill="none" xmlns="http://www.w3.org/2000/svg">
<path d="M22.0627 7.40813H4.4581V3.6489H22.0627V7.40813ZM5.82131 6.08089H20.6999V4.97577H5.82131V6.08089Z" fill="#FFA11B"/>
<path d="M13.942 34H0V15.2145L6.41455 6.36219L7.40215 7.04097L7.8149 6.75748L13.942 15.2145V34ZM1.36246 32.6728H12.5792V15.6342L6.97101 7.89511L1.36246 15.6342V32.6728Z" fill="#FFA11B"/>
<path d="M27 34H13.7398V32.6728H25.6375V15.6342L19.4729 7.12682L20.5858 6.36219L27 15.2145V34Z" fill="#FFA11B"/>
<path d="M20.6706 4.5392L19.3904 4.08547L20.4204 1.32687H8.40026L7.19953 4.5392L5.91962 4.08547L7.44455 0H22.3663L20.6706 4.5392Z" fill="#FFA11B"/>
<path d="M5.86333 4.5392L4.16805 0H8.3496V1.32687H6.11361L7.14437 4.08547L5.86333 4.5392Z" fill="#FFA11B"/>
</svg>
