<svg width="170" height="112" viewBox="0 0 170 112" fill="none" xmlns="http://www.w3.org/2000/svg">
<g opacity="0.1">
<path d="M39.4607 0C17.6966 0 0 18.1378 0 40.4444C0 60.2622 13.872 76.9689 32.6917 80.2978C33.7237 94.5467 22.2498 106.556 22.1283 106.68C21.157 107.707 20.9445 109.231 21.6427 110.444C22.2194 111.44 23.2211 112 24.2835 112C24.5263 112 24.7995 111.969 25.0727 111.876C80.1659 96.1955 79.0124 43.2756 78.9214 40.3822C78.8607 18.1067 61.1944 0 39.4607 0Z" fill="#FF842A"/>
<path d="M169.984 40.3822C169.924 18.1067 152.258 0 130.524 0C108.76 0 91.0631 18.1378 91.0631 40.4444C91.0631 60.2622 104.935 76.9689 123.755 80.2978C124.787 94.5467 113.313 106.556 113.191 106.68C112.22 107.707 112.008 109.231 112.706 110.444C113.283 111.44 114.284 112 115.347 112C115.589 112 115.863 111.969 116.136 111.876C171.229 96.1955 170.076 43.2756 169.984 40.3822Z" fill="#FF842A"/>
</g>
</svg>
