<svg width="88" height="58" viewBox="0 0 88 58" fill="none" xmlns="http://www.w3.org/2000/svg">
<g opacity="0.1">
<path d="M20.4267 0C9.16059 0 0 9.39278 0 20.9444C0 31.2072 7.18077 39.8589 16.9227 41.5828C17.457 48.9617 11.5175 55.1806 11.4547 55.245C10.9519 55.7767 10.8419 56.5661 11.2033 57.1944C11.5018 57.71 12.0203 58 12.5703 58C12.696 58 12.8374 57.9839 12.9788 57.9356C41.4976 49.8156 40.9006 22.4106 40.8534 20.9122C40.822 9.37667 31.6771 0 20.4267 0Z" fill="#FF842A"/>
<path d="M87.992 20.9122C87.9605 9.37667 78.8157 0 67.5653 0C56.2991 0 47.1385 9.39278 47.1385 20.9444C47.1385 31.2072 54.3193 39.8589 64.0613 41.5828C64.5955 48.9617 58.6561 55.1806 58.5932 55.245C58.0904 55.7767 57.9804 56.5661 58.3418 57.1944C58.6404 57.71 59.1589 58 59.7088 58C59.8345 58 59.9759 57.9839 60.1174 57.9356C88.6362 49.8156 88.0391 22.4106 87.992 20.9122Z" fill="#FF842A"/>
</g>
</svg>
