<svg width="16" height="16" viewBox="0 0 16 16" fill="none" xmlns="http://www.w3.org/2000/svg">
<path fill-rule="evenodd" clip-rule="evenodd" d="M15.5615 15.5614C15.4224 15.7005 15.2574 15.8108 15.0757 15.886C14.8941 15.9613 14.6993 16 14.5027 16C14.3061 16 14.1114 15.9613 13.9297 15.886C13.748 15.8108 13.583 15.7005 13.4439 15.5614L10.8042 12.9215C9.6744 13.6481 8.35901 14.0334 7.01573 14.0313C3.14098 14.0313 0 10.8903 0 7.01565C0 3.14101 3.14098 0 7.01573 0C10.8905 0 14.0315 3.14101 14.0315 7.01565C14.0336 8.35892 13.6482 9.6743 12.9214 10.804L15.5615 13.444C15.8423 13.7248 16 14.1056 16 14.5027C16 14.8998 15.8423 15.2806 15.5615 15.5614ZM7.01573 2.00001C6.02372 2.00001 5.05399 2.29417 4.22916 2.8453C3.40433 3.39642 2.76145 4.17976 2.38183 5.09625C2.0022 6.01273 1.90287 7.02121 2.09641 7.99415C2.28994 8.96709 2.76763 9.86079 3.46909 10.5622C4.17055 11.2637 5.06426 11.7414 6.03721 11.9349C7.01016 12.1284 8.01865 12.0291 8.93515 11.6495C9.85165 11.2699 10.635 10.627 11.1861 9.80219C11.7373 8.97737 12.0314 8.00765 12.0314 7.01565C12.0314 5.68542 11.503 4.40967 10.5624 3.46905C9.62174 2.52844 8.34597 2.00001 7.01573 2.00001Z" fill="#939393"/>
</svg>
