<svg width="26" height="26" viewBox="0 0 26 26" fill="none" xmlns="http://www.w3.org/2000/svg">
<path fill-rule="evenodd" clip-rule="evenodd" d="M23.0444 15.053C23.0444 15.053 23.0267 15.053 23.0444 15.053C23.0091 14.9999 22.9914 14.9822 22.9561 14.9468C22.9561 14.9468 22.9561 14.9291 22.9384 14.9291L19.352 12.9112L22.9384 10.8755C22.9384 10.8755 22.9384 10.8578 22.9561 10.8578C22.9914 10.8401 23.0267 10.8047 23.0444 10.7693L25.7474 5.35275C25.7827 5.26425 25.7827 5.17574 25.7297 5.08723C25.6767 5.01643 25.5884 4.96332 25.5001 4.96332L20.6064 5.17574L20.8184 0.272491C20.8184 0.183985 20.7831 0.0954784 20.6947 0.0423747C20.6241 -0.0107291 20.5181 -0.0107292 20.4297 0.0246733L15.0237 2.73297C14.9884 2.75067 14.953 2.78607 14.9354 2.82147C14.9354 2.82147 14.9177 2.82147 14.9177 2.83917L12.886 6.43253L10.8543 2.83917C10.8543 2.83917 10.8367 2.83917 10.8367 2.82147C10.819 2.78607 10.7837 2.75067 10.7483 2.73297L5.34231 0.0246733C5.25398 -0.0107292 5.16565 -0.0107291 5.07731 0.0423747C5.00665 0.0954784 4.95364 0.183985 4.95364 0.272491L5.16565 5.17574L0.271955 4.96332C0.183621 4.96332 0.0952898 4.99873 0.0422895 5.08723C-0.0107107 5.15804 -0.0107064 5.26425 0.0246271 5.35275L2.72764 10.7693C2.7453 10.8047 2.78064 10.8401 2.81597 10.8578C2.81597 10.8578 2.81597 10.8578 2.83363 10.8755L6.43765 12.9112L2.85131 14.9468C2.85131 14.9468 2.8513 14.9468 2.83363 14.9645C2.7983 14.9822 2.76297 15.0176 2.7453 15.053L0.0422895 20.4696C0.00695604 20.5581 0.00695173 20.6466 0.059952 20.7351C0.112952 20.8059 0.201295 20.8414 0.289628 20.8591L5.18331 20.6466L4.97132 25.4791C4.95365 25.5145 4.95364 25.5322 4.95364 25.5676C4.95364 25.7092 5.07731 25.8331 5.21865 25.8331H5.23632C5.27165 25.8331 5.32464 25.8154 5.35998 25.7977L10.766 23.0894C10.8013 23.0717 10.8367 23.0363 10.8543 23.0009C10.8543 23.0009 10.872 23.0009 10.872 22.9832L12.9037 19.3898L14.9354 22.9832C14.9354 22.9832 14.953 22.9832 14.953 23.0009C14.9707 23.0363 15.006 23.0717 15.0414 23.0894L20.4474 25.7977C20.5357 25.8331 20.6241 25.8331 20.7124 25.78C20.7831 25.7269 20.8361 25.6384 20.8361 25.5499L20.6241 20.6466L25.5177 20.8591C25.6061 20.8591 25.6944 20.8237 25.7474 20.7351C25.8004 20.6643 25.8004 20.5581 25.7651 20.4696L23.0444 15.053ZM20.9951 14.4512L15.907 13.1767H18.7514L20.9951 14.4512ZM18.7514 12.6457H15.218L21.1187 11.3004L18.7514 12.6457ZM25.0761 5.51206L22.8147 10.0613L20.73 5.70678L25.0761 5.51206ZM22.4261 10.4684L13.7164 12.451L20.2531 5.90149L22.4261 10.4684ZM20.2707 0.697321L20.0764 5.05183L15.7304 2.96308L20.2707 0.697321ZM15.324 3.35251L19.882 5.52976L13.31 12.1146L15.324 3.35251ZM13.257 6.85736L14.476 4.6801L13.257 10.0082V6.85736ZM13.2394 18.9296C13.257 18.8942 13.257 18.8765 13.257 18.8411V15.4779L14.5114 21.1954L13.2394 18.9296ZM13.4337 13.814L19.882 20.2749L15.324 22.4699L13.4337 13.814ZM15.748 22.8416L20.094 20.7528L20.2707 25.1251L15.748 22.8416ZM20.2531 19.9209L13.522 13.1767H13.787L22.4261 15.354L20.2531 19.9209ZM20.73 20.1156L22.8147 15.7611L25.0761 20.2926L20.73 20.1156Z" fill="#FF842A"/>
</svg>
