<svg width="30" height="42" viewBox="0 0 30 42" fill="none" xmlns="http://www.w3.org/2000/svg">
<path d="M29.2105 10.08C24.4224 10.08 20.5263 5.9346 20.5263 0.84C20.5263 0.37632 20.1734 0 19.7368 0H10.2632C9.82737 0 9.47368 0.37632 9.47368 0.84C9.47368 5.9346 5.57763 10.08 0.789474 10.08C0.353684 10.08 0 10.4563 0 10.92V21C0 30.5978 13.9453 41.3876 14.5389 41.8421C14.6763 41.9479 14.8382 42 15 42C15.1618 42 15.3237 41.9479 15.4611 41.8421C16.0547 41.3876 30 30.5978 30 21V10.92C30 10.4563 29.6471 10.08 29.2105 10.08ZM28.4211 21C28.4211 28.8229 17.4095 38.1629 15 40.1117C12.5897 38.1629 1.57895 28.828 1.57895 21V11.7281C6.61026 11.319 10.6382 7.03332 11.0226 1.68H18.9774C19.3618 7.03332 23.3897 11.319 28.4211 11.7281V21Z" fill="#FFB93E"/>
<path d="M20.7576 17.0461L13.4211 24.8522L10.8213 22.0861C10.5126 21.7577 10.0137 21.7577 9.705 22.0861C9.39632 22.4146 9.39632 22.9454 9.705 23.2739L12.8629 26.6339C13.0168 26.7977 13.2189 26.88 13.4211 26.88C13.6232 26.88 13.8253 26.7977 13.9792 26.6339L21.8739 18.2339C22.1826 17.9054 22.1826 17.3746 21.8739 17.0461C21.5653 16.7177 21.0663 16.7177 20.7576 17.0461Z" fill="#FFB93E"/>
</svg>
