<svg width="15" height="19" viewBox="0 0 15 19" fill="none" xmlns="http://www.w3.org/2000/svg">
<path d="M12.2571 4.13983H2.47672V2.03909H12.2571V4.13983ZM3.23406 3.39814H11.4999V2.78058H3.23406V3.39814Z" fill="#FFA11B"/>
<path d="M7.74557 19H0V8.5022L3.56364 3.55534L4.11231 3.93466L4.34161 3.77624L7.74557 8.5022V19ZM0.756921 18.2583H6.98844V8.73677L3.87278 4.41197L0.756921 8.73677V18.2583Z" fill="#FFA11B"/>
<path d="M15 19H7.63321V18.2583H14.2431V8.73677L10.8183 3.98264L11.4366 3.55534L15 8.5022V19Z" fill="#FFA11B"/>
<path d="M11.4837 2.53661L10.7724 2.28305L11.3446 0.741487H4.66681L3.99974 2.53661L3.28868 2.28305L4.13586 0H12.4257L11.4837 2.53661Z" fill="#FFA11B"/>
<path d="M3.25741 2.53661L2.31558 0H4.63867V0.741487H3.39645L3.96909 2.28305L3.25741 2.53661Z" fill="#FFA11B"/>
</svg>
