<svg width="18" height="21" viewBox="0 0 18 21" fill="none" xmlns="http://www.w3.org/2000/svg">
<path d="M2.67941 16.1526L2.08779 15.5503C1.96728 15.4277 1.95007 15.2344 2.04691 15.0916L2.35872 14.6315C2.25872 13.7562 2.59016 12.841 3.26241 12.1556L8.70616 6.606L9.20247 7.11427L3.75872 12.6639C3.21832 13.2148 2.95529 13.9788 3.07229 14.6576C3.08832 14.7507 3.06777 14.8465 3.01511 14.9242L2.79188 15.2536L2.97848 15.4435L3.33198 15.2197C3.41278 15.1685 3.51516 15.1583 3.60685 15.1772C4.28854 15.3198 5.05877 15.0548 5.61674 14.486L11.0226 8.97495L11.5189 9.48321L6.11305 14.9942C5.4221 15.6987 4.46491 16.0403 3.58722 15.9027L3.11239 16.2034C3.05525 16.2396 2.77233 16.3049 2.67941 16.1526Z" fill="#FFA11B"/>
<path d="M17.472 0.541177C16.6948 -0.249983 15.3465 -0.163507 14.4663 0.733874L11.2558 4.0068L10.5778 3.31724C10.4407 3.17776 10.2189 3.17781 10.0818 3.31755L8.7062 4.71992C8.57028 4.8585 8.57041 5.0901 8.70651 5.2285L12.8757 9.46849C13.0112 9.60635 13.2363 9.60617 13.3717 9.46818L14.7473 8.06581C14.8832 7.92724 14.8831 7.69563 14.747 7.55724L14.0768 6.87562L17.2851 3.60494C18.0708 2.80395 18.3154 1.39974 17.472 0.541177C16.6948 -0.249938 17.8163 0.891702 17.472 0.541177ZM13.1232 8.70727L9.45205 4.97378L10.3302 4.07856L14.0013 7.81204L13.1232 8.70727ZM13.5787 6.36915L11.7539 4.51336L14.9626 1.24218C15.5693 0.623748 16.4726 0.537407 16.976 1.04984C17.5438 1.62789 17.2991 2.57643 16.7887 3.09672L13.5787 6.36915Z" fill="#FFA11B"/>
<path d="M1.48287 21C0.665218 21 0 20.3193 0 19.4827C0 18.7334 1.0271 17.6339 1.23303 17.4211C1.36878 17.2808 1.59697 17.2808 1.73272 17.4211C1.93861 17.6339 2.9657 18.7334 2.9657 19.4827C2.9657 20.3193 2.30053 21 1.48287 21ZM1.48248 18.2004C1.07282 18.6751 0.70268 19.2305 0.70268 19.4827C0.70268 19.9234 1.05266 20.282 1.48287 20.282C1.91309 20.282 2.26302 19.9234 2.26302 19.4827C2.26302 19.2099 1.85745 18.6362 1.48248 18.2004Z" fill="#FFA11B"/>
</svg>
