<svg width="23" height="18" viewBox="0 0 23 18" fill="none" xmlns="http://www.w3.org/2000/svg">
<path d="M8.61254 4.3362L18.0534 0L18.2764 0.369786L23 8.27589L13.5575 12.6135L8.61254 4.3362ZM21.7104 7.92439L17.6508 1.13045L9.90372 4.68911L13.9633 11.4802L21.7104 7.92439Z" fill="#FFA11B"/>
<path d="M0.620037 2.27074L5.54738 3.62053C5.66768 3.65287 5.77033 3.72739 5.82968 3.82581L11.5686 13.4276C11.8926 13.3081 12.2423 13.2392 12.6048 13.2392C12.8726 13.2392 13.1453 13.2743 13.4148 13.3489C13.9938 13.5063 14.4686 13.8199 14.8006 14.2192L21.2501 11.2553C21.4843 11.1484 21.773 11.2286 21.8949 11.4338C22.0168 11.6391 21.927 11.8908 21.6928 11.9991L15.2144 14.9742C15.2802 15.1823 15.3219 15.3974 15.3219 15.6182C15.3219 15.8544 15.2834 16.0934 15.1968 16.331C14.8311 17.3462 13.7628 18 12.608 18C12.3385 18 12.0642 17.9649 11.798 17.8903C10.6319 17.5712 9.88929 16.6347 9.89089 15.621C9.89089 15.3848 9.92938 15.1444 10.0144 14.911C10.1604 14.5004 10.425 14.1531 10.7586 13.8803L5.07422 4.36854L0.334534 3.06936C0.0843182 3.00047 -0.0568295 2.76426 0.0217628 2.54492C0.098753 2.32417 0.366613 2.20184 0.620037 2.27074ZM12.0819 17.0903C12.2583 17.1395 12.4348 17.1634 12.608 17.1634C13.3538 17.1606 14.0499 16.7402 14.2857 16.0808C14.3419 15.9247 14.3659 15.7728 14.3659 15.6196C14.3659 14.963 13.8831 14.3542 13.1309 14.1503L13.2736 13.7496L13.1277 14.1475C12.956 14.0983 12.778 14.0772 12.6048 14.0772C11.8541 14.0772 11.1612 14.5004 10.927 15.1598C10.8741 15.3117 10.8468 15.4691 10.8468 15.621C10.8468 16.2762 11.328 16.8836 12.0819 17.0903Z" fill="#FFA11B"/>
</svg>
