<svg width="26" height="15" viewBox="0 0 26 15" fill="none" xmlns="http://www.w3.org/2000/svg">
<path d="M21.9655 2.27447H18.9397V0H4.53879V3.25336H0V4.20346H5.46336V0.950097H18.0151V12.2361H11.2349C10.9547 11.4012 10.1983 10.7678 9.27371 10.7678C8.34914 10.7678 7.59267 11.3724 7.3125 12.2361H5.46336V10.9117H4.53879V13.1862H7.22845C7.36854 14.2227 8.23707 15 9.27371 15C10.3103 15 11.1789 14.2227 11.319 13.1862H19.7522C19.8922 14.2227 20.7608 15 21.7974 15C22.8341 15 23.7026 14.2227 23.8427 13.1862H26V6.93858C25.9159 4.11708 24.375 2.27447 21.9655 2.27447ZM9.24569 14.0787C8.62931 14.0787 8.125 13.5605 8.125 12.9271C8.125 12.2937 8.62931 11.7754 9.24569 11.7754C9.86207 11.7754 10.3664 12.2937 10.3664 12.9271C10.3664 13.5605 9.86207 14.0787 9.24569 14.0787ZM21.7414 14.0787C21.125 14.0787 20.6207 13.5605 20.6207 12.9271C20.6207 12.2937 21.125 11.7754 21.7414 11.7754C22.3578 11.7754 22.8621 12.2937 22.8621 12.9271C22.8621 13.5605 22.3578 14.0787 21.7414 14.0787ZM24.9914 12.2649H23.7026C23.4224 11.4299 22.6659 10.7965 21.7414 10.7965C20.8448 10.7965 20.0603 11.4012 19.7802 12.2649H18.9116V3.22457H21.9375C23.8147 3.22457 24.9634 4.66411 24.9634 6.96737V12.2649H24.9914ZM0.700431 7.08253V6.13244H4.51077V5.15355H5.43534V7.08253H0.700431ZM1.37284 9.96161V9.01152H4.51077V8.03263H5.43534V9.96161H1.37284Z" fill="#FFA11B"/>
</svg>
