<svg width="16" height="16" viewBox="0 0 16 16" fill="none" xmlns="http://www.w3.org/2000/svg">
<path fill-rule="evenodd" clip-rule="evenodd" d="M8 0C9.58225 0 11.129 0.469192 12.4446 1.34824C13.7602 2.22729 14.7855 3.47672 15.391 4.93853C15.9965 6.40034 16.155 8.00887 15.8463 9.56072C15.5376 11.1126 14.7757 12.538 13.6569 13.6569C12.538 14.7757 11.1126 15.5376 9.56072 15.8463C8.00887 16.155 6.40034 15.9965 4.93853 15.391C3.47672 14.7855 2.22729 13.7602 1.34824 12.4446C0.469192 11.129 0 9.58225 0 8C0 5.87827 0.842855 3.84344 2.34315 2.34315C3.84344 0.842855 5.87827 0 8 0V0ZM12.3776 10.8384C12.2821 11.0038 12.1249 11.1244 11.9404 11.1738C11.756 11.2233 11.5594 11.1974 11.3941 11.1019L8.06848 9.18192C8.0351 9.16182 8.00342 9.13902 7.97376 9.11376C7.80439 9.08768 7.64992 9.00191 7.53825 8.87193C7.42657 8.74195 7.36506 8.57632 7.3648 8.40496V4.56496C7.3648 4.374 7.44066 4.19087 7.57568 4.05584C7.71071 3.92082 7.89384 3.84496 8.0848 3.84496C8.27575 3.84496 8.45889 3.92082 8.59391 4.05584C8.72894 4.19087 8.8048 4.374 8.8048 4.56496V7.94432L12.1141 9.85488C12.2794 9.95036 12.4001 10.1076 12.4495 10.2921C12.4989 10.4765 12.4731 10.673 12.3776 10.8384Z" fill="#FFA11B"/>
</svg>
