<svg width="15" height="18" viewBox="0 0 15 18" fill="none" xmlns="http://www.w3.org/2000/svg">
<path fill-rule="evenodd" clip-rule="evenodd" d="M13.5574 18H1.44261C1.05873 17.9987 0.691107 17.8493 0.420585 17.5847C0.150062 17.3201 -0.00122257 16.9619 7.4421e-06 16.589V14.8957C7.4421e-06 12.9769 1.67779 11.3775 3.59816 11.0197C3.5957 11.0278 3.5957 11.0364 3.59816 11.0445C3.59816 11.0418 4.97593 15.3191 4.97593 15.3191C4.97593 15.3191 5.15742 16.1657 5.91297 16.1657C6.6389 16.1657 6.56295 15.3191 6.56295 15.3191V11.7915H6.57408C6.60709 11.5759 6.71875 11.3789 6.8887 11.2366C7.05865 11.0942 7.27559 11.0159 7.5 11.0159C7.72441 11.0159 7.94135 11.0942 8.1113 11.2366C8.28125 11.3789 8.39291 11.5759 8.42593 11.7915H8.43705V15.3194C8.43705 15.3194 8.37777 16.1661 9.15925 16.1661C9.8574 16.1661 9.95185 15.3899 9.95185 15.3899C9.95185 15.3899 11.3926 11.039 11.3963 11.0379C11.4093 11.0346 11.3982 11.0199 11.3963 11.019C13.3185 11.3745 15 12.9753 15 14.8961V16.5894C15.0011 16.9622 14.8498 17.3203 14.5793 17.5848C14.3088 17.8493 13.9412 17.9987 13.5574 18ZM7.53518 9.39283C5.12592 9.39283 3.17223 6.63525 3.17223 4.27778C3.16692 3.71788 3.27585 3.16251 3.49273 2.64374C3.70961 2.12497 4.03012 1.65308 4.43579 1.25533C4.84146 0.857589 5.32424 0.541871 5.85621 0.326406C6.38819 0.110942 6.95882 0 7.53518 0C8.11153 0 8.68218 0.110942 9.21416 0.326406C9.74614 0.541871 10.2289 0.857589 10.6346 1.25533C11.0402 1.65308 11.3608 2.12497 11.5776 2.64374C11.7945 3.16251 11.9035 3.71788 11.8981 4.27778C11.8981 6.63525 9.94628 9.39283 7.53518 9.39283Z" fill="#6E9E48"/>
</svg>
