<svg width="13" height="21" viewBox="0 0 13 21" fill="none" xmlns="http://www.w3.org/2000/svg">
<path fill-rule="evenodd" clip-rule="evenodd" d="M9.14789 8.04247C9.10999 8.03079 9.07209 8.023 9.03419 8.023H8.9136C9.85423 7.20122 10.4641 5.91988 10.4641 4.47886C10.4641 2.00964 8.68619 0 6.50172 0C5.06149 0 3.80042 0.876298 3.10787 2.17711L2.74954 3.04562C2.61516 3.4974 2.53591 3.97645 2.53591 4.47886C2.53591 5.92378 3.14577 7.20512 4.0864 8.023H3.96236C3.92446 8.023 3.88656 8.03079 3.84866 8.04247C1.044 8.94993 0 10.4688 0 13.6547V21H12.5865C12.8139 21 13 20.7897 13 20.5326V13.6547C13 10.4688 11.956 8.94993 9.14789 8.04247ZM7.13915 11.2556H5.8643L5.40604 16.9184L6.49828 18.153L7.59051 16.9184L7.13915 11.2556ZM5.80917 10.3208H7.19083L7.49404 8.96161H5.50941L5.80917 10.3208ZM9.63716 4.47886C9.63716 2.52374 8.23138 0.934718 6.50172 0.934718C4.76862 0.934718 3.36284 2.52374 3.36284 4.47886C3.36284 6.43398 4.77207 8.023 6.50172 8.023C8.23138 8.023 9.63716 6.43398 9.63716 4.47886ZM10.9706 20.0653H12.1834V13.6547C12.1834 10.905 11.4047 9.75612 8.98595 8.96161H8.35197L7.93851 10.8233L8.43811 17.0508C8.44845 17.191 8.40366 17.3273 8.31752 17.4247L6.79459 19.1461C6.7119 19.2357 6.60853 19.2825 6.50172 19.2825C6.39491 19.2825 6.2881 19.2357 6.20885 19.1461L4.68593 17.4247C4.59979 17.3273 4.555 17.191 4.56533 17.0508L5.06838 10.8233L4.65492 8.96161H4.02094C1.60562 9.75612 0.826928 10.905 0.826928 13.6547V20.0653H2.02942V16.5211C2.02942 16.2641 2.21548 16.0538 2.44288 16.0538C2.67029 16.0538 2.85635 16.2641 2.85635 16.5211V20.0653H10.1437V16.5211C10.1437 16.2641 10.3297 16.0538 10.5571 16.0538C10.7845 16.0538 10.9706 16.2641 10.9706 16.5211V20.0653Z" fill="#FF842A"/>
</svg>
