<svg width="27" height="39" viewBox="0 0 27 39" fill="none" xmlns="http://www.w3.org/2000/svg">
<path fill-rule="evenodd" clip-rule="evenodd" d="M18.9995 14.936C18.9208 14.9143 18.842 14.8999 18.7633 14.8999H18.5129C20.4665 13.3737 21.7331 10.9941 21.7331 8.31788C21.7331 3.7322 18.0406 0 13.5036 0C10.5123 0 7.89319 1.62741 6.45481 4.04321L5.71057 5.65616C5.43149 6.49518 5.26689 7.38483 5.26689 8.31788C5.26689 11.0013 6.53353 13.3809 8.48714 14.8999H8.22953C8.15081 14.8999 8.07209 14.9143 7.99337 14.936C2.1683 16.6213 0 19.4421 0 25.3587V39H26.1413C26.6136 39 27 38.6094 27 38.132V25.3587C27 19.4421 24.8317 16.6213 18.9995 14.936ZM14.8275 20.9032H12.1797L11.2279 31.4199L13.4964 33.7127L15.7649 31.4199L14.8275 20.9032ZM12.0652 19.1673H14.9348L15.5645 16.643H11.4426L12.0652 19.1673ZM20.0156 8.31788C20.0156 4.68694 17.0959 1.7359 13.5036 1.7359C9.90406 1.7359 6.98436 4.68694 6.98436 8.31788C6.98436 11.9488 9.91121 14.8999 13.5036 14.8999C17.0959 14.8999 20.0156 11.9488 20.0156 8.31788ZM22.785 37.2641H25.304V25.3587C25.304 20.2522 23.6867 18.1185 18.6631 16.643H17.3464L16.4877 20.1003L17.5253 31.6658C17.5468 31.9262 17.4537 32.1793 17.2748 32.3602L14.1118 35.5571C13.9401 35.7235 13.7254 35.8103 13.5036 35.8103C13.2817 35.8103 13.0599 35.7235 12.8953 35.5571L9.73231 32.3602C9.55341 32.1793 9.46038 31.9262 9.48184 31.6658L10.5266 20.1003L9.6679 16.643H8.35118C3.33475 18.1185 1.71747 20.2522 1.71747 25.3587V37.2641H4.21495V30.6821C4.21495 30.2047 4.60138 29.8142 5.07368 29.8142C5.54598 29.8142 5.93241 30.2047 5.93241 30.6821V37.2641H21.0676V30.6821C21.0676 30.2047 21.454 29.8142 21.9263 29.8142C22.3986 29.8142 22.785 30.2047 22.785 30.6821V37.2641Z" fill="#FF842A"/>
</svg>
