<svg width="23" height="33" viewBox="0 0 23 33" fill="none" xmlns="http://www.w3.org/2000/svg">
<path fill-rule="evenodd" clip-rule="evenodd" d="M16.1847 12.6382C16.1177 12.6198 16.0506 12.6076 15.9836 12.6076H15.7702C17.4344 11.3162 18.5134 9.30267 18.5134 7.0382C18.5134 3.15801 15.3679 0 11.503 0C8.95494 0 6.72383 1.37704 5.49854 3.42118L4.86456 4.78598C4.62682 5.49592 4.48661 6.2487 4.48661 7.0382C4.48661 9.30879 5.5656 11.3223 7.22979 12.6076H7.01034C6.94328 12.6076 6.87623 12.6198 6.80917 12.6382C1.84707 14.0642 0 16.451 0 21.4573V33H22.2685C22.6708 33 23 32.6695 23 32.2656V21.4573C23 16.451 21.1529 14.0642 16.1847 12.6382ZM12.6308 17.6873H10.3753L9.56454 26.5861L11.497 28.5261L13.4294 26.5861L12.6308 17.6873ZM10.2778 16.2185H12.7222L13.2587 14.0825H9.74741L10.2778 16.2185ZM17.0504 7.0382C17.0504 3.96588 14.5632 1.46884 11.503 1.46884C8.43679 1.46884 5.94964 3.96588 5.94964 7.0382C5.94964 10.1105 8.44288 12.6076 11.503 12.6076C14.5632 12.6076 17.0504 10.1105 17.0504 7.0382ZM19.4095 31.5312H21.5553V21.4573C21.5553 17.1365 20.1776 15.331 15.8982 14.0825H14.7766L14.0451 17.008L14.929 26.7941C14.9473 27.0145 14.868 27.2287 14.7156 27.3817L12.0212 30.0868C11.8749 30.2276 11.692 30.301 11.503 30.301C11.3141 30.301 11.1251 30.2276 10.9849 30.0868L8.29049 27.3817C8.13809 27.2287 8.05884 27.0145 8.07713 26.7941L8.96713 17.008L8.23562 14.0825H7.11397C2.84071 15.331 1.46303 17.1365 1.46303 21.4573V31.5312H3.59051V25.9618C3.59051 25.5579 3.91969 25.2274 4.32202 25.2274C4.72436 25.2274 5.05354 25.5579 5.05354 25.9618V31.5312H17.9465V25.9618C17.9465 25.5579 18.2756 25.2274 18.678 25.2274C19.0803 25.2274 19.4095 25.5579 19.4095 25.9618V31.5312Z" fill="#FF842A"/>
</svg>
