<svg width="36" height="31" viewBox="0 0 36 31" fill="none" xmlns="http://www.w3.org/2000/svg">
<path fill-rule="evenodd" clip-rule="evenodd" d="M25.8113 6.34091H32.6038C34.4774 6.34091 36 7.92027 36 9.86364V27.4773C36 29.4206 34.4774 31 32.6038 31H3.39623C1.52264 31 0 29.4206 0 27.4773V9.86364C0 7.92027 1.52264 6.34091 3.39623 6.34091H10.1887V3.52273C10.1887 1.57936 11.7113 0 13.5849 0H22.4151C24.2887 0 25.8113 1.57936 25.8113 3.52273V6.34091ZM32.6038 7.75H3.39623C2.26981 7.75 1.35849 8.69526 1.35849 9.86364V15.5H34.6415V9.86364C34.6415 8.69526 33.7302 7.75 32.6038 7.75ZM29.2075 16.9091H28.5283V18.3182H29.2075V16.9091ZM7.4717 16.9091H6.79245V18.3182H7.4717V16.9091ZM3.39623 29.5909H32.6038C33.7302 29.5909 34.6415 28.6456 34.6415 27.4773V16.9091H30.566V19.0227C30.566 19.4102 30.2604 19.7273 29.8868 19.7273H27.8491C27.4755 19.7273 27.1698 19.4102 27.1698 19.0227V16.9091H8.83019V19.0227C8.83019 19.4102 8.52453 19.7273 8.15094 19.7273H6.11321C5.73962 19.7273 5.43396 19.4102 5.43396 19.0227V16.9091H1.35849V27.4773C1.35849 28.6456 2.26981 29.5909 3.39623 29.5909ZM13.5849 1.40909C12.4585 1.40909 11.5472 2.35436 11.5472 3.52273V6.34091H24.4528V3.52273C24.4528 2.35436 23.5415 1.40909 22.4151 1.40909H13.5849Z" fill="#FF842A"/>
</svg>
