<svg width="83" height="112" viewBox="0 0 83 112" fill="none" xmlns="http://www.w3.org/2000/svg">
<path d="M81.9893 74.3569C81.7367 64.5423 73.5251 56.5913 63.4186 56.5913H52.554C42.5738 56.5913 34.3623 64.4181 33.9833 74.3569L32.9726 106.658C32.9726 109.515 35.3729 112 38.4049 112H77.5677C80.4734 112 83 109.64 83 106.658L81.9893 74.3569Z" fill="#FF842A"/>
<path d="M65.0609 49.5099H51.0381V54.7278H65.0609V49.5099Z" fill="#FF842A"/>
<path d="M64.9346 45.7829C64.9346 44.789 64.1766 44.0436 63.1659 44.0436H52.8067C51.796 44.0436 51.0381 44.789 51.0381 45.7829V48.0191H65.0609V45.7829H64.9346Z" fill="#FF842A"/>
<path d="M77.4414 7.14587C78.3257 2.67342 72.5145 0.312957 67.8402 5.03388C67.8402 5.03388 70.6195 7.76704 71.1248 11.6183C71.2511 11.7426 76.9361 10.0033 77.4414 7.14587Z" fill="#FF842A"/>
<path d="M8.59056 48.2676C8.59056 48.2676 10.1065 40.6893 13.6438 37.3349C15.7915 35.3472 26.4033 30.8747 36.1309 27.0234C37.3942 26.5265 38.6575 26.0296 39.7945 25.5326C43.7108 23.9176 47.1218 22.551 49.6484 21.5571C51.796 20.6875 52.6804 18.2028 51.417 16.3392C51.417 16.3392 51.417 16.3392 51.417 16.215C50.6591 15.0969 49.5221 14.4757 48.2588 14.4757C47.7534 14.4757 47.1218 14.6 46.6164 14.8484C44.2161 15.9665 40.1735 17.8301 35.8782 19.8178H35.7519C26.9087 23.9176 16.1705 28.8869 12.2542 30.9989C3.53729 35.3472 4.80061 48.2676 4.80061 48.2676H8.59056Z" fill="#FF842A"/>
<path d="M8.7169 55.4732C8.3379 55.1005 7.57991 53.8581 7.32724 53.4854L7.07458 53.1127C6.94825 52.8643 6.56925 52.8643 6.44292 53.1127L6.31659 53.4854C6.06393 53.9824 5.30594 55.1005 4.92694 55.4732C2.02131 58.0821 0 59.9456 0 63.7969C0 69.139 4.16895 72.7418 8.84323 71.3752C11.7489 70.5056 13.7702 67.3997 13.7702 63.6727C13.6438 60.0699 11.8752 58.4548 8.7169 55.4732Z" fill="#FF842A"/>
<path d="M37.2679 16.7119C37.1416 12.6122 38.6575 9.38209 41.5632 8.26398C45.8584 6.5247 51.6697 10.6244 54.449 17.3331C57.2283 24.0418 55.965 30.8747 51.6697 32.614C48.2588 33.9806 44.0898 31.7444 41.0578 27.5204C39.9209 28.0173 38.6575 28.5142 37.2679 29.0112C41.4368 35.4714 48.1324 38.95 53.4384 36.838C54.3227 36.4653 55.0807 35.9683 55.7123 35.4714L67.5875 26.1538C69.9878 24.2903 71.3775 21.4329 71.3775 18.327C71.2511 9.63056 66.4505 4.53694 62.6606 1.80377C60.2603 0.188722 57.3546 -0.432452 54.449 0.312956L42.3212 3.29459C41.5632 3.41883 40.6788 3.54306 39.9209 3.91577C35.1202 5.90352 32.7199 11.7426 33.4779 18.4512C34.6149 17.8301 36.0046 17.2089 37.2679 16.7119Z" fill="#FF842A"/>
</svg>
