<svg width="21" height="12" viewBox="0 0 21 12" fill="none" xmlns="http://www.w3.org/2000/svg">
<path fill-rule="evenodd" clip-rule="evenodd" d="M16.7001 11.6961H16.5542C15.5593 11.5321 14.944 10.8282 14.3661 10.1722C14.0348 9.80342 13.5015 8.85388 12.9073 8.95309C12.0624 9.09237 12.5338 10.6096 12.178 11.2389C11.8959 11.7418 10.6768 11.6351 9.84399 11.5437C7.20367 11.2606 5.77148 9.87992 4.59253 8.34353C3.32634 6.70429 2.41478 4.90671 1.52917 3.00993C1.23743 2.38834 0.799805 1.7832 0.799805 1.02888C1.22911 0.677162 1.98999 0.724098 2.69617 0.724098C3.29017 0.724098 4.15491 0.652476 4.59253 0.876487C4.85175 1.0115 5.11199 1.79356 5.3219 2.24799C5.73151 3.15618 6.21979 4.02333 6.78064 4.83859C7.03563 5.20433 7.49382 5.8468 7.94763 5.75293C8.39357 5.66302 8.36614 4.63089 8.38525 3.92426C8.40845 3.12072 8.46855 2.06664 8.23938 1.63843C8.02669 1.23704 7.61343 1.26904 7.21826 1.02888C7.5456 0.358365 8.45819 0.266932 9.55225 0.266932C10.4695 0.266932 11.6698 0.114543 12.0321 0.724098C12.392 1.3527 12.2053 2.62362 12.178 3.46709C12.1507 4.41434 11.9721 5.31359 12.6156 5.75293C13.1133 5.69898 13.3507 5.21956 13.6367 4.83859C14.2705 4.00198 14.7521 3.32233 15.2413 2.24799C15.4403 1.79951 15.6082 1.01867 15.9707 0.876487C16.5241 0.668019 17.3494 0.724098 18.1588 0.724098C18.8268 0.724098 19.9892 0.566833 20.201 1.02888C20.3727 1.39781 19.9239 2.43847 19.7634 2.70515C19.1475 3.71976 18.5293 4.41358 17.8671 5.29576C17.5998 5.65235 17.1021 6.10525 17.1377 6.66726C17.161 7.10096 17.5386 7.43012 17.8671 7.73398C18.5039 8.3406 19.0896 9.0034 19.6176 9.71503C19.834 9.99512 20.3948 10.5708 20.3469 10.9341C20.212 12.0688 16.7018 11.6853 16.7001 11.6961Z" fill="#202323"/>
</svg>
